<?xml version="1.0" encoding="iso-8859-1"?>
<!-- Generator: Adobe Illustrator 18.0.0, SVG Export Plug-In . SVG Version: 6.00 Build 0)  -->
<!DOCTYPE svg PUBLIC "-//W3C//DTD SVG 1.0//EN" "http://www.w3.org/TR/2001/REC-SVG-20010904/DTD/svg10.dtd">
<svg version="1.0" id="Layer_1" xmlns="http://www.w3.org/2000/svg" xmlns:xlink="http://www.w3.org/1999/xlink" x="0px" y="0px"
	 viewBox="0 0 45 45" enable-background="new 0 0 45 45" xml:space="preserve">
<g id="Flat_copy_1_">
	<path fill="#FFFFFF" d="M31.018,11.151H13.982c-1.604,0-2.84,1.236-2.84,2.839v17.035c0,1.602,1.236,2.838,2.84,2.838h17.033
		c1.603,0,2.84-1.235,2.84-2.838V13.99C33.857,12.387,32.619,11.151,31.018,11.151z M22.518,18.047c2.518,0,4.56,1.979,4.56,4.418
		c0,2.44-2.042,4.418-4.56,4.418s-4.56-1.979-4.56-4.418C17.958,20.023,20,18.047,22.518,18.047z M31.018,30.315
		c0,0.498-0.213,0.711-0.71,0.711H14.692c-0.496,0-0.71-0.213-0.71-0.711v-9.937l1.77,0.386c-0.191,0.617-0.293,1.269-0.293,1.947
		c0,3.774,3.161,6.838,7.057,6.838c3.899,0,7.058-3.062,7.058-6.838c0-0.678-0.103-1.33-0.292-1.947l1.734-0.386v9.937H31.018z
		 M31.018,17.539c0,0.392-0.318,0.71-0.71,0.71h-2.839c-0.393,0-0.711-0.317-0.711-0.71v-2.84c0-0.393,0.318-0.71,0.711-0.71h2.839
		c0.392,0,0.71,0.317,0.71,0.71V17.539z"/>
</g>
</svg>
