<?xml version="1.0" encoding="utf-8"?>
<!-- Generator: Adobe Illustrator 16.0.0, SVG Export Plug-In . SVG Version: 6.00 Build 0)  -->
<!DOCTYPE svg PUBLIC "-//W3C//DTD SVG 1.0//EN" "http://www.w3.org/TR/2001/REC-SVG-20010904/DTD/svg10.dtd">
<svg version="1.0" id="Layer_1" xmlns="http://www.w3.org/2000/svg" xmlns:xlink="http://www.w3.org/1999/xlink" x="0px" y="0px"
	 width="45px" height="45px" viewBox="0 0 45 45" enable-background="new 0 0 45 45" xml:space="preserve">
<g id="Flat_copy_23_">
	<g>
		<path fill="#333333" d="M22.45,0.2c-12.427,0-22.5,10.072-22.5,22.5c0,12.427,10.073,22.5,22.5,22.5s22.5-10.073,22.5-22.5
			C44.95,10.272,34.877,0.2,22.45,0.2z"/>
	</g>
	<path fill="#FFFFFF" d="M30.969,11.353H13.932c-1.603,0-2.838,1.235-2.838,2.838v17.035c0,1.603,1.235,2.838,2.838,2.838h17.035
		c1.603,0,2.837-1.235,2.837-2.838V14.19C33.807,12.585,32.569,11.353,30.969,11.353z M22.466,18.247
		c2.52,0,4.562,1.978,4.562,4.419c0,2.439-2.042,4.417-4.562,4.417c-2.516,0-4.559-1.98-4.559-4.417
		C17.907,20.225,19.95,18.247,22.466,18.247z M30.969,30.516c0,0.498-0.212,0.71-0.71,0.71H14.642c-0.494,0-0.71-0.212-0.71-0.71
		v-9.937l1.77,0.383c-0.189,0.618-0.291,1.271-0.291,1.948c0,3.774,3.159,6.84,7.056,6.84c3.898,0,7.057-3.063,7.057-6.84
		c0-0.677-0.102-1.33-0.291-1.948l1.735-0.383v9.937H30.969z M30.969,17.738c0,0.394-0.319,0.71-0.71,0.71h-2.84
		c-0.394,0-0.711-0.316-0.711-0.71v-2.84c0-0.391,0.317-0.708,0.711-0.708h2.84c0.391,0,0.71,0.317,0.71,0.708V17.738z"/>
</g>
</svg>
