<?xml version="1.0" encoding="iso-8859-1"?>
<!-- Generator: Adobe Illustrator 18.0.0, SVG Export Plug-In . SVG Version: 6.00 Build 0)  -->
<!DOCTYPE svg PUBLIC "-//W3C//DTD SVG 1.0//EN" "http://www.w3.org/TR/2001/REC-SVG-20010904/DTD/svg10.dtd">
<svg version="1.0" id="Layer_1" xmlns="http://www.w3.org/2000/svg" xmlns:xlink="http://www.w3.org/1999/xlink" x="0px" y="0px"
	 viewBox="0 0 45 45" enable-background="new 0 0 45 45" xml:space="preserve">
<g>
	<g id="Profile_1_">
		<path fill="#FFFFFF" d="M22.203,26.241c3.716,0,6.26-2.693,6.26-6.266v-3.576c0-3.573-2.544-6.267-6.26-6.267
			c-3.715,0-6.263,2.693-6.263,6.267v3.576C15.94,23.548,18.487,26.241,22.203,26.241z M17.728,16.399
			c0-2.521,1.856-4.477,4.473-4.477c2.617,0,4.475,1.956,4.475,4.477v3.576c0,2.516-1.858,4.472-4.475,4.472
			c-2.616,0-4.473-1.956-4.473-4.472V16.399z M28.554,23.543l-0.22-0.072l-0.11,0.196c-0.226,0.41-0.502,0.808-0.813,1.188
			l-0.253,0.307l0.393,0.11c2.891,0.796,5.205,5.284,5.325,8.13H11.528c0.12-2.846,2.168-7.336,5.061-8.13l0.394-0.11l-0.258-0.307
			c-0.311-0.38-0.586-0.777-0.811-1.188l-0.109-0.196l-0.222,0.072c-3.62,1.2-5.906,6.19-5.906,9.858v1.785h25.048v-1.785
			C34.726,29.733,32.177,24.743,28.554,23.543z"/>
	</g>
</g>
</svg>
