<?xml version="1.0" encoding="utf-8"?>
<!-- Generator: Adobe Illustrator 16.0.0, SVG Export Plug-In . SVG Version: 6.00 Build 0)  -->
<!DOCTYPE svg PUBLIC "-//W3C//DTD SVG 1.0//EN" "http://www.w3.org/TR/2001/REC-SVG-20010904/DTD/svg10.dtd">
<svg version="1.0" id="Layer_1" xmlns="http://www.w3.org/2000/svg" xmlns:xlink="http://www.w3.org/1999/xlink" x="0px" y="0px"
	 width="45px" height="45px" viewBox="0 0 45 45" enable-background="new 0 0 45 45" xml:space="preserve">
<g id="Flat_copy_4_">
	<g>
		<path fill="#333333" d="M22.701,0.126C10.273,0.126,0.2,10.198,0.2,22.626c0,12.425,10.073,22.499,22.501,22.499
			S45.2,35.051,45.2,22.626C45.2,10.198,35.129,0.126,22.701,0.126z"/>
	</g>
</g>
<g id="Profile_22_">
	<g>
		<path fill="#FFFFFF" d="M22.701,25.476c2.957,0,4.982-2.144,4.982-4.985v-2.847c0-2.843-2.025-4.985-4.982-4.985
			s-4.983,2.143-4.983,4.985v2.847C17.718,23.332,19.744,25.476,22.701,25.476z M19.141,17.644c0-2.004,1.479-3.562,3.561-3.562
			s3.561,1.558,3.561,3.562v2.847c0,2.001-1.479,3.558-3.561,3.558s-3.561-1.557-3.561-3.558V17.644z M27.754,23.328l-0.173-0.057
			l-0.089,0.156c-0.18,0.327-0.398,0.643-0.647,0.945l-0.201,0.243l0.313,0.088c2.3,0.632,4.143,4.204,4.237,6.469H14.208
			c0.095-2.265,1.726-5.837,4.028-6.469l0.313-0.088l-0.205-0.243c-0.248-0.303-0.466-0.618-0.646-0.945l-0.086-0.156l-0.177,0.057
			c-2.88,0.955-4.7,4.926-4.7,7.845v1.42h19.932v-1.42C32.666,28.254,30.637,24.283,27.754,23.328z"/>
	</g>
</g>
</svg>
