<?xml version="1.0" encoding="utf-8"?>
<!-- Generator: Adobe Illustrator 16.0.0, SVG Export Plug-In . SVG Version: 6.00 Build 0)  -->
<!DOCTYPE svg PUBLIC "-//W3C//DTD SVG 1.1 Tiny//EN" "http://www.w3.org/Graphics/SVG/1.1/DTD/svg11-tiny.dtd">
<svg version="1.1" baseProfile="tiny" id="Layer_1" xmlns="http://www.w3.org/2000/svg" xmlns:xlink="http://www.w3.org/1999/xlink"
	 x="0px" y="0px" width="266.513px" height="38.215px" viewBox="0 0 266.513 38.215" xml:space="preserve">
<g>
	<path fill="#fff" d="M7.982,13.615l0.145,2.799c0.162,0.201,0.355,0.451,0.582,0.75c0.838,0.434,1.627,0.818,2.369,1.15
		c2.58,0.033,5.016,0.7,7.307,2c0.063,0.268,0.467,0.768,1.209,1.5l0.145,1l-0.049-0.05l0.291,0.45l0.096,0.4l0.34,0.299v3.801
		c-0.162,0.334-0.371,0.65-0.629,0.949l-0.242,0.951c-0.549,0.367-1.129,0.883-1.742,1.549c-0.482,0.168-0.918,0.385-1.305,0.65
		l-0.484,0.1c-0.484,0.5-1.469,0.75-2.951,0.75c0.387,0-0.791-0.149-3.531-0.449c-0.227-0.133-0.564-0.35-1.016-0.65
		c-0.613-0.232-0.92-0.566-0.92-1l-0.098,0.301c-0.225-0.334-0.58-0.75-1.064-1.25v1.199L6,31.414l0.096-0.049l-0.338,0.5
		c-0.355,0.232-0.84,0.5-1.451,0.799H3.436c-0.033-0.266-0.064-0.516-0.098-0.75c-0.031-0.232-0.145-0.399-0.338-0.5v-1.6
		l0.242-0.35l0.145-0.65l0.291-0.4v-0.199c0-0.232,0.031-0.551,0.096-0.95l0.291-0.25v-4.5l0.938-0.45h0.846
		c0.439,0.367,0.721,0.734,0.846,1.1c0.125,0.101,0.313,0.351,0.564,0.75v0.051v1.65l0.193,0.199c0.064,0.234,0.322,0.567,0.773,1
		c0.064,0.334,0.273,0.658,0.629,0.975c0.354,0.318,0.693,0.51,1.016,0.576l0.34,0.299c0.32,0.101,0.756,0.268,1.305,0.5h0.049
		c1.936,0,3.451-0.266,4.549-0.799l0.191-0.752c0.064-0.066,0.307-0.349,0.727-0.849l-0.098,0.05
		c0.084-0.232,0.182-0.416,0.291-0.55v-2.25c-0.16-0.267-0.289-0.532-0.385-0.8c-0.514-0.566-0.949-0.958-1.301-1.176
		c-0.355-0.216-1.045-0.357-2.072-0.424c-1.156-0.066-1.928-0.167-2.313-0.301c-0.9-0.332-1.945-0.6-3.133-0.8l-0.242-0.2
		c-0.578-0.133-0.932-0.433-1.059-0.9l-1.014-1l-0.145-0.6l-0.24-0.25c-0.033-0.433-0.08-0.75-0.145-0.949l-0.24-0.301v-3
		c0.193-0.133,0.322-0.516,0.387-1.15l0.242-0.25c0.064-0.199,0.111-0.416,0.145-0.649l0.678-0.55c0.258-0.9,1.031-1.65,2.322-2.25
		c1.096-0.5,2.176-0.75,3.24-0.75c0.838,0,1.742,0.184,2.709,0.55l0.146,0.149c0.482,0.135,0.838,0.393,1.064,0.775
		c0.225,0.384,0.402,0.575,0.531,0.575l0.049-0.05l0.242-1.1c0.676-0.467,1.24-0.701,1.693-0.701l0.676,0.15
		c0.129,0.301,0.322,0.6,0.582,0.9v2.15c-0.26,0.199-0.42,0.416-0.484,0.649l-0.193,0.2v3.75c-0.324,0.334-0.775,0.65-1.355,0.949
		h-0.436c-0.58,0-1.049-0.182-1.402-0.549v-1.701l-0.291-0.25c-0.031-0.365-0.08-0.682-0.145-0.949h0.049
		c-0.129-0.267-0.453-0.684-0.969-1.25c-1.322-0.5-2.16-0.75-2.516-0.75c-0.645,0-1.629,0.25-2.951,0.75
		c-0.16,0.167-0.273,0.417-0.338,0.75c-0.227,0.1-0.338,0.25-0.338,0.449L7.982,13.615z"/>
	<path fill="#fff" d="M65.939,20.664l0.242,0.101l0.24,0.2l0.629,0.199l1.018,1.051c0,0.167,0.127,0.4,0.387,0.699
		c0.031,0.367,0.16,0.701,0.387,1l0.096,0.451c0.129,0.1,0.242,0.309,0.34,0.625c0.096,0.316,0.225,0.541,0.387,0.674v1.9
		l-0.338,0.5v1.95c-0.26,0.101-0.436,0.333-0.533,0.7c-0.258,0.233-0.549,0.617-0.871,1.15c-0.482,0.333-0.902,0.699-1.258,1.1
		c-0.967,0.3-1.936,0.6-2.902,0.9c-0.84,0.232-1.982,0.35-3.436,0.35c-0.129,0-0.322-0.033-0.58-0.1
		c-0.258-0.068-0.451-0.101-0.58-0.101c-0.098,0-0.227,0.032-0.387,0.101c-0.162,0.066-0.291,0.1-0.387,0.1
		c-0.162,0-0.34-0.067-0.533-0.2h-4.645c-0.225,0-0.58,0.032-1.064,0.101c-0.482,0.066-0.854,0.1-1.111,0.1l-1.113-1.15l-0.049-0.5
		c0-0.732,0.42-1.332,1.258-1.8h3.291V12.865l-0.92-0.25c-0.42,0.1-0.936,0.25-1.549,0.449h-0.193v-0.15l-0.289,0.051l0.096,0.05
		l-1.113-0.2c-0.064-0.199-0.193-0.5-0.387-0.9c0.129,0,0.227,0.068,0.291,0.201c0.031-0.233,0.145-0.417,0.338-0.551h-0.773
		c0-0.266,0.098-0.5,0.291-0.699c0.258-0.601,0.934-0.9,2.031-0.9l0.387,0.199c0.322,0,0.613-0.032,0.871-0.1l0.387-0.3
		c0.58,0.067,0.854,0.101,0.822,0.101c0.193,0,0.467-0.051,0.822-0.15s0.629-0.15,0.822-0.15c4.162,0,6.725,0.051,7.693,0.15
		c0.547,0.066,1.096,0.483,1.645,1.25c0.322,0.199,0.838,0.65,1.547,1.35c0.064,0.234,0.211,0.45,0.436,0.65
		c0.033,0.434,0.08,0.75,0.146,0.949l0.289,0.301v3.65c-0.129,0.066-0.289,0.467-0.482,1.199c-0.26,0.234-0.549,0.6-0.871,1.1
		L65.939,20.664z M51.764,11.914v-0.1v0.051h-0.096L51.764,11.914z M60.734,19.465l3.699-1.301c0.453-0.166,0.682-0.615,0.682-1.35
		l0.195-0.199v-1.5c0-1.5-1.865-2.25-5.598-2.25c-0.291,0-1.152,0.066-2.578,0.199v6.35c0.129-0.1,0.275-0.149,0.438-0.149
		c0.355,0,0.885,0.034,1.582,0.101S60.379,19.465,60.734,19.465z M66.471,25.265c-0.32-0.333-0.545-0.633-0.674-0.899l-1.684-1.051
		c-0.225-0.033-0.643-0.141-1.252-0.324s-1.059-0.275-1.348-0.275h-4.139v8.05h2.551l0.24,0.2h0.193c0.32-0.133,1.188-0.267,2.6-0.4
		c1.09-0.1,1.859-0.467,2.309-1.1c0.191-0.1,0.369-0.2,0.529-0.301c0.064-0.133,0.145-0.316,0.24-0.549
		c0.098-0.233,0.193-0.5,0.289-0.801l0.145-0.1V25.265z"/>
	<path fill="#fff" d="M91.771,21.164l0.338,0.25v1.801c0.188,0.367,0.301,1.217,0.34,2.55l-0.34,0.5v1.8
		c-0.322,0.067-0.482,0.184-0.482,0.35c-0.26,0.301-0.549,0.9-0.871,1.801c-0.162,0.133-0.275,0.334-0.34,0.6
		c-1.482,1.033-2.467,1.65-2.951,1.85c-1,0.5-2.145,0.75-3.434,0.75c-1.324,0-2.209-0.232-2.662-0.699l-1.402-0.6
		c-0.387-0.434-1.227-1.15-2.516-2.15c-0.064-0.232-0.242-0.4-0.531-0.5v-1.801c-0.484-0.532-0.711-1.85-0.678-3.949l0.193-0.25
		l0.193-1.35c0.162-0.167,0.451-0.851,0.871-2.051c0.16-0.066,0.258-0.3,0.291-0.699c0.225-0.167,0.369-0.367,0.434-0.601
		c0.195-0.167,0.322-0.383,0.389-0.649c0.547-0.367,0.982-0.733,1.305-1.101c1.484-0.767,2.533-1.149,3.145-1.149h2.904
		c0.547,0,1.24,0.267,2.08,0.799c1.191,0.734,1.838,1.135,1.934,1.201c0.098,0.299,0.258,0.533,0.484,0.699
		c0.031,0.234,0.273,0.567,0.727,1c0.064,0.234,0.209,0.434,0.436,0.6L91.771,21.164z M79.676,26.715
		c0.191,0.268,0.336,0.566,0.434,0.9c0.352,0.367,0.609,0.783,0.77,1.25c0.514,0.232,1.105,0.566,1.781,1
		c0.225,0.066,0.369,0.1,0.434,0.1h2.502c0.225,0,0.498-0.033,0.818-0.1c0.258-0.301,0.609-0.6,1.059-0.9
		c0.129-0.199,0.385-0.532,0.771-1l0.385-0.049c0.064-0.133,0.191-0.301,0.385-0.5v-2l0.242-0.199v-1.55
		c-0.246-0.333-0.293-0.649-0.139-0.949l-0.416-0.45l-0.145-1c-0.482-0.4-1.078-0.934-1.785-1.602l-0.096-0.05l-1.111-1.102
		c0,0.399-0.709,0.601-2.123,0.601c-0.42,0-1.416,0.649-2.992,1.949l-0.193,0.65c-0.129,0.233-0.322,0.5-0.578,0.8v1.601
		l-0.242,0.199v0.5C79.563,25.115,79.645,25.748,79.676,26.715z"/>
	<path fill="#fff" d="M116.008,21.164l0.34,0.25v1.801c0.188,0.367,0.301,1.217,0.338,2.55l-0.338,0.5v1.8
		c-0.324,0.067-0.484,0.184-0.484,0.35c-0.258,0.301-0.549,0.9-0.871,1.801c-0.162,0.133-0.273,0.334-0.338,0.6
		c-1.484,1.033-2.467,1.65-2.951,1.85c-1,0.5-2.145,0.75-3.436,0.75c-1.322,0-2.209-0.232-2.66-0.699l-1.402-0.6
		c-0.389-0.434-1.227-1.15-2.516-2.15c-0.066-0.232-0.242-0.4-0.533-0.5v-1.801c-0.484-0.532-0.709-1.85-0.678-3.949l0.193-0.25
		l0.195-1.35c0.16-0.167,0.451-0.851,0.869-2.051c0.162-0.066,0.258-0.3,0.291-0.699c0.225-0.167,0.371-0.367,0.436-0.601
		c0.193-0.167,0.322-0.383,0.387-0.649c0.549-0.367,0.984-0.733,1.307-1.101c1.482-0.767,2.531-1.149,3.145-1.149h2.902
		c0.549,0,1.242,0.267,2.08,0.799c1.193,0.734,1.838,1.135,1.936,1.201c0.096,0.299,0.258,0.533,0.484,0.699
		c0.031,0.234,0.273,0.567,0.725,1c0.064,0.234,0.209,0.434,0.436,0.6L116.008,21.164z M103.912,26.715
		c0.193,0.268,0.336,0.566,0.434,0.9c0.354,0.367,0.609,0.783,0.77,1.25c0.514,0.232,1.107,0.566,1.781,1
		c0.225,0.066,0.369,0.1,0.434,0.1h2.504c0.225,0,0.496-0.033,0.818-0.1c0.256-0.301,0.609-0.6,1.059-0.9
		c0.129-0.199,0.385-0.532,0.77-1l0.387-0.049c0.063-0.133,0.191-0.301,0.385-0.5v-2l0.24-0.199v-1.55
		c-0.246-0.333-0.291-0.649-0.137-0.949l-0.416-0.45l-0.145-1c-0.484-0.4-1.078-0.934-1.785-1.602l-0.098-0.05l-1.109-1.102
		c0,0.399-0.709,0.601-2.125,0.601c-0.418,0-1.414,0.649-2.99,1.949l-0.195,0.65c-0.127,0.233-0.32,0.5-0.578,0.8v1.601
		l-0.242,0.199v0.5C103.801,25.115,103.881,25.748,103.912,26.715z"/>
	<path fill="#fff" d="M137.439,26.615l-0.629-1.9c0.387,0.875,0.934,2.172,1.645,3.889c0.291,0.303,0.693,0.657,1.209,1.061
		h3.289l0.533,0.346l0.338,0.54v1.329c-0.258,0.098-0.436,0.377-0.531,0.836l-5.902-0.051c-1.387,0-2.549-0.1-3.482-0.299
		c-0.324-0.301-0.484-0.667-0.484-1.101c0-0.433,0.145-0.8,0.436-1.101c0.678-0.199,1.451-0.35,2.322-0.449l-0.791-1.051
		c-0.033-0.332-0.215-0.566-0.543-0.699c-0.197-0.2-0.33-0.4-0.395-0.6c-0.199-0.201-0.33-0.4-0.395-0.601
		c-0.461-0.601-1.137-1.466-2.025-2.601l-0.742,0.5l-0.146,0.351c-1.121,0.567-1.813,1.101-2.074,1.601v2.899
		c0.609,0.067,1.455,0.2,2.539,0.399l0.508,0.5v1.551c-0.58,0.5-2.08,0.75-4.498,0.75h-2.711l-1.547-0.049l-0.822-0.395v-2.607
		h3.822V16.202c0-0.499-0.025-1.246-0.074-2.243c-0.047-0.998-0.072-1.746-0.072-2.244c-0.258,0-0.451,0-0.58,0h-2.66
		c-0.033-0.333-0.082-0.617-0.146-0.85l-0.482-0.451c0.648-1.1,1.412-1.649,2.289-1.649c0.162,0,0.512,0,1.047,0
		c0.537,0,1.016,0,1.439,0c0.26,0,0.713,0,1.363,0c0.064,0.231,0.26,0.53,0.586,0.894v1.986l-0.291,0.249l0.291,0.247v5.711
		c-0.098,0-0.131,0.034-0.098,0.1c0,0.033,0.031,0.051,0.098,0.051v0.794c-0.066,0-0.098,0.017-0.098,0.05
		c-0.033,0.066,0,0.1,0.098,0.1v2.035v0.05v2.335l0.389-0.201c0.26-0.432,1.123-1.332,2.588-2.699
		c1.463-1.367,2.342-2.066,2.635-2.1c-0.678,0.033-1,0.049-0.967,0.049c-0.549,0-1.033-0.186-1.453-0.559v-0.713
		c0-0.847,0.332-1.271,0.992-1.271s1.629-0.066,2.902-0.203c1.273-0.135,2.234-0.203,2.879-0.203c1.129,0,2.064,0.117,2.807,0.35
		l0.436,0.45v2.25h-3.822c-1.033,0.806-2.533,2.013-4.5,3.622c0.484,0.672,0.887,1.175,1.211,1.51
		c0.063,0.234,0.32,0.57,0.773,1.006c0.064,0.269,0.193,0.453,0.387,0.554C136.391,25.441,136.762,25.91,137.439,26.615z"/>
	<path fill="#fff" d="M164.338,24.465c0.32,0.233,0.596,0.65,0.822,1.25l0.289,0.3v2.351c-0.482,0.367-0.758,0.934-0.822,1.699
		c-0.227,0.168-0.371,0.384-0.436,0.65c-1.967,1.367-4.129,2.05-6.482,2.05c-1.742,0-3.709-0.583-5.902-1.75
		c-0.064,0.267-0.322,0.634-0.773,1.101l-0.773,0.1l-0.969-0.1c-0.031-0.233-0.193-0.5-0.482-0.801v-1.6l0.24-0.35l0.195-0.801
		l0.145-0.15v-1.299c-0.162-0.334-0.227-1.4-0.193-3.201c1.322,0.068,2.338,0.434,3.047,1.101v1.7
		c0.516,1.167,1.096,1.816,1.742,1.949l0.484,0.4l-0.049-0.1c0.838,0.334,1.5,0.5,1.982,0.5h2.564c0.387,0,0.92-0.092,1.598-0.275
		c0.676-0.183,1.127-0.391,1.354-0.625l0.484-0.3l0.096-0.2l-0.096-0.4l0.096-0.399l-0.096-0.399l0.096-0.4l-0.193-0.5
		c-0.742-0.801-2.322-1.25-4.74-1.35c-2.709-0.101-4.436-0.351-5.176-0.75c-0.355-0.301-0.871-0.717-1.549-1.25
		c-0.098-0.301-0.258-0.518-0.484-0.65c-0.031-0.367-0.162-0.767-0.387-1.2v-0.7l-0.291-0.25l0.291-0.25v-0.75l0.242-0.35
		c0.064-0.232,0.113-0.517,0.145-0.85c0.451-0.301,0.936-0.768,1.451-1.4l0.582-0.2c0.193-0.2,0.611-0.399,1.258-0.601
		c0.645-0.199,1.143-0.299,1.498-0.299h3.436c1.129,0,2.273,0.383,3.436,1.149c0.096-0.333,0.258-0.601,0.482-0.8
		c0.258-0.1,0.549-0.15,0.871-0.15s0.613,0.051,0.871,0.15l0.436,0.449v5.301c-0.809-0.033-1.342-0.1-1.6-0.199
		c-0.549-0.166-0.92-0.516-1.113-1.047l-0.969-1l-0.967-0.268l-0.193-0.16c-1.58-0.25-2.385-0.377-2.418-0.377
		c0.227,0-0.918,0.119-3.432,0.355c-0.227,0.17-0.436,0.288-0.629,0.355l-0.049,0.406l-0.145,0.152v1.369
		c0.225,0.338,0.561,0.541,1.012,0.609l0.145,0.203c2.279,0.033,3.967,0.133,5.059,0.299c1.766,0.301,3.34,0.885,4.721,1.75
		c0.096,0.301,0.24,0.518,0.434,0.65l0.145,0.35L164.338,24.465z"/>
	<path fill="#fff" d="M186.492,26.664h-0.145c0.162-0.899,0.645-1.35,1.451-1.35c0.484,0,1.162,0.317,2.033,0.95l0.096,0.75
		l-0.098,0.7c-0.615,0.533-1.02,1.084-1.213,1.65c-0.422,0.367-0.859,0.899-1.313,1.6c-0.26,0.133-0.551,0.35-0.875,0.65
		c-0.42,0.867-1.537,1.299-3.35,1.299c-1.686,0-3.143-0.782-4.373-2.35l-0.193-0.6l-0.195-0.25l-0.193-0.551l-0.242-0.299v-7.351
		l0.24-0.2v-2.6c-0.355,0.033-0.869,0.117-1.547,0.25s-1.193,0.199-1.549,0.199c-0.838,0-1.436-0.282-1.789-0.85v-2
		c0.451-0.699,0.998-1.05,1.645-1.05c0.258,0,0.645,0.075,1.16,0.226c0.516,0.149,0.902,0.225,1.162,0.225l0.918-0.051v-1.699
		c-0.193-0.333-0.273-1.833-0.24-4.5c0.455-0.732,1.109-1.1,1.959-1.1c0.816,0,1.322,0.333,1.52,1l0.195,0.199l0.146,0.5l-0.145,0.6
		l-0.193,0.15v3.051l-0.291,0.199v1.45c0.742,0.134,1.871,0.25,3.387,0.351l0.969-0.4h0.387c0.611,0,1.58,0.066,2.902,0.199v2.166
		c-0.355,0.756-0.969,1.135-1.838,1.135c-0.549,0-1.389-0.041-2.516-0.125c-1.131-0.083-1.969-0.125-2.516-0.125
		c-0.291,0-0.549,0-0.775,0v5.398c0.162,0.236,0.242,0.422,0.242,0.557c0,0.168-0.08,0.353-0.242,0.555v2.725
		c0.129,0.202,0.242,0.455,0.34,0.757c0.387,0.472,0.756,0.774,1.111,0.909h0.533c0.193,0,0.725-0.101,1.596-0.301l0.146-0.199
		l0.725-0.301l0.193-1.35C185.881,27.299,186.139,27.031,186.492,26.664z"/>
	<path fill="#fff" d="M212.955,21.164l0.34,0.25v1.801c0.188,0.367,0.301,1.217,0.338,2.55l-0.338,0.5v1.8
		c-0.324,0.067-0.484,0.184-0.484,0.35c-0.258,0.301-0.549,0.9-0.871,1.801c-0.162,0.133-0.273,0.334-0.338,0.6
		c-1.484,1.033-2.467,1.65-2.951,1.85c-1,0.5-2.145,0.75-3.436,0.75c-1.322,0-2.209-0.232-2.66-0.699l-1.402-0.6
		c-0.389-0.434-1.227-1.15-2.516-2.15c-0.066-0.232-0.242-0.4-0.533-0.5v-1.801c-0.484-0.532-0.709-1.85-0.678-3.949l0.193-0.25
		l0.195-1.35c0.16-0.167,0.451-0.851,0.869-2.051c0.162-0.066,0.258-0.3,0.291-0.699c0.225-0.167,0.371-0.367,0.436-0.601
		c0.193-0.167,0.322-0.383,0.387-0.649c0.549-0.367,0.984-0.733,1.307-1.101c1.482-0.767,2.531-1.149,3.145-1.149h2.902
		c0.549,0,1.242,0.267,2.08,0.799c1.193,0.734,1.838,1.135,1.936,1.201c0.096,0.299,0.258,0.533,0.484,0.699
		c0.031,0.234,0.273,0.567,0.725,1c0.064,0.234,0.209,0.434,0.436,0.6L212.955,21.164z M200.859,26.715
		c0.193,0.268,0.336,0.566,0.434,0.9c0.354,0.367,0.609,0.783,0.77,1.25c0.514,0.232,1.107,0.566,1.781,1
		c0.225,0.066,0.369,0.1,0.434,0.1h2.504c0.225,0,0.496-0.033,0.818-0.1c0.256-0.301,0.609-0.6,1.059-0.9
		c0.129-0.199,0.385-0.532,0.77-1l0.387-0.049c0.063-0.133,0.191-0.301,0.385-0.5v-2l0.24-0.199v-1.55
		c-0.246-0.333-0.291-0.649-0.137-0.949l-0.416-0.45l-0.145-1c-0.484-0.4-1.078-0.934-1.785-1.602l-0.098-0.05l-1.109-1.102
		c0,0.399-0.709,0.601-2.125,0.601c-0.418,0-1.414,0.649-2.99,1.949l-0.195,0.65c-0.127,0.233-0.32,0.5-0.578,0.8v1.601
		l-0.242,0.199v0.5C200.748,25.115,200.828,25.748,200.859,26.715z"/>
	<path fill="#fff" d="M228.387,18.664c0.258-0.399,0.775-0.932,1.549-1.6c0.645-0.933,1.482-1.4,2.516-1.4h2.129
		c0.354,0,0.789,0.101,1.307,0.301c0.74,0.199,1.176,0.316,1.305,0.35l1.018,0.85l0.24,0.65l0.242,0.301
		c0.064,0.367,0.129,0.816,0.193,1.35l0.242,0.3v0.851l-0.289,0.299c-0.453,1.268-1.258,1.9-2.42,1.9l-0.629-0.05l-1.209-0.851
		l-0.193-1.25l-0.193-0.25v-0.699l0.193-0.25c0.064-0.301,0.193-0.533,0.387-0.7l-0.342-0.05c-0.617,0-1.643,0.367-3.072,1.1
		c-0.162,0.301-0.438,0.567-0.828,0.801c-0.164,0.299-0.424,0.566-0.779,0.799c-0.066,0.168-0.156,0.343-0.27,0.525
		c-0.113,0.184-0.244,0.384-0.391,0.6c-0.146,0.218-0.301,0.409-0.463,0.576v6.5h2.033c0.16,0,0.387-0.033,0.676-0.101
		c0.291-0.066,0.516-0.101,0.678-0.101l1.209,0.951v1.449c-0.225,0.134-0.418,0.35-0.578,0.65l-0.627,0.449h-10.602
		c-0.031-0.232-0.191-0.516-0.48-0.85v-1.199c0.096-0.167,0.258-0.434,0.484-0.801l0.338-0.3c0.902-0.101,2.129-0.149,3.676-0.149
		v-10.65h-2.82c-0.414-0.133-0.83-0.45-1.244-0.95l-0.096-0.899l0.098-0.951c0.418-0.332,0.709-0.5,0.871-0.5h1.982
		c0.193,0.101,0.387,0.25,0.58,0.451c0.322,0,0.564-0.15,0.727-0.451h2.516c0.064,0.234,0.258,0.534,0.58,0.9v1.25l-0.242,0.2
		V18.664z"/>
	<path fill="#fff" d="M258.332,17.515l0.582,0.149l0.629,0.65c0.063,0.364,0.305,0.746,0.725,1.143
		c0.064,0.232,0.193,0.414,0.387,0.546c0.064,0.265,0.193,0.479,0.387,0.646c0.064,0.232,0.227,0.447,0.484,0.645v4.172
		c-0.256,0-0.627-0.033-1.107-0.1c-0.482-0.066-0.836-0.101-1.061-0.101h-2.555c-0.096,0-0.258,0.034-0.482,0.101
		s-0.385,0.1-0.48,0.1h-6.555v0.75c0.162,0.334,0.273,0.65,0.338,0.949c0.193,0.301,0.346,0.559,0.459,0.775
		c0.111,0.217,0.297,0.525,0.553,0.926c0.354,0.232,0.818,0.583,1.398,1.049c1.412,0.234,2.055,0.351,1.926,0.351
		c0.643,0,1.301-0.167,1.977-0.5c1.156-0.601,1.75-0.917,1.781-0.95c0.129-0.232,0.387-0.633,0.771-1.199h1.783
		c0.32,0.166,0.609,0.449,0.867,0.85v0.8c-0.258,0.333-0.404,0.667-0.436,1c-0.227,0.167-0.371,0.384-0.436,0.649
		c-1.838,1.135-2.92,1.768-3.24,1.9c-1,0.467-2.211,0.7-3.629,0.7c-0.227,0-0.436-0.083-0.629-0.25l-0.871-0.149
		c-0.193-0.168-0.92-0.468-2.178-0.9c-0.064-0.166-0.467-0.45-1.209-0.85c-0.162-0.467-0.258-0.726-0.289-0.775
		c-0.033-0.051-0.211-0.225-0.533-0.525c-0.033-0.166-0.178-0.416-0.436-0.75c-0.031-0.199-0.289-0.666-0.773-1.4l-0.145-0.899
		l-0.242-0.351v-1.049l0.289-0.301v-3.75c0.645-0.533,1.08-1.232,1.307-2.1c0.484-0.6,1.371-1.434,2.66-2.5
		c0.484-0.7,1.598-1.051,3.338-1.051c1.484,0,2.484,0.234,3,0.701c0.387,0.1,0.678,0.25,0.871,0.449l0.436,0.15L258.332,17.515z
		 M249.383,22.814c0.322-0.1,1.854-0.15,4.596-0.15h1.064c0.129,0,0.297,0.025,0.508,0.076c0.209,0.049,0.379,0.074,0.508,0.074
		c-0.355,0,0.533-0.049,2.66-0.147c-0.133-0.099-0.25-0.345-0.35-0.738c-0.166-0.164-0.283-0.36-0.35-0.591
		c-0.385-0.402-0.959-0.975-1.727-1.715c-0.193-0.066-0.436-0.168-0.725-0.303c-0.162-0.337-0.629-0.506-1.402-0.506
		c-0.16,0-0.934,0.236-2.318,0.709l-0.098,0.304c-0.225,0.067-0.482,0.271-0.773,0.608c-0.418,0.473-0.645,0.725-0.676,0.759
		c-0.129,0.405-0.436,0.726-0.918,0.962l0.098,0.254L249.383,22.814z"/>
</g>
</svg>
