<?xml version="1.0" encoding="utf-8"?>
<!-- Generator: Adobe Illustrator 16.0.0, SVG Export Plug-In . SVG Version: 6.00 Build 0)  -->
<!DOCTYPE svg PUBLIC "-//W3C//DTD SVG 1.0//EN" "http://www.w3.org/TR/2001/REC-SVG-20010904/DTD/svg10.dtd">
<svg version="1.0" xmlns="http://www.w3.org/2000/svg" xmlns:xlink="http://www.w3.org/1999/xlink" x="0px" y="0px"
	 width="2304.846px" height="604.645px" viewBox="0 0 2304.846 604.645" enable-background="new 0 0 2304.846 604.645"
	 xml:space="preserve">
<g id="Layer_1">
	<g>
		<path d="M367.504,357.729c1.959-1.957,4.688-4.072,8.191-6.437c7.781-5.417,12.464-8.146,14.012-8.146
			c0.775,0,3.504-0.775,8.191-2.364l7.577-2.322l33.894-33.854c1.137-3.504,3.502-7.212,7.01-11.123
			c1.137-1.547,2.889-3.502,5.254-5.824l1.143-1.182c0.791-0.369,1.178-0.776,1.178-1.183l2.936-2.891
			c8.168-9.37,16.7-21.796,25.688-37.399c0-0.776,0.752-2.527,2.344-5.256c1.156-2.688,2.314-4.441,3.5-5.255
			c3.096-6.599,6.803-14.015,11.081-22.203l23.387-43.795c4.272-8.149,7.958-15.972,11.075-23.342c0-4.687,1.757-9.738,5.256-15.197
			l3.502-5.255c1.186-1.958,1.758-3.301,1.758-4.073c4.274-10.145,6.803-18.701,7.596-25.707c0.386-2.322,0.592-5.051,0.592-8.187
			v-8.15c-0.414-1.589-1.184-3.339-2.342-5.255l-7.604-10.552c-1.158-1.916-1.75-3.3-1.75-4.072l4.688-4.688
			c0.77-0.771,2.688-1.75,5.824-2.891c2.729-1.182,5.843-2.161,9.352-2.933c8.168-2.322,13.625-3.505,16.355-3.505h7.58
			c1.951,0.407,3.708,1.183,5.251,2.322l22.205,16.948c8.96,7.006,15.19,13.442,18.699,19.27c0.772,3.136-1.751,6.438-7.603,9.938
			c-6.614,3.505-9.917,7.212-9.917,11.082l0.571,7.62c0.388,2.322,0.98,4.275,1.751,5.823c0.772,1.958,1.552,3.302,2.344,4.076
			l6.417,7.616c3.5,3.87,5.645,6.031,6.437,6.396c0.772-1.913,3.688,1.181,8.759,9.373l1.139,2.932l5.278,7.578
			c2.344,3.501,4.294,5.823,5.843,7.006v4.687c0,3.094-0.77,5.051-2.32,5.823H633.84c-6.623,0.776-11.103,2.525-13.425,5.255
			c-3.136,0-5.846-2.526-8.189-7.578c-1.55-3.5-3.3-9.37-5.257-17.516c-0.385-0.407-0.574-0.978-0.574-1.753l-1.748-7.047
			c-0.794-3.501-1.564-6.192-2.365-8.146c-1.929-5.052-4.073-7.619-6.396-7.619c-2.363,0-4.294,1.751-5.865,5.255l-3.501,7.62
			l-7.008,7.004c0.406,1.183,0,2.527-1.139,4.077c-0.818,1.179-1.957,2.523-3.528,4.115l-4.093,3.501
			c-1.179,1.551-1.75,2.895-1.75,4.073l-4.074,10.514c-3.135,8.188-7.603,15.193-13.445,21.021
			c-1.544-0.368-3.303,0.407-5.253,2.322c-1.55,1.954-3.301,4.683-5.259,8.188c-0.386,1.547-1.156,3.3-2.322,5.254l-7.002,14.015
			L521.129,241.5c-4.295,6.641-8.188,12.099-11.688,16.379c-1.186,1.141-2.937,2.525-5.26,4.073
			c-2.337,1.547-4.094,2.932-5.252,4.073c-0.771,1.181-1.571,2.729-2.363,4.687c-0.365,0.406-0.571,0.771-0.571,1.181l-1.751,3.501
			c-1.956,3.505-3.887,6.234-5.824,8.151c-1.959,0-3.914,0.609-5.844,1.75c-1.166,0.813-2.344,2.161-3.508,4.115l-1.751,2.322
			c-0.792,0.775-1.365,1.547-1.751,2.364c-1.164,1.546-2.344,2.687-3.508,3.5c-3.114,2.729-7.594,6.234-13.418,10.511
			l-14.624,10.513c-1.552,4.277-3.095,6.599-4.647,7.006c-1.59,2.729-3.135,4.646-4.686,5.827c-1.179,1.548-2.521,2.526-4.072,2.933
			l-4.686,1.751c-1.959,0.775-3.502,1.547-4.688,2.322l-14.012,12.265c-3.502,2.319-9.739,5.458-18.678,9.328
			c-4.666,1.953-8.78,3.504-12.284,4.683c-4.276,1.183-7.374,1.754-9.328,1.754c-0.776,0.407-1.385,0.203-1.751-0.571l-1.755-2.933
			C363.431,361.802,364.775,360.052,367.504,357.729z M853.438,516.612c2.324-1.182,5.259-2.16,8.761-2.936l15.769-1.751
			c1.543-0.406,2.937-2.16,4.073-5.255c1.177-2.729,2.155-6.234,2.935-10.509c1.545-8.188,2.324-16.176,2.324-23.957l-2.324-47.91
			c0-1.546,0.201-3.297,0.564-5.255l1.187-8.757c0.386-1.916,0.573-3.666,0.573-5.254c0-6.192-0.372-15.931-1.145-29.17
			c-0.793-13.239-1.18-23.384-1.18-30.393c-0.406-2.319,0.387-5.458,2.324-9.328c0-1.183-0.372-2.729-1.145-4.684l-1.752-5.827
			c-1.955-6.233-2.934-13.239-2.934-21.021l-1.18-54.346v-54.305c0-1.958-0.366-4.277-1.145-7.009l-3.521-14.011
			c-0.792-2.729-1.158-5.051-1.158-7.009c0-0.771,0.366-2.526,1.158-5.255l1.158-5.256c0-0.775-0.565-2.526-1.752-5.255l-1.75-5.255
			c-0.771-1.183-1.137-3.136-1.137-5.865l-1.186-5.827c-1.18-1.958-2.928-3.505-5.251-4.687c-2.731-1.141-6.83-1.751-12.269-1.751
			l-12.261,2.364c-5.844,1.141-13.646,1.953-23.384,2.322h-12.262l-23.955,2.319c0,0.816-1.73,1.385-5.231,1.754
			c-1.571,0.407-3.322,0.61-5.259,0.61h-17.52c-3.5,0-5.272,0.368-5.272,1.141l-19.269-1.141c-9.332,0-14.02,2.323-14.02,7.009
			c0,4.683,0.207,9.734,0.574,15.193l1.77,39.681c0.779,18.333,1.164,33.326,1.164,44.977l2.931,2.933
			c1.186,1.546,2.322,2.729,3.506,3.504c2.731,2.729,5.253,4.073,7.575,4.073h7.622c2.71,0.407,4.272,1.183,4.638,2.364h7.032
			c4.278,0,7.967-0.204,11.103-0.613c10.103-1.548,16.926-4.85,20.406-9.897c2.729-8.19,6.238-17.519,10.531-28.029l5.279-13.443
			c2.322-5.461,4.072-9.941,5.25-13.445c1.145-0.366,2.896-4.684,5.259-12.833c2.323-8.553,3.502-15.969,3.502-22.203
			c0-7.006,2.894-10.51,8.761-10.51c1.55-0.776,3.872,0.979,7.008,5.255c0.366,0,0.773,0.365,1.158,1.182
			c0.779,0.366,1.164,0.773,1.164,1.141l16.355,16.375l3.508,2.323c5.045,3.912,7.595,8.556,7.595,14.015
			c0,2.322-1.187,4.483-3.502,6.437c-1.956,1.548-3.707,2.323-5.259,2.323c-6.229-0.368-11.488,3.505-15.767,11.692
			c-0.407,1.141-1.18,2.729-2.337,4.645c0,0.813-0.395,1.751-1.165,2.934l-0.593,2.322c-1.95,3.911-3.502,6.641-4.666,8.187
			c-7.002,8.595-10.504,17.354-10.504,26.276h22.771c1.918,0,3.502-0.773,4.666-2.324c0.751-1.178,1.546-3.094,2.337-5.823
			c0.779-2.364,1.551-4.115,2.323-5.256c1.186-1.547,2.735-2.363,4.685-2.363c3.875,0,8.554,1.958,14.021,5.865
			c5.052,4.28,7.573,7.577,7.573,9.901c0,7.009-4.073,11.326-12.261,12.874c-3.114,0.775-6.802,1.141-11.083,1.141h-10.51
			l-17.518,2.363l-6.438-2.363c-1.177,0.407-1.956,1.181-2.322,2.363c-0.407,0-1.751,0.773-4.114,2.324
			c-2.322,1.546-3.867,2.322-4.646,2.322v4.114c0,1.141,0.167,2.527,0.574,4.073l0.57,4.073c0.407,1.183,0.615,2.568,0.615,4.115
			v7.577c-0.407,2.729-0.98,4.89-1.76,6.438v16.947l1.76,26.276c1.137,3.869,1.75,9.535,1.75,16.908l-0.613,18.698
			c0.406,14.015,5.258,21.02,14.625,21.02c5.052,0,8.352-2.526,9.924-7.577c0.771-1.547,1.157-3.87,1.157-7.006
			c0.386-0.369,0.593-1.183,0.593-2.322l2.344-14.625c0-0.776-0.593-2.526-1.757-5.256l-1.751-5.255l-0.586-14.015
			c-0.801-7.374-1.165-13.446-1.165-18.088c0-1.551-0.201-3.139-0.593-4.687c0-1.182-0.385-2.729-1.158-4.683l-1.178-4.645
			c-0.393-1.547-0.573-3.136-0.573-4.687c0-1.547,0.366-3.095,1.158-4.683c1.165-1.547,2.53-2.322,4.095-2.322
			c4.279,0,8.926,1.75,14.018,5.255c5.824,3.912,8.759,7.985,8.759,12.26v48.482c0.366,0.775,0.772,2.525,1.139,5.255l1.177,15.196
			c0,1.141,0.209,2.527,0.572,4.073l1.186,8.188c0.385,1.546,0.565,2.894,0.565,4.073l0.614,4.075
			c1.145,10.143,0.365,18.496-2.365,25.135c-1.936,3.87-5.822,9.125-11.646,15.766c-7.823,1.183-12.102-3.094-12.854-12.833v-6.437
			l-1.164-5.866c-1.564-4.28-4.48-7.17-8.761-8.76h-33.302l-5.279,1.751l-17.492,2.937c-8.172,1.953-12.268,5.051-12.268,9.328
			c0,1.953,0.395,3.911,1.165,5.865l0.593,4.687c0,7.006-2.916,10.511-8.78,10.511c-14.018,0-21.019-7.62-21.019-22.813v-5.259
			l1.75-11.078v-6.438c0-19.432-1.75-36.379-5.259-50.8v-30.353c-1.137-2.363-1.751-5.865-1.751-10.51
			c0-4.687,2.363-7.009,7.01-7.009c18.697,0,28.049,7.784,28.049,23.346l-1.758,48.478c0,4.277,0.395,7.984,1.165,11.083
			c1.179,9.37,3.709,14.015,7.597,14.015c9.352,0,14.018-2.323,14.018-7.009l-2.916-47.295c-0.406-11.285-0.592-23.144-0.592-35.607
			l-1.752-4.687c-1.158-3.095-1.75-5.052-1.75-5.824c-0.386-1.181-0.206-3.504,0.592-7.009l1.158-7.046
			c0-9.329-4.666-14.016-14.011-14.016l-13.425,1.183c-2.729,0.407-5.095,0.572-7.01,0.572c-3.137,0.407-6.231,0.61-9.365,0.61
			c-1.551,0.776-4.075,2.729-7.581,5.828c-3.502,3.136-5.253,5.048-5.253,5.824v37.398l-3.508,10.511v92.845
			c0,0.813,0.372,2.566,1.145,5.255c0.793,2.364,1.178,4.114,1.178,5.296l-3.502,21.021l1.18,23.343
			c0,10.145-1.379,19.677-4.107,28.64c-3.487,12.06-8.353,18.086-14.59,18.086c-1.951-0.405-4.479-1.385-7.574-2.932
			c-3.916-1.953-5.666-3.297-5.26-4.072v-36.217l-3.5-3.505c-7.01-1.182-14.989-0.204-23.957,2.932l-16.946,5.828
			c-1.958,0.776-3.909,1.385-5.824,1.75l-30.395,7.009c-0.771-1.182-2.708-0.775-5.821,1.183l-4.074,2.318l-26.886,10.514
			l-42.048,14.011c-7.781,2.733-14.991,5.462-21.613,8.191l-4.093,2.322c-1.546,1.178-2.523,1.751-2.931,1.751
			c-1.937,1.182-4.645,1.75-8.145,1.75c-5.094,0-10.354-3.094-15.771-9.328l-14.624-17.52c-0.771-0.772-1.937-1.382-3.508-1.75
			l-4.072-1.183c-2.73-1.14-4.074-3.707-4.074-7.577v-2.361c0.366-1.551,0.779-2.322,1.146-2.322h28.042
			c15.176-4.687,37.383-7.009,66.59-7.009l12.834-4.683c1.549-0.775,2.934-1.141,4.092-1.141h6.418c6.236,0,8.966-2.729,8.187-8.188
			c0-0.775-0.605-2.732-1.751-5.827l-1.751-4.687l-1.177-18.698v-30.352l1.177-35.646c0-15.561-4.685-22.571-14.011-21.02
			l-19.269,2.361c-12.875,2.692-19.271,7.171-19.271,13.405c0,1.954,0.772,4.115,2.322,6.437c0.773,1.548,2.322,3.297,4.68,5.255
			l5.83,5.256c2.324,1.546,3.887,2.933,4.688,4.072c1.543,2.73,3.502,5.459,5.824,8.188l5.25,4.687
			c0.395,0.775,0.98,1.343,1.758,1.75c4.682,4.646,7.004,9.129,7.004,13.406c0,0.813-1.158,2.566-3.502,5.255
			c-2.322,3.136-5.052,6.234-8.166,9.37c-8.581,8.963-14.813,13.442-18.686,13.442c-10.138,0-15.969-5.865-17.512-17.516
			c-0.82-3.912-1-9.37-0.614-16.378l0.614-16.947c0-1.913-0.207-4.276-0.614-7.005l-2.322-8.76c-0.407-1.141-0.772-1.916-1.18-2.323
			l-0.571-4.683c0.366-1.141-1.385-1.754-5.26-1.754h-11.094c-3.123,0-5.852-2.892-8.174-8.76c-2.344-4.641-3.502-8.756-3.502-12.26
			c0-4.687,6.19-7.006,18.656-7.006c8.603-1.551,18.699-2.936,30.395-4.076l29.209-2.933c6.215-2.729,10.308-8.35,12.26-16.948
			c0.779-3.094,1.351-6.802,1.758-11.082v-18.088c0-3.911-0.208-7.412-0.615-10.51c-1.549-8.188-4.844-12.302-9.896-12.302
			c-17.154,0-29.986-5.052-38.539-15.156c-2.363-1.182-0.979-3.136,4.073-5.865c5.458-2.322,11.083-3.505,16.948-3.505l14.012,2.364
			c0.778,0,2.707-0.979,5.83-2.936c2.729-1.954,4.272-2.932,4.679-2.932c1.165-1.548,3.874-2.527,8.153-2.892h5.865
			c3.095,0.365,5.457,0.365,7.001,0c12.468,0,21.413-4.277,26.873-12.874l2.344-5.255c0.771-2.323,1.544-4.073,2.32-5.256
			c1.952-3.504,5.054-5.255,9.348-5.255c3.508,0,5.843,0.979,7.008,2.933l0.593,2.322c0.366,0.776,0.959,1.386,1.751,1.751
			c3.095-0.365,6.802,0.978,11.083,4.114l9.936,9.901c0.367,8.963-7.414,14.828-23.362,17.52c-0.792,0.407-2.344,0.813-4.664,1.182
			l-14.606,2.932c-6.623,1.955-11.103,4.849-13.425,8.76l7.01,14.012v32.715c-1.179,1.548-1.751,3.095-1.751,4.643
			c-0.406,0.817-0.614,2.363-0.614,4.686c0,4.684,3.138,7.006,9.375,7.006c5.415,0,11.081-3.869,16.927-11.691
			c5.844-7.781,10.689-11.651,14.602-11.651c0.367,0,2.524,1.548,6.418,4.646l7.594,5.865c-0.406,1.551,0,3.097,1.164,4.645
			c0.795,0.407,1.565,0.979,2.345,1.751c0.366,0.41,1.543,0.979,3.501,1.754c5.459,3.911,8.188,7.822,8.188,11.692
			c0,5.823-4.688,8.962-14.033,9.328l-25.685-0.568c-3.509,0-8.188,1.179-14.012,3.501c-5.852,2.322-10.519,3.504-14.018,3.504
			c0,2.323-0.407,6.641-1.179,12.875l-1.187,8.146c-0.364,2.729-0.771,4.483-1.137,5.254c-1.186,4.687,0,10.51,3.502,17.52
			l1.751,12.26c1.164,4.687,2.915,8.191,5.259,10.51c2.708-0.772,5.251-5.417,7.573-14.012c1.956-7.78,2.937-16.54,2.937-26.278
			l-1.186-5.824c0-4.687,3.101-6.806,9.352-6.437c-0.792,0.771,0.388,1.75,3.501,2.933l10.498,4.073
			c10.916,4.317,16.374,9.572,16.374,15.764c0,4.322-1.956,8.76-5.831,13.446L642.58,419.04l-2.332,8.191l-7.572,10.51
			c-1.957,3.136-3.707,6.802-5.26,11.121l-5.25,9.9c-1.18,1.957-1.751,4.479-1.751,7.619c0,3.094,3.301,5.051,9.917,5.823
			l8.168,1.181h6.436c1.551,0.776,4.074,0.776,7.582,0l18.697-2.932c3.502-0.775,6.031-1.953,7.596-3.504
			c3.894-3.502,5.85-13.037,5.85-28.599c0-36.216-1.57-59.601-4.686-70.111l1.178-5.255v-61.883l2.324-11.692
			c0-0.776-0.98-1.751-2.908-2.933c-1.959-1.547-2.916-2.932-2.916-4.073c0-9.739-0.592-23.181-1.75-40.294
			c0-2.729-0.208-5.865-0.615-9.37l-1.137-15.766l2.323-5.255v-40.29c-2.729-8.188-4.487-17.316-5.259-27.458
			c-0.386-1.958-0.572-4.073-0.572-6.438c-0.406-1.547-0.605-3.667-0.605-6.396l-0.571-14.015l-12.263-12.265
			c-3.508-3.911-5.26-7.616-5.26-11.12c0-2.688,2.325-5.052,7.011-7.006c22.978,0,42.813,4.317,59.56,12.871
			c0.773,0.775,1.365,1.958,1.751,3.505l1.18,3.504c1.186,2.322,3.099,3.5,5.831,3.5c1.949,0,4.113-0.975,6.436-2.932
			c2.322-1.953,4.272-2.933,5.824-2.933c1.571,0,3.322,0.407,5.25,1.183l5.872,2.322c2.324,1.182,4.46,1.955,6.417,2.36
			c2.338,0.776,4.666,1.141,7.004,1.141l20.998-1.141l19.311,1.141c1.552-0.365,3.668-0.568,6.396-0.568l11.126-0.573
			c4.279,0,10.104,0.573,17.518,1.755c7.783,1.14,13.604,1.75,17.52,1.75c6.23,0,12.462-5.255,18.678-15.766l6.417-11.12
			c2.362-3.098,4.479-4.645,6.437-4.645c3.887,0,7.395,1.14,10.51,3.501l31.53,17.52c2.729,2.322,4.073,3.869,4.073,4.645
			c0,4.684-2.114,9.938-6.396,15.766c-4.294,6.233-6.437,10.713-6.437,13.442l0.594,9.942l-2.344,33.284
			c-0.407,0.773-0.199,3.298,0.592,7.578c0.752,2.36,1.158,4.114,1.158,5.255c0.386,2.361,0.594,4.48,0.594,6.438l1.155,119.161
			l1.759,9.897c0.771,2.729,1.178,4.687,1.178,5.868l0.574,4.073v64.815l2.32,3.505c-0.364,1.955-0.572,4.114-0.572,6.438v5.823
			c0,6.641,0.773,16.582,2.322,29.822c1.18,13.24,1.752,23.343,1.752,30.352c0,1.183-0.364,3.298-1.137,6.438l-1.187,5.255
			c0,0.772,0.388,2.119,1.187,4.073c0.772,2.322,1.137,4.073,1.137,5.254c0,1.548-0.181,3.136-0.572,4.688
			c0,1.546-0.199,3.094-0.564,4.642l-2.365,11.692c-1.144,5.051-6.238,11.123-15.154,18.128c-8.967,6.599-15.583,9.901-19.883,9.901
			c-3.868,0-8.146-0.776-12.832-2.322c-5.054-1.548-7.783-3.136-8.189-4.684c-4.279-2.322-8.96-5.624-14.012-9.9
			c-2.729-2.364-4.871-4.483-6.417-6.437c-1.956-1.958-2.915-3.505-2.915-4.687C849.936,519.301,851.102,517.753,853.438,516.612z
			 M738.391,228.667c0.372-2.322,1.35-3.911,2.896-4.682c0-17.52,1.187-29.212,3.499-35.04l-1.748-8.756
			c0-1.551-0.18-2.526-0.564-2.936c-0.779-4.642-1.187-8.35-1.187-11.079l-0.573-4.687c0-1.547,0.207-2.526,0.573-2.891
			c0.407-0.776,2.729-1.183,7.008-1.183c0.792,0,2.363,1.344,4.688,4.073l18.104,23.957c0.385,0,0.959,0.975,1.75,2.933l0.594,3.504
			l4.666,11.079c1.158,2.323,2.344,4.077,3.48,5.255c0.406,7.01-2.896,13.446-9.898,19.271c-4.685,3.911-12.467,7.984-23.384,12.264
			c-0.364-0.368-1.144-0.571-2.322-0.571h-3.499c-3.123-0.366-4.688-1.955-4.688-4.684S737.983,229.85,738.391,228.667z
			 M769.334,190.7v-3.505l-1.75,1.75L769.334,190.7z"/>
		<path d="M1682.848,544.905v-23.364c0.364-8.963,1.137-13.625,2.322-14.015v-9.938c0-3.505-0.207-6.213-0.57-8.171
			c-1.594-5.052-5.666-7.598-12.262-7.598c-4.688,0-9.574,0.207-14.631,0.592l-25.68,3.505c-5.072,0.386-9.738,0.589-14.039,0.589
			c-3.865,0-7.982,0.203-12.241,0.569l-24.54,2.343c-5.467,0.389-10.72,0.593-15.771,0.593c-2.322,0-5.256,0.386-8.758,1.161
			l-23.344,4.663c-5.052,0.795-9.572,1.182-13.447,1.182c-1.177,1.161-2.136,1.75-2.928,1.75h-2.894
			c-0.794,0-2.365,0.39-4.688,1.161l-7.001,2.916l-3.509-0.573c-2.344-0.385-4.095-0.978-5.259-1.75
			c-1.564,0-3.316,0.203-5.251,0.568c-1.571,0.41-3.321,1.181-5.253,2.342c-0.412,0-0.801,0.204-1.186,0.593
			c-0.385,0-0.771,0.203-1.178,0.569c-0.778,0.407-1.551,0.588-2.324,0.588c-1.549,0.796-2.934,1.161-4.07,1.161
			c-2.365,0-4.281-0.771-5.874-2.319c-1.543-1.182-2.888-2.936-4.073-5.258c-1.178-1.547-2.115-3.501-2.908-5.844
			c0-0.775-0.228-1.547-0.592-2.344l-0.573-1.75c0.366-1.937,0-3.687-1.177-5.256c-0.373-1.546-1.553-2.915-3.509-4.072
			l-4.073-3.505c-1.18-1.182-1.751-2.344-1.751-3.505l21.021-1.182l7.008-1.751c3.868-1.161,6.21-1.75,7.011-1.75l26.271-2.324
			h82.944c5.052,0,9.531-0.202,13.425-0.592l12.854-1.162c3.874-0.772,6.803-1.75,8.761-2.933c8.551,0,19.47-0.568,32.714-1.75
			c2.316,0,4.682-0.204,7.004-0.573l12.832-1.182l3.508-3.501v-13.445c0-4.277-0.406-7.578-1.186-9.918
			c-1.137-4.666-6.188-7.009-15.154-7.009c-2.322,0-5.072,0.592-8.188,1.754h-10.512c-8.553,0-14.424,1.161-17.52,3.501
			c-10.51,0-19.875,0.39-28.029,1.161l-16.945,2.344l-11.076,2.911c-3.916,0.796-7.216,1.183-9.945,1.183h-5.846
			c-1.935,0-3.5,0.203-4.664,0.571c-1.564,0.793-3.135,2.158-4.688,4.115c-6.23-0.407-10.302-3.322-12.26-8.78l-2.322-7.599
			c-0.793-2.709-1.752-4.849-2.929-6.417c-0.366-1.546-1.388-3.114-2.915-4.662l-2.916-2.936c-0.406-0.366-0.813-0.569-1.179-0.569
			c-1.552-1.546-2.729-2.933-3.502-4.094c-1.165-1.551-1.757-3.3-1.757-5.254h9.943c3.869,0,7.004,0.588,9.326,1.75
			c3.916,0,9.945-0.589,18.113-1.75c7.802-1.162,14.012-1.754,18.675-1.754l8.761,0.593l5.251,1.162h25.142l40.857-1.754h20.453
			c3.888,0,6.439-3.319,7.576-9.917c0.406-2.343,0.613-5.255,0.613-8.76v-7.619c0-2.708-0.406-5.828-1.18-9.328
			c-0.778-4.687-1.958-7.395-3.508-8.191c-8.959,0-19.655,0.593-32.102,1.754c-12.463,1.568-21.628,2.344-27.459,2.344h-4.688
			c-1.949,0-3.499-0.186-4.678-0.593c-0.779,0.796-2.73,1.958-5.831,3.505c-3.502,1.182-5.616,1.75-6.417,1.75l-3.5-1.75
			c-4.666-0.776-12.281-0.183-22.791,1.75c-0.366,0.407-0.779,0.613-1.164,0.613l-11.097,1.751
			c-4.667,0.776-8.761,1.141-12.269,1.141c-5.053,0-9.166-4.276-12.262-12.833c-1.177-3.115-2.114-6.438-2.914-9.941l-0.585-7.005
			h5.251c2.322,0,4.072,0.588,5.259,1.75l18.104-2.912l19.864-0.59c5.824,0,8.959-0.572,9.323-1.754h1.8
			c0-0.771,1.503-0.771,4.639,0l3.508,1.183c1.55,0.385,2.928,0.572,4.093,0.572l8.739-1.754c12.081-1.161,28.635-1.75,49.656-1.75
			c0.373-1.548,1.553-2.526,3.508-2.912c0.773-0.39,1.752-0.593,2.929-0.593l3.511-0.568c2.686,0,4.664-0.39,5.822-1.183
			c1.958-1.161,2.936-2.911,2.936-5.255l-1.186-22.774l-3.502-3.505c-7.008-0.385-13.445-0.204-19.268,0.572
			c-3.915,0-7.783,0.61-11.689,1.751l-8.768,1.754c-2.729,0.792-5.457,1.178-8.166,1.178c-1.157,0-2.135-0.204-2.908-0.568
			c-0.406,0-1.186-0.407-2.365-1.183l-2.322-1.182c-1.55-0.366-3.093-0.569-4.686-0.569c-2.322,0-4.48,0.387-6.396,1.183
			l-4.095,2.319c-1.564,1.182-2.916,1.958-4.095,2.322c-1.956,0.796-4.071,1.182-6.415,1.182c-1.158,0-2.344-0.568-3.48-1.75
			l-1.8-2.932c-0.771-1.937-1.336-2.12-1.749-0.573c-2.322,3.119-6.597,5.458-12.834,7.009c-4.272,0.773-10.51,1.18-18.697,1.18
			h-18.699c-6.188,0.368-10.487,1.16-12.831,2.322c-3.894,0.407-6.231-0.204-7.011-1.751l-3.499-7.009
			c-1.552-1.548-4.479-2.526-8.761-2.933c-1.957-0.366-3.915-0.569-5.822-0.569h-4.688c-5.458,0-9.739,0.976-12.854,2.934
			c-1.57,0.775-2.915,1.75-4.095,2.891l-5.821,7.619l-3.509,2.912c-3.502,1.936-7.802,2.915-12.854,2.915
			c-3.501,0.407-6.044-0.369-7.597-2.322c0-0.407-0.571-1.386-1.748-2.934c-0.779-1.55-1.553-2.729-2.324-3.504
			c-0.407-0.775-1.752-1.958-4.115-3.505l-14.588-10.51c-2.338-2.322-3.909-4.094-4.68-5.256c0-1.546,0.771-2.525,2.342-2.932
			c0.792-0.368,1.938-0.572,3.523-0.572c0.77-0.386,2.521-0.386,5.25,0l6.396,1.161h31.538l30.395-1.161l7.572-2.344l23.958-3.5
			c8.187-0.775,17.511-1.162,28.029-1.162h3.499c1.546,0,2.732,0.387,3.502,1.162c4.688,0,9.531-0.183,14.626-0.593l26.278-2.322
			c5.824-0.386,11.469-0.59,16.905-0.59c0.792,0,2.365-0.588,4.688-1.75c2.342-1.161,3.909-1.754,4.686-1.754h17.513
			c5.831,0,10.311-0.183,13.447-0.589c8.165-1.161,12.26-3.687,12.26-7.577l2.322-26.868l-1.158-3.522
			c-0.385,0-0.592-0.573-0.592-1.754l-0.572-1.75c-1.18-3.098-2.729-4.645-4.679-4.645c-8.56,0-16.542,0.368-23.958,1.141
			l-23.956,2.932c-2.322,0.41-4.458,0.572-6.396,0.572c-4.279,0.793-8.395,1.183-12.261,1.183c-3.136,0-6.802,0.406-11.103,1.181
			c-1.57,0-3.322,0.183-5.28,0.568l-11.646,2.344c-1.958,0.385-3.707,0.589-5.259,0.589c-4.315,0.776-7.979,1.162-11.117,1.162
			c-6.623,0-10.715-2.137-12.268-6.417c-0.772-1.568-1.363-3.911-1.75-7.006l-1.75-7.619c-0.771-1.161-2.138-2.526-4.074-4.073
			c-2.728-1.182-4.299-2.14-4.686-2.933l3.508-3.504h87.604l2.342-1.161c0.367,0,0.779-0.183,1.165-0.59
			c0.388,0,0.772-0.186,1.16-0.572c1.956-0.775,3.499-1.182,4.686-1.182h20.447c6.196-0.365,11.083-1.344,14.592-2.912
			c7.001-2.709,10.509-9.921,10.509-21.613l-2.322-7.006v-14.586c0-3.908,0.158-6.824,0.565-8.756
			c0.394-2.364,0.979-3.525,1.757-3.525c1.544,0,3.502,0.386,5.824,1.161l5.865,3.505c2.322,1.568,4.279,2.546,5.822,2.933
			c2.344,1.181,4.688,1.75,7.01,1.75l21.021-10.509c0,1.547-0.366,3.119-1.139,4.687c-0.406,1.141-1.184,2.525-2.363,4.073
			l-2.894,4.073c-0.407,1.588-0.614,3.136-0.614,4.687l5.871,3.5c1.931,1.183,3.688,1.958,5.252,2.344
			c1.551,0.795,2.895,1.161,4.074,1.161c9.352,0,20.248-4.666,32.717-14.016c4.666-3.5,9.125-7.391,13.425-11.691l18.104-18.678
			c1.958-1.937,3.509-3.687,4.688-5.255c1.549-1.937,2.688-3.688,3.501-5.256c0-5.441-3.501-8.17-10.512-8.17
			c-4.292,3.119-13.646,4.666-28.063,4.666c-0.373,0-1.758,1.568-4.08,4.666c-2.315,3.136-3.887,4.683-4.679,4.683l-18.091,15.766
			c-5.052,4.28-8.96,6.416-11.689,6.416c0-1.547,0.407-3.115,1.178-4.662c0.365-1.182,1.18-2.526,2.322-4.094
			c0.406,0,0.98-0.389,1.794-1.161l1.143-1.754c0.772-1.183,1.366-2.341,1.751-3.501c0-2.733,1.365-6.807,4.093-12.265
			c1.931-4.276,4.867-9.531,8.739-15.766l4.116-8.187l8.145-12.833c-0.364-1.182-0.571-2.729-0.571-4.687l3.502-12.261
			c0.391-2.344,0.57-4.483,0.57-6.437c0.407-10.103-2.707-21.023-9.325-32.695l-3.507-5.845c-1.545-2.729-2.73-4.483-3.501-5.255
			c-1.956-3.89-2.915-6.806-2.915-8.76c1.529,0,3.301,0.204,5.237,0.572l5.251,1.179c2.73,0.775,4.488,1.182,5.259,1.182
			c1.958,0.369,3.709,0.572,5.259,0.572c10.916,0,20.242,5.458,28.063,16.354c4.647,2.344,9.698,7.009,15.178,14.014l12.852,17.52
			c-1.55,7.802-7.415,11.672-17.518,11.672l-3.501-1.161c-1.957,0.385-3.322,1.161-4.115,2.343
			c-1.145,1.548-1.551,3.116-1.145,4.663c1.145,0,2.529-0.386,4.08-1.162l2.93-1.179v2.341l-1.75,4.665
			c-1.18,3.136-1.752,5.073-1.752,5.865c0,1.141,1.139,2.73,3.502,4.646c2.322,1.588,4.073,2.364,5.258,2.364
			c4.273-1.568,8.959-2.73,14.011-3.505l16.907-2.364l9.938-0.568c5.059-0.776,9.539-1.754,13.447-2.933
			c1.549,0,3.707-1.551,6.436-4.646l7.582-9.941c7.367-9.735,12.627-14.604,15.762-14.604c1.957,0,4.279,1.568,7.01,4.667
			l5.258,7.005c1.949,1.958,4.48,3.912,7.574,5.848l4.686,2.912c1.546,1.182,2.931,1.955,4.096,2.343
			c6.209,4.663,9.711,10.328,10.51,16.927c0,3.522-2.55,5.459-7.602,5.865l-5.824,0.573c-1.959,0-3.322,0.203-4.094,0.59
			l-4.094-1.163h-2.936c-2.711-0.406-4.646-1.182-5.824-2.343l-3.5,3.505c-1.553,0-3.875-0.387-7.01-1.163l-5.824,1.163h-6.437
			c-0.388,2.342-2.937,3.687-7.581,4.093c-1.951,0.39-4.295,0.572-7.002,0.572l-8.195,0.589c-14.012,0.385-21.02,2.912-21.02,7.599
			c0,3.114,0.571,5.641,1.748,7.577l8.175,10.511c0.772,2.343,0.959,4.89,0.587,7.598L1834.111,139
			c-7.008,3.119-11.695,6.624-14.018,10.514l-24.521,12.26c-9.738,5.053-19.111,7.985-28.071,8.76
			c1.179,0.773,0.614,1.183-1.749,1.183l-10.512,1.161c-10.875,1.933-16.34,7.802-16.34,17.516c0,1.958,1.757,3.708,5.259,5.256
			c2.729,1.161,5.251,1.754,7.595,1.754l11.674-1.754c1.545-0.386,2.937-0.59,4.073-0.59c17.927,0,30.394-2.119,37.396-6.416
			c3.123-1.937,6.031-4.87,8.761-8.76l5.259-8.167c0.364-0.41,0.585-0.776,0.585-1.183c0.8-1.546,1.53-2.729,2.344-3.504h3.509
			c0.771,0.775,2.114,1.547,4.072,2.343l23.363,12.262c14.403,9.352,21.612,19.27,21.612,29.78c0,1.571-0.571,3.707-1.749,6.416
			l-3.508,7.619c-3.502,7.781-5.253,14.015-5.253,18.681c0,8.574,4.479,12.854,13.44,12.854l7.01,0.568
			c4.666-0.365,7.78-1.344,9.33-2.912l21.021-18.681l3.502-2.36c1.956-0.369,3.893,0,5.843,1.178l5.259,4.097
			c4.664,4.298,8.76,6.048,12.28,5.256c2.71,2.34,6.802,6.416,12.261,12.261l5.83,7.599c1.952,2.322,2.93,3.89,2.93,4.665
			c0,8.575-3.501,12.853-10.509,12.853c-5.458,0-8.96-0.774-10.512-2.342l-5.864,2.342c-1.551,0.387-3.5,0-5.822-1.181l-4.688-1.161
			c-2.322,0-4.872,0.203-7.582,0.589l-18.697,1.753h-8.168c-4.3,0.387-8.166,0.977-11.667,1.751
			c-10.146,2.323-15.197,6.417-15.197,12.261c0,2.323,1.546,4.87,4.679,7.578l11.084,7.619c10.51,7.78,15.768,15.562,15.768,23.342
			c0,2.344-0.57,3.505-1.75,3.505l-35.037-1.751l-10.512,1.751h-8.759c-1.18-0.365-1.751-0.958-1.751-1.751
			c-8.96,0-20.447,1.386-34.468,4.094c-14.011,3.115-24.155,4.663-30.386,4.663l-12.832-1.75c-1.959,1.954-4.688,3.136-8.174,3.505
			h-10.51c-1.564,0-4.294,2.156-8.168,6.438c-3.908,4.275-5.865,7.391-5.865,9.328v22.792c1.564,8.17,7.417,12.264,17.539,12.264
			h33.875c12.468-0.385,22.77-1.568,30.959-3.504c7.781-1.934,17.113-8.37,28.029-19.291l9.916-11.079
			c3.509-3.119,6.033-4.687,7.604-4.687c3.865,0,10.305,3.912,19.269,11.692c9.325,8.187,14.011,15.4,14.011,21.613
			c-2.727,2.729-7.209,6.048-13.445,9.921c-6.229,3.912-10.51,7.005-12.832,9.348l-8.753-1.753l-12.267,1.753l-7.004-1.753
			c-5.458,0-15.561,1.161-30.393,3.504c-7.375,1.161-13.812,1.958-19.27,2.344c-7.781,0.775-15.971,1.161-24.521,1.161
			c-21.027,0-31.537,5.255-31.537,15.766l0.571,5.848c0.407,2.729,0.979,5.255,1.751,7.574c1.571,6.234,3.915,9.373,7.008,9.373
			c1.18,0,2.365-0.207,3.523-0.593l6.417-2.343c1.55-0.386,2.935-0.569,4.093-0.569c11.674,0,22.385-0.203,32.123-0.61l39.719-2.322
			c6.216-0.39,12.633-0.572,19.268-0.572c0.779,0,2.531-0.61,5.26-1.75l5.259-1.754h3.502c1.956,0,3.707,1.141,5.251,3.505
			c0.372,0,0.978-0.61,1.757-1.75l1.751-3.505l14.012-1.75c5.051-1.183,9.125-2.933,12.269-5.276
			c3.134-9.349,8.386-14.015,15.761-14.015c5.824,0,15.563,6.234,29.208,18.678c5.464,5.093,10.103,9.941,14.018,14.628
			c3.866,4.662,5.824,7.78,5.824,9.328c0,1.955-1.146,3.505-3.501,4.684c-10.104,0-21.592-0.204-34.467-0.59l-30.924-0.588
			c-1.565,0.406-3.316,0.588-5.252,0.588c-6.23,0.386-13.646,0.59-22.207,0.59c-3.499,0-8.957,0.571-16.374,1.754
			c-7.01,1.546-12.626,2.136-16.905,1.75l-5.259-1.182c-1.95,0.796-4.315,1.182-7.003,1.182l-12.268-1.182
			c-1.95,0.41-5.25,0.796-9.938,1.182h-12.854c-1.158,1.161-3.115,1.958-5.844,2.323c-2.729,0.795-5.461,1.182-8.188,1.182
			c-1.552,0-4.281,0.386-8.154,1.161c-1.584,0-3.295,0.204-5.252,0.59l-20.447,4.073l-1.186,4.686l0.612,47.299
			c-0.792,17.903-3.341,29.005-7.622,33.282c1.186-1.162,0.979-0.387-0.565,2.343c-1.55,3.118-3.508,6.213-5.843,9.349
			c-7.396,10.103-14.613,15.196-21.615,15.196c-2.322-1.567-4.079-3.504-5.259-5.864l-2.319-5.828l-1.18-6.438
			c-0.407-2.729-0.979-4.848-1.752-6.416c-1.186-1.162-2.322-3.319-3.508-6.416c-1.543-3.136-2.322-5.255-2.322-6.438
			L1682.848,544.905z M1439.309,183.387c0.77,0,2.322-0.958,4.645-2.915l17.539-15.193c3.48-3.099,6.617-5.255,9.347-6.438
			c0.37-1.14,2.528-3.301,6.396-6.396l12.875-11.123c5.83-5.053,10.873-9.714,15.195-14.016
			c5.824-5.823,10.695-11.281,14.582-16.334c0-0.775,1.553-2.343,4.688-4.687c2.689-2.322,4.074-3.87,4.074-4.662
			c4.686-5.441,10.51-15.176,17.52-29.191c1.543-4.297,3.5-8.962,5.822-14.035l16.947-38.54c0.407-1.162,0.594-3.116,0.594-5.845
			c0-0.385,0.18-0.775,0.592-1.182V7.577c0.771-5.051,2.115-7.577,4.074-7.577c1.18,0,2.729,1.182,4.679,3.505l14.632,18.108
			c3.48,3.5,6.98,6.416,10.49,8.756c1.936,0,4.664,2.916,8.166,8.76c0.773,1.957,1.543,3.504,2.322,4.666
			c0.773,1.568,1.751,3.136,2.928,4.683c2.325,3.505,5.055,6.806,8.189,9.921c0.373,3.505-2.543,7.009-8.754,10.511
			c-6.237,3.524-9.352,7.029-9.352,10.53c0,3.099,1.729,5.053,5.238,5.828l4.113,1.183h15.762l12.834-1.183
			c10.145-1.548,16.748-4.687,19.883-9.328c0-1.182,0.773-2.936,2.322-5.276c1.551-2.343,3.502-4.462,5.844-6.416
			c1.938-1.958,3.896-3.505,5.846-4.687c1.552-1.161,2.322-1.547,2.322-1.161c0.386,0,2.145,1.754,5.26,5.255l11.08,11.672
			l10.531,13.446c3.117,4.682,4.666,7.78,4.666,9.349c0,1.934-0.779,3.891-2.328,5.844c-7.41,1.161-17.334,1.958-29.773,2.322
			h-14.59l-15.197,1.183c0,0.385-2.157,0.979-6.438,1.75c-5.043,1.161-9.166,1.754-12.262,1.754l-9.938,1.161
			c-1.178,0-2.527,0.204-4.073,0.59l-3.499,0.572c-6.238,0.793-11.698,1.179-16.362,1.179c-1.158,0-2.545,0.207-4.095,0.571
			l-10.51,2.344c-2.322,0.385-4.479,0.589-6.438,0.589c-12.831,1.161-21.591,2.729-26.278,4.666
			c-1.949,0.792-3.887,2.136-5.824,4.094c-0.406,0-0.77,0.386-1.177,1.161l-5.259,4.094c-2.322,0.776-4.666,1.751-7.01,2.912
			l-11.075,6.417c-2.729,1.182-5.465,1.957-8.194,2.343c-0.385,0-1.75,1.568-4.072,4.666c-2.365,3.136-3.908,4.682-4.682,4.682
			c-3.143,1.552-5.664,3.119-7.601,4.688l-4.667,4.072c-1.564,1.548-2.729,2.527-3.499,2.934c-1.571,0.775-3.321,1.161-5.253,1.161
			c-2.729,0-4.486-1.161-5.259-3.505v1.161c0,1.551-1.385,3.505-4.114,5.848c-2.322,2.344-5.417,4.667-9.332,7.006
			c-9.73,5.458-17.719,8.171-23.956,8.171L1439.309,183.387z M1587.072,289.083c-0.407,0-0.615,0.207-0.615,0.593
			c0,0.386,0.208,0.792,0.615,1.162c0.77,0,1.137-0.37,1.137-1.162C1588.209,289.289,1587.842,289.083,1587.072,289.083z
			 M1596.396,164.118l4.093-14.604c1.938-11.286,3.688-19.066,5.259-23.364l1.751-1.16c10.124,5.458,20.82,15.968,32.124,31.53
			c2.322,5.053-0.979,12.058-9.938,21.021c-8.56,9.35-17.135,14.015-25.686,14.015c-7.01,0-10.49-3.869-10.49-11.671
			C1593.508,175.607,1594.439,170.352,1596.396,164.118z M1595.237,82.945c0,3.098,1.751,4.645,5.251,4.645
			c-0.792-0.368-1.563-1.343-2.342-2.894l-2.909-4.115V82.945z M1598.739,82.334c0,0.407,0.593,0.61,1.749,0.61
			c0.801,0,1.166-0.204,1.166-0.61c0-1.141-0.365-1.754-1.166-1.754C1599.332,80.581,1598.739,81.194,1598.739,82.334z
			 M1623.245,218.443c0,2.323,0.794,3.501,2.358,3.501l1.144-3.501H1623.245z M1646.632,93.454c0,0.776,0.364,1.163,1.177,1.163
			c1.144,0,1.752-0.387,1.752-1.163c0-1.546-0.608-2.343-1.752-2.343C1646.996,91.111,1646.632,91.908,1646.632,93.454z
			 M1709.691,348.663c0,0.796,0.406,1.161,1.18,1.161c1.164,0,1.758-0.365,1.758-1.161c0-1.547-0.594-2.339-1.758-2.339
			C1710.098,346.324,1709.691,347.116,1709.691,348.663z M1714.951,214.918c0,0.796,0.586,1.161,1.75,1.161
			c0.407,0,0.594-0.365,0.594-1.161c0-1.548-0.187-2.344-0.594-2.344C1715.537,212.574,1714.951,213.371,1714.951,214.918z
			 M1727.211,309.535c1.18,3.504,2.363,6.233,3.502,8.19c3.508,6.231,8.188,9.328,14.037,9.328c3.116,0,5.846-0.572,8.168-1.754
			l37.377-3.5c2.342,0,4.092-2.729,5.277-8.17c0.771-1.934,1.137-4.094,1.137-6.416l0.615-4.684c0-10.9-4.688-16.358-14.033-16.358
			c-0.801,1.161-3.322,1.958-7.604,2.343c-1.956,0.386-4.278,0.569-7.008,0.569h-7.574c-7.008,0-12.469,0.207-16.355,0.593
			c-5.85,0.792-10.122,1.953-12.852,3.525c0,1.547-0.779,3.094-2.324,4.642c-0.799,1.182-2.363,2.729-4.686,4.687L1727.211,309.535z
			 M1738.9,266.901c1.552,0.388,3.301,0.592,5.259,0.592h4.093l45.57-5.848c1.543-0.385,2.887-1.933,4.072-4.662
			c0.773-1.958,1.18-3.89,1.18-5.848c0.364,0,0.364-1.161,0-3.505l-1.75-28.046c-0.793-0.776-2.564-1.548-5.281-2.322l-7.594-2.344
			c-5.824-1.548-9.146-2.344-9.917-2.344l-3.53,3.505c-11.281,0-20.614,1.386-28.008,4.115c-9.732,3.87-14.604,9.535-14.604,16.927
			c0,9.349,0.777,17.519,2.322,24.524C1732.67,264.375,1735.398,266.128,1738.9,266.901z M1790.885,155.338
			c0,0.795,0.366,1.181,1.158,1.181c0.801,0,1.166-0.386,1.166-1.181c0-1.548-0.365-2.324-1.166-2.324
			C1791.251,153.014,1790.885,153.79,1790.885,155.338z M1890.164,72.434c0,0.776,0.592,1.141,1.759,1.141
			c0.771,0,1.177-0.365,1.177-1.141c0-1.568-0.406-2.363-1.177-2.363C1890.756,70.071,1890.164,70.866,1890.164,72.434z"/>
	</g>
	<path d="M0,564.236V29.738h111.459v22.489c-62.571,5.542-64.854,7.495-64.854,56.056v377.409c0,47.905,2.282,49.211,64.854,55.404
		v23.14H0z"/>
	<path d="M2193.389,564.236v-23.14c62.896-6.193,64.834-7.499,64.834-57.034V107.631c0-47.91-1.938-49.863-64.834-55.404V29.738
		h111.457v534.498H2193.389z"/>
</g>
<g id="Layer_2">
</g>
</svg>
