<?xml version="1.0" encoding="utf-8"?>
<!-- Generator: Adobe Illustrator 16.0.0, SVG Export Plug-In . SVG Version: 6.00 Build 0)  -->
<!DOCTYPE svg PUBLIC "-//W3C//DTD SVG 1.0//EN" "http://www.w3.org/TR/2001/REC-SVG-20010904/DTD/svg10.dtd">
<svg version="1.0" xmlns="http://www.w3.org/2000/svg" xmlns:xlink="http://www.w3.org/1999/xlink" x="0px" y="0px"
	 width="2304.849px" height="602px" viewBox="0 0 2304.849 602" enable-background="new 0 0 2304.849 602" xml:space="preserve">
<g id="Layer_1">
	<path d="M0,568.648V34.151h111.463v22.488c-62.575,5.542-64.856,7.496-64.856,56.056v377.406c0,47.909,2.281,49.215,64.856,55.408
		v23.14H0z"/>
	<path d="M2193.389,568.648v-23.14c62.899-6.192,64.815-7.499,64.815-57.038V112.043c0-47.909-1.916-49.863-64.815-55.404V34.151
		h111.459v534.497H2193.389z"/>
	<g>
		<path d="M408.247,578.507c1.547,0,2.729-0.207,3.502-0.572l1.161-0.569c0,2.319-1.568,3.502-4.663,3.502V578.507z
			 M422.262,575.002c0-1.14,1.178-2.322,3.501-3.504l21.023-8.76c4.683-1.954,8.756-4.073,12.261-6.396
			c-2.729,0.369,1.957-2.564,14.015-8.756c11.286-6.233,27.66-14.628,49.049-25.139c4.684-5.458,11.692-10.713,21.041-15.764
			c1.162-0.366,2.14-0.979,2.913-1.751l8.759-4.687c4.276-2.323,7.985-4.645,11.124-7.006l4.073-4.645l9.938-7.006l19.269-22.774
			l22.186-23.384c10.121-11.692,15.172-21.796,15.172-30.353c0-5.865-0.772-12.26-2.322-19.269l-10.511-44.974
			c-3.136-12.467-5.844-22.774-8.187-30.961c-3.116-11.286-5.828-19.879-8.146-25.707c-3.139-7.375-5.868-11.082-8.192-11.082
			c-2.342,0-4.682,1.141-7.005,3.504l-31.551,32.104c-2.712,8.187-7.396,12.264-14.015,12.264c-2.709,0-7.801-2.322-15.176-7.009
			c-3.136-1.955-5.662-3.87-7.599-5.824c-2.343-1.957-3.525-3.504-3.525-4.687l4.687-4.687c2.344-2.319,3.708-3.87,4.095-4.642
			c1.546,0,3.301-0.41,5.275-1.182c2.323-0.369,4.646-1.344,6.989-2.932c6.619-3.87,12.443-9.536,17.517-16.91l9.921-5.865
			c3.504-1.917,7.211-3.505,11.12-4.646c8.149-3.136,13.811-14.218,16.927-33.322c0-1.551,0.186-3.301,0.593-5.255l1.75-14.015
			c0.776-5.053,1.938-7.375,3.505-7.009c8.942-1.141,16.744,2.363,23.342,10.509c5.459,7.009,8.188,13.65,8.188,19.884
			c0.368,1.14,0,2.322-1.179,3.501c-0.368,0-1.162,0.369-2.323,1.141l-2.932,2.364c-5.828,4.687-8.76,11.692-8.76,21.02
			c0,1.182,1.954,6.437,5.844,15.769c4.3,9.734,8.943,19.676,14.035,29.78c6.193,12.057,11.855,21.833,16.906,29.208
			c5.869,8.557,10.328,12.833,13.443,12.833c5.461,1.588,10.514-0.938,15.197-7.577c1.55-2.322,3.301-5.621,5.255-9.938
			l4.077-10.511c3.5-4.28,6.636-10.104,9.348-17.52l5.276-14.583c0.365-1.958,0.938-3.708,1.751-5.255
			c0-0.41,1.14-2.527,3.504-6.437c2.322-4.28,3.505-6.806,3.505-7.578c0-3.505,1.75-8.557,5.251-15.197l2.322-4.073
			c1.182-1.588,1.958-2.933,2.323-4.114c1.958-3.505,3.322-6.599,4.115-9.332c0-8.188,2.322-18.292,7.009-30.39
			c0.365-1.916,1.344-4.277,2.891-7.006l7.619-22.165c1.547-6.229-5.072-9.37-19.879-9.37c-0.775-0.365-1.936,0-3.505,1.183
			c-1.546,0.775-2.708,1.182-3.504,1.182l-17.515-2.364c-5.829,0-12.468,0.204-19.842,0.613l-40.291,2.892
			c-7.416,0.407-14.218,0.61-20.452,0.61c-7.006,0-12.078-0.204-15.193-0.61c-3.119,2.729-7.578,4.114-13.446,4.114l-12.833-0.61
			c-1.182,0-3.297,0.61-6.437,1.751c-2.709,1.183-4.846,1.751-6.396,1.751l-43.812,9.37l-5.279,1.754
			c-2.708,1.14-4.458,1.75-5.255,1.75c-4.276,0-7.963,0.369-11.079,1.141c-2.729,0.407-5.255,0.979-7.578,1.754l-5.256,2.933
			c-2.363,1.181-4.317,1.954-5.868,2.322c-7.006,0.407-14.788,2.361-23.343,5.865l-4.683,1.751
			c-1.958,0.776-3.302,1.141-4.074,1.141c-2.732,1.182-4.89,1.754-6.437,1.754c-3.894,0-7.577-3.302-11.083-9.901l-2.363-4.114
			c-0.366-0.366-0.773-1.141-1.141-2.322l-1.183-2.324c-1.546-3.136-2.932-5.458-4.072-7.005l-5.866-8.76
			c-1.551-2.363-2.526-4.114-2.895-5.255c-1.178-1.588-1.75-2.729-1.75-3.504l1.141-1.793c1.182-1.14,1.953-1.75,2.364-1.75
			l89.908,1.182l12.264,2.361c0.793,1.916,2.933,1.14,6.438-2.361c0.387,0,0.772-0.207,1.182-0.572
			c0.365-0.776,0.771-1.183,1.178-1.183c1.145-0.771,1.917-1.547,2.324-2.322c1.936-1.183,3.504-1.751,4.665-1.751l47.321-1.182
			l8.146-1.183c3.136,0,6.234-0.365,9.37-1.14c17.52-2.73,27.619-7.782,30.352-15.194l0.589-4.077
			c0.387-1.953,0.793-3.297,1.161-4.114c0.407-3.095,1.385-5.824,2.933-8.146c0-26.483-5.051-47.503-15.196-63.106
			c-0.771-1.547-2.319-3.095-4.663-4.646l-6.416-3.5c-5.828-2.729-8.76-5.868-8.76-9.37c0-3.504,3.3-6.031,9.921-7.577l14.604-2.933
			l14.583-6.4c6.234-2.729,11.489-4.114,15.769-4.114c6.641,0,11.896,0.41,15.786,1.181c3.115,0.776,5.641,1.754,7.599,2.933
			l4.073,3.505c1.547,1.547,3.297,2.526,5.254,2.895l22.771,5.865c9.37,2.729,16.54,6.234,21.633,10.51
			c0,4.276-1.953,7.782-5.865,10.511l-4.645,2.322c-0.817,0.407-1.183,0.776-1.183,1.182c-2.729,1.141-4.687,2.323-5.823,3.505
			l-7.619,8.756c-2.729,3.504-4.849,6.806-6.417,9.9l-2.343,42.086c-0.369,13.604,5.458,21.588,17.516,23.911
			c4.687,1.181,11.696,1.588,21.024,1.181l28.639-0.568c5.458,2.319,11.282,3.501,17.515,3.501c10.125,0,20.615-4.683,31.534-14.015
			l14.604-15.194c5.031-4.687,9.552-8.353,13.421-11.082c4.688-3.504,8.192-5.255,10.514-5.255c2.361,1.141,4.276,2.526,5.865,4.073
			l9.901,9.941c3.136,3.094,6.437,6.031,9.938,8.76l4.687,3.5c1.141,1.141,2.708,2.322,4.666,3.505
			c6.62,5.052,10.896,8.557,12.849,10.51c7.01,6.599,10.514,15.766,10.514,27.458c0,7.782-4.317,12.468-12.832,14.015
			c-1.978,0.369-4.505,0-7.62-1.182l-4.072-1.75c-1.183-0.365-2.364-0.572-3.505-0.572c-13.239-3.136-27.661-5.663-43.222-7.616
			c-12.468-1.141-26.869-2.119-43.227-2.895l-10.51-3.5h-29.78c-1.183,0-1.751,1.14-1.751,3.5l9.329,18.088l2.933,4.077
			c1.161-1.141,4.073,0.61,8.759,5.255l12.261,12.261c1.182,1.182,2.936,2.568,5.258,4.114l6.434,4.646
			c5.051,3.504,7.577,7.212,7.577,11.12c-1.954,3.505-4.865,7.009-8.76,10.514l-19.839,15.193c-2.363,1.551-4.114,2.895-5.275,4.073
			c-1.568,1.182-2.546,2.161-2.912,2.937c0,8.962-2.526,16.744-7.599,23.343l-6.416,8.188c-1.568,1.547-2.729,3.098-3.505,4.646
			c-1.567,1.588-2.729,3.136-3.501,4.682l-3.505,5.256c-0.407,1.55-1.182,3.504-2.343,5.868l-2.912,6.396l-3.504,5.254
			c-14.422,22.978-28.64,41.107-42.655,54.347c-1.161,1.913-0.568,5.052,1.754,9.328c1.954,3.911,4.886,8.394,8.756,13.442
			c3.911,5.053,7.781,9.333,11.692,12.833c4.28,3.912,7.395,6.031,9.331,6.438c6.23,0.368,12.261,2.895,18.129,7.577l2.933,2.937
			c1.526,1.546,2.688,2.522,3.501,2.891c2.691,2.364,5.237,3.912,7.578,4.683c5.051,0.41,10.509,2.322,16.337,5.828l2.344,1.75
			c0.385,0.411,0.792,0.613,1.161,0.613c1.546,0.773,2.729,1.548,3.501,2.324c3.139,1.546,5.869,2.729,8.191,3.5
			c7.78,2.729,16.54,6.641,26.275,11.692c1.547,0,3.302,0.407,5.255,1.183l7.599,5.255c0.776,0.774,1.547,1.141,2.343,1.141
			c1.547,1.182,2.912,1.753,4.073,1.753c22.571,11.692,47.113,18.698,73.596,21.021c2.343,1.182,3.505,3.504,3.505,7.006
			c-1.937,0.406-4.098,1.181-6.417,2.363c-1.551,0.776-3.139,1.954-4.687,3.505l-4.073,3.501l-12.264,5.256l-14.625,7.577
			c-0.365,0-1.75,1.551-4.073,4.687c-2.322,3.095-3.89,4.683-4.687,4.683c-3.501,1.551-7.372,5.052-11.672,10.514
			c-3.5,4.641-7.188,7.005-11.099,7.005c-2.322,0-5.461-0.407-9.331-1.183l-8.188-2.322c-0.385,0-2.14-1.182-5.255-3.5
			c-2.729-2.364-4.48-3.505-5.255-3.505c-1.183-0.816-2.73-1.385-4.683-1.75c-0.776-0.41-2.322-0.817-4.646-1.182l-5.255-1.183
			c-1.956-0.368-3.504-0.978-4.687-1.753l-12.26-10.511c-0.41-0.365-1.551-0.975-3.505-1.751l-14.015-6.437l-21.021-17.516
			c-1.568-1.551-3.707-3.301-6.436-5.258l-19.839-15.766c-1.183-1.548-4.687-4.438-10.534-8.76l-13.423-11.65
			c-7.416-6.641-16.561-15.194-27.458-25.704c-3.891-0.776-8.374,1.344-13.445,6.396l-11.079,11.692l-2.323,0.61
			c-0.815,0-1.385,0.162-1.75,0.568c-1.589,0.368-1.754,1.551-0.613,3.504c-10.104,10.104-19.271,18.496-27.417,25.098
			c-6.254,4.682-12.67,9.167-19.311,13.442c-0.771,0.776-1.933,1.548-3.504,2.324l-10.51,6.437
			c-4.643,3.136-9.125,6.802-13.402,11.079h-1.771c-1.161,0-2.916,1.182-5.255,3.505c0,0.407-0.186,0.61-0.593,0.61l-4.667,4.076
			L521.541,542.9c-11.692,5.459-21.407,10.307-29.208,14.583c-1.547,1.551-3.504,2.936-5.826,4.114l-5.846,2.323l-5.848,1.182
			c-2.322,0.365-4.073,0.938-5.255,1.751c-3.89,0-7.395,0.571-10.51,1.753l-12.833,5.256c-1.568,0.771-3.322,1.343-5.256,1.75
			c-4.296,1.141-8.962,1.754-14.013,1.754L422.262,575.002z M647.711,33.621c0.365,0.775,1.343,1.182,2.891,1.182l1.182-7.006
			l-1.182-2.363c-2.322,1.546-3.505,3.504-3.505,5.868C647.097,32.073,647.3,32.849,647.711,33.621z M664.617,27.796
			c0,0.773,0.407,1.141,1.182,1.141c1.183,0,1.751-0.368,1.751-1.141c0-1.588-0.568-2.363-1.751-2.363
			C665.023,25.434,664.617,26.208,664.617,27.796z M664.617,31.302c0,0.771,0.407,1.141,1.182,1.141
			c1.183,0,1.751-0.369,1.751-1.141c0-1.593-0.568-2.364-1.751-2.364C665.023,28.938,664.617,29.709,664.617,31.302z
			 M729.473,482.729c0,0.813,0.573,1.18,1.751,1.18c0.775,0,1.14-0.366,1.14-1.18c0-1.55-0.365-2.322-1.14-2.322
			C730.046,480.407,729.473,481.18,729.473,482.729z M780.846,466.961c0,1.183,0.406,1.754,1.182,1.754
			c0.771,0,1.183-0.571,1.183-1.754c0-1.14-0.411-1.75-1.183-1.75C781.252,465.211,780.846,465.821,780.846,466.961z
			 M780.846,477.472c0,1.182,0.406,1.754,1.182,1.754c0.771,0,1.183-0.572,1.183-1.754c0-1.141-0.411-1.751-1.183-1.751
			C781.252,475.721,780.846,476.331,780.846,477.472z"/>
		<path d="M1434.298,353.097l1.753-4.115l2.319-2.891c6.644-15.562,11.692-30.394,15.197-44.405
			c3.87-16.745,5.827-32.513,5.827-47.299c0-10.511-0.776-19.271-2.322-26.276c0-0.775-0.573-3.139-1.755-7.009l-1.75-7.006v-4.114
			c0-1.916,0.776-2.895,2.322-2.895c1.958,0,4.115,1.551,6.438,4.645c1.547,2.364,3.504,5.663,5.823,9.942l4.687,11.079l2.364,7.619
			c0,1.546,0.162,3.097,0.568,4.687c0.369,1.912,1.183,4.073,2.324,6.396c2.729,5.458,7.004,11.12,12.874,16.947
			c18.661,0,28.029-7.009,28.029-21.021c0-9.373-0.613-21.023-1.753-35.039l-3.501-35.035c0-7.822-0.207-15.969-0.613-24.563
			c-0.365-10.104-1.141-19.639-2.322-28.602c-2.73-22.202-7.006-35.645-12.833-40.29l-6.438-4.683
			c-2.729-1.551-4.072-3.505-4.072-5.828c0-1.953,3.666-4.89,11.081-8.76c7.375-4.276,13.604-6.436,18.699-6.436
			c4.279,0,10.103,1.753,17.519,5.255c7.782,3.504,13.605,5.255,17.517,5.255c2.322,0.41,6.806-0.568,13.446-2.933
			c3.094-1.141,5.62-2.322,7.577-3.5c2.322-1.551,3.502-2.895,3.502-4.077c0-1.954-0.204-4.073-0.569-6.438l-4.114-9.897
			c-0.369-1.551-0.572-3.139-0.572-4.687c0.776-0.365,2.322-0.568,4.687-0.568l19.838,1.751c0.775,0,2.936,0.978,6.438,2.891
			c3.504,1.958,5.417,2.937,5.826,2.937h10.511c1.546,0,4.684,1.178,9.37,3.5c4.276,2.322,9.125,5.458,14.583,9.332
			c11.692,8.188,19.639,14.422,23.956,18.698c5.053,1.954,9.329-1.343,12.833-9.941c3.095-7.374,4.684-14.583,4.684-21.588
			c0-1.958-0.407-3.875-1.182-5.828c-0.772-1.547-1.955-3.136-3.502-4.687l-1.754-1.751c-0.772-0.775-1.178-1.344-1.178-1.75
			c-1.14-1.182-1.754-2.323-1.754-3.504c0-3.912,1.958-6.031,5.869-6.438l10.51,0.61c1.954,0,4.683,1.348,8.188,4.077
			c2.688,2.319,5.828,5.661,9.328,9.938c2.729,2.729,5.458,5.827,8.19,9.333c2.319,2.729,3.502,4.276,3.502,4.682l-3.502,5.827
			c0,5.458-3.139,11.692-9.369,18.698c-6.234,7.006-9.333,12.833-9.333,17.52c0,1.953,0.979,4.845,2.933,8.755
			c1.551,3.098,3.87,7.01,7.01,11.693c0.772,1.549,1.912,3.3,3.504,5.255c0.772,1.55,1.751,3.097,2.892,4.645l2.932,4.115
			c0,6.599-0.979,11.854-2.932,15.765c-0.776,1.957-1.751,3.504-2.892,4.645l-9.373,10.509c-1.954,3.14-2.891,7.213-2.891,12.306
			c-0.407,3.87-2.933,8.922-7.619,15.152c-4.277,5.869-6.438,11.327-6.438,16.378c0,1.141,1.182,3.095,3.505,5.828
			c1.957,2.319,4.482,5.051,7.618,8.187c6.599,5.824,11.854,9.901,15.765,12.262c0.776,1.14,1.344,2.894,1.751,5.255l1.183,7.009
			c1.55,5.824,4.072,8.76,7.577,8.76l23.343-2.322h13.446l7.006-1.183c10.51-1.546,15.765-6.802,15.765-15.766
			c0-1.957-0.203-3.911-0.568-5.868l-1.183-6.396c-1.957-5.051-4.848-7.984-8.76-8.76l-44.363,1.754
			c-1.589,0-3.139-1.181-4.687-3.505c-1.547-1.953-2.322-4.275-2.322-7.006c0-1.956,1.551-3.707,4.645-5.254
			c3.136-1.182,7.212-2.161,12.265-2.936c8.552-1.547,18.29-2.322,29.208-2.322c11.692,0,17.52-5.866,17.52-17.516
			c0-15.603-3.708-23.384-11.083-23.384c-4.687,0-11.285,0.979-19.88,2.932c-8.555,1.958-14.79,2.895-18.659,2.895
			c-4.684,0-7.006-3.302-7.006-9.901v-7.619c0-6.192,7.006-9.328,21.021-9.328l5.827,0.568l12.871,4.115
			c2.691,0.775,4.848,1.141,6.399,1.141c7.412,0,11.896-4.642,13.443-14.015c0.365-3.095,0.568-7.372,0.568-12.833V88.498
			c0.41-2.322,0.41-4.073,0-5.255c0-3.87-1.141-6.031-3.5-6.396c-5.828,0-11.286,0.365-16.337,1.141
			c-3.505,0.406-7.213,0.978-11.124,1.75c-0.773,0.407-2.116,0.816-4.073,1.183l-3.505,0.568c-2.729,0.816-5.254,1.181-7.574,1.181
			c-9.373,0-14.015-3.5-14.015-10.509c0-1.183,0.365-2.324,1.141-3.505c1.546-1.548,4.114-2.933,7.614-4.074
			c4.281-1.547,10.311-2.729,18.092-3.5c8.959-1.183,20.042-1.754,33.281-1.754c2.729-0.407,4.687-1.548,5.869-3.505l1.141-2.932
			c0.406-1.546,0.979-2.933,1.75-4.073c0-1.546,0.776-3.136,2.364-4.682l11.079-8.76c1.55-1.551,2.322-2.933,2.322-4.073
			l4.687-6.438c2.322-2.729,4.848-4.077,7.578-4.077c1.953,0,4.114,0.776,6.437,2.322c1.954,0.776,4.073,2.324,6.437,4.687
			l5.823,5.824c2.364,2.322,4.281,3.911,5.869,4.687c7.006,2.322,11.65,7.781,14.011,16.337c0.368,4.684-0.813,9.532-3.501,14.584
			c-0.817,1.953-2.16,4.479-4.114,7.619l-4.645,7.005c-8.188,12.467-13.853,29.211-16.948,50.232
			c-1.182,7.374-2.364,16.54-3.504,27.416l-2.364,26.317c-2.319,16.337-3.5,29.17-3.5,38.54c0,5.458,2.363,8.962,7.005,10.51
			c1.957,0.776,4.318,1.347,7.009,1.754h9.938c1.547,0.365,2.73,0.365,3.505,0c2.729,0,5.256-1.182,7.619-3.505
			c1.141-0.775,2.525-1.953,4.073-3.504l4.073-5.255c1.547-2.361,2.932-3.912,4.114-4.684c1.548-1.547,2.692-2.322,3.505-2.322
			c7.375,0,12.63,2.322,15.766,7.006l11.65,10.51c6.641,5.827,11.896,10.92,15.807,15.197c13.202,14.38,19.842,28.029,19.842,40.862
			c0,1.182-1.548,2.526-4.687,4.073c-3.095,1.182-7.006,2.364-11.652,3.504c-9.738,2.361-17.15,3.502-22.202,3.502
			c-1.589,0.816-5.662,1.182-12.264,1.182h-17.516c-7.009,4.687-14.015,7.009-21.021,7.009c-3.912,0-6.438-3.097-7.619-9.332
			l-1.141-7.615v-9.901c0.365-0.775,0.771-2.16,1.141-4.114l0.609-7.579c0-7.009-4.683-10.509-14.056-10.509
			c-3.5,0-7.371,0.203-11.651,0.568l-22.202,2.364c-4.277,0.365-8.188,0.568-11.692,0.568c-11.65,0-24.119,0.41-37.357,1.182
			l-68.358,4.646c-12.061,0.816-23.346,1.181-33.857,1.181h-9.938c-6.234,2.324-13.24,3.912-21.02,4.684
			c-3.505,0.369-7.212,0.572-11.083,0.572h-11.692c-5.053,0.407-10.308,1.182-15.766,2.323c-1.958,0-4.077,0.406-6.438,1.181
			l-5.827,0.569c-9.328,1.957-16.947,2.933-22.774,2.933h-21.629c-7.782,0.775-14.016,2.526-18.66,5.255v5.258l1.754,8.757v3.505
			c0,15.196-3.505,27.457-10.511,36.786c-5.868,7.416-16.582,15.769-32.143,25.138h-7.578c-2.729,0-5.093-0.204-7.009-0.613
			c-5.458-1.14-9.167-4.438-11.12-9.896C1431.366,358.555,1432.344,356.194,1434.298,353.097z M1570.366,524.202l1.182-1.181
			c3.87,0,9.535,0.61,16.947,1.75c7.375,1.182,13.406,1.75,18.089,1.75c2.322,0,4.848-0.162,7.577-0.568l13.446-4.073
			c2.729-0.41,5.255-0.613,7.616-0.613l3.504,0.613c1.916,0.771,3.505,1.141,4.645,1.141c2.365,0,4.48-1.344,6.438-4.073
			c1.954-2.732,2.933-6.031,2.933-9.941l1.14-57.238c0-1.916-0.204-3.504-0.572-4.645c-0.771-1.547-2.158-2.525-4.073-2.932
			c-19.104,0-30.39,0.568-33.895,1.75c-1.182,0.407-2.322,0.407-3.5,0l-1.183-0.568c-1.14-0.41-1.916-0.774-2.323-1.181
			c-14.421,4.275-30.961,7.577-49.622,9.938c-7.822,1.14-16.374,1.957-25.702,2.322c-6.234,0.775-14.426,1.385-24.53,1.754
			l-23.953,4.114c-9.735,1.913-17.722,2.892-23.953,2.892c-4.28,0-7.416-3.302-9.331-9.942c-1.589-5.051-2.361-11.078-2.361-18.088
			l3.501-2.322h21.024l6.438-2.36c2.36-0.776,4.276-1.141,5.865-1.141c29.577-3.139,62.861-4.687,99.85-4.687h5.255
			c33.895,0,53.737-0.979,59.56-2.933c6.234-2.322,9.37-9.531,9.37-21.593c0-3.911-0.406-8.187-1.178-12.833
			c0-1.953-0.207-4.114-0.572-6.437l-2.364-12.875c-0.365-2.319-0.568-4.438-0.568-6.396c-0.776-4.682-1.183-8.963-1.183-12.871
			c2.364,0,6.234,1.751,11.692,5.255c5.458,3.502,12.057,5.256,19.839,5.256c5.461,0,10.348-3.505,14.628-10.511
			c3.5-6.192,5.256-12.426,5.256-18.659c0.771-3.136-0.979-5.093-5.256-5.866h-8.76l-35.035,7.005h-17.52
			c-4.683,0-11.896,1.183-21.633,3.505l-9.938,2.361c-3.505,0.775-6.031,1.14-7.577,1.14l-19.271,1.183
			c-10.145,0.775-17.723,1.182-22.774,1.182c0.775,0.369-0.204-1.182-2.933-4.684c-1.954-2.322-3.298-4.28-4.073-5.826
			c-1.182-2.364-1.751-4.276-1.751-5.866c0-1.14-0.775-2.894-2.363-5.255c-1.917-2.732-2.892-4.483-2.892-5.258l45.546-2.319
			c5.823-0.41,10.875-0.573,15.193-0.573l32.715-1.182c12.427-0.406,25.095-0.61,37.927-0.61l21.062-2.322
			c1.916,0,4.077,0.203,6.396,0.571c1.182,0,2.937,0.407,5.259,1.178l2.933,0.573c1.181,0,2.116,0.204,2.932,0.61
			c2.322,0.368,4.645,0.572,7.006,0.572c5.051,0,10.675-4.483,16.91-13.446l7.005-10.51c2.363-3.87,4.479-6.396,6.437-7.578h1.183
			c3.094,3.14,6.229,6.641,9.328,10.511l15.196,19.269l9.328,8.76c0.407,7.009-1.956,12.099-7.005,15.197
			c-1.55,1.182-3.872,2.323-7.009,3.504l-7.004,2.319c-12.468,5.462-24.729,11.489-36.79,18.13c-6.64,3.87-11.692,7.212-15.193,9.9
			c-4.28,3.136-6.4,5.458-6.4,7.009l-0.609,15.193c0,6.641,0.203,11.896,0.609,15.766c1.917,11.327,7.782,16.947,17.52,16.947
			l17.52-2.932l25.094-0.568c7.416-0.369,10.917-1.182,10.51-2.322l36.789-3.505l5.255-1.181c3.5-5.459,8.595-10.714,15.194-15.766
			l8.19-5.824c2.729-1.958,4.849-3.707,6.438-5.258l2.891-4.115c0.407-0.365,0.61-0.771,0.61-1.178
			c1.55-1.916,3.301-2.895,5.256-2.895c4.645,0,8.148,1.141,10.509,3.505c1.144,0,2.895,0.776,5.259,2.323
			c1.911,1.547,4.072,3.505,6.396,5.865c5.051,5.052,7.616,8.15,7.616,9.329c0.775-0.407,2.119-0.569,4.076-0.569
			c4.683,0,9.328,2.892,14.016,8.76c4.683,5.458,7.005,10.104,7.005,14.015c0,4.642-1.958,7.782-5.827,9.328
			c-3.912,0-8.595,0.203-14.012,0.569l-14.628,1.181c-1.954,0-4.276,0.204-7.005,0.573l-13.404,1.182l-127.351,1.178
			c-12.057,0-18.863,3.708-20.41,11.082v30.963c0,10.916-0.203,19.676-0.61,26.275c-1.958,16.744-7.577,30.963-16.947,42.654
			c-2.322,1.548-5.42,4.442-9.331,8.76l-10.511,12.262c-9.328,10.513-17.15,15.769-23.343,15.769
			c-7.006,0-13.24-4.687-18.698-14.016l-6.438-11.123c-2.322-3.87-4.48-6.599-6.438-8.146c-3.87-0.816-12.26-3.912-25.092-9.37
			c-6.644-2.729-11.896-5.051-15.769-7.009c-4.684-2.729-7.006-4.845-7.006-6.438C1569.797,524.975,1570,524.202,1570.366,524.202z
			 M1554.031,239.189c0,2.729,0.204,5.256,0.569,7.619c0.775,5.828,3.504,9.533,8.191,11.083l10.51,0.569
			c6.599,0.407,12.626,0.407,18.088,0c16.744-1.548,26.682-6.396,29.822-14.584c-1.183-0.407-0.203-2.161,2.891-5.255l3.505-4.115
			c1.182-1.916,1.751-3.504,1.751-4.645c0-0.775,1.182-3.136,3.504-7.006c2.361-4.28,3.502-6.64,3.502-7.009
			c6.233-9.37,9.373-16.375,9.373-21.021c0-1.957-0.818-4.276-2.365-7.009c-1.14-2.361-2.729-4.887-4.645-7.616
			c-1.954-2.322-4.317-4.483-7.005-6.396l-5.868-5.256c-0.365-4.686,1.551-7.05,5.868-7.05c3.87,0,8.35,2.568,13.401,7.619
			c4.687,5.458,8.76,8.187,12.265,8.187c3.136,0,5.865-2.157,8.187-6.436c1.548-3.502,2.322-6.641,2.322-9.37
			c0-3.87-0.774-7.168-2.322-9.897c-0.407-1.182-1.182-2.526-2.322-4.117c0-0.366-0.203-0.773-0.61-1.141l-1.754-2.932
			c0-1.955,1.183-3.299,3.505-4.074l4.114-1.75l4.073-0.613c7.78-1.913,11.692-4.438,11.692-7.579c0-7.005-2.36-10.509-7.006-10.509
			c-7.416,0-14.625,5.255-21.634,15.765c-7.005,10.514-14.99,15.769-23.912,15.769l-1.182-2.936
			c-0.775-1.914-1.182-3.299-1.182-4.073l3.504-3.502l11.692-15.769c10.104-13.239,15.193-23.546,15.193-30.962
			c0-0.366-1.953-2.729-5.865-7.005l-13.405-12.833c-5.458-5.458-10.142-9.734-14.011-12.874c-4.687-3.87-7.619-5.824-8.802-5.824
			h-3.504c-1.547,0.407-2.319,0.772-2.319,1.178c0,9.739-0.573,15.566-1.754,17.52c-0.775,1.141-1.954,2.119-3.504,2.892
			l-5.256,2.936l-29.78,7.006c-3.501,1.181-5.823,1.75-7.006,1.75c-1.546,0-2.729-0.203-3.505-0.569l-8.759,9.328l3.504,1.183
			l-0.568,23.343c0.365,4.318,0.934,7.619,1.751,9.941c0.775,2.73,2.119,4.073,4.072,4.073c3.87,0,7.985-0.775,12.265-2.322
			l22.203-11.692c3.87-1.547,7.578-2.322,11.079-2.322c2.322,0,3.911,0.571,4.686,1.754c0.366,0.407,0.573,1.75,0.573,4.073
			c0,7.822-1.754,12.874-5.258,15.196c-0.407,0-2.323,0.976-5.824,2.932c-3.505,1.955-5.666,2.892-6.438,2.892
			c-0.406-0.772-2.525-0.568-6.437,0.61c0,0.368-0.365,0.572-1.14,0.572c-0.406,0.406-0.816,0.569-1.183,0.569
			c-0.771,0.41-1.547,0.613-2.322,0.613c-1.954,0.772-3.5,1.14-4.683,1.14c-1.548,0.407-3.301,0.61-5.255,0.61h-5.827
			c-2.364,0-4.114,0.204-5.255,0.573c-1.958,0.771-3.505,1.953-4.687,3.5c0,4.28-0.568,10.308-1.751,18.13
			c-1.182,7.78-1.751,13.608-1.751,17.52c0,9.328,5.256,14.014,15.767,14.014c4.275,0,9.328-0.613,15.196-1.754l14.584-3.502
			c4.682-1.181,7.005,1.141,7.005,7.006c0,9.329-8.756,14.016-26.276,14.016c-17.516-0.407-26.276,3.708-26.276,12.261V239.189z
			 M1657.387,252.636c1.547-0.775,3.704-1.344,6.436-1.754c0.366-0.407,0.976-0.568,1.751-0.568l5.255-1.182
			c5.828-1.183,9.167-4.073,9.942-8.76c0-3.505-1.183-7.619-3.505-12.262c-3.136-5.868-6.234-8.759-9.37-8.759
			c-7.78,0-14.993,4.073-21.591,12.261c-5.459,6.602-8.188,12.264-8.188,16.947c0,1.551,0.61,2.322,1.751,2.322L1657.387,252.636z"
			/>
	</g>
</g>
<g id="Layer_2">
</g>
</svg>
