<?xml version="1.0" encoding="utf-8"?>
<!-- Generator: Adobe Illustrator 16.0.0, SVG Export Plug-In . SVG Version: 6.00 Build 0)  -->
<!DOCTYPE svg PUBLIC "-//W3C//DTD SVG 1.0//EN" "http://www.w3.org/TR/2001/REC-SVG-20010904/DTD/svg10.dtd">
<svg version="1.0" xmlns="http://www.w3.org/2000/svg" xmlns:xlink="http://www.w3.org/1999/xlink" x="0px" y="0px"
	 width="2304.85px" height="602px" viewBox="0 0 2304.85 602" enable-background="new 0 0 2304.85 602" xml:space="preserve">
<g id="Layer_1">
	<g>
		<path d="M607.397,517.71l13.425-1.75c14.422-1.544,24.339-2.323,29.78-2.323c10.531-1.179,18.313-10.53,23.384-28.05
			c1.548-5.844,2.912-12.054,4.073-18.677l0.59-11.689c2.709-6.237,4.094-16.541,4.094-30.965v-53.124
			c-0.407-13.646-1.179-23.383-2.34-29.208c-2.344-10.124-9.921-15.197-22.774-15.197c-1.161,0.793-2.912,1.572-5.276,2.344
			c-3.097,0.792-6.031,1.158-8.76,1.158c-10.103,0-21.978,0.799-35.603,2.343l-53.165,7.009c-4.28,0-10.514,0.386-18.661,1.166
			l-19.29,1.178l-18.678,2.323l-5.869,1.75c-3.483,1.178-5.62,1.751-6.396,1.751c-6.233,0-13.849,0.592-22.77,1.75l-14.036,1.757
			c-10.511,1.178-17.54-0.372-21.041-4.665c-1.551-1.551-2.895-3.895-4.073-7.01l-2.936-7.594
			c-3.502-2.322-6.802-6.602-9.897-12.833c-1.958-4.687-2.936-7.416-2.936-8.195h7.009c2.322,0,4.48,0.208,6.436,0.593
			c4.277,0.793,7.965,2.344,11.079,4.666h46.159c7.006-2.322,12.833-3.502,17.517-3.502c5.827,0,10.879,0.407,15.176,1.18
			c3.89,0.385,7.005,1.164,9.349,2.322c1.551,0.407,3.301,0.407,5.255,0l10.514-2.916c1.953-0.386,3.704-0.586,5.255-0.586
			l121.48-3.507c10.514,0,16.542-4.073,18.092-12.262c0.407-1.178,0.61-2.729,0.61-4.687l-0.61-21.592l-2.915-35.625
			c0-4.667-2.344-7.03-7.006-7.03c-5.459,0-10.9,0.208-16.358,0.614c-2.322,0-4.869,0.185-7.577,0.571l-19.271,1.751
			c-4.683,0.407-8.962,0.572-12.87,0.572c-1.551,0.406-3.874-0.165-7.009-1.751l-7.005-2.894c0,5.051-5.255,8.353-15.766,9.917
			c-1.958,0.387-4.077,0.593-6.437,0.593h-14.587c-0.773,0-2.526,0.366-5.255,1.158l-8.76,2.916
			c-9.736,3.136-16.744,4.687-21.02,4.687c-4.688,0-7.782-1.551-9.35-4.687c-0.796-0.772-1.568-2.322-2.344-4.667l-0.568-1.157
			c-0.41-0.407-0.592-0.772-0.592-1.186l-1.163-2.929c0-1.145-0.588-2.323-1.75-3.508l-4.094-3.501
			c-3.525-2.708-4.484-5.051-2.912-7.009c1.546,0,3.297,0.207,5.251,0.613l4.667,1.144c1.936,0.792,3.504,1.178,4.665,1.178
			c1.547,0.387,3.115,0.573,4.683,0.573c7.782,0.407,15.196,0.199,22.202-0.573c4.281-0.386,10.104-1.178,17.52-2.322l19.271-2.936
			c8.167-0.773,17.108-1.179,26.848-1.179c8.962-1.937,19.879-3.094,32.712-3.501h32.712c1.547-0.373,2.526-1.936,2.915-4.666
			c0.386-0.772,0.589-1.75,0.589-2.916v-19.269c-0.407-6.231-1.182-11.689-2.343-16.355c-1.568-2.343-2.709-6.051-3.5-11.103
			l-1.163-14.011c-1.588-11.695-5.848-17.52-12.854-17.52c-7.395,0-15.972,0.979-25.685,2.915l-24.525,5.845
			c-4.687,0-9.167,0.573-13.446,1.751c-1.954,0.386-3.908,0.978-5.844,1.75l-15.786,5.258c-4.276,1.178-8.556,1.751-12.833,1.751
			v-2.937c-0.39-1.157-0.978-1.75-1.754-1.75c-1.546,0.407-2.522,1.75-2.912,4.114c-0.385,0.773-0.589,1.551-0.589,2.324v1.75
			c-0.386,0.779-1.754,1.551-4.073,2.322c-1.958,0.793-4.483,1.386-7.619,1.751l-7.579,1.757c-2.729,0.407-4.482,0.793-5.254,1.178
			l-15.766,7.01c-7.416,2.343-13.242,3.5-17.519,3.5c-1.954,0-4.115-0.771-6.438-2.322c-2.729-1.958-4.073-3.907-4.073-5.865
			c1.141-2.324,2.891-3.873,5.255-4.646l3.505-0.613c1.141-0.365,2.322-0.958,3.501-1.751c0.369,0,1.551-0.571,3.505-1.75
			l5.255-2.895c2.708-1.564,4.463-2.729,5.254-3.522l3.505-1.158c15.176-0.778,27.822-3.122,37.967-7.009l26.848-12.261
			c5.459-0.393,12.058-2.729,19.859-7.009l4.098-2.344c1.953-1.158,3.5-1.936,4.683-2.343c3.097-1.937,6.03-3.302,8.759-4.073
			l18.657-7.009c1.958-0.773,4.687-2.158,8.19-4.094l9.938-5.844c8.557-5.053,14.994-7.575,19.271-7.575
			c2.729,0,5.051,0.565,7.009,1.751c9.328,0.366,15.766-0.613,19.27-2.936c1.547-0.772,3.298-2.323,5.256-4.687l7.004-8.167
			c0.776-1.544,1.958-2.709,3.505-3.502c1.183-0.385,2.729-0.592,4.683-0.592l7.578,0.592c9.352,0,14.014-4.665,14.014-14.018
			c0.407-5.052,0.203-10.896-0.568-17.512l-0.592-4.095c-0.386-1.55-0.59-2.915-0.59-4.08c-0.39-3.136-0.572-6.023-0.572-8.752
			c0-1.551,1.547-2.53,4.666-2.937l21.613,2.344c6.229,1.937,9.348,4.094,9.348,6.416l42.042,44.384
			c0.795,14.811-2.751,24.342-10.511,28.622c-3.114,1.951-7.396,3.315-12.854,4.094l-25.707,2.909l-9.328,4.094l-15.765,2.344
			c-1.183,0.385-1.588,0.571-1.183,0.571l-9.92,1.179c-5.459,0.779-9.35,1.757-11.672,2.915c-3.5,1.572-5.255,3.115-5.255,4.666
			c0,5.073,2.708,10.917,8.15,17.52c5.072,7.001,7.619,12.26,7.619,15.761c0,4.301-0.593,8.76-1.754,13.446l-4.094,12.262
			c-0.796,2.729-1.568,4.886-2.344,6.437l-1.182,6.417c-1.141,4.665-1.547,9.352-1.141,14.018l7.009,4.659l14.583,1.186
			c10.92,0.771,18.496,1.158,22.775,1.158c11.692,0,28.029-10.51,49.071-31.531h7.005l12.285,10.511
			c0.366,1.571,2.116,3.322,5.252,5.258l9.921,6.416c9.717,6.231,14.607,12.075,14.607,17.513c0,4.687-8.76,7.215-26.278,7.622
			l-42.083-0.613l-12.265,0.613c-1.933,0-4.276,0.18-6.985,0.573l-28.049,2.315l-12.833-1.137
			c-10.145-0.772-15.197,3.873-15.197,14.011v49.05c0,11.289,13.629,17.726,40.904,19.271c9.328,0.778,21.796,0.978,37.358,0.592
			l37.399-0.592l7.006-1.751l4.077-4.687c0.771-0.365,1.546-1.138,2.339-2.322c0.39,0,0.776-0.387,1.161-1.18
			c0.776-0.365,1.183-0.771,1.183-1.143l9.899-9.938c3.137-3.115,6.052-5.646,8.76-7.595c3.136-1.937,5.662-2.916,7.616-2.916
			c1.938,0,4.073,0.572,6.417,1.751c1.571,0.778,3.322,2.143,5.258,4.072c0.751,0.414,1.751,1.186,2.912,2.344l7.005,5.851
			c0.407,0.771,3.136,2.522,8.188,5.251l11.103,6.438l12.854,9.331c4.276,4.273,6.396,9.553,6.396,15.762
			c0,3.508-2.322,7.602-7.008,12.268l-14.012,0.585c-3.505,0-5.827-0.771-7.01-2.343c-12.057-0.772-22.567-1.93-31.531-3.501
			l-21.02-4.074c-8.557-1.55-17.52-2.729-26.848-3.5c-12.875-0.779-29.211-1.186-49.091-1.186l-28.03-3.5
			c-15.969,0-25.297,0.585-28.026,1.751c-1.551,0.792-2.729,2.156-3.504,4.094c-0.387,0.792-0.573,1.957-0.573,3.5
			c-0.407,0.386-0.61,1.166-0.61,2.344c-0.365,0.778-0.573,1.551-0.573,2.322c0,8.188-0.385,19.477-1.177,33.894l-1.141,29.195
			v31.531c0,13.625-0.204,23.95-0.615,30.958c-0.771,23.75-3.297,44.184-7.577,61.332c0,1.164-0.568,3.102-1.75,5.831
			c-0.386,1.95-1.182,3.887-2.323,5.844l-3.5,7.009c-7.822,13.219-19.271,24.521-34.467,33.874
			c-6.234,0.365-12.079-1.551-17.52-5.851c-5.073-2.336-7.802-7.002-8.187-14.011v-4.094c-0.407-1.551-0.979-3.115-1.751-4.666
			c-1.958-3.501-5.255-6.823-9.921-9.918c-0.796-0.799-2.912-1.958-6.416-3.508l-4.687-2.928c-1.547-0.779-3.136-1.75-4.684-2.915
			c-3.87-1.958-6.802-3.708-8.76-5.273c-2.322-2.323-3.505-4.073-3.505-5.258C603.1,518.282,603.892,518.103,607.397,517.71z
			 M689.752,402.663c0,0.779,0.568,1.164,1.751,1.164c0.365,0,0.572-0.385,0.572-1.164c0-1.543-0.208-2.336-0.572-2.336
			C690.32,400.327,689.752,401.12,689.752,402.663z M691.503,390.974c0,0.773,0.365,1.179,1.182,1.179
			c1.141,0,1.75-0.406,1.75-1.179c0-1.55-0.61-2.322-1.75-2.322C691.868,388.651,691.503,389.423,691.503,390.974z"/>
		<path d="M1525.003,482.231l0.589-29.78l-1.75-34.466l1.75-50.195l-3.501-95.205l-4.114-37.396
			c-1.937-15.156-2.895-28.029-2.895-38.54c-1.182-2.322-3.501-4.687-7.006-7.009h-20.452c-7.78,0-14.604,0.779-20.452,2.322
			l-1.161,6.438c-0.385,2.729-0.385,5.258,0,7.582l1.754,6.436c1.161,4.273,1.75,6.803,1.75,7.616l1.161,61.311l-1.161,12.261
			l1.161,3.508v28.594c-0.407,13.653-1.161,25.707-2.322,36.217c-1.183,13.24-2.932,23.591-5.256,30.966
			c-2.729,8.959-6.047,13.439-9.941,13.439c-4.662,0-9.531-3.136-14.583-9.366c-4.687-5.417-7.006-9.126-7.006-11.083
			c0-3.501,0.162-6.603,0.568-9.332c0-1.95,0.386-3.708,1.182-5.251l0.569-4.114c0.389-1.552,0.571-3.302,0.571-5.259
			c0-8.187,0.203-16.541,0.61-25.094l4.077-44.404c0.386-8.188,0.568-15.969,0.568-23.343c0-3.502-0.568-6.438-1.75-8.76
			c-0.369-5.053-0.572-12.062-0.572-21.021v-9.939c0-3.914-0.204-7.416-0.568-10.516c-0.407-15.191-1.958-28.429-4.687-39.718
			c-1.182-4.688-4.073-9.532-8.76-14.584l-12.261-13.446c-0.407-4.679,1.954-7.002,7.006-7.002c1.547,0,3.098,0.366,4.687,1.18
			c1.141,0.365,2.525,1.144,4.073,2.322l3.504,2.322c1.547,0.771,2.933,1.178,4.073,1.178c0.407,0,2.364,0.979,5.865,2.936
			c3.505,1.917,5.442,2.895,5.828,2.895c3.89,0,7.985,2.358,12.265,7.002c3.5,4.322,6.438,8.966,8.755,14.018
			c13.65,0.813,27.827-2.322,42.655-9.332c1.937,0,3.301-1.178,4.073-3.5c0.775-1.958,1.182-4.281,1.182-7.01l0.571-17.519
			c0-2.364,0.204-4.48,0.569-6.438c0-10.511-0.183-19.271-0.569-26.272c-1.956-21.393-8.555-36.997-19.842-46.728
			c-3.136-2.729-1.385-4.852,5.256-6.437l9.331-1.144c3.115-0.407,5.824-0.613,8.188-0.613c0.775,0,3.504,0.82,8.167,2.363
			c6.213,2.323,11.877,4.853,16.93,7.582c15.969,8.187,23.953,16.947,23.953,26.271c0,2.729-1.385,5.259-4.073,7.624l-8.191,6.396
			l-1.75,43.832c0,2.688,0.364,4.853,1.182,6.396c1.547,4.687,5.827,7.009,12.833,7.009c1.954,0,4.073-1.143,6.438-3.501
			l6.396-8.153c6.233-7.822,11.896-11.689,16.947-11.689h5.255c1.547,0.365,2.729,1.138,3.505,2.322
			c1.953,2.73,4.848,5.252,8.755,7.616l11.124,5.824c8.146,5.052,12.261,11.489,12.261,19.27c0,1.186-0.407,2.164-1.179,2.937
			c-0.409,0.365-1.182,0.772-2.322,1.144c-1.182,0.813-1.957,1.585-2.364,2.357c-0.771,0.779-1.141,2.122-1.141,4.073v12.833
			l-3.504,8.193c0,2.729-0.203,5.459-0.61,8.188c0,2.322-0.203,4.48-0.568,6.438l-1.186,6.396c0.776-0.366,1.386,0.771,1.754,3.501
			l0.61,17.52c0,2.729,0.368,4.114,1.141,4.114l-1.141,21.021c0,9.739,4.645,15.562,14.015,17.52l25.097,4.687l6.438,0.565
			c0.365,0,1.158-0.407,2.322-1.178l1.18-0.573v-31.53c0-1.551,0.957-3.302,2.915-5.259c1.547-1.95,2.911-3.136,4.093-3.5
			c-1.182-0.771-2.343-3.501-3.504-8.188c-1.568-3.873-2.344-6.602-2.344-8.187c-0.386-2.688-0.386-5.258,0-7.582
			c0-1.95,0.183-4.073,0.59-6.437l1.165-5.251c0.386-1.958,0.589-3.708,0.589-5.259v-49.049c-2.729-3.095-4.094-7.575-4.094-13.44
			l1.75-30.965l-4.662-15.155V85.675l-2.344,3.5c-1.956-2.322-3.119-6.229-3.504-11.647V64.655
			c-0.387-1.186-1.568-1.958-3.525-2.323l-4.642-0.614c-0.796,0-1.386-0.158-1.754-0.565c-2.729,0-4.684-0.372-5.865-1.185
			c-1.937-0.772-2.895-1.916-2.895-3.501c0-4.646,3.302-8.354,9.9-11.083l7.619-2.323c2.709-0.407,5.052-0.613,7.009-0.613
			c5.824,0,12.057,2.729,18.678,8.188c0.754,1.185,1.936,2.529,3.521,4.08l4.078,3.501c3.094,2.729,6.026,4.887,8.755,6.438
			c5.053,1.957,8.967,4.28,11.695,7.009h21.021l9.328,5.865l1.183-1.185c1.548-1.18,3.094-2.158,4.666-2.929
			c5.438-3.508,11.1-5.259,16.926-5.259c9.736,0,16.172-1.343,19.271-4.073c1.548-1.178,4.114-3.708,7.616-7.615l13.425-14.019
			c1.547,0,3.115-0.771,4.666-2.322l2.933-4.073c1.161-2.364,2.119-3.907,2.912-4.68c1.547-1.185,3.301-1.757,5.254-1.757
			c7.006,0,15.584,4.073,25.687,12.268c10.917,8.96,16.379,17.313,16.379,25.094c0,6.637-3.139,11.124-9.373,13.446
			c-3.501,1.178-9.124,1.751-16.905,1.751l-17.536-1.144c-3.505,0-8.76,1.144-15.786,3.507c-7.01,2.316-12.265,3.502-15.769,3.502
			h-15.767l-5.826,1.751c-3.502,1.143-5.662,1.75-6.435,1.75h-21.023c-1.954,0-3.707,0.207-5.251,0.573
			c-2.323,0-4.483,0.207-6.438,0.571c-12.447,1.585-18.66,5.093-18.66,10.511c0,3.136,0.775,5.458,2.322,7.009v32.709l13.443,1.185
			l15.765-1.185l5.827,1.185c3.094,0,6.234-0.413,9.349-1.185c3.892-1.178,6.62-3.095,8.171-5.824h24.522
			c2.363-3.136,4.686-5.458,7.008-7.009c2.729-1.543,5.073-3.302,7.006-5.251l2.934-3.508c0.388-0.407,0.592-0.772,0.592-1.178
			c1.162-1.551,2.344-2.529,3.501-2.936c1.551-0.772,3.894-1.138,7.01-1.138c5.438,0,12.26,2.888,20.432,8.76
			c8.555,5.823,12.873,11.076,12.873,15.762c0,9.738-5.868,14.583-17.52,14.583l-10.531-0.565l-11.099,1.178
			c-2.322,0.366-4.483,0.573-6.437,0.573c-2.323,0.407-4.85,0.571-7.578,0.571c-2.732,0.407-5.662,0.607-8.76,0.607
			c-7.396,0.365-15.4,0.572-23.953,0.572c-4.646,0-11.285,0.572-19.842,1.75c-8.573,1.551-14.811,2.323-18.697,2.323h-3.504
			c-1.548,0-2.73-0.165-3.506-0.572l-3.5,2.322v22.207l2.932,5.251c1.141,1.958,2.526,3.707,4.074,5.258
			c3.114,3.908,7.005,5.824,11.69,5.824c12.447-2.322,28.396-3.502,47.869-3.502l5.868,0.613c2.709,0.773,4.276,0.972,4.642,0.566
			c1.182,0,2.933-0.566,5.255-1.751c3.136-1.551,4.687-2.936,4.687-4.073c0-0.407-0.386-0.771-1.182-1.178l12.28-16.341l5.256,1.144
			c0.389-1.551,1.937-1.551,4.666,0c2.729,1.585,5.844,3.908,9.369,7.002c8.15,8.195,12.265,15.603,12.265,22.206
			c0,9.373-6.437,14.011-19.29,14.011c-5.459,0-13.24,0.413-23.364,1.185l-16.337,1.178h-34.464l-31.534,7.01
			c-1.182,0-2.16,1.958-2.932,5.823c-0.407,2.729-0.572,6.802-0.572,12.262l-0.609,13.445c0,4.28-0.184,6.604-0.568,7.01
			c-1.959,9.331,2.729,14.01,14.011,14.01l20.451-2.928c8.557-1.551,15.197-2.322,19.839-2.322l14.015,1.75
			c1.548,0,3.302-0.207,5.256-0.613l12.264-2.323c2.359-0.366,4.684-0.565,7.026-0.565l14.014,1.751l16.359-14.626
			c1.954-1.916,3.707-3.507,5.254-4.645c8.557-7.78,15.38-11.289,20.452-10.51l3.502,1.75c2.708,1.551,4.462,2.729,5.255,3.5
			c2.712,0,8.759,3.508,18.088,10.511c10.104,8.153,15.196,15.156,15.196,21.021c0,12.833-7.008,19.271-21.021,19.271
			c-4.3,0-10.328-0.972-18.129-2.929c-7.781-1.551-14.016-2.323-18.66-2.323c-1.954,0-5.255,0.979-9.938,2.929
			c-5.094,2.323-7.6,4.279-7.6,5.831c0,1.956,0.59,3.907,1.771,5.823c1.141,1.593,2.691,3.136,4.646,4.687l9.368,7.009
			l12.833,14.584c4.277,5.458,7.578,11.323,9.938,17.519c-0.793,3.137-2.36,5.459-4.684,7.044c-1.182,0.771-2.322,1.343-3.504,1.75
			c-0.386,0.373-1.179,0.779-2.323,1.146c-0.813,0-1.385,0.199-1.75,0.605l-15.766,7.009l-7.619,2.324
			c-4.666,1.55-7.415,2.322-8.166,2.322c-2.751,2.729-5.645,4.887-8.76,6.437l-7.599,4.073c-5.828,2.364-10.307,5.458-13.443,9.373
			c0,6.596,3.137,13.24,9.37,19.835l3.505,4.08c1.547,1.585,2.708,2.929,3.5,4.115c2.324,2.729,3.874,5.458,4.667,8.187
			c1.936,0,3.89,0.771,5.844,2.322l13.446,14.012c3.87,3.136,7.943,6.031,12.261,8.76c0.775,0,4.073,1.75,9.9,5.251
			c2.364,1.958,4.275,3.302,5.868,4.08c1.548,1.585,2.116,2.564,1.751,2.929l25.686,10.511c8.574,3.136,16.563,5.458,23.933,7.009
			l14.016,7.574l17.52,7.009c4.683,1.592,7.414,1.958,8.187,1.186c1.957,0,5.052,0.972,9.35,2.93
			c4.664,2.322,7.006,4.279,7.006,5.823c0,1.958-1.365,3.302-4.095,4.115c-2.322,0.779-5.64,1.351-9.917,1.757l-23.364-0.613
			c-1.182,0-3.301,0.613-6.437,1.751c-1.141,0.771-2.729,1.549-4.645,2.363l-7.62,3.502c-1.142,0.373-1.954,0.779-2.318,1.144
			l-5.828,2.929c-3.911,1.958-7.212,3.3-9.94,4.08l-25.136,9.367c-4.645,1.549-8.556,3.094-11.65,4.645
			c-1.568,0-3.505-1.144-5.869-3.501l-4.642-5.258c-1.183,0-3.139-0.978-5.868-2.895l-8.76-7.616
			c-1.138-1.549-2.729-3.3-4.663-5.258l-4.666-4.638c-0.813-0.407-1.588-1.186-2.339-2.364l-7.009-7.009
			c0.386,0.407-0.387,0-2.343-1.138l-15.197-11.695c-2.709-1.958-4.48-3.501-5.252-4.687c-1.144-0.772-2.729-2.323-4.646-4.679
			l-23.385-25.101c-3.504-3.5-6.029-8.959-7.577-16.334l-1.754-9.373c-0.771-3.866-1.75-7.209-2.933-9.938l-5.823-12.833
			c-2.344-5.458-3.505-9.331-3.505-11.688v-17.52l-1.751-4.646c-1.182-3.136-1.754-5.092-1.754-5.865
			c-0.792-5.416-1.182-12.467-1.182-21.02l1.182-15.769c0-0.772-0.975-4.845-2.933-12.261c-0.771-3.508-1.547-6.237-2.322-8.188
			c-0.792-2.323-1.385-3.666-1.751-4.08l-3.504-3.5c0,0.407-2.36,0.407-7.006,0l-14.624-0.573c-14.384,0-21.593,2.53-21.593,7.582
			c0,8.96,2.729,14.791,8.188,17.52v14.583l-1.751,33.895l-3.505,33.281c-1.182,12.062-1.755,23.55-1.755,34.467
			c0,14.011,3.099,20.449,9.333,19.269l14.582-7.009c3.137-1.178,5.666-1.75,7.619-1.75l11.651-6.437
			c2.363-1.544,4.301-2.523,5.865-2.895c2.322-0.771,4.666-1.178,7.009-1.178c3.87,0,5.823,1.178,5.823,3.5
			c0,1.958-1.547,4.688-4.662,8.195l-8.17,7.574c0.774,1.18-1.954,2.937-8.188,5.259c-7.781,3.136-12.465,6.023-14.011,8.752
			c-1.552,2.323-3.302,4.081-5.26,5.259c-1.178,1.178-2.729,1.958-4.683,2.322c-0.368,0.407-0.775,0.613-1.142,0.613l-1.182,0.565
			c-0.774,0.406-1.547,0.572-2.322,0.572c-1.182,0.813-2.16,1.751-2.932,2.936h3.5v3.501c0,1.958-0.771,3.137-2.318,3.502
			c-5.868-0.365-11.531,1.55-16.947,5.871l-12.264,9.897c-2.73,1.958-5.073,3.907-7.006,5.865l-4.688,4.645
			c-2.318,2.364-5.052,3.502-8.188,3.502c-1.141,0-2.525-0.565-4.073-1.751c-1.548-1.136-3.301-2.729-5.255-4.645l-9.332-9.367
			l-5.865-4.073c-3.094-1.957-5.823-3.914-8.146-5.831l-6.437-5.865c-1.957-2.323-2.937-4.073-2.937-5.252
			c0-1.551,1.552-2.936,4.688-4.073c2.729-0.778,5.459-1.185,8.188-1.185l2.895,0.571c1.547,0.813,2.933,1.179,4.114,1.179
			c4.276-2.323,8.76-5.458,13.401-9.325c2.364-2.363,4.276-4.486,5.868-6.436c1.548-2.729,2.523-5.053,2.892-7.01
			c0-3.094,0.203-6.802,0.61-11.081l2.322-22.771c0.386-4.687,0.572-8.802,0.572-12.302c0-1.916-0.187-4.073-0.572-6.396
			c0-1.551-0.386-3.708-1.182-6.438c-0.366-3.102-0.772-5.258-1.141-6.438c-0.407-2.322-0.61-4.445-0.61-6.396
			c0-4.28,0.407-9.945,1.182-16.947c0.772-7.009,1.183-12.675,1.183-16.947c0-5.052-0.613-14.019-1.754-26.851l-1.751-16.948
			c-3.911-0.365-8.962,0-15.196,1.186c-7.415,1.544-12.465,2.322-15.197,2.322c-1.546,0.407-2.891,1.951-4.073,4.68l-2.933,11.654
			c0,0.813-0.203,1.585-0.568,2.364c-0.406,2.322-0.978,4.273-1.754,5.824c-1.183,4.28-2.729,7.987-4.683,11.083
			c-1.162,0.813-2.729,2.563-4.666,5.292l-5.256,7.01c-2.342,2.729-4.482,4.645-6.416,5.823c-2.363,1.957-4.482,2.936-6.438,2.936
			l-14.014-28.07c-1.179-2.688,0-5.417,3.505-8.147c3.097-1.957,6.03-2.937,8.76-2.937l3.504-56.052v-49.05l-3.504-15.769
			c-0.39-1.958-0.39-3.342,0-4.115l1.749-4.687l-5.827-17.519c-2.359-7.002-4.479-10.511-6.437-10.511l-21.021-2.322v65.432
			l1.755,12.261l-2.323,38.54c-0.817,14.417-1.182,27.25-1.182,38.54c0.775,1.957,1.344,4.072,1.75,6.437l0.572,14.011
			c0,2.322,0.406,4.48,1.183,6.438c-1.183,12.833-2.161,26.072-2.933,39.684c-0.369,10.917-0.572,23.75-0.572,38.574l1.75,62.454
			c0.369,8.188,0.572,15.969,0.572,23.384c0,7.01-1.141,13.446-3.505,19.271c-3.094,7.374-7.412,11.082-12.832,11.082
			c-0.793,0.772-2.161,0.2-4.095-1.75c-0.795-0.373-1.75-1.344-2.911-2.895l-1.751-2.363c-2.732-3.501-4.097-8.553-4.097-15.155
			c0-6.231-1.568-11.124-4.663-14.625L1525.003,482.231z M1536.103,354.922c1.165,0,1.754-1.343,1.754-4.08v-2.929
			c-2.344,0-3.504,1.178-3.504,3.5C1534.353,353.738,1534.924,354.922,1536.103,354.922z M1548.367,179.13h5.255l-0.573-2.929
			l-1.178-1.758l-2.936-0.565c-1.548,0-2.322,0.565-2.322,1.751C1546.613,177.586,1547.185,178.765,1548.367,179.13z
			 M1656.977,507.938c0,1.179,1.182,1.75,3.505,1.75c2.364,0,3.501-1.144,3.501-3.501v-2.936c0-1.551-0.182-2.688-0.568-3.501
			c-0.775-2.695-2.141-4.08-4.073-4.08l-2.364,3.508c0,1.958,0.797,3.708,2.364,5.252L1656.977,507.938z M1683.865,490.418h1.158
			v-3.5h-1.158V490.418z M1692.033,499.178h4.094c1.957,0,2.932-1.186,2.932-3.508
			C1697.47,495.669,1695.147,496.855,1692.033,499.178z M1715.969,294.178l4.113-0.573v-5.251l-5.258-0.613
			c-1.954,0-2.932,0.813-2.932,2.364C1711.893,292.833,1713.239,294.178,1715.969,294.178z M1760.941,326.893
			c0.41,1.543,1.183,3.302,2.343,5.251c0.39,1.551,1.162,3.302,2.344,5.259c0,0.406,0.163,0.771,0.569,1.178
			c0.405,0.365,0.612,0.778,0.612,1.144l2.892,6.437c-0.365,0.772,1.182,2.929,4.684,6.438c1.957,1.544,3.301,2.887,4.076,4.073
			c1.182,1.543,1.75,2.929,1.75,4.073l2.934,4.687c1.182,1.95,2.119,3.136,2.936,3.5c1.548,2.364,4.276,3.501,8.146,3.501
			c1.956,0,3.504-0.365,4.687-1.137c1.179-0.771,2.136-1.958,2.933-3.508l2.322-3.5c1.183-1.585,2.525-2.729,4.073-3.542
			c6.234,0,11.119-4.28,14.624-12.833c3.098-6.603,4.667-14.218,4.667-22.771c0-1.185-0.204-2.322-0.593-3.508
			c0-0.772-0.387-1.958-1.162-3.501l-1.157-3.508c-0.41-1.178-0.593-2.316-0.593-3.5c0-0.771,0.593-1.958,1.75-3.5
			c1.162-1.958,1.755-3.095,1.755-3.508c-2.344-2.323-4.667-3.502-7.011-3.502c-1.161,0-2.546,0.407-4.093,1.179l-3.504,2.323
			c-1.954,1.185-3.502,1.956-4.684,2.322c-1.938,0.82-3.687,1.186-5.256,1.186c-3.869,0-7.967-0.208-12.264-0.573
			c-1.953,0-4.073-0.207-6.396-0.613l-26.297-2.322c-1.161,0-2.14,0.571-2.911,1.757
			C1755.118,311.331,1757.029,318.333,1760.941,326.893z M1831.036,495.669h1.751l-1.751-1.75V495.669z"/>
	</g>
	<path d="M0,561.591V27.093h111.46v22.489c-62.576,5.542-64.856,7.495-64.856,56.056v377.409c0,47.905,2.281,49.211,64.856,55.404
		v23.14H0z"/>
	<path d="M2193.386,561.591v-23.14c62.903-6.193,64.837-7.499,64.837-57.034V104.986c0-47.91-1.934-49.863-64.837-55.404V27.093
		h111.464v534.498H2193.386z"/>
</g>
<g id="Layer_2">
</g>
</svg>
