<?xml version="1.0" encoding="utf-8"?>
<!-- Generator: Adobe Illustrator 16.0.0, SVG Export Plug-In . SVG Version: 6.00 Build 0)  -->
<!DOCTYPE svg PUBLIC "-//W3C//DTD SVG 1.0//EN" "http://www.w3.org/TR/2001/REC-SVG-20010904/DTD/svg10.dtd">
<svg version="1.0" xmlns="http://www.w3.org/2000/svg" xmlns:xlink="http://www.w3.org/1999/xlink" x="0px" y="0px"
	 width="2304.849px" height="601.892px" viewBox="0 0 2304.849 601.892" enable-background="new 0 0 2304.849 601.892"
	 xml:space="preserve">
<g id="Layer_1">
	<g>
		<path d="M558.512,414.411c2.708-1.547,5.441-2.344,8.17-2.344h9.35l15.176-1.751l8.777,1.751
			c8.556-1.547,18.864-2.708,30.941-3.504l30.942-1.751c1.567-0.776,4.462-3.115,8.759-7.005c3.525-3.505,5.662-5.848,6.417-7.009
			c0-1.934,0.792-4.297,2.363-7.005l11.672-15.177c2.708-3.525,4.683-6.64,5.844-9.369c0-1.937,0.39-4.073,1.162-6.417l2.932-7.599
			c2.712-6.599,4.077-11.854,4.077-15.764l7.005-17.52c0-11.692,3.116-20.635,9.35-26.868c0-4.276,0.958-9.917,2.895-16.927
			l5.865-19.859c2.729-8.943,4.665-15.949,5.844-21.042c1.957-7.781,2.915-14.586,2.915-20.431c0-2.709-0.385-4.667-1.161-5.845
			c-0.389,0-1.182-0.369-2.343-1.161h-19.839c-3.912,0-7.029-2.526-9.353-7.599c-1.933-3.87-2.933-7.967-2.933-12.265
			c0-1.546,2.141-3.094,6.417-4.662l28.049-5.254c4.663-1.162,7.395-2.547,8.188-4.098l2.301-5.255
			c0.407-0.771,0.61-1.547,0.61-2.322c1.552-3.5,2.364-5.662,2.364-6.434v-11.692c-0.427-4.665-0.427-8.352,0-11.082
			c0.754-8.188,3.078-12.264,6.989-12.264l8.756,1.161c1.936,0,3.87-0.955,5.828-2.912c1.936-1.953,2.932-3.707,2.932-5.255
			c0-5.844-3.912-9.531-11.692-11.103c-3.116-0.793-7.026-1.366-11.672-1.751h-12.281c-3.505-1.161-6.807-5.073-9.921-11.672
			l-4.115-6.436c-1.141-1.955-2.709-2.933-4.645-2.933c-1.954,0-3.89,0.406-5.824,1.182l-4.114,2.322
			c-1.551,1.178-2.916,1.955-4.077,2.361c-1.954,0.775-3.912,1.14-5.844,1.14l-14.015-1.14c-3.892,0-8.963,0.979-15.177,2.894
			c-7.026,2.361-11.323,4.887-12.854,7.616c0,13.243-5.845,27.644-17.515,43.206v5.845l9.308,9.331l3.504-1.141
			c1.975-0.795,3.525-1.182,4.704-1.182l7.009,2.322c0.773,0,2.322-0.369,4.684-1.141c2.302-0.795,3.87-1.182,4.666-1.182
			c11.672-1.548,17.515,3.115,17.515,14.015c3.14,7.412-4.885,12.26-23.953,14.604c-7.005,0.792-15.766,1.365-26.275,1.75h-25.687
			c-1.978,0-3.322,1.568-4.094,4.666c-0.39,1.183-0.613,2.344-0.613,3.505v9.938l1.202,7.009c1.162,4.662,3.688,7.005,7.578,7.005
			l2.343-0.589h12.833c9.37,0,16.947-3.504,22.792-10.51c0.776,0,1.958-0.776,3.505-2.344c1.161-0.775,2.911-2.322,5.234-4.665
			l5.255-5.845l5.868-4.666c8.553-3.115,15.397,2.912,20.428,18.108l2.343,8.167c0.776,2.344,1.344,4.87,1.754,7.599
			c0.772,4.28,1.161,7.009,1.161,8.188c0,1.936-2.14,3.3-6.416,4.076l-28.639,0.568c-2.712,0-5.238,0.204-7.578,0.613
			c-12.082,1.141-18.088,4.48-18.088,9.918l1.161,11.103c0.365,4.276,0.955,7.209,1.751,8.76c1.547,5.458,5.62,8.167,12.26,8.167
			c6.624,0,14.77-7.006,24.505-21.021c5.868-1.161,10.919,2.546,15.216,11.099c3.87,7.396,5.828,14.218,5.828,20.432
			c0,2.342-0.754,4.868-2.322,7.597l-1.182,2.912c-0.776,0.796-1.161,1.568-1.161,2.344c-0.796,1.546-3.322,2.526-7.599,2.933
			l-13.423,0.571c-11.691,0.386-17.539,2.73-17.539,7.006c0,1.958,0.203,4.073,0.592,6.438l3.5,11.082
			c0.369,1.954,0.593,3.704,0.593,5.255c0,4.683-7.395,7.005-22.181,7.005h-9.941l-7.009,1.183c-2.729,0-5.07,0.386-7.006,1.161
			c-12.464,2.729-18.678,7.802-18.678,15.176c0.773,9.349,6.802,14.015,18.088,14.015c7.006,0,15.177-1.161,24.546-3.504
			l7.578-3.505c3.115-1.161,5.62-1.751,7.594-1.751c7.009,0,10.494,3.502,10.494,10.511c0,3.136-1.937,5.458-5.828,7.006
			c-1.161,0.796-2.912,1.568-5.256,2.364l-4.114,1.14c-3.504,0-7.557,0.61-12.223,1.751c-2.364,0.41-4.682,0.979-7.026,1.754
			l-18.088,5.276c-3.912,1.161-6.823,1.75-8.738,1.75c-1.976,0-4.115,0.183-6.479,0.593l-5.824,1.158
			c-2.708,0.796-4.889,1.161-6.416,1.161c-1.978,0.41-3.891,0.593-5.848,0.593c-1.933,0.386-3.505,0.183-4.663-0.593
			c-1.202-0.771-1.978-1.161-2.343-1.161c-1.588,0-2.709,0.593-3.505,1.754l-1.75,3.505c-4.687,0-10.717,0.975-18.109,2.911
			l-15.176,4.094c-3.89,0.385-6.823-0.776-8.76-3.505c0,5.458-7.026,9.556-21.061,12.264c-5.032,1.163-10.693,2.137-16.906,2.912
			l-11.104,0.59c-3.114,0-5.458-0.59-7.005-1.751c-1.526-0.775-2.911-2.343-4.072-4.666l-1.754-3.501
			c-0.793-1.181-1.385-2.343-1.751-3.505c-1.957-2.729-4.297-5.255-6.988-7.598c-0.427-2.344-0.224-4.459,0.531-6.417
			c1.223-2.729,2.974-4.114,5.255-4.114l5.276,0.61c2.709,0.775,5.052,1.14,7.009,1.14c1.547-0.772,3.89-1.343,7.005-1.75
			l5.256-1.751l18.697-1.754h15.177c3.097,0,5.644-0.162,7.577-0.568c6.254-0.776,10.531-3.505,12.874-8.188
			c0-0.368,0.959-2.525,2.912-6.416c1.551-3.89,2.344-6.416,2.344-7.599c0.365-6.599-3.322-10.696-11.121-12.264
			c-2.712-0.365-6.213-0.568-10.514-0.568c-0.751,0.386-1.75,0.568-2.911,0.568h-8.76l-3.501-3.501v5.256
			c-3.891,0.792-7.985,1.385-12.244,1.75h-12.281c-8.17,0-12.265-5.255-12.265-15.764c0-0.776,0.39-1.547,1.183-2.323l0.572-1.182
			c0.386,0.796,2.522,0.407,6.438-1.162l5.234-1.75l21.588-0.593c-0.365-1.161,0.979-1.75,4.115-1.75h18.701
			c2.361,0,4.459-0.365,6.396-1.161c5.073-1.162,8.78-3.116,11.12-5.845v-23.364c-0.792-8.17-3.136-12.264-7.006-12.264
			c-5.865,0-14.993,3.89-27.457,11.67l-15.766,9.942c-5.827,3.911-10.717,6.802-14.607,8.759c-0.751,0-1.954,0.407-3.5,1.179
			l-11.083,6.416c-2.343,0.796-4.482,1.161-6.458,1.161l-21,12.265c-8.983,4.682-16.744,7.005-23.363,7.005h-5.255
			c-1.958-0.366-2.916-2.12-2.916-5.256c5.052-10.103,11.103-15.176,18.108-15.176c2.322,0,4.259-0.386,5.827-1.161l2.912-3.5
			l1.753-3.505c0.793-1.568,1.751-2.526,2.933-2.933c3.891-1.182,8.188-4.28,12.854-9.328l5.865-6.438
			c2.688-2.342,5.234-4.097,7.557-5.254l15.766-8.76c1.958-1.548,3.708-3.302,5.255-5.255c1.53,0,3.302-0.776,5.276-2.344
			c1.161-0.775,2.915-2.343,5.255-4.667l5.217-5.843c1.975-1.937,3.724-3.505,5.276-4.666l-1.162-2.933
			c-0.775-1.937-1.55-2.912-2.363-2.912h-67.138c-7.006-5.073-10.511-11.306-10.511-18.681c0-3.504,2.71-5.662,8.168-6.437
			c1.568-0.386,3.708-0.569,6.437-0.569h15.745c3.139,0.366,6.644,1.548,10.531,3.502c0.775,0,1.753-0.407,2.936-1.18l2.323-2.322
			l36.786-2.364c15.177-1.161,27.458-2.322,36.806-3.504l3.505-2.912c1.161-1.548,1.754-2.912,1.754-4.094v-21.021
			c0-0.776-0.593-1.754-1.754-2.915c-1.568-1.161-2.729-1.751-3.505-1.751c-7.801-0.386-16.558-0.386-26.295,0l-39.701,2.912
			c-5.073,0.41-9.553,0.593-13.423,0.593c-9.735,0.792-18.493,1.161-26.295,1.161c-0.39,0.792-2.14-0.572-5.255-4.076
			c-3.505-3.116-5.256-5.663-5.256-7.596c-0.389-4.666,1.365-7.802,5.256-9.353l5.844-1.161l33.285,1.161l5.254-3.5l15.786-0.572
			l38.54-4.115h5.255c4.666,0,8.168-2.323,10.511-7.006l0.59-8.76c0-2.322,0.186-4.463,0.571-6.416c0-2.709-0.203-5.053-0.571-7.006
			c-1.18-11.675-5.479-17.52-12.85-17.52c-2.364,0-4.87,0.204-7.619,0.59l-20.432,1.754c-5.458,0-9.552-0.39-12.243-1.183
			c-2.34-0.774-4.297-1.936-5.845-3.504l-5.845-10.511L478.5,86.175c-3.136-4.277-4.683-7.396-4.683-9.328
			c0-3.136,2.14-5.276,6.437-6.438l9.329-0.59c0-0.388,0.979-0.388,2.911,0l5.869,1.163c12.832,0.792,27.823,0.406,44.956-1.163
			c2.708,0,5.844-0.186,9.349-0.592l31.53-2.323c4.297-0.385,7.598-1.182,9.921-2.34c6.234-2.712,9.39-10.311,9.39-22.774
			c0-10.51-3.525-18.312-10.551-23.363l8.187-12.265c3.119-3.501,6.214-5.255,9.35-5.255c10.509,0,21.593,1.958,33.284,5.826
			c15.176,5.459,22.774,12.465,22.774,21.042l-1.182,3.505v22.182c0,1.181,0.589,2.546,1.751,4.093l2.916,2.912l31.551-1.161
			l16.357,4.665c1.547,0.407,3.115,0.407,4.683,0l2.912-0.568c1.161-0.39,2.526-0.593,4.056-0.593l39.17,1.161
			c12.832,0,19.27-5.823,19.27-17.515c0-1.937-0.207-3.873-0.592-5.828l-2.344-8.76c-0.386-1.547-0.59-2.932-0.59-4.093
			c0-5.845,3.525-10.125,10.531-12.854c5.438-2.322,11.286-3.505,17.52-3.505c5.458,0,11.282,2.322,17.495,7.01
			c3.14-0.776,7.802,1.75,14.035,7.598c7.006,6.231,10.511,11.875,10.511,16.927c0,1.183-0.386,2.547-1.161,4.093l-2.344,3.505
			c-1.157,1.568-1.953,2.912-2.318,4.093c-0.796,1.548-1.183,3.116-1.183,4.663c0,0.795,0.59,1.754,1.751,2.916
			c1.546,1.181,2.75,1.75,3.505,1.75c3.891,0,8.556-1.161,14.035-3.504c4.255-1.547,9.146-3.87,14.583-7.005l15.807-10.511
			c6.192,0,12.608,2.547,19.249,7.599c3.87,3.115,8.333,7.598,13.421,13.421c-0.385,1.183,0.166,2.344,1.754,3.505l4.095,2.343
			c0.775,0.793,1.323,1.163,1.75,1.163c5.806,3.5,8.76,7.005,8.76,10.509c0,2.361-0.407,4.297-1.203,5.865
			c-0.772,2.323-2.301,3.505-4.645,3.505l-13.443,0.568c-1.913,0-4.277,0.204-6.985,0.573l-28.622,2.36
			c-1.585,0.369-3.318,0-5.272-1.178c-2.322-0.775-4.077-1.182-5.259-1.182c-15.171,0-31.53,1.953-49.066,5.865
			c-2.712,1.546-4.848,4.28-6.399,8.17l-4.115,10.51l-5.255,9.349l-3.48,8.167c-0.776,1.161-2.343,2.915-4.687,5.255
			c-0.796,1.162-1.547,1.957-2.322,2.344l-5.845,8.76c-0.796,2.322-1.161,4.683-1.161,7.005c0,1.958,0.978,3.504,2.911,4.687
			c1.569,1.141,3.505,1.548,5.849,1.141c0.771,0,2.912-0.959,6.416-2.895c3.522-1.954,5.458-2.933,5.824-2.933
			c3.136-5.052,7.801-8.76,14.035-11.099l7.006-1.161c1.978-0.39,3.687-0.593,5.255-0.593c1.551,2.729,4.504,5.644,8.76,8.78
			c1.161,1.141,2.912,2.526,5.276,4.073l1.75,0.572l4.078,3.501c8.962,6.644,13.422,12.285,13.422,16.95
			c-0.793,3.501-2.709,7.596-5.824,12.261c-0.775,1.954-1.978,4.095-3.504,6.438l-2.912,4.073c0,0.407-0.227,0.593-0.593,0.593
			l-1.162,1.751c-7.026,10.51-10.531,18.494-10.531,23.931c0.754,0,1.958,0.41,3.505,1.183l3.521,1.182
			c2.324-0.792,4.239-1.954,5.828-3.504c0.386-0.793,0.958-1.569,1.751-2.361l1.141-1.141c0.43-0.407,0.613-0.796,0.613-1.182
			c1.568-1.957,3.114-3.301,4.645-4.093c2.361-1.161,5.272-1.754,8.777-1.754c7.026,3.119,13.833,7.802,20.432,14.035
			c7.416,7.009,11.124,12.833,11.124,17.52c0,3.094-2.344,5.458-7.01,7.006l-22.792,3.504c-3.097,0.386-5.441,0.979-7.009,1.75
			c-4.667,1.958-7.026,4.87-7.026,8.76c-0.349,0-1.141-0.979-2.302-2.933c-1.161-1.937-3.932-2.912-8.171-2.912
			c-5.499,0-10.323,0.975-14.603,2.912c-5.845,2.729-9.167,6.438-9.938,11.099c0,7.396-1.754,14.015-5.276,19.862
			c0,15.969,2.361,25.911,7.026,29.78c2.709,2.344,9.146,3.501,19.271,3.501c20.228-6.23,32.326-11.485,36.196-15.765
			c1.975-2.323,3.505-5.824,4.725-10.511l2.28-7.006c0.796-3.504,1.754-6.619,2.953-9.352c3.505-5.438,5.827-10.121,7.01-14.011
			c7.006,0,11.671,2.339,14.015,7.006c-0.427,1.567-0.593,3.322-0.593,5.254v5.255c0,12.854,2.915,26.503,8.76,40.884
			c0,0.407,0.958,2.156,2.932,5.255c1.937,2.729,2.916,4.48,2.916,5.254c0.365,3.505-0.207,7.802-1.754,12.854
			c-2.343,5.845-5.275,9.735-8.777,11.672c-0.41-0.365-1.754-0.572-4.076-0.572l-15.173,2.323c-1.978,0.407-3.707,0.613-5.259,0.613
			c-4.297,0.771-7.801,1.14-10.51,1.14c-14.421,0-29.208,1.751-44.405,5.256l-26.296,1.75c-7.76,1.958-15.176-3.504-22.203-16.337
			c-6.233-11.282-9.311-21.61-9.311-30.962c0-3.501,0.208-7.371,0.593-11.672c0-1.933,0.183-4.093,0.569-6.416l1.753-17.537
			c0.386-4.276,0.59-8.167,0.59-11.672c0-1.181-0.978-3.119-2.912-5.848c-1.978-2.339-3.322-3.5-4.094-3.5
			c-22.206,0-33.264,8.963-33.264,26.865c0,1.182-0.816,2.526-2.364,4.077c-0.793,1.178-2.364,2.546-4.662,4.114
			c-3.932,3.501-5.279,5.459-4.118,5.824c1.571,2.343,1.385,5.051-0.59,8.191l-2.911,4.072l-6.417,13.443l-11.082,18.088
			c-6.641,6.641-11.896,12.67-15.786,18.13c-5.828,7.78-8.76,14.015-8.76,18.681c0,3.89,2.344,6.823,7.009,8.755l27.458,0.593
			c7.782-0.389,16.354-1.754,25.707-4.093c2.708,0,6.048-1.161,9.917-3.505c1.551-0.775,3.301-1.936,5.255-3.504
			c1.551-0.793,3.302-1.934,5.255-3.505c1.552-1.158,2.323-1.933,2.323-2.339c1.182-0.369,1.958-0.776,2.343-1.161
			c1.958-1.568,3.525-2.547,4.687-2.916c2.709-1.568,4.46-1.751,5.256-0.61c5.458,0,13.239,2.729,23.343,8.187
			c11.306,6.234,16.947,11.692,16.947,16.358c0,10.125-6.416,15.969-19.291,17.52c-4.665,0.792-10.879,0.975-18.659,0.589
			l-18.105-0.589l-119.162,8.756l-12.833-1.75l-21.023,2.343c-8.188,0.771-15.744,1.161-22.771,1.161h-18.701
			c-6.234,0.386-10.938,0.204-14.014-0.593c-8.574-1.546-12.851-6.599-12.851-15.176
			C554.601,417.915,555.376,416.364,558.512,414.411z M753.55,531.8c-2.282,0-4.849,0.386-7.557,1.161
			c-23.75,7.006-44.405,10.511-61.945,10.511c-9.735,3.89-21.979,7.594-36.765,11.1l-4.667,1.161c-0.792,0-1.568,0.203-2.364,0.593
			l-2.318,0.59c-3.891,0.775-7.01,1.546-9.35,2.322l-19.82,5.255c-5.094,0-12.692,1.181-22.813,3.504l-24.528,7.005l-13.422,5.849
			c-5.844,2.339-9.553,3.5-11.101,3.5c-7.801-1.161-14.217-7.006-19.29-17.515l-15.748-23.364
			c-0.387-4.666,3.118-7.009,10.493-7.009h5.255c5.458,0,10.328-0.203,14.645-0.569l12.24-1.182
			c2.712-0.386,5.258-0.571,7.578-0.571c3.119-0.407,6.254-0.59,9.349-0.59c8.19-0.386,18.111-0.59,29.783-0.59
			c1.568-0.389,3.115-1.161,4.663-2.322c1.568-1.182,3.136-2.729,4.665-4.687l6.479-8.187c6.984-7.009,11.65-12.265,13.99-15.766
			c3.875-6.214,5.828-12.63,5.828-19.271c0-3.87-1.161-5.826-3.505-5.826h-19.817c-1.588,1.546-5.479,2.526-11.713,2.911
			c-1.974,0.39-4.276,0.593-7.005,0.593h-5.848c-7.006,0-14.991,1.547-23.936,4.663l-8.757,2.915
			c-2.708,1.182-4.687,1.75-5.848,1.75c-8.963,3.505-21.61,6.641-37.967,9.35l-19.271,3.504c-7.005,1.569-13.057,3.115-18.129,4.666
			c-0.754,0-2.281,0.59-4.645,1.751c-2.361,1.182-3.89,1.751-4.662,1.751h-7.62c-1.933,0-3.687-0.183-5.255-0.569
			c-1.936-0.775-3.504-1.75-4.666-2.933c0-1.936-0.385-4.077-1.16-6.416l-5.846-9.353c-0.795-1.548-1.16-2.912-1.16-4.073
			c-1.162-6.233,5.806-10.51,20.999-12.854c2.364-0.771,5.479-1.365,9.37-1.751l9.921-1.161c8.188-0.775,14.015-1.75,17.52-2.933
			c23.363-1.546,40.696-3.097,51.961-4.665c9.735-0.793,21.041-2.344,33.894-4.663c5.439,0.772,12.853,0.204,22.183-1.754
			l5.275-0.61c1.916-0.775,3.688-1.141,5.255-1.141c4.281-0.775,7.968-1.182,11.104-1.182c15.583-2.322,33.833-4.073,54.894-5.254
			c3.89-0.387,8.375-0.573,13.404-0.573l40.291-1.75c9.738,0,22.02-0.61,36.827-1.751c2.343,0,4.89-0.203,7.599-0.613l13.993-1.141
			l12.282,1.754c1.958,0,3.87-0.613,5.806-1.754l12.282-7.026c1.937-1.161,3.687-1.751,5.279-1.751c0.771,0,1.913,0.59,3.5,1.751
			c1.937,1.568,2.895,3.322,2.895,5.275l21.041,1.751c5.459,0,12.647-2.933,21.61-8.777l10.514-7.009l9.918-5.255
			c1.566-0.773,4.3-0.183,8.17,1.754c0,0.385,0.224,0.589,0.61,0.589l1.141,0.568c0.795,0.796,1.567,1.183,2.363,1.183
			c1.548,0.775,2.709,1.161,3.502,1.161c1.55,0.796,3.687,1.568,6.416,2.343l7.009,1.75c5.845,1.958,10.287,3.708,13.423,5.255
			c10.124,5.053,15.196,14.426,15.196,28.03c0,2.343-0.796,4.094-2.364,5.255c-1.526,1.182-3.463,1.958-5.803,2.343
			c-1.958,0.386-4.097,0.59-6.416,0.59l-34.467-3.501l-71.862-1.183c-1.144,0.407-4.483,0.407-9.921,0l-15.787-0.571
			c-14.382-0.407-21.571,1.343-21.571,5.255c-1.568,1.161-0.427,2.525,3.485,4.076c0,0.407,0.365,0.59,1.181,0.59
			c0.387,0.385,0.772,0.589,1.158,0.589c1.161,0.389,1.958,0.776,2.344,1.161c1.916,1.162,3.301,2.14,4.093,2.915
			c13.243,6.234,24.322,13.646,33.265,22.203c1.223,1.161,2.973,2.322,5.255,3.505c1.568,1.157,3.912,2.525,7.03,4.072l16.925,9.938
			c14.401,9.353,21.593,19.863,21.593,31.534c0,7.005-0.551,12.465-1.754,16.355c0,0.39-1.14,1.936-3.504,4.665
			c-2.302,3.116-3.46,5.053-3.46,5.849c-6.276,10.12-14.424,16.354-24.546,18.676c-3.505,1.568-7.009,2.364-10.531,2.364
			c-1.936,0-6.213-2.546-12.816-7.619c-7.413-5.827-11.303-11.082-11.688-15.765c-3.119-3.099-5.849-7.212-8.212-12.264
			c-1.141-1.548-2.302-3.708-3.463-6.417c0-0.792-0.387-1.953-1.18-3.5c-0.795-1.571-1.16-2.732-1.16-3.505
			c-4.666-10.899-10.531-17.905-17.52-21.021H753.55z M573.688,264.896c1.917,2.73,4.463,4.667,7.599,5.828l1.75,0.589
			c1.162,0.39,1.938,0.796,2.323,1.162c1.958,0.796,3.912,1.754,5.848,2.932c0.793,1.161,3.115,2.732,7.027,4.667
			c3.87,2.342,6.802,3.504,8.78,3.504l1.751-3.504l0.53-21.021c0-5.848-0.368-10.125-1.14-12.854
			c-1.958-5.459-9.37-8.188-22.203-8.188c-12.102,0-16.744,1.954-14.015,5.865L573.688,264.896z M603.509,123.554
			c6.192,0,9.697-1.162,10.489-3.505c0-12.443-3.504-18.678-10.489-18.678c-9.39,0-14.057,2.73-14.057,8.167
			C589.453,117.34,594.119,122.006,603.509,123.554z M603.509,303.436c0,5.459,3.077,9.536,9.287,12.265
			c9.004,0,14.811-2.915,17.54-8.76l-4.073-4.073c-1.958-1.958-3.729-2.936-5.259-2.936c-1.568,0-4.093-0.568-7.594-1.751
			c-3.119-0.775-4.645-1.365-4.645-1.751c-2.365-0.388-3.932,0.386-4.725,2.324c-0.369,0.792-0.531,1.75-0.531,2.932V303.436z
			 M681.157,521.27c1.937,0.793,4.094,1.178,6.417,1.178h18.108l19.269-1.178l27.458,1.178c14.79,0,21.41-7.391,19.859-22.202
			c-0.793-0.772-1.75-3.094-2.933-7.006l-3.505-11.672c-3.887-10.125-8.776-15.176-14.563-15.176c-1.975,0-4.114,0.203-6.478,0.573
			l-22.751,2.339c-1.16,0-2.915,0.39-5.255,1.161l-8.19,1.754c-2.75,5.458-8.963,13.646-18.677,24.525
			c-2.343,2.34-4.115,4.297-5.255,5.844l-4.115,4.666c-2.28,3.502-3.504,6.231-3.504,8.187
			C677.043,518.172,678.428,520.13,681.157,521.27z M682.908,392.208c0,0.407,0.389,0.589,1.141,0.589
			c1.202,0,1.753-0.183,1.753-0.589c0-0.775-0.551-1.161-1.753-1.161C683.297,391.047,682.908,391.433,682.908,392.208z
			 M781.008,234.506c0,2.364,0.204,4.318,0.592,5.866c0.751,4.665,3.502,7.009,8.188,7.009c7.006,0,12.812-6.031,17.52-18.129
			c3.501-9.718,5.255-18.478,5.255-26.275c0-3.505-0.39-5.827-1.183-7.009c-0.368-0.366-1.16-0.776-2.322-1.161h-17.52
			c-0.792,0-1.75,1.568-2.911,4.665c-1.182,2.344-2.364,5.662-3.525,9.938c-2.75,9.739-4.094,16.542-4.094,20.452V234.506z"/>
		<path d="M1485.346,515.77c-0.39-3.911-0.572-8.19-0.572-12.874v-7.578l7.598-73.616c0.776-12.426,1.162-22.937,1.162-31.531
			c0-5.421,0.386-13.037,1.14-22.774l0.61-17.52c-0.385-1.178-0.61-4.479-0.61-9.938l0.61-15.766
			c0.39-14.79-1.953-22.165-7.006-22.165c-0.795,0-2.932,0.938-6.438,2.895c-3.504,1.954-5.437,2.933-5.826,2.933l-23.932,18.088
			l-2.912,2.932c-11.286,8.963-21.247,15.969-29.8,21.021l-7.599,5.259c-2.729,2.319-4.87,4.684-6.438,7.006
			c-3.504,1.546-7.78,3.707-12.832,6.438c-1.958,0.771-4.095,1.953-6.417,3.504l-16.379,8.756c-3.5,1.551-6.048,2.322-7.577,2.322
			c-0.751,0.775-1.954,0.775-3.502,0c-1.571-0.771-2.342-1.912-2.342-3.505c0-4.275,2.891-8.349,8.76-12.26
			c0.792-0.775,1.953-1.548,3.5-2.323l3.525-2.364c2.709-1.548,4.463-2.891,5.255-4.073c1.547-1.955,3.87-3.87,7.01-5.823
			l8.167-4.687c7.78-4.277,13.239-9.125,16.337-14.584c1.568-0.407,3.115-1.182,4.684-2.364l9.899-10.509
			c1.975-1.916,3.729-3.505,5.256-4.645c1.568-1.547,3.321-2.933,5.275-4.115l2.932-1.751c1.162-0.775,1.958-1.546,2.322-2.322
			c2.344-1.182,4.095-2.729,5.256-4.687c1.936-2.323,3.687-5.052,5.255-8.188c0-0.366,1.568-1.751,4.667-4.073
			c2.729-2.322,4.114-3.708,4.114-4.073l2.344-5.869c1.161-1.911,2.116-3.094,2.912-3.5c4.665-3.099,8.759-7.374,12.26-12.833
			c0.39-1.182,0.979-2.323,1.754-3.504l7.005-11.692c1.161-1.916,2.526-3.87,4.072-5.827l8.781-11.079
			c1.161-1.958,2.119-3.911,2.912-5.868c1.936-7.375,3.119-16.13,3.504-26.276v-26.275c0-0.775,0.59-1.347,1.754-1.754h1.771
			c8.553,0,17.312,3.912,26.276,11.692l19.249,21.593c1.181,1.546,2.119,3.3,2.932,5.254l1.753,5.828
			c0.773,2.36,1.751,4.114,2.892,5.255c1.181,1.954,2.75,3.542,4.707,4.683c3.074-9.328,7.23-14.015,12.261-14.015
			c1.547,0,3.301,0.572,5.256,1.754l11.082,8.76c1.933,1.178,3.522,1.75,4.704,1.75c7.782,2.729,13.791,5.662,18.088,8.76
			c5.827,4.277,8.76,9.573,8.76,15.766c-0.776,3.505-2.161,7.619-4.094,12.26l-3.505,11.692c-3.505,9.333-5.641,17.316-6.416,23.956
			c-0.386,2.323-0.59,5.052-0.59,8.188v9.328c-0.39,7.782-0.958,13.65-1.754,17.52l-4.662,18.698
			c0,10.103-1.754,22.202-5.254,36.216l-3.525,12.833c-0.776,1.958-1.141,3.302-1.141,4.073l-4.666,17.52
			c-0.407,5.865-3.318,14.625-8.777,26.317c-5.461,12.833-10.514,22.978-15.217,30.352c-6.599,10.917-13.812,18.901-21.592,23.953
			c-1.548,1.958-3.891,3.505-6.985,4.646c-0.796,0.407-2.141,0.813-4.094,1.181c0,0.407-0.613,0.569-1.754,0.569l-1.75,0.613
			c-6.62,1.953-9.921,5.823-9.921,11.692v4.642l-2.363,12.874c-2.73,10.104-6.048,15.156-9.897,15.156
			c-2.75-1.955-5.458-3.301-8.188-4.073c-0.796-0.407-1.572-0.572-2.344-0.572l-2.364-0.61c-2.302-0.365-3.869-2.119-4.645-5.255
			C1487.668,536.587,1486.139,527.421,1485.346,515.77z M1396.006,196.295l11.672-4.115c4.276-1.916,7.78-3.87,10.489-5.827
			c2.75-3.504,6.458-6.803,11.12-9.941l13.426-7.578c7.005-4.683,14.625-11.485,22.791-20.448c1.938-2.729,5.256-6.599,9.921-11.692
			l15.746-19.27c1.202-1.141,1.754-1.917,1.754-2.323c3.136-3.504,5.479-6.437,7.006-8.76c3.932-5.823,5.868-12.464,5.868-19.838
			l-1.754-16.378V59.613h6.417c3.911,0,7.191,0.203,9.962,0.572c3.87,0.407,6.965,0.975,9.328,1.75
			c3.115,1.183,5.051,2.364,5.844,3.505c2.712,4.317,6.212,8.757,10.494,13.443c1.568,1.182,3.5,2.932,5.843,5.255l2.344,2.932
			c1.162,1.182,2.141,1.958,2.912,2.322c7.76,8.598,11.692,16.176,11.692,22.774c0,5.093-2.954,9.167-8.78,12.262
			c-2.32,1.182-5.052,2.16-8.168,2.933l-4.093,1.181c-0.386,0.368-0.979,0.572-1.75,0.572l-1.754,0.569
			c-8.554,3.504-17.313,7.822-26.256,12.874c-3.931,1.958-7.801,4.277-11.691,7.009l-34.467,22.203
			c-8.553,5.051-16.744,9.328-24.505,12.833l-22.243,14.015c-3.501,0.407-7.006,1.382-10.51,2.933
			c-1.527,0.771-3.095,1.75-4.646,2.891l-4.683,2.932c-7.394,4.687-13.628,7.01-18.698,7.01c-1.53,0-2.529-0.776-2.894-2.324
			c-0.386-0.775-0.61-2.363-0.61-4.687C1383.132,203.504,1387.449,199.795,1396.006,196.295z M1523.335,494.136l1.75,1.751
			l1.755,1.754c5.437-2.323,10.692-7.782,15.764-16.338c1.162-1.546,2.323-3.504,3.485-5.865c0-0.368,0.407-1.14,1.178-2.322
			l1.754-2.936c0.774-1.913,1.75-3.667,2.911-5.255c0.776-1.914,1.751-3.502,2.912-4.643c5.462-14.421,9.556-29.821,12.285-46.159
			c1.933-11.286,3.687-26.275,5.255-44.976c2.302-8.188,4.053-19.271,5.255-33.282c1.162-10.878,1.75-20.248,1.75-28.029
			l-0.588-12.874l-1.162-6.396v-7.62c0-8.921,0.552-15.154,1.75-18.656c0.37-3.139-0.203-7.984-1.75-14.627
			c-2.343-7.781-5.255-13.037-8.759-15.766l-4.705,7.009c-1.937,2.729-3.869,4.48-5.827,5.256l-6.417,1.75
			c-1.933,0.816-3.318,1.958-4.093,3.505l-9.328,4.683c-4.297,2.323-6.416,4.28-6.416,5.827l1.751,16.378
			c0.368,0.773-0.225,6.028-1.751,15.766c-1.978,10.511-4.298,19.271-7.01,26.276v91.093c0.776,2.361,1.344,5.256,1.755,8.757v8.76
			c0,4.687-0.225,9.738-0.593,15.197l-2.323,18.128c-0.407,0.366-0.589,1.547-0.589,3.502l-1.161,5.254l-0.59,8.76
			c1.141,0.775,1.751,2.895,1.751,6.396V494.136z M1769.194,502.323c1.937,0,4.276,0.203,7.009,0.573l6.985,1.182
			c6.254,0.772,11.712,0.975,16.396,0.568c0.775-0.776,2.526-1.344,5.238-1.75c0.792-0.37,2.116-0.573,4.114-0.573l3.501-0.609
			c6.192-0.776,8.943-3.302,8.17-7.579l-2.342-31.531c0-1.55,0.771-4.848,2.342-9.941c1.162-5.458,2.302-8.76,3.502-9.9
			c-0.793-3.136-1.386-7.984-1.751-14.624c0-2.324-0.225-5.053-0.589-8.188l-1.162-16.909c0-2.36-0.224-4.479-0.593-6.434
			c-0.385-3.873-0.978-6.03-1.75-6.437l1.75-39.111c0.369-5.053,0.593-9.735,0.593-14.015c0-3.502-0.224-7.209-0.593-11.121
			l-1.75-16.337c-0.386-1.955-0.573-3.708-0.573-5.256c-0.407-3.911-0.589-7.411-0.589-10.509c0-13.24-5.459-26.89-16.378-40.9
			c-2.319,0-4.663,0.202-7.027,0.609l-18.66,1.751c-1.954,0-3.907-0.203-5.844-0.61l-8.167-2.322
			c-1.161-0.365-2.344-0.568-3.505-0.568c-3.891,0.365-7.802-0.979-11.671-4.118l-5.256-4.073c-0.796-1.182-2.181-2.729-4.114-4.684
			c-5.827,0-9.739,6.641-11.672,19.88c-0.389,2.323-0.613,4.848-0.613,7.577c-0.365,1.955-0.548,4.073-0.548,6.438l1.161,56.055
			c-0.389,0,0.773,1.386,3.522,4.073c1.571,1.588,2.525,2.936,2.895,4.115c1.181,1.551,1.75,2.732,1.75,3.504
			c1.938,13.24,7.802,19.842,17.54,19.842c8.553,0,14.991-6.438,19.271-19.27c0-1.182,0.182-2.322,0.568-3.505
			c0.407-0.365,0.59-0.978,0.59-1.751l0.593-1.754c0.771-2.729,1.546-4.848,2.322-6.437c1.568-3.87,3.501-5.824,5.823-5.824
			c3.139,0,5.666,2.157,7.619,6.437c1.937,4.277,2.892,8.35,2.892,12.261c0,1.141,0.796,3.098,2.363,5.827l4.646,7.577
			c4.704,7.824,7.026,13.443,7.026,16.948c0,1.953,0.183,3.911,0.593,5.865c0,1.548,0.365,3.301,1.162,5.255l1.75,8.15
			c1.568,4.318-0.573,7.412-6.396,9.37c-1.183,0.365-2.364,0.975-3.525,1.751l-3.505,0.571c-2.688,0.772-4.48,1.548-5.255,2.319
			h-37.396c-0.368,1.592-1.141,2.567-2.302,2.936c-0.41,0.407-1.202,0.569-2.343,0.569h-3.505l-8.188-3.505
			c-2.344-0.771-4.666-1.344-6.988-1.751l-11.141-1.75c-6.599-1.141-11.468-5.827-14.583-14.016
			c-4.666-7.78-7.009-23.546-7.009-47.298l1.182-5.824l-3.505-52.596c0-18.656-1.181-36.785-3.5-54.304
			c-0.39-0.771-0.593-2.526-0.593-5.256l-0.568-7.577c-1.572-6.641-6.234-9.938-14.015-9.938c-4.298,0-7.437,2.319-9.37,7.005
			c0,8.557,0.183,15.766,0.61,21.634c0,4.276,0.183,8.146,0.588,11.651l0.551,5.865c0.407,1.958,0.61,4.073,0.61,6.396
			c0,9.738,0.593,21.023,1.754,33.894c1.161,12.833,1.751,22.571,1.751,29.211l1.161,41.431v41.472l2.344,21.021l-1.203,3.505
			c-0.772,2.729-1.141,4.483-1.141,5.255l0.59,5.869c0,1.14,0.186,2.525,0.551,4.073l0.61,4.114
			c1.141,7.375,1.754,13.24,1.754,17.517c0,34.263-10.531,51.372-31.573,51.372c-1.529,0-2.508-1.182-2.894-3.504
			c-0.387-0.366-0.793-1.344-1.161-2.933c0-1.141-0.204-2.116-0.59-2.892c0-3.911-0.613-8.187-1.751-12.874l-7.009-16.906
			c-0.813-2.364-1.568-4.114-2.343-5.255c-1.161-3.505-1.751-6.234-1.751-8.188c0-0.368,0.979-2.119,2.912-5.258
			c1.958-2.729,2.933-5.255,2.933-7.574l1.141-116.843l-1.141-123.803l-3.501-3.504h-25.139c-9.735,0-18.494,1.181-26.255,3.504
			c-12.854,0.406-19.29-5.461-19.29-17.52c0-5.823,1.751-8.759,5.276-8.759l10.51,1.754h49.05c1.16,0,2.14-0.369,2.911-1.183
			c0.369,0,0.796-0.368,1.183-1.141l1.754-1.182c0-4.277-0.39-10.51-1.183-18.698c-0.774-7.781-1.161-14.015-1.161-18.701
			l1.161-3.505c0.793-1.912,1.183-3.5,1.183-4.641c-1.572-6.641-2.567-13.812-2.937-21.634l-1.751-17.516
			c-1.546-10.879-7.78-20.82-18.697-29.78c-0.369-0.368-0.938-0.571-1.754-0.571l-2.892-1.182c-2.322-1.183-3.504-2.934-3.504-5.256
			c0-1.546,1.182-3.094,3.504-4.684c1.938-1.14,4.46-2.322,7.599-3.504c5.823-1.547,10.693-2.322,14.584-2.322
			c19.066,0,36.216,4.687,51.414,14.015c4.277,2.729,7.781,7.413,10.51,14.015c3.098,7.412,5.827,12.099,8.167,14.015
			c6.621,2.361,13.223,6.231,19.862,11.689c0.773,1.182,2.117,2.526,4.053,4.077l13.463,11.119l6.438,4.074
			c2.708,1.55,5.051,3.14,7.009,4.687c5.031,4.276,7.557,8.76,7.557,13.401c0,6.234-4.056,12.672-12.223,19.312
			c-7.801,6.234-15.014,9.328-21.634,9.328c-4.297,0-6.844-3.501-7.616-10.51v-8.757c0-3.504-0.186-5.868-0.551-7.009
			c-0.796-0.407-1.957-2.729-3.525-7.005l-4.662-12.874c-5.073-11.65-10.511-17.52-16.338-17.52
			c-7.396,0-11.896,6.844-13.422,20.452c-0.796,4.687-1.02,10.916-0.593,18.701v19.266l-1.161,4.076
			c-0.792,2.361-1.203,3.912-1.203,4.684c-1.933,5.458,1.203,8.963,9.373,10.511c2.708,0.774,6.209,1.385,10.511,1.754h8.167
			c1.547,0,3.115-0.203,4.666-0.573l3.5-1.181c1.958-0.773,3.302-1.183,4.094-1.183c1.144-0.365,2.53-0.568,4.097-0.568h24.547
			l11.671-7.006c1.161-0.775,2.302-1.347,3.5-1.754c6.214-3.505,11.672-5.255,16.338-5.255c3.504,0,7.212,1.958,11.103,5.827
			c3.501,3.911,5.255,7.209,5.255,9.938c0,2.729-0.795,5.461-2.363,8.19c-1.141,3.095-2.709,5.052-4.646,5.824l-24.524-1.751
			c-4.298,0-8.76,0.771-13.423,2.322c-1.568,0.407-3.504,1.183-5.868,2.361l-6.396,2.322l-7.026,1.183
			c-1.162,0-1.934,0.204-2.364,0.572c-4.256,0.771-6.234,2.525-5.804,5.255l21.021,21.02l19.859-2.891l34.425-1.182l61.924-4.115
			c12.464-0.369,24.749-0.573,36.828-0.573c3.869,0,9.535-3.297,16.926-9.938l16.338-16.337c6.62-0.368,13.015,3.136,19.249,10.511
			l15.786,19.269c0.796,0.407,1.751,1.183,2.953,2.364c1.162,1.141,2.12,1.913,2.915,2.319c1.934,1.958,2.912,4.483,2.912,7.577
			c0,2.364-0.795,4.321-2.322,5.869c-0.796,0.771-2.343,1.75-4.707,2.891c-7.005,0-12.646-0.162-16.927-0.568l-8.167-1.182
			c-0.796,0-1.568-0.166-2.344-0.572l-1.751-0.568c-1.182-0.407-2.546-0.613-4.094-0.613c-0.388-0.366-2.343-0.163-5.848,0.613
			l-9.917,1.141c-1.957,0.406-3.894,0.609-5.827,0.609h-9.349c-1.958,0-3.504,0.204-4.667,0.573
			c-6.64,0.407-12.874,2.526-18.697,6.438c-0.411,1.546-0.411,3.297,0,5.255l1.161,5.254c0,3.87-1.161,8.963-3.505,15.156
			c-2.364,5.865-3.504,10.511-3.504,14.011c0,6.234,0.182,13.077,0.592,20.452l2.912,36.789c0.386,6.641,0.59,12.667,0.59,18.126
			c0,11.286,0.182,22.205,0.551,32.716l4.136,44.363c0.365,7.782,0.568,15.197,0.568,22.203c0,0.407-1.179,2.526-3.501,6.436
			c-2.344,4.277-3.505,6.803-3.505,7.579c0,10.145-2.343,17.52-7.006,22.202c-7.03,12.468-12.854,21.39-17.54,26.848
			c-7.78,9.37-15.562,14.016-23.342,14.016c-5.828,0-10.714-2.526-14.604-7.578l-4.687-6.438c-1.954-3.094-4.073-5.458-6.417-7.006
			c-1.16-1.14-3.318-2.525-6.416-4.076c-0.792-0.772-2.178-1.547-4.094-2.319l-4.093-1.795c-3.119-1.547-5.479-3.094-7.009-4.642
			c-1.934-1.551-2.912-3.14-2.912-4.687L1769.194,502.323z M1561.853,189.285l-0.571-0.61c-0.793,0-1.182,0.407-1.182,1.183
			c0,1.182,0.389,1.75,1.182,1.75L1561.853,189.285z M1661.725,158.323c-1.568,0-2.546,1.344-2.911,4.077
			c-0.407,0.771-0.593,1.954-0.593,3.5v2.933c1.571,0,2.525-1.547,2.936-4.683c0.386-1.141,0.568-2.322,0.568-3.505V158.323z
			 M1725.971,392.532l-0.571,0.571c-0.407,0-0.59,0.204-0.59,0.568c0,0.411,0.183,0.818,0.59,1.183l0.571,0.571
			c0.772,0,1.183-0.571,1.183-1.754C1727.153,392.9,1726.743,392.532,1725.971,392.532z M1772.106,120.356
			c2.343-1.183,5.624-1.954,9.941-2.324h21.021c5.868,0,12.65,0.776,20.452,2.324c8.167,1.546,14.198,2.322,18.088,2.322
			c3.504,0.407,7.009-0.776,10.51-3.505c1.569-1.141,3.322-2.688,5.276-4.645l2.912-2.932c0-0.366,0.39-0.771,1.144-1.183
			l0.61-0.568c0.385-0.365,0.589-0.775,0.589-1.182c9.332-10.104,17.52-15.155,24.546-15.155c6.192,0,13.993,4.073,23.343,12.264
			c8.17,7.006,12.65,12.26,13.425,15.766c0,7.374-7.597,12.057-22.774,14.015c-5.051,0.771-11.082,1.141-18.088,1.141h-13.442
			v-3.505l-2.344,2.364c-5.458,0-11.306,0.365-17.52,1.141l-16.927,1.182c-14.015,1.547-25.134,2.319-33.284,2.319
			c-21.042,0-31.551-5.048-31.551-15.151C1768.033,123.085,1769.376,121.538,1772.106,120.356z"/>
	</g>
	<path d="M0,568.648V34.151h111.463v22.488c-62.575,5.542-64.856,7.496-64.856,56.056v377.409c0,47.905,2.281,49.212,64.856,55.404
		v23.14H0z"/>
	<path d="M2193.389,568.648v-23.14c62.899-6.192,64.836-7.499,64.836-57.034V112.043c0-47.909-1.937-49.863-64.836-55.404V34.151
		h111.459v534.497H2193.389z"/>
</g>
<g id="Layer_2">
</g>
</svg>
