<?xml version="1.0" encoding="utf-8"?>
<!-- Generator: Adobe Illustrator 16.0.0, SVG Export Plug-In . SVG Version: 6.00 Build 0)  -->
<!DOCTYPE svg PUBLIC "-//W3C//DTD SVG 1.0//EN" "http://www.w3.org/TR/2001/REC-SVG-20010904/DTD/svg10.dtd">
<svg version="1.0" xmlns="http://www.w3.org/2000/svg" xmlns:xlink="http://www.w3.org/1999/xlink" x="0px" y="0px"
	 width="2304.85px" height="602px" viewBox="0 0 2304.85 602" enable-background="new 0 0 2304.85 602" xml:space="preserve">
<g id="Layer_1">
	<g>
		<path d="M461.043,498.802c0.407-3.505,0.613-7.396,0.613-11.672v-11.692c0-6.234,0.158-12.833,0.564-19.842l2.938-37.967
			c0.365-7.396,0.57-14.604,0.57-21.613c2.344-1.568,3.502-3.89,3.502-7.006c-2.322-5.848-3.502-14.401-3.502-25.707l1.752-24.525
			c0-9.717-0.208-18.474-0.572-26.275l-2.344-34.467c-0.385-6.62-0.586-13.629-0.586-21.02l-2.322-17.52
			c0-6.234,0.158-13.24,0.564-21.042l2.938-40.29c0.365-7.78,0.57-14.791,0.57-21.02l-0.57-15.769l-4.688-61.311
			c-0.387-1.568-1.178-2.933-2.323-4.115l-3.499-2.322c-1.574-1.182-2.729-2.343-3.502-3.504c-0.801-1.548-1.186-3.502-1.186-5.845
			c0-1.547,1.365-3.119,4.072-4.666c2.363-1.546,5.666-2.933,9.945-4.094c7.395-2.344,13.24-3.505,17.513-3.505
			c3.894,0,9.352,0.796,16.362,2.344c3.48,0.775,6.416,1.751,8.779,2.912c2.688,1.161,4.272,2.343,4.639,3.504l1.758,7.006
			c1.179,1.957,2.355,3.119,3.501,3.505l7.008-3.505c1.18-0.385,3.315-0.589,6.438-0.589l9.938-0.569
			c4.278,0,7.374-0.207,9.323-0.592c3.102-0.386,5.061-0.958,5.853-1.751h19.249c4.313,0,8.96-2.915,14.052-8.76
			c4.646-5.848,8.761-8.76,12.261-8.76c11.289,0,20.049,4.666,26.28,14.015c0.364,5.848,0,14.604-1.179,26.296l-3.509,28.029
			l-1.158,4.073c-0.792,2.344-1.164,3.912-1.164,4.687l-1.18,47.888c-0.407,0.386-0.407,2.137,0,5.256l0.593,4.662
			c0.388,1.957,0.587,3.708,0.587,5.259c0,7.801-4.294,12.85-12.875,15.193c-3.093,1.162-7.001,1.958-11.646,2.323h-23.385
			c-4.281,0-7.01-0.365-8.168-1.161c-5.073,0-14.403,0.979-28.051,2.912l-26.278,4.097l-5.251,3.501v38.561l-1.757,11.672
			l1.757,35.627c-0.365,1.178-0.573,2.526-0.573,4.073c-0.407,2.363-0.771,3.911-1.184,4.683v3.505
			c0,4.687,0.612,8.187,1.757,10.511l1.749,79.442l-3.506,42.041v66.57c0,2.339-0.567,4.479-1.751,6.436
			c-1.545,2.729-3.294,4.073-5.252,4.073c0,2.729-2.531,6.438-7.582,11.12c-5.458,5.442-10.51,8.171-15.188,8.171
			c-10.519,0-15.769-6.416-15.769-19.291C458.927,514.771,460.271,507.376,461.043,498.802z M502.513,176.411
			c0,5.461,3.142,8.963,9.373,10.514l5.821,1.179c0.779,0,1.345,0.206,1.758,0.571c2.729,0.407,4.682,0.979,5.824,1.751l10.51-1.161
			c0.406,0.389,0.772,0.593,1.18,0.593c0.779,0,2.143-0.979,4.094-2.933h26.279c8.166-3.098,12.281-11.285,12.281-24.525
			l-1.75-12.264c-3.543-2.729-8.396-4.276-14.627-4.683c-2.729-0.369-5.663-0.573-8.758-0.573h-8.168
			c-0.386,0.776-2.137,1.365-5.258,1.751l-11.669,1.161c-11.696,1.568-19.476,4.094-23.385,7.599
			c-0.364,0.775-0.776,2.323-1.143,4.687L502.513,176.411z M535.799,127.362c0,1.549,0.98,2.525,2.937,2.915
			c1.544,0.792,2.337,0.975,2.337,0.589c0.393,0,1.364-0.979,2.916-2.933c1.549-1.547,2.935-2.322,4.092-2.322l17.52-1.751
			c7.396-1.547,11.469-4.483,12.283-8.76c0-6.62,1.75-12.467,5.258-17.519c0-0.772-0.406-1.954-1.186-3.502l-1.75-4.687
			c-1.957-3.504-2.729-5.458-2.322-5.823H520.03l-4.073-1.754h-2.928c-2.322,0-3.509,0.572-3.509,1.754v43.792H535.799z
			 M531.726,564.799l5.846-2.343c2.708-0.776,5.052-1.754,7.01-2.912c25.319-16.744,41.448-31.148,48.456-43.205
			c8.189-13.646,13.646-37.196,16.376-70.684c0-1.178-0.608-2.932-1.751-5.255c-1.564-2.339-2.729-3.501-3.502-3.501l-28.029,1.162
			c-1.592-0.39-2.937,1.75-4.113,6.416c-1.164,4.683-1.553,9.735-1.164,15.193c0,2.729-1.932,7.416-5.846,14.015
			c-4.666,8.188-9.737,12.265-15.176,12.265c-6.25,0-12.646-6.417-19.29-19.271v-1.753c2.362-12.465,3.508-25.298,3.508-38.537
			l-1.751-30.373c0-14.035,7.023-21.041,21.041-21.041h3.502c1.549,0,2.915,0.204,4.092,0.61c3.096,1.14,4.666,2.894,4.666,5.255
			v12.264c0,4.277,0.181,7.985,0.594,11.079c0.365,8.191,1.344,13.243,2.908,15.197l3.487,1.161h17.554
			c2.707,0,5.26-0.183,7.582-0.59c12.468-1.551,19.469-6.416,21.019-14.586l1.18-30.39c1.164-3.098,5.417-4.646,12.832-4.646
			c3.101,0,6.811,1.548,11.104,4.646c4.301,3.504,6.415,7.006,6.415,10.53c0,5.438-0.364,11.672-1.137,18.678l-4.688,36.789
			c-0.776,7.005-1.184,13.24-1.184,18.698c-6.597,22.591-13.419,40.294-20.429,53.144c-8.967,17.905-20.435,31.738-34.446,41.472
			l-49.069,24.524l-5.272,3.505c-1.937,0-3.874-0.793-5.831-2.343c-1.951-1.547-2.93-3.095-2.93-4.663
			C525.289,570.237,527.447,566.732,531.726,564.799z M530.542,250.007c0-1.934,0.206-3.116,0.612-3.502
			c0.772-0.796,2.322-1.161,4.645-1.161c1.18,0,2.365,0.203,3.523,0.568l7.601,3.505c1.546,0.407,3.095,0.59,4.659,0.59
			c0.393,0.795,1.938,0,4.666-2.344l7.602-5.824c0.751-0.775,1.564-2.729,2.344-5.865l1.75-9.332
			c1.544-7.782,4.845-11.692,9.939-11.692c8.146,0,12.26,3.504,12.26,10.51c0,3.912-3.502,9.739-10.51,17.541
			c-7.416,7.801-10.918,13.625-10.531,17.515v5.255l1.165,6.417c0.772,5.848,2.157,9.738,4.073,11.692
			c0.813,3.504-1.146,7.78-5.83,12.832c-5.046,5.462-9.532,8.191-13.419,8.191c-0.388,0.407-0.999,0.568-1.751,0.568
			c-1.571,0-3.123-0.568-4.666-1.75c-2.344-1.141-4.093-3.688-5.26-7.578c-1.584-4.687-2.342-11.103-2.342-19.27
			c0-3.115-1.75-7.395-5.273-12.853c-1.143-1.548-1.749-2.527-1.749-2.912l-1.751-2.933c-1.145-2.322-1.757-4.28-1.757-5.827
			V250.007z M610.578,351.039l-6.418,1.162c-1.186,0.41-2.363,0.592-3.508,0.592c-4.68,0-9.367,0.204-14.012,0.59
			c-1.956,0-3.906,0.203-5.865,0.571l-16.926,1.751c-4.301,0.407-8.373,0.59-12.268,0.59c-10.896,0-16.355-8.553-16.355-25.683
			c0-2.343,1.345-3.911,4.096-4.687c16.725,0,26.871-0.572,30.373-1.751c3.871-1.161,7.78-5.255,11.688-12.264l5.831-8.76
			c1.177-1.548,2.114-3.297,2.928-5.255c1.55-1.954,2.707-4.277,3.508-7.006c0.773-3.119,4.074-8.187,9.898-15.197
			c1.184-1.933,2.154-3.297,2.934-4.073l3.502-4.687c2.344-3.5,4.095-6.802,5.251-9.917c1.958-1.937,3.101-4.666,3.508-8.171v-9.348
			c0-7.802,2.344-11.672,7.011-11.672c5.457,0,10.71,2.12,15.762,6.396c4.279,4.318,6.436,7.985,6.436,11.124
			c0,5.823-2.362,11.486-7.008,16.927c-0.771,1.161-1.951,2.343-3.501,3.5l-10.51,11.104l-2.344,4.072
			c-1.958,3.14-3.502,5.256-4.666,6.438c0.372,1.547-0.199,3.708-1.751,6.417l-7.008,7.598c-7.004,8.188-10.512,14.016-10.512,17.52
			c0,2.339,0.959,4.48,2.896,6.434c1.955,1.957,3.912,2.916,5.864,2.916c16.341-5.073,24.527-11.307,24.527-18.681l-0.593-8.188
			c0-3.89,2.508-5.826,7.596-5.826c1.165,0,3.1,1.549,5.831,4.645c2.729,2.729,5.458,6.234,8.188,10.51
			c7.008,10.531,10.51,19.109,10.51,25.708c0,4.687-1.751,9.167-5.259,13.442c-3.906,5.052-8.346,7.578-13.438,7.578
			c-3.508,0-8.761-1.161-15.769-3.502c-6.618-2.322-11.875-3.504-15.771-3.504C613.691,350.45,612.121,350.653,610.578,351.039z
			 M834.841,463.174l-1.158-2.912l-1.186-2.343c0-3.505,0.394-8.76,1.186-15.765c0.772-7.009,1.158-12.265,1.158-15.766
			c0-2.733-0.199-5.255-0.587-7.599c0-1.551-0.205-3.119-0.571-4.666l-1.186-7.599l-0.565-47.316l-4.113-54.305v-28.029
			c0-1.954-0.187-4.093-0.572-6.438l-2.936-18.087v-7.006c0-7.009-0.367-13.65-1.137-19.884c-0.795-8.552-1.959-15.172-3.509-19.837
			c-1.95-6.234-4.679-9.35-8.187-9.35l-36.219-3.504c-1.544,0.796-4.48,1.161-8.76,1.161h-14.582
			c-0.795,1.182-1.952,2.343-3.502,3.504l-4.113,2.34c-3.502,1.571-5.26,3.119-5.26,4.666c0,21.816-7.374,38.946-22.18,51.415
			c0,9.735-1.748,18.676-5.257,26.848c-3.887,10.141-9.146,15.193-15.763,15.193c-5.072,0-9.352-2.526-12.853-7.599
			c-4.281-5.052-8.188-7.963-11.696-8.757v-15.176c-1.543-2.729-2.896-6.234-4.072-10.509c-1.959-5.053-2.931-9.739-2.931-14.016
			c0-2.343,1.565-3.504,4.681-3.504c1.957,0,3.895,0.571,5.831,1.754c0.771,0.365,2.157,1.546,4.114,3.501
			c1.543,1.957,2.887,3.301,4.073,4.073c1.95,1.181,4.272,1.957,7.001,2.344c1.553-0.387,2.738-1.934,3.508-4.663
			c0-0.776,1.544-2.729,4.688-5.848c3.094-2.729,4.658-4.297,4.658-4.667l5.26-15.193l4.094-8.188
			c0.771-1.55,1.164-3.097,1.164-4.665c0-4.277-2.914-7.964-8.76-11.104c-5.85-3.501-8.76-7.577-8.76-12.261
			c0-6.599,1.158-12.467,3.502-17.52c-2.344-7.78-3.502-15.968-3.502-24.524c-0.385-5.052-0.207-12.058,0.587-21.02l0.571-21.021
			c-0.406-0.775-0.772-2.932-1.158-6.436l-1.164-4.687c-0.406-1.548-0.586-3.095-0.586-4.642c-0.799-3.912-1.571-7.01-2.344-9.373
			l-1.758-6.417c-3.114-1.548-4.657-5.048-4.657-10.51c0-8.167,6.21-12.261,18.675-12.261c5.846,0,10.512,1.75,14.012,5.255
			c5.461-0.386,11.124,0.979,16.948,4.094c6.622,3.115,12.261,4.666,16.948,4.666l3.508-0.593l9.917-4.073l6.417-0.59
			c0.385,0.387,1.344,0.59,2.935,0.59l3.501,1.161l7.011-0.59l3.499-2.322c1.158-0.775,2.322-1.364,3.502-1.754
			c1.55-0.385,2.938-0.589,4.08-0.589c1.586-0.386,3.701-0.593,6.437-0.593h6.432c2.708,0,4.851-0.183,6.402-0.568
			c2.356-0.386,4.479-1.183,6.43-2.344c2.735,0,6.604-4.458,11.695-13.422c4.667-8.556,10.876-12.853,18.678-12.853
			c1.571,0,3.322,0.792,5.259,2.343l2.907,2.912l2.937-1.751h6.437c0.772,0,5.417,2.544,14.011,7.595
			c10.512,6.234,15.77,11.878,15.77,16.93v15.766c-1.571,1.161-3.342,2.729-5.258,4.662l-9.366,11.124
			c-1.552,2.322-3.095,4.073-4.645,5.254c-4.688,16.745-7.011,37.175-7.011,61.311l1.146,26.279
			c2.362,9.735,3.906,21.815,4.678,36.217v17.516l1.758,27.458l3.502,28.602l0.571,11.691v59.56c0,0.793,0.407,2.158,1.177,4.095
			l1.187,2.911c0,5.459,0.366,11.692,1.139,18.698l1.184,18.702c0,1.547-0.206,3.297-0.571,5.255
			c-0.406,0.385-0.612,0.978-0.612,1.751l-0.573,4.075c-0.386,2.341-0.565,4.48-0.565,6.435l1.751,4.666
			c1.137,3.114,1.75,5.072,1.75,5.848l-1.75,37.375c0.365,0.796,0.772,2.344,1.137,4.666l0.613,10.511
			c0,26.481-10.509,48.685-31.552,66.589c-1.571,1.161-3.894,1.751-7.008,1.751c-9.759,0-15.377-7.802-16.927-23.364
			c-0.792-6.233-1.18-15.196-1.18-26.868L834.841,463.174z M693.5,463.174c0-6.234-0.77-16.542-2.322-30.962
			c-1.592-14.786-2.344-25.687-2.344-32.691l1.158-11.672l-3.5-28.05c-5.459-5.438-8.189-12.057-8.189-19.859
			c0-7.781,2.365-11.671,7.032-11.671h22.177c1.186,0,2.729-1.568,4.688-4.667l12.261-22.774c2.322-4.297,4.479-7.616,6.437-9.938
			c3.096-1.958,5.259-5.458,6.396-10.511l0.614-14.015c0-0.774,1.137-2.342,3.5-4.687c2.322-2.322,3.508-3.87,3.508-4.662
			l17.514-28.051c11.674,0,17.52,4.687,17.52,14.036c0,0.385-0.773,1.933-2.344,4.662l-11.668,18.701
			c-1.959,3.505-3.136,5.824-3.508,7.006c-0.407,3.119-0.973,5.052-1.752,5.828c-1.177,0.792-2.542,1.181-4.092,1.181
			c-1.959,0-2.916,0.975-2.916,2.912l0.572,5.255c1.186-0.385-1.543,3.505-8.188,11.672c-7.783,10.145-11.654,17.15-11.654,21.041
			c0,4.667,3.666,7.01,11.081,7.01h10.512c2.735,0,5.052-0.183,7.008-0.593c5.845-0.772,8.761-2.322,8.761-4.663v-1.754
			c0-11.67,2.729-17.536,8.188-17.536c1.164,0,2.915,1.182,5.259,3.504l7.001,9.37c5.831,8.553,8.76,15.172,8.76,19.838
			c0,4.297-1.544,8.963-4.68,14.015c-3.102,6.233-6.604,9.349-10.516,9.349c-5.045,0-8.554-3.504-10.512-10.51h-15.17
			c-5.465,0-9.923,0.204-13.425,0.589c-9.739,0.776-18.132,3.301-25.136,7.578c3.909,3.911,5.865,9.738,5.865,17.52
			c0,1.953-0.205,4.297-0.612,7.006c0,1.181-0.366,3.342-1.136,6.436l-1.187,6.438c-0.407,2.729-0.565,5.052-0.565,7.009
			c0,9.328,4.639,14.012,14.012,14.012c1.137,0,4.279-1.179,9.324-3.501l5.83-2.934c1.564-1.16,2.365-2.119,2.365-2.915
			c-0.801-4.662-1.186-8.166-1.186-10.51l1.186-4.666l-1.186-12.871c-0.773-1.551-0.201-3.687,1.751-6.396
			c1.55-2.732,3.707-4.114,6.437-4.114l5.83,1.75c1.95,0,4.272,0.204,7.002,0.61c2.729,2.323,5.259,3.87,7.603,4.646l5.843,1.75
			c1.959,0.41,3.502,0.979,4.646,1.754c1.586,1.178,2.937,3.136,4.116,5.865v9.328c0,3.912,0.199,7.417,0.571,10.511
			c0,7.802,0.605,14.015,1.751,18.701l3.5,19.271c0,1.546-0.979,3.707-2.895,6.436l-7.615,9.918
			c-5.824,7.009-11.668,13.243-17.52,18.681c-3.115,0.793-6.617,0-10.51-2.322c-3.908-2.344-5.824-5.053-5.824-8.188v-29.78
			c0.365-1.182-0.979-2.14-4.114-2.933c-2.708-0.368-5.253-0.571-7.581-0.571c-1.95,1.161-4.272,1.751-7.002,1.751l-6.438,0.571
			c-2.322,0-4.278,0.407-5.821,1.182c-1.959,1.162-3.303,2.912-4.074,5.256l1.137,49.049c0,7.413-5.051,16.172-15.176,26.276
			c-1.158-0.775-2.915-1.547-5.252-2.323l-5.258-2.343c-3.887-2.339-5.846-5.438-5.846-9.35V463.174z M757.748,118.605l35.031-1.754
			c1.186,0,2.529,0.203,4.113,0.572c1.553,0.792,2.896,1.182,4.074,1.182c12.467,0,20.049-2.936,22.777-8.76
			c0.773-2.729,1.345-6.619,1.752-11.692V80.065l-7.01-7.026h-19.843l-36.803,2.34l-4.666-0.589c-1.571,0-3.136,0.385-4.686,1.16
			c-1.958,0.793-3.708,2.158-5.259,4.115c-2.729-2.364-5.824-1.182-9.324,3.505c-0.794,0.771-1.385,1.75-1.751,2.891l-1.757,2.932
			c-1.18,1.958-1.95,2.933-2.357,2.933C732.041,109.845,740.614,118.605,757.748,118.605z M747.23,171.748
			c1.551,0.386,2.529,0.793,2.937,1.162c0.771,0.407,1.345,1.182,1.751,2.34l5.83-2.34c20.613,0.407,35.603-0.203,44.976-1.754
			c8.188-1.161,13.439-3.095,15.763-5.824c1.179-1.182,1.75-2.526,1.75-4.114c0.386-0.776,0.572-1.754,0.572-2.895v-2.361
			c0-2.323,0.207-4.462,0.613-6.396c0.367-2.363,1.345-4.483,2.889-6.436l-7.002-7.01c-7.376-0.771-17.685-0.588-30.945,0.573
			c-1.157,0.407-2.545,0.59-4.094,0.59l-11.668,1.161c-6.258,0.407-11.469,0.592-15.79,0.592l-9.897-1.161
			c-0.799,1.161-1.758,2.137-2.935,2.912l-2.937,1.751c-1.137,0.389-1.931,1.364-2.316,2.915c-0.779,1.178-1.186,3.318-1.186,6.433
			C735.541,162.806,739.456,169.405,747.23,171.748z"/>
		<path d="M1391.096,565.961l7.595-6.417c1.552-1.571,2.915-2.732,4.073-3.504l4.688-3.505c1.156-1.162,2.708-2.343,4.664-3.505
			l15.763-11.67c8.175-7.006,12.288-13.24,12.288-18.698l11.648-16.947c0.792-0.369,1.57-1.161,2.363-2.324l2.322-2.932
			c3.502-4.665,6.23-8.556,8.188-11.671c3.095-4.28,5.625-8.171,7.581-11.672l11.097-29.78c3.893-10.921,7.195-20.837,9.925-29.801
			c0.771-2.712,1.95-5.644,3.499-8.76l3.502-8.76c3.508-7.395,5.871-13.24,7.01-17.537l11.695-46.117l2.322-18.701
			c0-0.366,0.973-2.523,2.929-6.435c1.552-3.504,2.322-5.624,2.322-6.399c0-4.297,0.407-8.777,1.187-13.443
			c0.387-2.343,0.971-4.682,1.75-7.006l4.688-18.108c0.771-3.505,1.158-6.213,1.158-8.17c3.5-10.51,5.251-18.698,5.251-24.525
			v-5.865l-1.158-5.828c-1.177-4.277-3.707-7.006-7.595-8.187c-14.404,0-27.444,0.406-39.131,1.181
			c-14.427,0.775-27.666,2.323-39.719,4.667c-0.779,0-3.303,0.588-7.581,1.75l-6.438,1.751c-0.771-1.161-2.322-2.136-4.686-2.912
			c-1.543-0.385-2.523-0.775-2.888-1.182c-1.186-0.366-2.164-0.958-2.937-1.75c-2.729-1.548-5.458-3.687-8.188-6.416l-4.666-5.256
			c-1.158-1.161-1.751-1.936-1.751-2.343c-2.751-2.709-4.865-4.667-6.415-5.828c-1.958-1.547-3.914-2.339-5.846-2.339v-3.505
			l4.096-1.75c2.707-1.161,4.844-1.754,6.414-1.754c1.938-0.387,3.887-0.387,5.846,0l11.081,2.915
			c2.365,0.407,4.479,0.589,6.438,0.589c1.55,0,3.094-0.182,4.686-0.589l4.639-1.161c1.959-0.776,3.508-1.161,4.688-1.161
			c1.549-0.39,3.114-0.593,4.686-0.593h33.854c3.113,0,6.436-0.183,9.938-0.59l8.762-1.161c1.955-0.386,3.707-0.593,5.256-0.593
			c1.959-0.365,3.887-0.568,5.824-0.568c4.688-0.407,9.945-0.59,15.791-0.59c3.887,0,7.001-3.119,9.345-9.352
			c1.915-4.663,2.915-9.328,2.915-14.011v-22.774c-0.385-7.782-1.164-14.401-2.344-19.859
			c-3.114-13.629-11.668-25.118-25.707-34.446c-3.502-1.568-5.25-5.073-5.25-10.531c12.074-14.015,25.499-21.021,40.309-21.021
			c4.254,0,8.761,1.568,13.421,4.662l12.872,9.35c0.779,0.796,1.916,1.571,3.509,2.344c0.366,0,0.958,0.385,1.751,1.161l9.332,5.848
			c5.458,4.275,8.188,8.552,8.188,12.832c0,1.954-0.208,4.115-0.594,6.438l-2.344,4.683c0,0.775-0.385,1.751-1.177,2.912
			l-1.146,2.343c-0.791,1.547-1.385,3.098-1.75,4.666c-0.793,4.297-1.385,9.145-1.752,14.604v24.524
			c0,5.053,0.159,9.146,0.574,12.265c1.543,9.348,5.636,14.011,12.261,14.011c12.053,0,20.612-2.729,25.706-8.188l8.76-9.899
			c4.659-4.683,10.104-9.167,16.333-13.443c3.502-1.182,7.21,0,11.124,3.505l9.919,10.509c0.386-0.774,1.363-0.389,2.915,1.183
			c1.543,1.547,3.094,3.501,4.68,5.823c4.278,7.009,6.416,12.854,6.416,17.52c0,9.349-6.823,14.015-20.428,14.015h-8.188
			c-2.729-0.369-6.031-1.551-9.938-3.505c-4.647,2.344-10.105,3.912-16.343,4.683l-14.604,1.754
			c-10.51,1.161-16.76,6.802-18.676,16.927c-4.688,3.89-7.801,10.124-9.373,18.677l-1.139,10.531v9.352
			c0,12.833,0.959,20.432,2.891,22.771c0.776,1.551,2.363,2.526,4.686,2.916h8.187c6.218,0,11.289-1.365,15.176-4.097
			c1.552-1.158,2.915-2.525,4.095-4.073c1.164-1.183,2.322-2.729,3.508-4.683l1.158-2.322c0-0.387,0.187-0.776,0.594-1.183
			l0.57-1.161c0.773-1.936,1.544-3.301,2.323-4.094c1.586-2.729,3.7-4.073,6.43-4.073c4.688,0,12.875,5.052,24.53,15.172
			c5.07,3.892,8.779,7.599,11.121,11.104c3.096,3.504,4.073,5.641,2.908,6.416c-8.572,14.401-12.853,26.297-12.853,35.628
			c-1.544,6.641-2.521,14.808-2.929,24.525c-0.365,1.954-0.571,4.093-0.571,6.433l-1.179,18.092
			c-3.509,10.917-5.831,21.999-7.011,33.301l-5.257,15.176c-0.365,3.137-0.564,6.234-0.564,9.35
			c-1.187,1.958-2.164,4.094-2.938,6.416l-1.158,5.849c-0.394,0.792-0.592,1.75-0.592,2.911l-0.572,3.505
			c-0.406,2.36-0.979,4.48-1.75,6.438c0,1.953-0.594,4.682-1.752,8.187l-2.937,8.167c-0.386,1.161-0.771,1.936-1.177,2.343
			c-3.487,9.735-5.052,16.338-4.645,19.839c0,1.571-0.98,3.322-2.938,5.256c-1.543,1.956-4.073,3.911-7.574,5.848l-8.188,5.843
			c-3.508,2.323-5.831,4.078-7.008,5.256l-2.322,2.322c-0.407,0.41-1.593-0.365-3.502-2.322c-1.959-2.341-3.707-3.502-5.26-3.502
			l-1.75,2.324c0,1.567,1.139,3.911,3.502,7.005c-7.408,10.145-17.355,15.196-29.803,15.196c-1.157,0-2.542-1.754-4.092-5.255
			l-7.575-23.364c-1.593-3.89-2.937-6.416-4.095-7.599l-7.008-3.504c0-1.548-1-2.709-2.915-3.505
			c-0.792-0.365-1.751-0.568-2.931-0.568c-0.777-0.386-1.956-0.593-3.506-0.593c-3.116-0.385-5.461-0.955-7.004-1.75
			c-1.956-0.775-2.937-2.14-2.937-4.094c0-1.161,0.98-2.322,2.937-3.504c1.543-0.773,3.707-1.547,6.437-2.324l7.004-1.178h16.34
			c6.616-0.368,12.468-0.958,17.513-1.754c15.197-1.933,23.55-5.62,25.143-11.079c0-3.504,0.957-8.962,2.908-16.378l14.018-43.202
			c1.93-7.784,2.91-13.628,2.91-17.52l4.685-35.055c2.688-18.681,4.667-30.353,5.824-35.035c-0.407-1.548-0.407-3.098,0-4.688
			v-4.072c0-2.73-2.909-4.48-8.752-5.256c-1.958-0.385-4.281-0.572-7.011-0.572h-5.258c-2.729,0-7.98,0.775-15.763,2.323
			c-3.894,0.774-7.008,1.551-9.331,2.322c-3.135,1.183-4.887,2.161-5.252,2.933c-4.322,5.462-8.193,13.04-11.695,22.774
			l-9.352,24.525c-3.502,5.073-7.209,12.875-11.096,23.384c-0.779,1.548-1.553,3.87-2.323,7.006
			c-1.186,2.729-1.958,4.848-2.344,6.416c-1.956,5.073-3.707,9.146-5.259,12.265c0.758,0-0.385,1.953-3.5,5.845l-3.502,4.665
			c-1.164,1.954-1.757,3.708-1.757,5.256l-2.337,4.094c0,1.161-0.393,2.729-1.187,4.666l-1.136,4.665l-2.363,4.095
			c-10.105,19.083-20.043,35.055-29.78,47.888c-1.958,2.339-4.281,5.845-7.011,10.51c-0.406,1.183-0.978,2.344-1.75,3.505
			c0,0.407-0.205,0.793-0.572,1.178l-4.092,8.17c-6.252,10.531-12.855,17.906-19.863,22.203l-9.326,5.845l-8.188,7.009
			l-25.707,16.927c0,0.385-0.205,0.588-0.571,0.588l-8.759,6.417c-9.738,6.62-18.699,10.696-26.886,12.264
			c-2.323,0-4.646-0.592-7.011-1.754c-3.092-1.161-4.645-2.543-4.645-4.094C1377.464,573.945,1384.879,571.009,1391.096,565.961z
			 M1468.76,490.632h1.752v-1.182h-1.752V490.632z M1563.359,508.72c0,1.182,0.605,1.754,1.751,1.754c0.792,0,1.18-0.573,1.18-1.754
			c0-1.161-0.388-1.75-1.18-1.75C1563.965,506.969,1563.359,507.559,1563.359,508.72z M1684.864,179.347
			c0,0.772,0.386,1.161,1.158,1.161c1.186,0,1.751-0.389,1.751-1.161c0-0.775-0.565-1.182-1.751-1.182
			C1685.25,178.165,1684.864,178.572,1684.864,179.347z M1805.757,139.625c0-4.277,0.386-10.896,1.177-19.859l0.572-25.117
			c-0.771-2.73-1.957-4.073-3.5-4.073c-1.186,0-2.322,0.979-3.508,2.911c-1.18,1.162-2.322,3.322-3.502,6.417
			c0,0.775-0.406,1.958-1.178,3.504c-0.779,1.568-1.145,2.729-1.145,3.505c-1.178,2.339-2.158,3.912-2.928,4.683l-2.938,19.842
			c-1.549,7.801-3.502,14.015-5.824,18.698l-8.758,17.519c-2.73,5.459-5.26,12.465-7.604,21.021l-6.415,21.021
			c0,0.795-0.794,2.343-2.344,4.687c-1.95,2.322-2.909,3.89-2.909,4.662c-3.508,6.62-6.644,13.629-9.373,21.045
			c-3.095,8.552-4.645,15.562-4.645,21.021c-3.502,4.662-7.002,10.306-10.51,16.926l-8.761,18.108
			c-7.407,14.421-15.03,24.932-22.792,31.531c-4.666,0-7.008-0.569-7.008-1.75v-1.751l7.008-22.774
			c0.752-3.504,1.938-7.394,3.502-11.692l4.102-11.671c3.093-9.349,5.437-16.926,7.002-22.774
			c2.729-8.167,4.852-15.582,6.416-22.181c0-12.079,1.572-21.631,4.666-28.64l3.5-8.167c1.571-3.119,2.729-6.03,3.508-8.76
			l7.011-26.868c2.356-9.328,4.272-18.291,5.864-26.868c0-1.158,0.565-3.501,1.752-7.006c1.157-3.505,1.748-5.845,1.748-7.006
			c-0.404-6.619,0.959-15.952,4.073-28.05c3.095-12.447,4.688-21.795,4.688-28.029c0-1.933-0.208-3.87-0.593-5.823l-6.417-18.702
			c0.366-1.933,0-3.5-1.177-4.662c-1.553-1.568-2.322-2.709-2.322-3.505c0-1.568,2.521-3.504,7.572-5.844
			c4.688-2.322,7.988-3.504,9.947-3.504h1.748c1.545,0,4.666,0.407,9.326,1.182l9.944,2.322l14.012,7.006
			c1.186,0.776,3.707,1.568,7.581,2.344l9.367,3.5c7.373,3.119,11.08,7.01,11.08,11.672l-3.499,25.118
			c-1.167,9.755-1.751,17.739-1.751,23.953c-1.164,11.671-0.207,23.16,2.928,34.445l4.666,15.197l6.418,15.765
			c0,0.407,1.956,4.683,5.843,12.854c1.938,4.297,3.688,7.802,5.26,10.51c1.937,3.505,3.502,5.844,4.666,7.005
			c0.771,0.39,3.093,2.547,7.001,6.417c3.915,3.91,6.237,6.436,7.011,7.597c5.458,10.125,14.623,20.838,27.457,32.124l16.354,14.015
			c6.624,5.844,11.875,10.714,15.769,14.604c1.937,0,3.48,0.796,4.666,2.343c1.18,0.776,2.344,2.141,3.502,4.073
			c1.55,2.344,2.729,3.912,3.508,4.687c1.543,1.161,3.136,1.751,4.68,1.751c0.365,0,2.322,1.161,5.83,3.505l19.876,12.832
			c3.874,2.729,7.01,5.093,9.333,7.006c3.093,2.364,4.685,3.912,4.685,4.687c-3.914,5.844-10.922,8.188-21.027,7.006
			c1.146,1.183-1.376,2.161-7.613,2.932c-8.146,1.161-13.813,3.098-16.927,5.828c-1.158,0-2.71,0.776-4.666,2.344l-4.688,4.662
			c-4.272,4.687-8.166,7.009-11.668,7.009c-3.502-2.323-8.168-6.213-14.018-11.671c-5.846-5.073-10.531-8.76-14.033-11.104
			c-10.103-4.662-19.063-12.058-26.843-22.202l-11.103-14.016c-4.667-6.212-9.553-11.671-14.604-16.333
			c-4.281-5.461-8.168-12.67-11.677-21.612c-0.385-1.937-0.999-3.891-1.748-5.849l-4.095-11.692
			c-0.386-1.933-0.979-3.687-1.751-5.255c-2.729-7.78-4.48-17.698-5.26-29.78c-0.385-2.709-0.77-7.964-1.177-15.766
			c0-7.006-0.187-12.467-0.573-16.337l-0.572-6.438l-1.177-4.094V139.625z M1723.424,394.265c14.785,0,27.052,4.095,36.784,12.261
			c2.708,4.666,7.374,9.35,14.019,14.016l4.072,2.343c0.771,0.386,1.345,0.979,1.751,1.751c0.407,0,1.177,0.39,2.323,1.161
			l7.615,5.255c0.777,0.389,1.758,1.161,2.915,2.344l1.771,2.911c1.916,2.344,3.874,3.505,5.824,3.505l57.809,33.305
			c1.552,1.161,2.53,2.526,2.938,4.073c0.363,0.793,0.571,1.751,0.571,2.933c0,5.827-0.779,10.307-2.322,13.426
			c-0.779,2.729-2.164,4.865-4.114,6.416c-0.779,0.793-1.738,1.382-2.896,1.751l-2.935,1.75c-2.322,1.183-4.073,2.344-5.252,3.505
			l-12.261,14.014c-5.052,4.684-10.311,7.006-15.769,7.006l-8.761-4.073l-7.573-4.687c-1.958-0.771-4.114-1.344-6.437-1.75
			c-3.508-5.438-7.217-12.833-11.123-22.182l-10.491-23.936c-9.352-19.473-19.271-34.077-29.802-43.812
			c-1.549-2.344-3.686-4.87-6.395-7.599l-7.623-7.009c-5.458-5.438-8.166-10.511-8.166-15.176
			C1719.896,395.426,1721.062,394.265,1723.424,394.265z M1735.072,199.186h2.363v-1.161h-2.363V199.186z M1768.967,339.939
			c-1.957-6.599-3.136-11.854-3.502-15.766l-3.508-14.015l-1.749-10.51c-0.407-1.958-1.179-4.483-2.344-7.599
			c0-0.776-0.201-1.364-0.587-1.754l-1.75-5.845c-1.957-5.827-2.736-10.878-2.322-15.176c1.543,1.161,2.908,2.729,4.072,4.667
			l3.502,10.509c0.771,1.955,1.751,3.505,2.938,4.687c11.279,10.511,20.611,21.021,28.029,31.531l9.323,11.692
			c1.571,1.953,2.937,3.891,4.114,5.823c7.375,9.739,11.083,16.745,11.083,21.024c0,3.136-2.937,6.048-8.761,8.76
			c-4.686,2.36-8.759,3.501-12.261,3.501c-8.552,0-16.175-4.663-22.771-14.015C1772.063,353.179,1770.883,347.352,1768.967,339.939z
			"/>
	</g>
	<path d="M0,568.648V34.151h111.463v22.488c-62.578,5.542-64.859,7.496-64.859,56.056v377.409c0,47.905,2.281,49.212,64.859,55.404
		v23.14H0z"/>
	<path d="M2193.386,568.648v-23.14c62.903-6.192,64.819-7.499,64.819-57.034V112.043c0-47.909-1.916-49.863-64.819-55.404V34.151
		h111.464v534.497H2193.386z"/>
</g>
<g id="Layer_2">
</g>
</svg>
