<?xml version="1.0" encoding="utf-8"?>
<!-- Generator: Adobe Illustrator 16.0.0, SVG Export Plug-In . SVG Version: 6.00 Build 0)  -->
<!DOCTYPE svg PUBLIC "-//W3C//DTD SVG 1.0//EN" "http://www.w3.org/TR/2001/REC-SVG-20010904/DTD/svg10.dtd">
<svg version="1.0" id="Layer_1" xmlns="http://www.w3.org/2000/svg" xmlns:xlink="http://www.w3.org/1999/xlink" x="0px" y="0px"
	 width="194.121px" height="50.846px" viewBox="0 0 194.121 50.846" enable-background="new 0 0 194.121 50.846"
	 xml:space="preserve">
<g>
	<path fill="#FFFFFF" d="M14.839,34.486l0.339,0.339l-0.61,0.611v2.172l0.407,0.204h9.028l0.747,0.468l0.476,0.734v1.804
		c-0.363,0.133-0.613,0.511-0.749,1.135c-2.496,0-6.263,0.102-11.3,0.306s-8.804,0.305-11.3,0.305c-0.5,0-1.067-0.227-1.701-0.679
		v-2.987L1.2,37.812h6.695c0.272,0,0.614,0.091,1.024,0.271c0.409-0.044,1.047-0.112,1.912-0.204c0-0.044,0.022-0.09,0.068-0.136
		c0.046-0.044,0.069-0.09,0.069-0.136l-0.068-0.204l-0.271-0.339v-7.739v-0.407v-0.408V15.342l0.271-0.339v-0.408v-0.271
		c-0.679-0.18-1.924-0.271-3.733-0.271c-0.407,0-1.042,0.046-1.901,0.136c-0.86,0.091-1.493,0.136-1.9,0.136
		c-2.128,0-3.19-0.723-3.19-2.172l0.067-0.747l1.562-1.562h0.679c0.227,0,0.565,0.046,1.019,0.136
		c0.452,0.091,0.791,0.136,1.019,0.136c0.407-0.18,0.723-0.271,0.95-0.271l3.733,0.068c1.402,0,2.738,0.204,4.006,0.611
		c0.315,0.271,0.679,0.588,1.086,0.95v2.104l-0.747,0.543l0.679,0.611l0.204,1.29l0.407,0.475v1.697l-0.271,0.339v0.814
		l-0.271-0.068l0.543,0.747v4.141l-0.271,0.476l0.271,0.339v2.715l-0.271,0.475v1.222l0.046-0.068
		c0.15,0.407,0.226,0.814,0.226,1.222l-0.271,0.271v2.24l0.271,0.407V34.486z"/>
	<path fill="#FFFFFF" d="M56.52,28.783l0.68,0.543v5.702c-0.136,0.136-0.453,0.601-0.951,1.392c-0.498,0.792-0.77,1.256-0.814,1.392
		l-0.339,0.339c-0.046,0.227-0.092,0.499-0.136,0.815l-0.407,0.339c-0.046,0.227-0.114,0.499-0.204,0.814
		c-0.543,0.363-1.765,1.517-3.666,3.462c-1.539,1.583-2.896,2.512-4.073,2.783c-3.078,2.987-6.924,4.48-11.54,4.48
		c-1.357,0-2.196-0.499-2.512-1.494l-0.611-0.611c0.636-0.996,1.839-1.743,3.609-2.24c1.498-0.271,2.996-0.543,4.494-0.814
		l0.205-0.271c1.725-0.543,3.904-1.811,6.537-3.802c2.905-2.217,4.449-3.959,4.631-5.227l0.954-0.747
		c0.044-0.316,0.203-0.679,0.477-1.086c0.091-0.679,0.181-1.312,0.272-1.901l0.272-0.204v-1.833
		c-0.318-0.543-0.501-1.063-0.545-1.561l-1.771-1.765c-0.728,0-1.409-0.112-2.046-0.339l-0.136-0.204h-0.612
		c-1.091,0-2.681,0.181-4.771,0.543c-2.499,0.363-3.862,0.77-4.089,1.222c-0.682,0.271-1.318,0.408-1.908,0.408
		c-0.318,0-0.999-0.295-2.044-0.886v-9.27v-0.409v-0.409v-4.838c0.316-0.273,0.52-0.705,0.611-1.295
		c0.679,0,1.663-0.034,2.952-0.102c1.29-0.068,2.251-0.103,2.886-0.103h5.295c0.271,0.182,0.565,0.363,0.883,0.543l1.153-0.543
		c0.271,0,0.689-0.044,1.256-0.136c0.565-0.09,0.984-0.136,1.256-0.136c0.227,0,1.674,0.339,4.345,1.018v1.765
		c-0.181,0.136-0.407,0.521-0.679,1.154l-1.086,0.543h-6.517c-0.317,0-0.793-0.056-1.426-0.17c-0.635-0.112-1.109-0.169-1.426-0.169
		c-0.725,0-1.652,0.045-2.783,0.136c-1.449,0.136-2.376,0.204-2.783,0.204v8.418c2.67-0.951,5.091-1.426,7.264-1.426
		c0.407,0,1.267,0.204,2.579,0.611s2.06,0.702,2.24,0.883c1.131,0.181,2.24,0.634,3.327,1.357c0.136,0.317,0.746,1.019,1.832,2.104
		C56.655,28.083,56.61,28.422,56.52,28.783z"/>
	<path fill="#FFFFFF" d="M74.983,5.974h0.476l-0.068-0.068l1.63,0.543c1.765,1.765,2.691,3.258,2.783,4.48
		c0.18,0.317,0.315,0.634,0.407,0.95l-0.204,0.815l-0.271,0.204v2.308l-0.543,0.204c-0.091,0.227-0.271,0.543-0.543,0.95
		c-0.136,0.543-0.363,0.974-0.679,1.29c0,0.407-0.136,0.724-0.407,0.95c-0.136,0.589-0.646,1.177-1.527,1.765
		c-0.883,0.588-1.348,1.132-1.392,1.629l-2.783,1.357h-0.34v-0.747c-0.182,0.407-0.228,0.656-0.136,0.747
		c-1.449-0.18-2.512-0.384-3.19-0.611c-1.223-0.452-1.969-1.154-2.24-2.104c-0.771-0.588-1.245-1.583-1.426-2.987
		c0-0.271,0-1.402,0-3.395l0.271-0.339l0.271-1.562c0.543-0.769,1.154-1.47,1.833-2.104c0.181-0.316,0.294-0.769,0.34-1.357
		c0.315-0.226,0.52-0.543,0.61-0.951c0.859-0.497,2.149-1.222,3.869-2.172h3.259V5.974z M82.79,13.713l0.679-0.679l0.611-0.204
		v-2.172c0.452-0.09,0.679-0.249,0.679-0.476c0.271-0.361,0.792-0.814,1.562-1.357c0-0.316,0.022-0.859,0.068-1.629
		c0.18-0.09,0.384-0.52,0.61-1.29l1.29-1.222c0.136-0.316,0.226-0.747,0.271-1.29l0.407-0.543c0.091-0.226,0.271-0.543,0.543-0.95
		C89.782,0.634,90.416,0,91.412,0c0.315,0,0.746,0.091,1.289,0.271l0.611,0.611V3.53c-0.362,0.271-0.589,0.566-0.679,0.882
		l-0.34,0.271c-0.045,0.227-0.091,0.499-0.136,0.814c-0.316,0.227-0.521,0.499-0.61,0.815c-0.271,0.453-0.747,1.109-1.426,1.969
		c-0.182,0.543-0.521,1.042-1.019,1.493c-0.136,0.589-0.339,0.974-0.61,1.154c-0.046,0.271-0.228,0.634-0.544,1.086
		c-0.045,0.317-0.192,0.679-0.44,1.086c-0.25,0.407-0.646,0.882-1.188,1.425c-0.136,0.271-0.295,0.521-0.475,0.747
		c-0.228,0.499-0.521,1.222-0.883,2.172c-0.95,1.086-1.494,2.06-1.63,2.919c-0.271,0.136-0.431,0.453-0.475,0.95
		c-0.317,0.499-0.814,1.154-1.493,1.969l-0.136,0.679c-0.272,0.363-0.589,0.747-0.951,1.154c-0.136,0.317-0.316,0.589-0.543,0.814
		c-0.182,0.634-0.668,1.438-1.459,2.41c-0.793,0.974-1.302,1.935-1.527,2.885l-0.747,0.679l-0.34,1.357
		c-0.271,0.091-0.452,0.34-0.543,0.747c-0.136,0.091-0.521,0.792-1.154,2.104c-0.634,1.313-0.95,2.036-0.95,2.172
		c-0.317,0.227-0.521,0.499-0.61,0.814l-0.34,0.339c-0.046,0.227-0.091,0.499-0.136,0.814c-0.317,0.272-0.498,0.521-0.543,0.747
		l-0.34,0.339l-0.407,0.882l-0.203,0.204c-0.407,1.131-1.245,1.697-2.512,1.697c-0.407,0-0.996-0.453-1.766-1.358v-1.493
		c0.316-0.271,0.792-0.724,1.426-1.358c0.045-0.271,0.112-0.747,0.204-1.425c0.315-0.226,0.52-0.498,0.61-0.815l0.34-0.339
		c0.044-0.226,0.09-0.498,0.136-0.814l0.95-0.747c0.045-0.271,0.226-0.655,0.543-1.154c0.136-0.316,0.294-0.611,0.476-0.882
		c0.18-0.272,0.361-0.543,0.543-0.815c0.181-0.271,0.361-0.52,0.543-0.747c0.136-0.452,0.701-1.086,1.697-1.901l0.203-0.882
		c0.227-0.316,0.498-0.633,0.815-0.951l0.271-1.222l0.407-0.543l0.203-0.815c0.362-0.316,0.77-0.905,1.223-1.765
		c0.18-0.09,0.315-0.339,0.407-0.747c0.271-0.136,0.475-0.43,0.61-0.882l0.747-0.339l0.203-1.29
		c0.272-0.362,0.565-0.747,0.883-1.154c0.181-0.769,0.588-1.448,1.222-2.037c0.091-0.271,0.249-0.52,0.476-0.747
		c0.09-0.361,0.43-1.13,1.019-2.308l0.543-1.086L82.79,13.713z M76.273,11.744v0.068l-0.396-0.611
		c-0.09-0.362-0.553-0.882-1.391-1.562l-0.86-0.204l-1.39,0.204c-1.324,0.996-2.13,1.663-2.416,2.003
		c-0.288,0.339-0.719,1.233-1.291,2.681l-0.198,0.204v2.58l-0.476,0.136c0.181,0.317,0.316,0.747,0.407,1.29l0.747,0.747
		c1.945,0.317,3.055,0.476,3.326,0.476h0.136c0.226-0.181,0.498-0.588,0.814-1.222l0.883-0.882c0.769-0.316,1.222-0.883,1.357-1.697
		c0.271-0.136,0.43-0.43,0.476-0.882l0.271-0.272V11.744z M79.735,31.771v-0.068v-1.019c0.091-0.18,0.192-0.418,0.306-0.713
		c0.112-0.293,0.306-0.667,0.577-1.12c0.045-0.679,0.158-1.312,0.339-1.9l0.272-0.271c0.723-1.494,1.81-2.704,3.258-3.632
		c1.448-0.927,2.964-1.392,4.549-1.392c0.679,0,1.81,0.453,3.394,1.358c0.091,0.091,0.498,0.385,1.223,0.882
		c0.09,0.408,0.271,0.679,0.543,0.815c0.09,0.317,0.158,0.611,0.203,0.882L94.941,26v2.24l-0.41,0.679l-0.068,3.666l-0.549,0.407
		c-0.046,0.136-0.068,0.339-0.068,0.611c-0.365,0.271-0.594,0.566-0.685,0.882c-0.273,0.227-0.457,0.499-0.549,0.814
		c-0.913,0.906-1.814,1.754-2.706,2.546c-0.891,0.792-2.135,1.188-3.732,1.188c-2.968,0-4.817-0.973-5.549-2.919
		c-0.228-0.226-0.41-0.611-0.547-1.154l-0.343-0.339V31.771z M91.615,27.969v-0.136c-0.227-0.271-0.407-0.633-0.543-1.086
		c-0.182-0.181-0.362-0.543-0.543-1.086l-0.476-0.407h-1.222c-0.996,0-2.195,0.702-3.598,2.104
		c-0.228,0.634-0.589,1.177-1.086,1.629c-0.092,0.317-0.159,0.724-0.204,1.222c-0.407,0.182-0.611,0.77-0.611,1.765l0.136,0.543
		l-0.136,0.407c0.181,0.77,0.498,1.347,0.951,1.731c0.451,0.385,0.927,0.781,1.425,1.188c1.358-0.543,2.625-1.402,3.802-2.58
		c0.136-0.271,0.316-0.543,0.543-0.814c0.091-0.316,0.249-0.587,0.476-0.814c0.045-0.362,0.226-0.883,0.543-1.562
		c0.045-0.769,0.136-1.38,0.271-1.833L91.615,27.969z"/>
	<path fill="#FFFFFF" d="M124.2,26.136l0.476,0.339v2.444c0.263,0.499,0.422,1.652,0.476,3.462l-0.476,0.679v2.444
		c-0.453,0.091-0.679,0.25-0.679,0.476c-0.363,0.407-0.771,1.222-1.222,2.444c-0.228,0.181-0.386,0.453-0.476,0.814
		c-2.082,1.403-3.462,2.24-4.141,2.512c-1.403,0.679-3.011,1.018-4.82,1.018c-1.856,0-3.101-0.317-3.733-0.95l-1.969-0.814
		c-0.543-0.588-1.721-1.562-3.53-2.919c-0.091-0.316-0.339-0.543-0.747-0.679v-2.444c-0.679-0.723-0.995-2.512-0.95-5.363
		l0.271-0.339l0.271-1.833c0.227-0.226,0.634-1.154,1.223-2.783c0.226-0.09,0.361-0.407,0.407-0.951
		c0.315-0.226,0.52-0.498,0.61-0.814c0.271-0.226,0.452-0.52,0.543-0.882c0.77-0.498,1.381-0.995,1.833-1.494
		c2.081-1.041,3.553-1.562,4.413-1.562h4.073c0.769,0,1.741,0.363,2.919,1.086c1.674,0.996,2.579,1.539,2.715,1.629
		c0.136,0.408,0.362,0.725,0.68,0.951c0.044,0.317,0.384,0.77,1.018,1.357c0.091,0.317,0.294,0.589,0.611,0.815L124.2,26.136z
		 M107.228,33.671c0.27,0.362,0.472,0.77,0.607,1.222c0.495,0.499,0.856,1.064,1.081,1.697c0.72,0.317,1.553,0.77,2.499,1.357
		c0.314,0.091,0.518,0.136,0.608,0.136h3.513c0.314,0,0.697-0.044,1.147-0.136c0.36-0.407,0.855-0.813,1.486-1.221
		c0.18-0.271,0.539-0.723,1.08-1.358l0.541-0.068c0.089-0.18,0.27-0.407,0.54-0.679v-2.714l0.34-0.271v-2.104
		c-0.346-0.452-0.411-0.881-0.194-1.289l-0.583-0.611l-0.203-1.358c-0.678-0.543-1.513-1.269-2.505-2.174l-0.136-0.068l-1.559-1.496
		c0,0.543-0.994,0.814-2.979,0.814c-0.588,0-1.986,0.883-4.198,2.647l-0.271,0.883c-0.181,0.317-0.452,0.679-0.813,1.086v2.172
		l-0.34,0.271v0.679C107.07,31.499,107.183,32.359,107.228,33.671z"/>
	<path fill="#FFFFFF" d="M158.481,15.003l-0.067,0.068v0.204c0.181-0.09,0.34-0.136,0.476-0.136c0.315,0,0.543,0.204,0.679,0.611
		l0.407-0.339c-0.092,0.091-0.271,0.588-0.543,1.493c-0.543,0.634-1.109,1.042-1.697,1.222h-1.086c-0.906,0-1.63-0.158-2.173-0.475
		c-0.182-0.408-0.295-0.747-0.339-1.019l-0.271-0.271l-0.204-0.679l0.204-0.679l0.203-0.272l0.136-0.611
		c-0.577-0.271-1.086-0.407-1.529-0.407h-2.927c-0.178,0-0.666,0.204-1.464,0.611c-0.398,0.815-0.62,1.629-0.665,2.444l-0.475,0.204
		h0.543v3.123c0.995-0.271,2.172-0.407,3.529-0.407c1.991,0,2.987,0.611,2.987,1.833c0,0.408-0.139,0.838-0.416,1.29
		c-1.017,0.543-1.919,0.814-2.703,0.814c-0.325,0-0.648-0.09-0.971-0.271c-0.463-0.362-0.717-0.543-0.763-0.543l-1.664,0.136v8.214
		c0.271,0.408,0.407,1.246,0.407,2.512l-0.232,0.339c-0.039-0.09-0.098-0.181-0.175-0.271l0.407,0.758v1.791
		c0,0.185-0.08,0.482-0.238,0.896c-0.158,0.414-0.215,0.735-0.169,0.964l0.414,0.207c0.368,0,0.921-0.057,1.659-0.17
		c0.737-0.112,1.29-0.17,1.659-0.17c1.566,0,2.834,0.317,3.803,0.951v1.833c0,0.588-0.86,1.041-2.58,1.357
		c-1.222,0.226-2.399,0.339-3.53,0.339c-1.177,0-2.964-0.043-5.362-0.129c-2.399-0.087-4.187-0.129-5.363-0.129l-1.019-0.97
		l-0.136-1.165l0.136-0.97l1.087-0.776h5.77v-0.41c-0.181-0.408-0.271-0.704-0.271-0.887v-0.613v-0.068v-6.069l0.271-0.682
		l-0.271-0.682v-4.228c-0.139-0.41-0.23-0.841-0.277-1.296c-0.139,0-0.475,0-1.007,0s-0.96,0-1.283,0
		c-2.452,0-3.678-0.747-3.678-2.24l0.069-0.747c0.508-0.498,0.97-0.747,1.387-0.747h2.496c0.23,0,0.715,0.181,1.455,0.543
		l0.763-0.136l0.14-0.543l0.207-0.136v-1.222c-0.181-0.452-0.271-0.882-0.271-1.29c0-1.402,0.045-2.24,0.135-2.512l0.337-0.271
		c0.224-0.814,1.144-1.945,2.76-3.394l0.672-0.136c0.673-0.679,2.087-1.019,4.241-1.019c1.256,0,2.443,0.271,3.566,0.815
		c1.391,0.588,2.198,1.403,2.424,2.444h1.547l-0.475,1.086l0.95,0.136v0.951H158.481z"/>
	<path fill="#FFFFFF" d="M192.491,15.003l-0.067,0.068v0.204c0.181-0.09,0.34-0.136,0.476-0.136c0.315,0,0.543,0.204,0.679,0.611
		l0.407-0.339c-0.092,0.091-0.271,0.588-0.543,1.493c-0.543,0.634-1.109,1.042-1.697,1.222h-1.086c-0.906,0-1.63-0.158-2.173-0.475
		c-0.182-0.408-0.295-0.747-0.339-1.019l-0.271-0.271l-0.204-0.679l0.204-0.679l0.203-0.272l0.136-0.611
		c-0.577-0.271-1.086-0.407-1.529-0.407h-2.927c-0.178,0-0.666,0.204-1.464,0.611c-0.398,0.815-0.62,1.629-0.665,2.444l-0.475,0.204
		h0.543v3.123c0.995-0.271,2.172-0.407,3.529-0.407c1.991,0,2.987,0.611,2.987,1.833c0,0.408-0.139,0.838-0.416,1.29
		c-1.017,0.543-1.919,0.814-2.703,0.814c-0.325,0-0.648-0.09-0.971-0.271c-0.463-0.362-0.717-0.543-0.763-0.543l-1.664,0.136v8.214
		c0.271,0.408,0.407,1.246,0.407,2.512l-0.232,0.339c-0.039-0.09-0.098-0.181-0.175-0.271l0.407,0.758v1.791
		c0,0.185-0.08,0.482-0.238,0.896c-0.158,0.414-0.215,0.735-0.169,0.964l0.414,0.207c0.368,0,0.921-0.057,1.659-0.17
		c0.737-0.112,1.29-0.17,1.659-0.17c1.566,0,2.834,0.317,3.803,0.951v1.833c0,0.588-0.86,1.041-2.58,1.357
		c-1.222,0.226-2.399,0.339-3.53,0.339c-1.177,0-2.964-0.043-5.362-0.129c-2.399-0.087-4.187-0.129-5.363-0.129l-1.019-0.97
		l-0.136-1.165l0.136-0.97l1.087-0.776h5.77v-0.41c-0.181-0.408-0.271-0.704-0.271-0.887v-0.613v-0.068v-6.069l0.271-0.682
		l-0.271-0.682v-4.228c-0.139-0.41-0.23-0.841-0.277-1.296c-0.139,0-0.475,0-1.007,0s-0.96,0-1.283,0
		c-2.452,0-3.678-0.747-3.678-2.24l0.069-0.747c0.508-0.498,0.97-0.747,1.387-0.747h2.496c0.23,0,0.715,0.181,1.455,0.543
		l0.763-0.136l0.14-0.543l0.207-0.136v-1.222c-0.181-0.452-0.271-0.882-0.271-1.29c0-1.402,0.045-2.24,0.135-2.512l0.337-0.271
		c0.224-0.814,1.144-1.945,2.76-3.394l0.672-0.136c0.673-0.679,2.087-1.019,4.241-1.019c1.256,0,2.443,0.271,3.566,0.815
		c1.391,0.588,2.198,1.403,2.424,2.444h1.547l-0.475,1.086l0.95,0.136v0.951H192.491z"/>
</g>
</svg>
