<?xml version="1.0" encoding="utf-8"?>
<!-- Generator: Adobe Illustrator 16.0.0, SVG Export Plug-In . SVG Version: 6.00 Build 0)  -->
<!DOCTYPE svg PUBLIC "-//W3C//DTD SVG 1.0//EN" "http://www.w3.org/TR/2001/REC-SVG-20010904/DTD/svg10.dtd">
<svg version="1.0" id="Layer_1" xmlns="http://www.w3.org/2000/svg" xmlns:xlink="http://www.w3.org/1999/xlink" x="0px" y="0px"
	 width="168.445px" height="31.5px" viewBox="0 0 168.445 31.5" enable-background="new 0 0 168.445 31.5" xml:space="preserve">
<g>
	<path d="M4.43,11.859c0.09,0.09,0.135,0.235,0.135,0.436c0,0.067-0.057,0.213-0.168,0.437c-0.693,1.745-1.04,3.245-1.04,4.498
		c0,0.269-0.168,0.403-0.504,0.403c-0.56,0-1.23-0.212-2.014-0.638C0.279,16.637,0,16.357,0,16.155c0-0.291,1.275-1.577,3.826-3.86
		C4.095,12.005,4.296,11.859,4.43,11.859z M7.249,2.999c0.381,0,0.861,0.09,1.443,0.269c0.381,0.247,0.57,0.437,0.57,0.571
		c0,0.157-0.066,0.436-0.201,0.839C8.771,5.46,8.58,6.68,8.491,8.335C8.469,8.917,8.446,9.454,8.424,9.946
		c1.656-0.559,2.573-0.861,2.752-0.906c0.269,0.582,0.437,1.085,0.504,1.51c0,0.47-0.123,0.862-0.369,1.175
		c-1.074,0.448-1.79,0.839-2.148,1.175c-0.313,0.291-0.537,0.436-0.671,0.436c-0.067-0.022-0.134-0.067-0.201-0.134
		c-0.225,6.399-0.336,10.841-0.336,13.325c0,0.38,0.011,0.716,0.033,1.007c0.067,0.447,0.102,0.816,0.102,1.107
		c-0.046,0.179-0.325,0.269-0.84,0.269c-0.805,0-1.253-0.168-1.342-0.503c0-0.157,0.033-0.291,0.101-0.403
		c0.021-0.157,0.033-0.347,0.033-0.57V4.61c0-0.291-0.09-0.593-0.269-0.906c0-0.156,0.089-0.302,0.269-0.437
		C6.265,3.088,6.667,2.999,7.249,2.999z M24.567,4.341c0.381,0,0.571,0.638,0.571,1.913c0,0.247-0.313,0.47-0.94,0.671
		c-1.409,0.291-2.651,0.503-3.726,0.638c-0.022,0.582-0.033,1.063-0.033,1.443c1.096-0.201,2.305-0.414,3.625-0.638
		c0.246,0,0.369,0.537,0.369,1.611c0,0.246-0.258,0.481-0.772,0.705c-1.208,0.224-2.293,0.392-3.255,0.503
		c0.021,0.291,0.033,0.549,0.033,0.772c0.022,0.247,0.045,0.47,0.067,0.671c0.693-0.112,1.398-0.212,2.114-0.302
		c1.745-0.089,3.222-0.302,4.431-0.638c0.782-0.246,1.387-0.369,1.813-0.369c0.402,0,0.85,0.94,1.342,2.819
		c-0.045,0.269-0.257,0.403-0.638,0.403l-1.913-0.134c-1.275,0-4.061,0.157-8.356,0.47c-3.268,0.291-6.064,0.772-8.391,1.443
		c-0.202,0-0.448-0.246-0.739-0.738c-0.313-0.649-0.47-1.041-0.47-1.175c0-0.202,0.168-0.324,0.504-0.369
		c1.565-0.067,3.579-0.347,6.041-0.839c0.492-0.067,0.962-0.134,1.41-0.201c0.021-0.044,0.033-0.078,0.033-0.101
		c0.021-0.269,0.033-0.615,0.033-1.041V11.49c-0.917,0.112-1.991,0.291-3.222,0.537c-0.201,0-0.402-0.246-0.604-0.739
		c-0.112-0.357-0.168-0.705-0.168-1.04c0-0.179,0.135-0.269,0.403-0.269c0.537-0.045,1.756-0.212,3.658-0.503l0.067-1.611
		C16.669,8,15.293,8.212,13.727,8.503c-0.268,0-0.515-0.246-0.738-0.738c-0.134-0.403-0.201-0.772-0.201-1.107
		c0-0.179,0.123-0.269,0.369-0.269c0.693-0.067,2.305-0.336,4.833-0.806l0.168-3.792c0-0.246-0.045-0.503-0.134-0.772
		c0-0.112,0.066-0.224,0.201-0.335c0.179-0.156,0.503-0.235,0.973-0.235c0.336,0,0.75,0.079,1.242,0.235
		c0.357,0.201,0.537,0.358,0.537,0.47c0,0.045-0.033,0.157-0.101,0.335c-0.135,0.336-0.213,0.839-0.235,1.51
		c-0.022,0.761-0.056,1.466-0.101,2.115C21.815,4.867,23.158,4.61,24.567,4.341z M14.264,16.592c0.112,0,0.313,0.056,0.604,0.167
		c0.156-0.067,0.313-0.123,0.47-0.167c3.58-0.649,5.672-0.974,6.276-0.974c0.761,0,1.532,0.124,2.315,0.369
		c0.604,0.224,0.906,0.47,0.906,0.739c-0.022,0.134-0.066,0.358-0.134,0.671c-0.157,0.671-0.247,4.442-0.269,11.311
		c-0.022,1.41-0.146,2.114-0.369,2.114c-0.247,0-0.806-0.19-1.679-0.571c-1.566-0.537-3.255-1.477-5.067-2.819
		c0.067-0.18,0.201-0.269,0.402-0.269c2.282,0.38,3.535,0.57,3.76,0.57c0.134,0,0.234-0.257,0.302-0.772
		c0.044-1.074,0.078-3.68,0.101-7.82c0-1.186-0.302-1.779-0.906-1.779c-1.433,0.045-3.166,0.458-5.202,1.242
		c-0.022,0.045-0.033,0.09-0.033,0.134c-0.046,0.358-0.09,0.694-0.135,1.007c0.962-0.112,2.17-0.347,3.625-0.705
		c0.336-0.111,0.559-0.179,0.671-0.201c0.135,0.045,0.213,0.325,0.235,0.839c-0.022,0.47-0.235,0.873-0.638,1.208
		c-0.896,0.313-1.712,0.515-2.45,0.604c-0.515,0.09-1.074,0.235-1.678,0.437c-0.023,0.403-0.046,0.783-0.067,1.141
		c1.118-0.112,2.551-0.403,4.296-0.873c0.336-0.134,0.559-0.224,0.671-0.269c0.156,0.067,0.246,0.335,0.269,0.806
		c-0.022,0.492-0.234,0.906-0.638,1.242c-1.007,0.425-1.925,0.694-2.752,0.805c-0.582,0.134-1.23,0.336-1.946,0.604
		c0,0.246,0,0.481,0,0.705c0,0.291,0.021,0.682,0.066,1.175c0.045,0.447,0.067,0.783,0.067,1.007c0,0.224-0.156,0.458-0.47,0.705
		c-0.291,0.336-0.582,0.504-0.873,0.504c-0.38,0-0.57-0.403-0.57-1.208c0-4.721,0.101-8.357,0.302-10.908
		C13.794,16.849,13.973,16.592,14.264,16.592z"/>
	<path d="M49.706,4.912c0.425,0,1.142,0.347,2.148,1.041c0.962,0.716,1.443,1.208,1.443,1.477S53.174,7.888,52.928,8
		c-1.432,0.515-2.517,1.141-3.255,1.879c-0.56,0.56-1.063,1.086-1.511,1.578c0.626,1.029,2.327,2.685,5.102,4.967
		c3.468,2.752,6.143,4.564,8.021,5.437c1.343,0.515,2.483,1.13,3.424,1.846c0.738,0.425,1.107,0.772,1.107,1.041
		c-0.067,0.291-0.392,0.436-0.974,0.436c-3.088,0-5.717-0.19-7.887-0.57c-1.254-0.313-1.925-0.816-2.014-1.51
		c0-1.007-0.225-1.734-0.672-2.182c-1.678-2.193-4.061-4.251-7.148-6.176c-0.492-0.246-0.839-0.481-1.041-0.705
		c-0.156,0.201-0.291,0.38-0.402,0.537c-1.701,2.461-3.1,4.352-4.195,5.672c-1.23,1.455-2.305,2.864-3.222,4.229
		c-0.516,0.649-1.041,0.973-1.578,0.973c-0.358,0-0.806-0.101-1.342-0.302c-0.471-0.112-0.705-0.336-0.705-0.671
		c0-0.246,0.134-0.414,0.402-0.503c0.783-0.291,1.521-1.074,2.216-2.35c2.461-4.43,4.877-7.875,7.249-10.337
		c2.192-2.461,3.646-4.408,4.363-5.84C49.136,5.091,49.415,4.912,49.706,4.912z"/>
	<path d="M80.047,0.884c0.134,0,0.425,0.313,0.873,0.94c0.313,0.582,0.47,1.018,0.47,1.309c0,0.247-0.235,0.437-0.705,0.571
		c-0.627,0.515-1.287,1.175-1.98,1.98c1.142-0.313,2.786-0.805,4.934-1.477c0.291,0,0.437,0.537,0.437,1.611
		c0,0.202-0.28,0.392-0.839,0.571c-1.007,0.381-1.868,0.66-2.584,0.839c0.089,0.134,0.145,0.302,0.167,0.503
		c0.09,0.56,0.324,0.996,0.705,1.309c0.336,0.269,0.504,0.582,0.504,0.94c0,0.47-0.303,0.705-0.906,0.705
		c-0.604,0-1.31-0.257-2.114-0.772c-0.381-0.291-0.571-0.626-0.571-1.007c0-0.269,0.257-0.705,0.772-1.309
		c0.044-0.044,0.078-0.078,0.101-0.101c-0.56,0.179-1.175,0.392-1.846,0.638c-0.135,0-0.258-0.089-0.369-0.269
		c-0.046,0.09-0.09,0.157-0.135,0.202l0.067,0.772c-0.47,0.649-1.029,1.107-1.679,1.376c-0.962,0.582-1.901,0.873-2.819,0.873
		c-0.291,0-0.436-0.089-0.436-0.269c1.409-1.813,2.931-3.625,4.564-5.437c1.208-1.455,2.103-2.786,2.685-3.994
		C79.655,1.052,79.89,0.884,80.047,0.884z M82.866,11.087c0.559,0,1.04,0.067,1.443,0.201c0.357,0.202,0.537,0.448,0.537,0.739
		c0,0.089-0.112,0.213-0.336,0.369c-0.291,0.335-0.492,0.772-0.604,1.309c-0.357,1.164-0.582,2.574-0.671,4.229
		c0,0.425-0.157,0.683-0.47,0.772c-0.336,0.179-0.717,0.269-1.142,0.269c-0.313,0-0.503-0.078-0.57-0.235
		c-1.007,0.515-1.868,0.861-2.584,1.041c-0.762,0.157-1.668,0.526-2.719,1.107c0,1.097,0.067,1.891,0.201,2.383
		c0.134,0.381,0.279,0.571,0.437,0.571c0.38,0,0.861-0.112,1.443-0.336c0.581-0.201,1.141-0.436,1.678-0.705v-0.067
		c0-0.94,0.179-1.723,0.537-2.35c0.313-0.38,0.525-0.571,0.638-0.571c0.246,0,0.525,0.224,0.839,0.671
		c0.224,0.604,0.515,1.041,0.873,1.309c0.738,0.738,1.107,1.332,1.107,1.779c0,0.313-0.101,0.526-0.302,0.638
		c-0.291,0.179-0.638,0.269-1.041,0.269c-0.604,0-1.241-0.246-1.913-0.738c-0.067-0.045-0.112-0.078-0.134-0.101
		c-1.074,1.41-2.115,2.506-3.122,3.29c-0.761,0.626-1.264,0.939-1.51,0.939c-0.426,0-0.806-0.392-1.142-1.175
		c-0.425-1.186-0.638-2.405-0.638-3.658c0-0.693,0.112-2.36,0.336-5.001c0.067-0.939,0.101-1.913,0.101-2.92
		c0-0.492-0.012-0.995-0.033-1.51c-0.067-0.47-0.101-0.816-0.101-1.041c0.089-0.269,0.257-0.403,0.503-0.403
		c0.537,0,1.097,0.09,1.679,0.269c0.335-0.089,0.682-0.201,1.04-0.335C79.487,11.423,81.367,11.087,82.866,11.087z M76.557,13.873
		c-0.046,0.201-0.079,0.403-0.101,0.604c-0.023,0.18-0.046,0.369-0.067,0.571c0.716-0.202,1.801-0.503,3.256-0.906
		c0.179,0,0.268,0.459,0.268,1.376c0,0.134-0.234,0.257-0.704,0.369c-0.672,0.425-1.254,0.705-1.745,0.839
		c-0.358,0.089-0.817,0.28-1.377,0.57c-0.045,0.47-0.089,0.884-0.134,1.242c1.029-0.246,2.707-0.738,5.034-1.477v-3.994
		c0-0.335-0.269-0.503-0.806-0.503c-0.671,0-1.812,0.403-3.423,1.208C76.69,13.817,76.623,13.851,76.557,13.873z M89.411,0.045
		c0.179,0,0.47,0.335,0.872,1.007c0.313,0.56,0.47,0.996,0.47,1.309c0,0.224-0.213,0.392-0.638,0.503
		c-0.604,0.537-1.22,1.265-1.846,2.182c1.052-0.269,3.177-0.906,6.377-1.913c0.269,0,0.403,0.537,0.403,1.611
		c0,0.269-0.258,0.503-0.772,0.705c-1.32,0.649-2.416,1.063-3.289,1.242c-0.291,0.067-0.57,0.146-0.839,0.235
		c0.156,0.873,0.581,1.555,1.275,2.047c0.648,0.425,0.973,0.951,0.973,1.577c0,0.269-0.234,0.403-0.704,0.403
		c-0.672,0-1.466-0.179-2.383-0.537c-0.448-0.201-0.672-0.425-0.672-0.671c0-0.47,0.156-1.196,0.47-2.181
		c0.045-0.112,0.078-0.212,0.101-0.302c-0.313,0.134-0.638,0.291-0.973,0.47c-0.313,0-0.594-0.291-0.839-0.873
		c-0.046-0.134-0.079-0.246-0.102-0.335c-0.066,0.112-0.134,0.224-0.201,0.335l0.034,0.705c-0.381,0.582-0.817,0.996-1.31,1.242
		c-0.806,0.537-1.577,0.806-2.315,0.806c-0.269,0-0.403-0.089-0.403-0.269c1.097-1.7,2.282-3.39,3.558-5.068
		c0.918-1.342,1.622-2.562,2.115-3.658C89.042,0.235,89.254,0.045,89.411,0.045z M91.693,11.859c0.827,0,1.678,0.247,2.551,0.738
		c0.738,0.291,1.107,0.638,1.107,1.041c-0.313,0.537-0.582,1.388-0.806,2.551c-0.291,2.305-0.57,4.061-0.839,5.27
		c-0.247,0.805-0.481,1.689-0.705,2.651c-0.067,0.626-0.269,0.939-0.604,0.939c-0.313,0-0.851-0.246-1.61-0.738
		c-1.097-0.537-2.249-1.656-3.457-3.356c-0.022,3.759-0.034,6.411-0.034,7.955c0,0.425,0.012,0.794,0.034,1.107
		c0.045,0.47,0.067,0.873,0.067,1.208c-0.046,0.156-0.358,0.235-0.94,0.235c-0.895,0-1.388-0.123-1.477-0.369
		c0-0.202,0.078-0.369,0.235-0.503c0.044-0.202,0.066-0.448,0.066-0.738L84.98,13.907c0-0.224-0.045-0.458-0.134-0.705
		c0-0.111,0.066-0.223,0.201-0.335c0.179-0.134,0.47-0.201,0.872-0.201c0.313,0,0.683,0.056,1.108,0.167
		C89.198,12.184,90.753,11.859,91.693,11.859z M87.431,14.343c-0.022,0.56-0.045,1.231-0.067,2.014c0,1.298-0.012,2.483-0.033,3.558
		c0.021,0,0.045,0,0.067,0c1.498,0.828,2.527,1.242,3.087,1.242c0.157,0,0.324-0.66,0.504-1.98c0.313-1.946,0.47-3.58,0.47-4.9
		c0-0.425-0.369-0.638-1.107-0.638C89.634,13.638,88.661,13.873,87.431,14.343z"/>
	<path d="M107.031,6.254c0.179,0.045,0.604,0.19,1.275,0.436l0.067-0.033c2.505-1.074,4.105-1.611,4.799-1.611
		c1.544,0.56,2.316,1.097,2.316,1.611c0,0.179-0.146,0.347-0.437,0.503c-0.627,0.582-1.242,1.264-1.846,2.047
		c-0.448,1.007-0.672,1.891-0.672,2.651c0.112,0.783,0.615,1.869,1.511,3.255c0.671,1.119,1.007,1.869,1.007,2.249
		c0,0.402-0.135,0.895-0.402,1.477c-0.426,0.56-0.684,0.839-0.772,0.839c-0.381,0-0.693-0.101-0.939-0.302
		c-0.493-0.202-1.187-0.447-2.081-0.738c-0.649-0.358-1.275-0.839-1.88-1.443c0,0.671-0.012,1.275-0.033,1.813
		c-0.09,1.902-0.146,4.576-0.168,8.021c0,0.156,0.011,0.391,0.033,0.705c0.112,0.156,0.18,0.336,0.202,0.537
		c-0.022,0.156-0.381,0.235-1.074,0.235c-1.164-0.134-1.745-0.448-1.745-0.939c0.066-0.134,0.212-0.336,0.437-0.604
		c0.089-0.291,0.134-0.582,0.134-0.873V6.792C106.763,6.456,106.852,6.277,107.031,6.254z M109.012,15.585
		c1.7,0.671,2.729,1.007,3.088,1.007c0.47,0,0.749-0.324,0.839-0.974c0-0.559-0.526-1.42-1.578-2.584
		c-0.582-0.895-0.872-1.544-0.872-1.947c0-0.559,0.189-1.253,0.57-2.081c0.515-0.783,0.772-1.264,0.772-1.443
		c0-0.269-0.168-0.403-0.504-0.403c-0.201,0-0.604,0.146-1.208,0.436c-0.403,0.358-0.705,0.593-0.906,0.705
		c-0.157,1.074-0.224,2.439-0.201,4.095V15.585z M124.853,4.341c0.739,0,1.757,0.235,3.055,0.705
		c0.917,0.403,1.376,0.806,1.376,1.208c0,0.157-0.201,0.381-0.604,0.671c-0.47,0.492-1.253,2.473-2.349,5.94
		c0.089,0.313,0.134,0.738,0.134,1.275c0,0.247-0.258,0.481-0.771,0.705c-1.679,0.515-3.088,0.851-4.229,1.007
		c-0.492,0.067-0.995,0.167-1.51,0.302c0.604,0.515,1.264,0.996,1.979,1.443c0.56,0.425,1.097,0.851,1.611,1.275
		c0.806-0.47,1.611-1.108,2.417-1.913c0.961-0.962,1.7-1.913,2.215-2.853c0.134-0.223,0.246-0.335,0.336-0.335
		c0.38,0,0.704,0.392,0.973,1.175c0.246,0.649,0.369,1.152,0.369,1.51c0,0.201-0.201,0.414-0.604,0.638l-3.457,2.752
		c-0.225,0.179-0.414,0.313-0.57,0.403c0.201,0.134,0.38,0.28,0.536,0.437c0.828,0.693,1.857,1.298,3.088,1.812
		c2.193,0.806,3.849,1.566,4.968,2.282c0.827,0.493,1.241,0.839,1.241,1.041c0,0.47-0.984,0.705-2.953,0.705
		c-0.761,0-1.443-0.134-2.047-0.403c-0.94-0.179-2.025-0.302-3.256-0.369c-0.806-0.045-1.208-0.369-1.208-0.974
		c-0.09-0.76-0.348-1.41-0.772-1.946c-0.246,0.403-0.56,0.851-0.939,1.342c-1.052,1.656-1.992,2.696-2.819,3.122
		c-0.627,0.357-1.22,0.839-1.779,1.443c-0.648,0.492-1.163,0.739-1.544,0.739c-0.447,0-0.816-0.515-1.107-1.544
		c-0.492-1.388-0.738-2.841-0.738-4.363c0-1.723,0.257-5.426,0.772-11.109c0.201-1.477,0.302-3.289,0.302-5.437
		c0-0.269-0.067-0.525-0.201-0.772c-0.067-0.202-0.101-0.347-0.101-0.437c0-0.335,0.234-0.503,0.704-0.503
		c0.471,0,0.962,0.079,1.478,0.235l0.033,0.034c0.201-0.067,0.402-0.112,0.604-0.134C121.787,4.71,123.577,4.341,124.853,4.341z
		 M124.282,22.23c-0.045-0.044-0.078-0.078-0.101-0.101c-1.589-1.454-3.535-2.796-5.84-4.027c-0.224,2.64-0.336,4.509-0.336,5.605
		c0,0.448,0.078,0.851,0.235,1.208c0.201,0.269,0.48,0.403,0.839,0.403c0.425,0,1.175-0.223,2.249-0.671
		C122.201,24.222,123.186,23.417,124.282,22.23z M119.281,7.597c-0.022,0.627-0.078,1.265-0.167,1.913v0.034
		c2.192-0.671,3.355-1.018,3.49-1.041c0.425,0.067,0.638,0.56,0.638,1.477c0,0.492-0.358,0.817-1.074,0.973
		c-0.336,0.045-0.717,0.179-1.142,0.403c-0.357,0.179-0.693,0.302-1.007,0.369c-0.402,0.09-0.783,0.257-1.141,0.503
		c-0.067,0.694-0.135,1.354-0.201,1.98c0.984-0.179,2.461-0.503,4.43-0.973c0.984-1.991,1.478-3.781,1.478-5.37
		c-0.046-1.186-0.526-1.779-1.443-1.779C122.112,6.086,120.825,6.59,119.281,7.597z"/>
	<path d="M158.013,12.027c0.47,0,0.705,0.705,0.705,2.114c0,0.313-0.369,0.593-1.107,0.839c-1.007,0.247-1.925,0.448-2.752,0.604
		c-0.09,0.335-0.157,0.783-0.202,1.342c-0.045,0.671-0.078,1.298-0.101,1.879c1.119-0.179,2.764-0.47,4.934-0.873
		c0.381,0,0.571,0.582,0.571,1.745c0,0.224-0.325,0.437-0.974,0.638c-1.097,0.425-2.036,0.705-2.819,0.839
		c-0.515,0.067-1.141,0.224-1.88,0.47c-0.066,1.544-0.101,2.54-0.101,2.987c1.813,0.649,3.547,1.354,5.202,2.114
		c1.478,0.582,3.088,1.029,4.833,1.343c1.566,0.223,2.686,0.514,3.356,0.873c0.47,0.201,0.705,0.47,0.705,0.805
		c0,0.269-0.336,0.492-1.007,0.671c-1.052,0.358-2.696,0.537-4.934,0.537c-1.566,0-2.719-0.079-3.457-0.235
		c-0.358-0.09-0.57-0.358-0.638-0.806c-0.18-1.097-0.939-1.869-2.282-2.316c-1.365-0.448-2.495-0.929-3.39-1.443
		c-1.41-0.739-2.753-1.108-4.028-1.108c-0.179,0-0.414,0.023-0.704,0.067c-0.269,0.134-0.481,0.201-0.638,0.201
		c-0.336,0-0.582-0.223-0.738-0.671c-0.046,0.09-0.09,0.18-0.135,0.269c-0.425,0.828-0.806,1.947-1.141,3.356
		c-0.313,0.828-1.153,1.432-2.518,1.813c-1.007,0.201-1.868,0.302-2.584,0.302c-0.47,0-0.705-0.134-0.705-0.402
		c2.483-1.768,4.307-3.86,5.471-6.276c1.007-1.991,1.511-3.658,1.511-5.001c0-0.335,0.145-0.503,0.436-0.503
		c1.454,0.335,2.204,0.784,2.249,1.343c-0.022,0.268-0.492,1.264-1.409,2.987c0.626,0.134,1.477,0.369,2.551,0.705
		c0.402,0.157,0.794,0.291,1.174,0.402v-7.551c-0.939,0.157-1.969,0.369-3.087,0.638c-0.358,0-0.672-0.336-0.94-1.007
		c-0.179-0.492-0.269-0.974-0.269-1.443c0-0.246,0.168-0.369,0.504-0.369C148.727,13.817,152.173,13.191,158.013,12.027z
		 M145.259,9.846c0.112,0.067,0.168,0.201,0.168,0.403c0,0.067-0.045,0.213-0.134,0.436c-0.291,1.589-0.437,2.976-0.437,4.162
		c0,0.269-0.213,0.403-0.638,0.403c-0.582,0-1.287-0.223-2.114-0.671c-0.56-0.358-0.84-0.626-0.84-0.806
		c0-0.291,1.142-1.477,3.424-3.558C144.935,9.969,145.125,9.846,145.259,9.846z M158.583,7.026c1.634,0.112,2.954,0.626,3.961,1.544
		c1.924,1.992,2.887,3.188,2.887,3.591c0,0.18-0.157,0.314-0.471,0.403c-0.357,0.067-0.805,0.202-1.342,0.403
		c-0.313,0.157-0.649,0.235-1.007,0.235c-2.261,0-3.391-0.212-3.391-0.638c0-0.089,0.202-0.246,0.604-0.47
		c0.917-0.582,1.398-1.331,1.443-2.249c-0.18-0.716-0.906-1.074-2.182-1.074c-0.806,0.045-2.193,0.291-4.162,0.738
		c-2.192,0.403-4.732,1.097-7.618,2.081c-0.291,0-0.738-0.705-1.343-2.114c0-0.224,0.212-0.414,0.638-0.571
		c1.655-0.179,3.356-0.503,5.102-0.973C153.784,7.328,156.077,7.026,158.583,7.026z M152.677,0.313c0.246,0,0.537,0.302,0.872,0.906
		c0.269,0.761,0.582,1.298,0.94,1.611c0.85,0.917,1.275,1.656,1.275,2.215c0,0.381-0.146,0.661-0.437,0.839
		c-0.336,0.247-0.728,0.369-1.175,0.369c-0.761,0-1.566-0.313-2.417-0.94c-0.648-0.447-0.973-0.861-0.973-1.242
		c0-1.186,0.279-2.182,0.839-2.987C152.117,0.571,152.475,0.313,152.677,0.313z"/>
</g>
</svg>
