<?xml version="1.0" encoding="utf-8"?>
<!-- Generator: Adobe Illustrator 16.0.0, SVG Export Plug-In . SVG Version: 6.00 Build 0)  -->
<!DOCTYPE svg PUBLIC "-//W3C//DTD SVG 1.0//EN" "http://www.w3.org/TR/2001/REC-SVG-20010904/DTD/svg10.dtd">
<svg version="1.0" id="Layer_1" xmlns="http://www.w3.org/2000/svg" xmlns:xlink="http://www.w3.org/1999/xlink" x="0px" y="0px"
	 width="300.879px" height="54.434px" viewBox="0 0 300.879 54.434" enable-background="new 0 0 300.879 54.434"
	 xml:space="preserve">
<g>
	<path fill="#C6C6C6" d="M55.049,2.109c0.938,0,1.719,1.426,2.344,4.277c0,0.391-0.332,0.606-0.996,0.645
		c-2.5,0-5.859,0.547-10.078,1.641c-1.016,0.234-1.973,0.879-2.871,1.934c0.156-0.039,0.332-0.059,0.527-0.059
		c1.719,0,3.008,0.293,3.867,0.879c0.547,0.469,0.82,1.211,0.82,2.227v2.988c2.734-0.546,5.801-1.172,9.199-1.875
		c0.586,0,0.879,1.192,0.879,3.574c0,0.43-0.527,0.82-1.582,1.172c-3.203,0.977-6.035,1.68-8.496,2.109v5.742
		c5.703-0.742,10.801-1.406,15.293-1.992c0.977-0.352,2.07-0.527,3.281-0.527c0.313,0.977,0.703,1.875,1.172,2.695
		c0.781,1.368,1.25,2.676,1.406,3.926c-0.156,0.665-0.488,1.036-0.996,1.113c-0.234,0-1.133-0.273-2.695-0.82
		c-1.68-0.703-3.203-1.055-4.57-1.055c-3.477,0-7.773,0.293-12.891,0.879V45c0,2.344-0.117,4.355-0.352,6.035
		c-0.313,1.445-0.801,2.168-1.465,2.168c-0.352,0-1.133-0.333-2.344-0.996c-1.289-0.782-2.52-1.348-3.691-1.699
		c-1.055-0.352-2.793-1.523-5.215-3.516c-1.602-1.133-2.402-1.875-2.402-2.227c0-0.429,0.313-0.645,0.938-0.645
		c3.477,1.25,6.152,1.875,8.027,1.875c1.211,0,1.816-1.113,1.816-3.34V32.109c-0.82,0.079-1.66,0.176-2.52,0.293
		c-7.383,1.016-12.93,2.344-16.641,3.984c-0.781,0-1.563-1.894-2.344-5.684l1.582-0.469h2.109c6.445-0.82,12.383-1.582,17.813-2.285
		v-5.625c-2.578,0.391-5.605,1.094-9.082,2.109c-0.625,0-1.191-0.586-1.699-1.758c-0.273-0.859-0.41-1.699-0.41-2.52
		c0-0.586,0.371-0.879,1.113-0.879c1.445-0.156,4.805-0.742,10.078-1.758v-1.055c0-1.484-0.371-2.695-1.113-3.633
		c-0.352-0.195-0.566-0.39-0.645-0.586c-1.094,0.86-2.539,1.368-4.336,1.523c-3.281,0.665-5.625,0.996-7.031,0.996
		c-0.742,0-1.113-0.214-1.113-0.645c3.75-2.813,7.422-5.195,11.016-7.148c3.047-1.601,5.996-2.597,8.848-2.988
		C51.514,3.829,53.33,3.204,55.049,2.109z"/>
	<path fill="#C6C6C6" d="M82.236,17.109c0.273,0,0.801,0.215,1.582,0.645c0.703-0.234,1.426-0.488,2.168-0.762
		c0.977-0.273,1.914-0.507,2.813-0.703l0.176-8.555c0-0.429-0.156-0.879-0.469-1.348c0-0.195,0.137-0.39,0.41-0.586
		c0.391-0.273,1.035-0.41,1.934-0.41c0.586,0,1.309,0.137,2.168,0.41c0.586,0.352,0.879,0.625,0.879,0.82
		c0,0.274-0.117,0.782-0.352,1.523c-0.469,1.406-0.801,3.594-0.996,6.563c0,0.352-0.02,0.665-0.059,0.938
		c1.055-0.117,2.07-0.176,3.047-0.176c0.938,0,2.266,0.176,3.984,0.527c1.25,0.234,1.875,0.684,1.875,1.348
		c-0.039,0.157-0.176,0.43-0.41,0.82c-0.43,0.86-0.723,2.208-0.879,4.043c-0.234,3.164-0.586,5.821-1.055,7.969
		c1.914-0.156,4.102-0.507,6.563-1.055L105.439,8.73c0-0.352,0.215-0.527,0.645-0.527c1.094,0.234,1.914,0.43,2.461,0.586
		c3.438-0.507,6.582-1.23,9.434-2.168c1.211-0.312,2.09-0.469,2.637-0.469c0.469,0,0.703,0.684,0.703,2.051
		c0,1.016-0.156,1.641-0.469,1.875c-3.945,0.625-7.207,1.329-9.785,2.109c-0.391,0.117-0.762,0.196-1.113,0.234
		c-0.039,1.094-0.098,2.149-0.176,3.164c6.172-1.25,9.414-1.894,9.727-1.934c0.625,0.079,0.938,0.762,0.938,2.051
		c0,0.625-0.488,1.036-1.465,1.23c-1.055,0.079-2.266,0.352-3.633,0.82c-1.211,0.313-2.305,0.547-3.281,0.703
		c-0.82,0.079-1.621,0.234-2.402,0.469c-0.039,1.055-0.059,2.09-0.059,3.105c6.797-1.328,10.332-2.031,10.605-2.109
		c0.586,0.117,0.879,0.82,0.879,2.109c0,0.625-0.449,1.016-1.348,1.172c-1.172,0.157-2.48,0.508-3.926,1.055
		c-1.211,0.352-2.324,0.606-3.34,0.762c-1.016,0.157-2.012,0.391-2.988,0.703c-0.039,0.938-0.059,1.856-0.059,2.754
		c2.266-0.39,4.648-0.781,7.148-1.172c2.617-0.156,4.844-0.507,6.68-1.055c1.211-0.469,2.129-0.703,2.754-0.703
		s1.328,1.485,2.109,4.453c-0.078,0.313-0.449,0.469-1.113,0.469l-3.105-0.234h-0.82c0.273,0.234,0.547,0.527,0.82,0.879
		c0.977,0.899,1.523,1.543,1.641,1.934c-0.078,0.508-0.293,0.762-0.645,0.762c-0.547,0-1.465,0.41-2.754,1.23
		c-2.383,1.289-4.082,2.071-5.098,2.344l0.059,0.059c1.172,1.172,2.598,2.266,4.277,3.281c1.719,0.82,4.746,2.032,9.082,3.633
		c2.188,1.21,3.281,1.992,3.281,2.344c-0.078,0.586-1.875,0.879-5.391,0.879c-1.25,0-3.574-0.176-6.973-0.527
		c-0.586,0-1.035-0.567-1.348-1.699c-0.508-1.562-1.23-2.597-2.168-3.105c-0.898-0.469-1.699-1.035-2.402-1.699
		c-0.391,0.938-1.074,2.188-2.051,3.75c-2.188,3.633-4.141,5.878-5.859,6.738c-0.742,0.429-1.328,0.879-1.758,1.348
		c-0.352,0.39-0.625,0.586-0.82,0.586c-0.664,0-1.172-0.391-1.523-1.172c-0.391-1.094-0.586-2.5-0.586-4.219
		c0-1.797,0.195-6.132,0.586-13.008c0.039-0.469,0.059-1.015,0.059-1.641c-1.523,0.508-2.91,1.036-4.16,1.582
		c-0.313,0-0.684-0.273-1.113-0.82c-0.195,0.82-0.352,1.641-0.469,2.461c-0.117,0.586-0.371,0.879-0.762,0.879
		c-0.352,0-1.27-0.507-2.754-1.523c-0.82-0.429-1.602-1.074-2.344-1.934c-0.234,6.328-0.352,10.997-0.352,14.004
		c0,0.742,0.02,1.386,0.059,1.934c0.156,0.781,0.234,1.484,0.234,2.109c-0.078,0.429-0.547,0.645-1.406,0.645
		c-1.602,0-2.461-0.215-2.578-0.645c0-0.391,0.039-0.723,0.117-0.996c0.039-0.391,0.059-0.84,0.059-1.348l0.703-30
		c-1.094,0.352-2.285,0.918-3.574,1.699C84.775,23.829,84.58,26.836,84.58,30c0,0.586,0.039,1.348,0.117,2.285
		c0.078,0.899,0.117,1.563,0.117,1.992c0,0.391-0.273,0.801-0.82,1.23c-0.508,0.586-1.016,0.879-1.523,0.879
		c-0.82,0-1.23-0.703-1.23-2.109V18.809C81.357,17.676,81.689,17.109,82.236,17.109z M92.373,18.633
		c-0.156,4.532-0.293,8.613-0.41,12.246c0.625,0.234,1.035,0.352,1.23,0.352c1.055,0,1.738-0.469,2.051-1.406
		c0.82-2.421,1.23-4.863,1.23-7.324c-0.039-2.617-0.977-3.926-2.813-3.926C93.271,18.574,92.842,18.594,92.373,18.633z
		 M114.873,39.961c-0.195-0.195-0.391-0.41-0.586-0.645c-1.641-1.835-3.848-3.457-6.621-4.863c-0.195,1.172-0.371,2.461-0.527,3.867
		c-0.195,2.461-0.293,4.239-0.293,5.332c0,1.211,0.527,1.816,1.582,1.816c0.938,0,1.992-0.469,3.164-1.406
		C112.49,43.282,113.584,41.915,114.873,39.961z M110.186,31.465c2.148,1.68,3.945,3.204,5.391,4.57
		c1.914-1.523,3.535-3.378,4.863-5.566c0.039-0.039,0.078-0.059,0.117-0.059c-2.266,0.157-5.234,0.43-8.906,0.82
		C111.143,31.309,110.654,31.387,110.186,31.465z"/>
	<path fill="#C6C6C6" d="M160.811,27.07c-0.195,0.86-0.508,2.129-0.938,3.809c-1.289-0.469-3.105-0.703-5.449-0.703h-2.109v0.703
		c0,3.204,0.117,5.918,0.352,8.145l-3.047,1.055l-1.23-1.582c0.195-1.953,0.293-4.316,0.293-7.09v-1.23h-4.16
		c-1.445,0-2.578,0.098-3.398,0.293l-1.055-1.289l0.762-3.281c1.875,0.352,4.16,0.527,6.855,0.527h0.996v-1.758
		c0-2.773-0.137-5.098-0.41-6.973c0.742-0.156,1.719-0.507,2.93-1.055l1.406,1.523c-0.195,2.149-0.293,4.415-0.293,6.797v1.465
		h3.223c1.758,0,3.223-0.136,4.395-0.41L160.811,27.07z"/>
	<path fill="#C6C6C6" d="M184.658,4.277c0.43,0,1.25,0.41,2.461,1.23c1.133,0.86,1.699,1.446,1.699,1.758
		c0,0.313-0.313,0.665-0.938,1.055c-0.625,0.586-1.27,1.25-1.934,1.992c1.484,0.274,3.145,0.84,4.98,1.699
		c0.664,0.391,0.996,0.938,0.996,1.641c-0.352,2.461-0.898,3.691-1.641,3.691c-0.273-0.078-0.762-0.469-1.465-1.172
		c-0.977-1.132-2.5-2.402-4.57-3.809c-1.094,1.329-2.227,2.833-3.398,4.512c-0.898,1.016-1.543,2.09-1.934,3.223
		c1.484-0.234,4.785-0.996,9.902-2.285c0.664,0,0.996,0.938,0.996,2.813c0,0.469-0.488,0.879-1.465,1.23
		c-1.133,0.469-2.109,0.82-2.93,1.055c-0.039,0.703-0.078,1.504-0.117,2.402c0,0.547-0.02,1.055-0.059,1.523
		c1.484-0.429,3.086-0.938,4.805-1.523c0.43,0,0.645,0.938,0.645,2.813c0,0.391-0.449,0.723-1.348,0.996
		c-1.563,0.703-2.969,1.27-4.219,1.699c-0.039,2.071-0.078,3.867-0.117,5.391c0.703-1.132,1.523-2.168,2.461-3.105
		c0.625-0.703,0.996-1.25,1.113-1.641c0.234-0.507,0.488-0.762,0.762-0.762s0.664,0.352,1.172,1.055
		c0.938,1.055,1.406,1.739,1.406,2.051c0,0.079-0.234,0.254-0.703,0.527c-1.914,1.211-3.516,2.032-4.805,2.461
		c-0.664,0.274-1.133,0.43-1.406,0.469c-0.039,1.25-0.059,2.227-0.059,2.93c1.836-0.625,3.828-1.289,5.977-1.992
		c0.313,0.079,0.469,0.254,0.469,0.527c0,0.352-0.43,0.801-1.289,1.348c-1.328,1.094-4.453,3.028-9.375,5.801
		c-0.938,0.507-1.719,1.113-2.344,1.816c-0.625,0.586-1.211,0.879-1.758,0.879c-0.469,0-1.074-0.567-1.816-1.699
		c-0.82-1.055-1.23-1.68-1.23-1.875c0-0.312,0.332-0.605,0.996-0.879c1.563-0.352,3.086-0.898,4.57-1.641
		c0.703-0.312,1.426-0.605,2.168-0.879v-5.039l-2.285,2.695c-0.547,0.508-0.977,1.036-1.289,1.582
		c-0.234,0.469-0.43,0.703-0.586,0.703c-0.273,0-0.664-0.352-1.172-1.055c-1.094-1.367-1.641-2.207-1.641-2.52
		c0-0.117,0.195-0.253,0.586-0.41c1.367-0.469,2.871-1.172,4.512-2.109c0.469-0.312,1.094-0.625,1.875-0.938v-2.695
		c-1.328,0.391-2.793,0.977-4.395,1.758c-0.547,0-1.035-0.488-1.465-1.465c-0.273-0.742-0.41-1.445-0.41-2.109
		c0-0.429,0.293-0.645,0.879-0.645c0.82-0.117,2.617-0.586,5.391-1.406v-3.984c-0.586,0.196-1.191,0.41-1.816,0.645
		c-0.547,0-1.035-0.507-1.465-1.523c-0.039-0.156-0.078-0.273-0.117-0.352c-0.313,0.547-0.742,1.016-1.289,1.406
		c-1.523,1.25-3.008,2.09-4.453,2.52c-1.328,0.274-2.578,0.684-3.75,1.23c-0.156,0-0.234-0.156-0.234-0.469
		c0-0.352,0.449-0.957,1.348-1.816c3.398-3.516,6.23-6.835,8.496-9.961c2.617-3.75,4.57-7.226,5.859-10.43
		C184.131,4.59,184.385,4.277,184.658,4.277z M193.271,13.887c0.508,0,1.113,0.117,1.816,0.352c1.484-0.352,3.262-0.82,5.332-1.406
		c3.32-1.015,7.207-1.523,11.66-1.523c1.797,0,3.516,0.313,5.156,0.938c1.875,0.625,2.813,1.329,2.813,2.109
		c0,0.43-0.117,0.958-0.352,1.582c-0.43,2.188-0.645,6.778-0.645,13.77c0,5.156,0.254,11.367,0.762,18.633
		c0,1.21-0.332,1.816-0.996,1.816c-0.781,0-1.855-0.508-3.223-1.523c-0.703-0.665-1.445-1.172-2.227-1.523
		c-1.68-0.86-3.379-2.187-5.098-3.984c0-0.234,0.156-0.39,0.469-0.469c2.656,0.665,4.375,0.996,5.156,0.996
		c0.43,0,0.762-0.312,0.996-0.938c0.156-0.859,0.234-5.351,0.234-13.477c0-7.929-0.156-11.972-0.469-12.129
		c0-1.992-0.938-2.988-2.813-2.988c-4.18,0.079-8.77,0.84-13.77,2.285c-0.469,0.157-0.84,0.274-1.113,0.352
		c-0.234,1.719-0.371,3.398-0.41,5.039c-0.313,10.118-0.469,17.637-0.469,22.559l-0.117,2.109c0.078,0.742-0.254,1.113-0.996,1.113
		c-0.586,0-1.094-0.176-1.523-0.527c-0.391-0.352-0.586-1.25-0.586-2.695c0-2.461,0.02-6.933,0.059-13.418
		c0.078-7.46,0.117-12.07,0.117-13.828c0-0.546-0.156-1.113-0.469-1.699c-0.43-0.429-0.645-0.722-0.645-0.879
		C191.924,14.102,192.373,13.887,193.271,13.887z M210.439,15.703c0.234,0,0.762,0.234,1.582,0.703
		c0.508,0.508,0.82,0.899,0.938,1.172c0,0.157-0.117,0.313-0.352,0.469c-1.289,1.25-2.813,2.911-4.57,4.98
		c-0.039,0.079-0.078,0.117-0.117,0.117c1.797-0.273,3.711-0.566,5.742-0.879c0.508,0,0.762,0.723,0.762,2.168
		c0,0.313-0.41,0.606-1.23,0.879c-2.109,0.469-4.004,0.82-5.684,1.055c-0.078,0.352-0.137,0.723-0.176,1.113
		c-0.195,3.204-0.313,5.508-0.352,6.914c1.016-0.078,1.973-0.117,2.871-0.117c0.078-0.82,0.176-1.641,0.293-2.461
		c0.195-1.21,0.293-2.031,0.293-2.461c0-0.195-0.098-0.371-0.293-0.527c-0.117-0.156-0.176-0.293-0.176-0.41
		c0-0.352,0.215-0.527,0.645-0.527c0.547,0,1.289,0.098,2.227,0.293c0.547,0.196,0.82,0.508,0.82,0.938
		c-0.352,0.86-0.879,3.731-1.582,8.613c-0.117,0.665-0.605,0.996-1.465,0.996c-0.742,0-1.113-0.253-1.113-0.762
		c0-0.273,0.02-0.566,0.059-0.879c-3.516,0.234-5.996,0.606-7.441,1.113c-1.016,0.508-1.836,0.762-2.461,0.762
		c-0.352,0-0.625-0.546-0.82-1.641c-0.273-1.172-0.41-2.304-0.41-3.398v-1.934c0.039-0.507,0-0.898-0.117-1.172
		c-0.078-0.234-0.117-0.429-0.117-0.586c0-0.312,0.313-0.469,0.938-0.469c0.508,0,1.152,0.137,1.934,0.41
		c0.469,0.117,0.703,0.293,0.703,0.527c0,0.157-0.117,0.313-0.352,0.469c-0.156,0.196-0.293,0.489-0.41,0.879
		c-0.156,0.977-0.234,1.641-0.234,1.992c0,0.743,0.156,1.113,0.469,1.113c0.352,0,1.191-0.156,2.52-0.469
		c0.117,0,0.215-0.019,0.293-0.059v-7.852c-1.719,0.157-3.75,0.45-6.094,0.879c-0.313,0-0.605-0.332-0.879-0.996
		c-0.156-0.546-0.234-1.074-0.234-1.582c0-0.312,0.234-0.469,0.703-0.469c1.016-0.039,3.555-0.371,7.617-0.996
		c0.82-1.21,1.68-2.558,2.578-4.043c1.094-1.875,1.68-2.988,1.758-3.34S209.893,15.703,210.439,15.703z M205.459,17.344
		c0.313,0,0.469,0.079,0.469,0.234c0,0.313-0.156,0.606-0.469,0.879c-1.563,1.836-2.598,3.145-3.105,3.926
		c-0.195,0.391-0.391,0.586-0.586,0.586c-0.391,0-0.859-0.273-1.406-0.82c-0.625-0.82-0.938-1.406-0.938-1.758
		c0-0.312,0.234-0.546,0.703-0.703C202.041,18.829,203.818,18.047,205.459,17.344z"/>
	<path fill="#C6C6C6" d="M263.115,0c0.508,0,1.27,0.215,2.285,0.645c1.016,0.547,1.523,0.977,1.523,1.289
		c0,0.313-0.273,0.606-0.82,0.879c-0.664,0.665-1.445,1.758-2.344,3.281c1.992-0.352,5.059-0.879,9.199-1.582
		c0.469,0,0.703,0.84,0.703,2.52c0,0.352-0.449,0.665-1.348,0.938c-2.109,0.82-3.848,1.329-5.215,1.523
		c-0.391,0.079-0.781,0.157-1.172,0.234c0.039,0.079,0.078,0.137,0.117,0.176c0.664,0.82,1.523,1.582,2.578,2.285
		c1.133,0.938,1.738,1.875,1.816,2.813c-0.078,0.469-0.391,0.703-0.938,0.703c-1.563-0.507-2.988-0.859-4.277-1.055
		c-1.406-0.195-2.109-1.152-2.109-2.871c0-0.429,0.039-0.82,0.117-1.172c-0.195,0.04-0.371,0.117-0.527,0.234
		c-0.391,0-0.742-0.253-1.055-0.762c-1.016,1.719-2.227,3.067-3.633,4.043c-0.625,0.352-1.191,0.645-1.699,0.879
		c0.117,0.079,0.254,0.137,0.41,0.176c0.898,0.547,1.523,0.996,1.875,1.348c3.633-0.352,5.703-0.527,6.211-0.527
		c0.469,0,1.309,0.234,2.52,0.703c1.094,0.508,1.641,1.055,1.641,1.641c0,0.274-0.215,0.723-0.645,1.348
		c-0.117,0.274-0.234,0.547-0.352,0.82c2.266-0.312,4.414-0.605,6.445-0.879c0.938-0.39,2.031-0.586,3.281-0.586
		c0.234,0.703,0.547,1.406,0.938,2.109c0.664,1.055,1.055,2.071,1.172,3.047c-0.117,0.665-0.371,1.036-0.762,1.113
		c-0.195,0-0.938-0.214-2.227-0.645c-1.406-0.469-2.695-0.703-3.867-0.703c-1.836,0-3.906,0.059-6.211,0.176
		c-0.469,1.406-0.957,2.988-1.465,4.746c-0.273,0.547-1.113,0.84-2.52,0.879h-0.059c-1.719,0.117-3.652,0.352-5.801,0.703
		c-0.234,0.04-0.41,0.059-0.527,0.059c-0.039,0.86-0.078,1.699-0.117,2.52c0.703-0.078,1.387-0.156,2.051-0.234
		c1.914-0.078,3.555-0.273,4.922-0.586c0.859-0.195,1.543-0.293,2.051-0.293s1.133,1.153,1.875,3.457
		c-0.078,0.352-0.41,0.527-0.996,0.527h-2.578c-1.172,0-3.633,0.137-7.383,0.41c0,1.055,0,2.071,0,3.047
		c5.156-0.507,9.785-0.996,13.887-1.465c0.781-0.273,1.68-0.41,2.695-0.41c0.234,0.743,0.547,1.446,0.938,2.109
		c0.664,1.094,1.055,2.109,1.172,3.047c-0.117,0.703-0.371,1.113-0.762,1.23c-0.195,0-0.938-0.234-2.227-0.703
		c-1.406-0.507-2.695-0.762-3.867-0.762c-3.125,0-7.051,0.157-11.777,0.469c0.117,4.57,0.391,7.852,0.82,9.844
		c0,1.132-0.488,1.699-1.465,1.699c-0.117,0-0.781-0.313-1.992-0.938c-1.133-0.43-1.699-1.055-1.699-1.875
		c0-0.196,0.176-0.879,0.527-2.051c0.078-0.899,0.117-3.047,0.117-6.445c-0.352,0.04-0.742,0.098-1.172,0.176
		c-6.094,0.508-10.684,1.153-13.77,1.934c-0.469,0-0.957-1.23-1.465-3.691l0.996-0.234h1.582c4.961-0.586,9.59-1.093,13.887-1.523
		c0-0.938,0-1.953,0-3.047c-2.617,0.352-4.902,0.84-6.855,1.465c-0.313,0-0.723-0.371-1.23-1.113
		c-0.586-1.093-0.879-1.738-0.879-1.934c0-0.352,0.332-0.566,0.996-0.645c1.719-0.078,3.926-0.352,6.621-0.82
		c0.469-0.039,0.918-0.097,1.348-0.176v-2.52c-0.313,0.04-0.586,0.059-0.82,0.059c-2.148,0.157-4.375,0.45-6.68,0.879
		c-0.547,0-0.879-0.645-0.996-1.934c0-0.507,0.332-0.879,0.996-1.113c2.852-0.312,5.352-0.605,7.5-0.879v-2.637
		c-0.273,0-0.488,0.02-0.645,0.059c-7.734,0.977-13.535,2.208-17.402,3.691c-0.469,0-0.957-1.269-1.465-3.809l0.938-0.234h1.641
		c6.055-0.859,11.699-1.66,16.934-2.402V19.98c-0.781,0.117-1.504,0.234-2.168,0.352c-3.555,1.016-5.742,1.523-6.563,1.523
		c-0.469,0-0.703-0.488-0.703-1.465c0.156-1.445,0.566-2.227,1.23-2.344c1.563,0,4.219-0.234,7.969-0.703l-0.234-2.109
		c0.078-0.664,0.449-1.113,1.113-1.348c0.313,0.04,0.703,0.137,1.172,0.293c0.234-0.312,0.547-0.742,0.938-1.289
		c2.383-2.382,4.668-6.347,6.855-11.895C262.354,0.333,262.646,0,263.115,0z M246.768,1.23c0.43,0,1.113,0.215,2.051,0.645
		c0.977,0.508,1.465,0.899,1.465,1.172c0,0.391-0.293,0.723-0.879,0.996c-0.859,0.743-1.895,2.051-3.105,3.926
		c2.031-0.312,5.078-0.839,9.141-1.582c0.43,0,0.645,0.86,0.645,2.578c0,0.352-0.449,0.645-1.348,0.879
		c-2.109,0.703-3.848,1.153-5.215,1.348c-0.273,0.04-0.547,0.079-0.82,0.117c0.469,0.547,1.016,1.075,1.641,1.582
		c0.82,0.82,1.25,1.68,1.289,2.578c-0.039,0.508-0.352,0.762-0.938,0.762c-1.211-0.469-2.305-0.8-3.281-0.996
		c-1.094-0.195-1.641-1.055-1.641-2.578c0-0.234,0.02-0.449,0.059-0.645c-0.273,0.04-0.508,0.098-0.703,0.176
		c-0.313,0-0.586-0.195-0.82-0.586c-1.172,1.758-2.539,3.105-4.102,4.043c-1.953,1.055-3.223,1.622-3.809,1.699
		c-0.469,0-0.703-0.214-0.703-0.645c0-0.234,0.566-0.976,1.699-2.227c2.969-2.5,5.762-6.621,8.379-12.363
		C245.928,1.523,246.26,1.23,246.768,1.23z M256.611,24.961c-0.039,0.82-0.078,1.68-0.117,2.578
		c2.383-0.273,4.102-0.469,5.156-0.586c0.313-0.938,0.547-1.777,0.703-2.52C260.557,24.59,258.643,24.766,256.611,24.961z
		 M257.49,19.16c-0.117,0.274-0.234,0.586-0.352,0.938c-0.078,0.586-0.156,1.25-0.234,1.992c2.109-0.273,4.141-0.546,6.094-0.82
		c0.078-0.586,0.117-1.035,0.117-1.348c0-0.898-0.371-1.348-1.113-1.348C260.439,18.77,258.936,18.965,257.49,19.16z"/>
</g>
<path fill="#C6C6C6" d="M0,50.782V3.442h5.357v1.991C2.35,5.925,2.24,6.098,2.24,10.399v33.426c0,4.244,0.109,4.359,3.117,4.908
	v2.049H0z"/>
<path fill="#C6C6C6" d="M295.523,50.782v-2.049c3.008-0.549,3.115-0.664,3.115-4.908V10.399c0-4.301-0.107-4.474-3.115-4.965V3.442
	h5.355v47.339H295.523z"/>
</svg>
