<?xml version="1.0" encoding="iso-8859-1"?>
<!-- Generator: Adobe Illustrator 18.0.0, SVG Export Plug-In . SVG Version: 6.00 Build 0)  -->
<!DOCTYPE svg PUBLIC "-//W3C//DTD SVG 1.0//EN" "http://www.w3.org/TR/2001/REC-SVG-20010904/DTD/svg10.dtd">
<svg version="1.0" id="Layer_1" xmlns="http://www.w3.org/2000/svg" xmlns:xlink="http://www.w3.org/1999/xlink" x="0px" y="0px"
	 viewBox="0 0 45 45" enable-background="new 0 0 45 45" xml:space="preserve">
<g>
	<path fill="#FFFFFF" d="M33.156,30.513l-5.358-5.359c-0.064-0.062-0.133-0.11-0.197-0.162c0.904-1.388,1.432-3.043,1.432-4.826
		c0-4.896-3.966-8.867-8.865-8.867c-4.896,0-8.866,3.969-8.866,8.867c0,4.898,3.971,8.865,8.866,8.865
		c1.782,0,3.439-0.529,4.83-1.437c0.051,0.07,0.098,0.136,0.16,0.197l5.359,5.361c0.365,0.366,0.844,0.549,1.32,0.549
		c0.477,0,0.955-0.183,1.32-0.548C33.883,32.422,33.883,31.241,33.156,30.513 M20.167,26.229c-3.343,0-6.065-2.72-6.065-6.064
		c0-3.344,2.723-6.067,6.065-6.067c3.346,0,6.066,2.723,6.066,6.067C26.233,23.51,23.513,26.229,20.167,26.229"/>
</g>
</svg>
