<?xml version="1.0" encoding="utf-8"?>
<!-- Generator: Adobe Illustrator 16.0.0, SVG Export Plug-In . SVG Version: 6.00 Build 0)  -->
<!DOCTYPE svg PUBLIC "-//W3C//DTD SVG 1.0//EN" "http://www.w3.org/TR/2001/REC-SVG-20010904/DTD/svg10.dtd">
<svg version="1.0" id="Layer_1" xmlns="http://www.w3.org/2000/svg" xmlns:xlink="http://www.w3.org/1999/xlink" x="0px" y="0px"
	 width="45px" height="45px" viewBox="0 0 45 45" enable-background="new 0 0 45 45" xml:space="preserve">
<g id="Flat_copy_3_">
	<g>
		<path fill="#333333" d="M22.701,0.126C10.273,0.126,0.2,10.198,0.2,22.626c0,12.425,10.073,22.499,22.501,22.499
			S45.2,35.051,45.2,22.626C45.2,10.198,35.129,0.126,22.701,0.126z"/>
	</g>
</g>
<path fill="#FFFFFF" d="M31.179,29.002l-4.264-4.265c-0.051-0.05-0.105-0.088-0.157-0.129c0.72-1.105,1.14-2.422,1.14-3.84
	c0-3.896-3.156-7.056-7.055-7.056c-3.895,0-7.055,3.159-7.055,7.056s3.16,7.054,7.055,7.054c1.418,0,2.737-0.421,3.844-1.142
	c0.04,0.055,0.077,0.107,0.127,0.156l4.264,4.266c0.291,0.291,0.672,0.436,1.051,0.436s0.76-0.145,1.051-0.435
	C31.757,30.521,31.757,29.582,31.179,29.002 M20.843,25.595c-2.66,0-4.826-2.165-4.826-4.826s2.166-4.828,4.826-4.828
	c2.662,0,4.827,2.167,4.827,4.828S23.505,25.595,20.843,25.595"/>
</svg>
