<?xml version="1.0" encoding="utf-8"?>
<!-- Generator: Adobe Illustrator 16.0.0, SVG Export Plug-In . SVG Version: 6.00 Build 0)  -->
<!DOCTYPE svg PUBLIC "-//W3C//DTD SVG 1.0//EN" "http://www.w3.org/TR/2001/REC-SVG-20010904/DTD/svg10.dtd">
<svg version="1.0" xmlns="http://www.w3.org/2000/svg" xmlns:xlink="http://www.w3.org/1999/xlink" x="0px" y="0px"
	 width="482.475px" height="150px" viewBox="0 0 482.475 150" enable-background="new 0 0 482.475 150" xml:space="preserve">
<g id="Layer_1">
	<g>
		<g>
			<path fill="#333333" d="M77.566,33.436C73.658,20.914,66.743,6.793,47.802,6.793C30.967,6.793,23,17.317,23,27.973
				c0,13.72,10.372,20.38,28.711,28.24c19.091,8.258,38.933,17.449,38.933,38.895c0,20.912-20.143,37.563-50.809,37.563
				c-9.319,0-16.835-1.465-22.549-3.195c-5.712-1.6-8.868-3.197-11.123-4.131C4.66,121.482,1.354,103.766,0,94.309l6.765-1.732
				c3.759,12.389,14.731,32.768,37.73,32.768c16.386,0,26.006-8.924,26.006-22.91c0-14.119-12.025-20.779-29.163-28.771
				C25.705,66.734,4.21,57.012,4.21,35.564C4.21,16.118,21.947,0,51.26,0c10.673,0,20.744,2.265,29.162,4.662
				c0.901,6.927,1.954,14.918,3.909,27.707L77.566,33.436z"/>
		</g>
		<g>
			<path fill="#333333" d="M113.898,129.607v-2.111c5.683-0.486,6.355-0.973,6.355-6.494v-15.914c0-4.98-0.306-5.361-5.684-6.174
				v-1.893c4.889-0.705,9.472-1.627,13.565-3.033v27.014c0,5.467,0.61,5.898,6.416,6.494v2.111H113.898z M118.665,83.164
				c0-2.545,2.32-4.439,5.01-4.439s4.766,1.895,4.766,4.439c0,2.273-2.076,4.275-4.888,4.275
				C120.985,87.439,118.665,85.438,118.665,83.164z"/>
			<path fill="#333333" d="M195.614,129.607v-2.111c5.071-0.486,6.11-0.865,6.11-6.494v-12.775c0-5.955-2.566-9.15-7.821-9.15
				c-2.933,0-6.233,1.518-9.653,3.953c0.121,0.975,0.243,1.896,0.243,3.303v15.209c0,4.982,0.855,5.469,5.806,5.955v2.111h-19.981
				v-2.111c5.438-0.486,6.233-0.865,6.233-6.061v-13.373c0-5.953-2.506-8.986-7.699-8.986c-3.422,0-6.783,2.006-9.533,3.898v18.461
				c0,5.088,0.795,5.574,4.95,6.061v2.111h-19.553v-2.111c5.866-0.486,6.72-0.973,6.72-6.17v-16.078
				c0-5.033-0.305-5.521-5.498-6.225v-2.002c3.91-0.543,8.982-1.57,13.259-3.141v6.498c1.956-1.139,3.911-2.6,6.66-4.063
				c2.444-1.299,4.645-2.164,7.517-2.164c4.338,0,8.248,2.436,10.144,6.496c2.688-1.734,5.254-3.195,7.454-4.494
				c1.955-1.082,4.276-2.002,6.844-2.002c7.209,0,11.854,4.385,11.854,12.342v14.941c0,5.25,0.609,5.465,5.865,6.061v2.111H195.614z
				"/>
			<path fill="#333333" d="M246.346,95.451c1.772-0.922,3.545-1.299,4.705-1.299c10.266,0,16.313,7.092,16.313,15.049
				c0,11.744-10.937,19.377-22.668,21.328c-2.688-0.057-5.133-0.758-6.416-1.301v10.449c0,5.791,0.673,6.277,7.699,6.818v2.166
				h-22.242v-2.166c5.866-0.486,6.66-1.027,6.66-6.172V104.6c0-4.98-0.488-5.195-5.926-5.848v-1.947
				c3.849-0.541,9.227-1.947,13.809-3.463v6.277L246.346,95.451z M238.28,123.545c2.017,1.732,5.499,3.086,8.494,3.086
				c7.575,0,12.281-6.008,12.281-14.291c0-8.66-5.744-13.264-12.099-13.264c-2.749,0-6.294,1.68-8.677,3.248V123.545z"/>
			<path fill="#333333" d="M277.588,129.607v-2.111c5.683-0.596,6.478-1.027,6.478-6.332V84.029c0-5.359-0.611-5.521-6.233-6.008
				v-1.949c4.889-0.486,10.754-1.84,14.055-2.762v47.854c0,5.359,0.794,5.846,6.721,6.332v2.111H277.588z"/>
			<path fill="#333333" d="M342.439,122.572c-5.866,6.549-12.403,7.957-15.337,7.957c-11.182,0-17.781-7.957-17.781-16.783
				c0-5.248,2.139-10.014,5.805-13.531c3.911-3.789,8.86-6.063,13.688-6.063h0.061c7.761,0,13.932,5.898,13.932,12.18
				c0,1.514-0.489,2.219-2.138,2.545c-1.649,0.215-13.016,1.027-23.524,1.352c0.183,10.23,6.965,14.561,13.259,14.561
				c3.728,0,7.21-1.244,10.51-3.951L342.439,122.572z M326.675,97.131c-3.911,0-7.821,3.084-9.104,9.688
				c4.827,0,9.654,0,14.726-0.162c1.59-0.053,2.139-0.486,2.139-1.516c0-4.168-2.933-8.01-7.699-8.01H326.675z"/>
		</g>
	</g>
</g>
<g id="Layer_2">
</g>
<g id="Layer_3">
</g>
</svg>
