<?xml version="1.0" encoding="utf-8"?>
<!-- Generator: Adobe Illustrator 16.0.0, SVG Export Plug-In . SVG Version: 6.00 Build 0)  -->
<!DOCTYPE svg PUBLIC "-//W3C//DTD SVG 1.0//EN" "http://www.w3.org/TR/2001/REC-SVG-20010904/DTD/svg10.dtd">
<svg version="1.0" xmlns="http://www.w3.org/2000/svg" xmlns:xlink="http://www.w3.org/1999/xlink" x="0px" y="0px"
	 width="482.475px" height="150px" viewBox="0 0 482.475 150" enable-background="new 0 0 482.475 150" xml:space="preserve">
<g id="Layer_1">
	<g>
		<g>
			<path fill="#333333" d="M113.898,129.607v-2.111c5.684-0.488,6.354-0.975,6.354-6.496v-15.916c0-4.979-0.305-5.357-5.682-6.17
				v-1.895c4.889-0.705,9.471-1.625,13.564-3.031V121c0,5.469,0.611,5.9,6.416,6.496v2.111H113.898z M118.665,83.162
				c0-2.545,2.322-4.439,5.011-4.439s4.767,1.895,4.767,4.439c0,2.271-2.078,4.277-4.889,4.277
				C120.987,87.439,118.665,85.433,118.665,83.162z"/>
			<path fill="#333333" d="M177.368,129.607v-2.111c5.194-0.488,5.806-1.137,5.806-6.715v-12.883c0-5.521-2.506-8.822-8.065-8.822
				c-3.422,0-6.783,1.895-9.532,3.898v18.295c0,5.414,0.489,5.738,5.744,6.227v2.111h-20.165v-2.111
				c6.05-0.65,6.538-1.027,6.538-6.336v-15.912c0-5.143-0.61-5.469-5.377-6.225v-2.004c4.339-0.596,9.043-1.625,13.26-3.141v6.389
				c1.834-1.191,3.788-2.436,6.11-3.789c2.566-1.463,4.827-2.328,7.516-2.328c7.21,0,11.793,4.492,11.793,12.342v14.777
				c0,5.414,0.55,5.631,5.805,6.227v2.111H177.368z"/>
			<path fill="#333333" d="M248.657,122.298c-4.095,4.709-10.266,8.227-15.581,8.227c-11.854,0-18.698-8.117-18.698-16.508
				c0-6.01,3.117-11.369,9.227-15.375c5.011-3.248,10.51-4.492,13.993-4.492h0.122c3.728,0,6.721,0.975,8.188,2.111
				c1.222,0.865,1.467,1.57,1.467,2.436c0,1.84-2.017,3.627-3.178,3.627c-0.55,0-0.978-0.217-1.771-0.92
				c-2.933-2.328-6.05-3.41-9.287-3.41c-5.622,0-10.755,4.006-10.755,12.396c0,10.879,8.921,14.398,13.809,14.398
				c3.789,0,6.844-0.92,10.938-4.275L248.657,122.298z"/>
			<path fill="#333333" d="M298.988,122.57c-5.865,6.547-12.403,7.955-15.337,7.955c-11.182,0-17.781-7.955-17.781-16.779
				c0-5.248,2.139-10.014,5.805-13.533c3.91-3.789,8.86-6.063,13.688-6.063h0.061c7.761,0,13.931,5.9,13.931,12.18
				c0,1.516-0.488,2.221-2.138,2.543c-1.649,0.219-13.015,1.031-23.524,1.355c0.183,10.229,6.965,14.561,13.259,14.561
				c3.728,0,7.21-1.244,10.51-3.951L298.988,122.57z M283.224,97.126c-3.911,0-7.821,3.086-9.104,9.691
				c4.827,0,9.655,0,14.726-0.162c1.59-0.057,2.14-0.488,2.14-1.516c0-4.17-2.934-8.014-7.699-8.014H283.224z"/>
			<path fill="#333333" d="M331.355,102.703c2.993-4.33,6.722-8.553,10.938-8.553c3.299,0,5.498,2.111,5.498,4.061
				c0,1.84-1.222,3.463-3.177,4.275c-1.1,0.381-1.895,0.217-2.443-0.215c-1.406-1.137-2.444-1.625-3.973-1.625
				c-2.321,0-5.071,2.328-7.027,6.549v14.129c0,5.197,0.429,5.684,7.516,6.172v2.111h-21.691v-2.111
				c5.5-0.488,6.294-0.975,6.294-6.172v-16.4c0-5.035-0.488-5.361-5.561-6.01v-1.787c4.522-0.648,8.8-1.568,13.442-3.248v8.824
				H331.355z"/>
			<path fill="#333333" d="M364.272,129.607v-2.111c5.682-0.488,6.354-0.975,6.354-6.496v-15.916c0-4.979-0.306-5.357-5.683-6.17
				v-1.895c4.888-0.705,9.472-1.625,13.565-3.031V121c0,5.469,0.61,5.9,6.415,6.496v2.111H364.272z M369.039,83.162
				c0-2.545,2.321-4.439,5.01-4.439c2.689,0,4.766,1.895,4.766,4.439c0,2.271-2.076,4.277-4.889,4.277
				C371.36,87.439,369.039,85.433,369.039,83.162z"/>
			<path fill="#333333" d="M419.188,129.445c-1.649,0.811-3.055,1.08-3.85,1.08c-6.049,0-9.409-3.029-9.409-9.418V98.373h-6.173
				l-0.427-0.922l2.505-2.379h4.095v-5.74l6.659-5.521l1.223,0.219v11.043h10.143c0.918,0.865,0.611,2.598-0.611,3.301h-9.531
				v19.975c0,6.385,3.115,7.469,5.377,7.469c2.139,0,4.154-0.756,5.499-1.352l0.794,2.166L419.188,129.445z"/>
			<path fill="#333333" d="M482.475,97.183c-4.828,0.648-5.621,1.299-8.065,5.846c-2.262,4.004-5.194,10.662-11.488,23.492
				c-6.172,12.611-8.126,17.105-9.654,21.598c-0.428,1.518-1.589,1.895-2.811,1.895c-2.628,0-5.438-1.949-5.438-4.061
				c0-1.299,0.795-2.002,2.322-2.922c3.116-1.625,4.889-3.41,7.088-6.984c1.59-2.596,2.321-4.168,2.688-5.088
				c0.551-1.189,0.367-2.273-0.184-3.572c-3.85-9.363-8.065-19.217-10.571-24.412c-1.954-4.115-2.932-5.143-7.821-5.791v-2.111
				h19.188l0.122,2.111c-4.216,0.648-4.767,1.352-3.605,4.221l8.188,19.377c2.443-4.979,6.354-14.342,8.127-19.107
				c1.161-2.922,0.427-3.842-4.646-4.49v-2.111h16.561V97.183z"/>
		</g>
		<g>
			<path fill="#333333" d="M77.566,33.435C73.658,20.913,66.743,6.793,47.803,6.793C30.967,6.793,23,17.316,23,27.973
				c0,13.72,10.372,20.38,28.712,28.24c19.09,8.258,38.933,17.449,38.933,38.895c0,20.912-20.144,37.563-50.809,37.563
				c-9.32,0-16.836-1.465-22.548-3.195c-5.712-1.6-8.87-3.197-11.124-4.131C4.661,121.482,1.354,103.765,0,94.308l6.765-1.732
				c3.758,12.389,14.732,32.768,37.73,32.768c16.386,0,26.006-8.924,26.006-22.91c0-14.119-12.025-20.779-29.161-28.771
				C25.706,66.734,4.21,57.011,4.21,35.564C4.21,16.117,21.947,0,51.26,0c10.673,0,20.745,2.265,29.162,4.662
				c0.903,6.927,1.955,14.918,3.909,27.707L77.566,33.435z"/>
		</g>
	</g>
</g>
<g id="Layer_2">
</g>
<g id="Layer_3">
</g>
</svg>
