<?xml version="1.0" encoding="utf-8"?>
<!-- Generator: Adobe Illustrator 16.0.0, SVG Export Plug-In . SVG Version: 6.00 Build 0)  -->
<!DOCTYPE svg PUBLIC "-//W3C//DTD SVG 1.0//EN" "http://www.w3.org/TR/2001/REC-SVG-20010904/DTD/svg10.dtd">
<svg version="1.0" xmlns="http://www.w3.org/2000/svg" xmlns:xlink="http://www.w3.org/1999/xlink" x="0px" y="0px"
	 width="482.475px" height="150px" viewBox="0 0 482.475 150" enable-background="new 0 0 482.475 150" xml:space="preserve">
<g id="Layer_1">
	<g>
		<g>
			<g>
				<path fill="#333333" d="M147.445,124.712c-5.866,6.551-12.404,7.957-15.337,7.957c-11.182,0-17.78-7.957-17.78-16.779
					c0-5.25,2.138-10.016,5.804-13.533c3.911-3.791,8.86-6.063,13.688-6.063h0.062c7.759,0,13.931,5.9,13.931,12.18
					c0,1.514-0.488,2.219-2.138,2.545c-1.65,0.215-13.016,1.027-23.524,1.354c0.183,10.229,6.965,14.561,13.259,14.561
					c3.728,0,7.21-1.246,10.51-3.951L147.445,124.712z M131.68,99.271c-3.91,0-7.821,3.086-9.104,9.691
					c4.828,0,9.654,0,14.727-0.162c1.588-0.057,2.139-0.49,2.139-1.518c0-4.168-2.934-8.012-7.699-8.012H131.68z"/>
				<path fill="#333333" d="M193.169,124.712c-5.867,6.551-12.405,7.957-15.338,7.957c-11.181,0-17.779-7.957-17.779-16.779
					c0-5.25,2.137-10.016,5.804-13.533c3.91-3.791,8.86-6.063,13.687-6.063h0.063c7.759,0,13.931,5.9,13.931,12.18
					c0,1.514-0.488,2.219-2.138,2.545c-1.65,0.215-13.016,1.027-23.525,1.354c0.184,10.229,6.966,14.561,13.26,14.561
					c3.727,0,7.209-1.246,10.51-3.951L193.169,124.712z M177.405,99.271c-3.911,0-7.822,3.086-9.105,9.691
					c4.829,0,9.655,0,14.726-0.162c1.589-0.057,2.14-0.49,2.14-1.518c0-4.168-2.933-8.012-7.699-8.012H177.405z"/>
				<path fill="#333333" d="M250.259,129.693c-1.955,0.326-9.043,1.354-14.787,2.977v-5.088l-5.377,2.816
					c-3.605,1.84-5.987,2.271-6.966,2.271c-7.577,0-17.292-5.736-17.292-16.834c0-10.988,11.121-19.541,23.77-19.541
					c1.283,0,3.666,0.217,5.865,0.865v-11.15c0-5.143-0.61-5.359-7.026-5.738v-2.057c5.071-0.541,11.305-1.732,14.908-2.76v46.932
					c0,4.33,0.673,4.707,4.339,5.033l2.566,0.217V129.693z M235.472,103.439c-2.199-2.76-5.743-4.113-9.227-4.113
					c-3.85,0-11.427,2.869-11.427,14.344c0,9.475,6.783,13.805,12.404,13.805c2.994,0,6.05-1.191,8.249-2.492V103.439z"/>
			</g>
		</g>
		<g>
			<path fill="#333333" d="M77.567,33.435C73.659,20.913,66.743,6.793,47.802,6.793C30.966,6.793,23,17.316,23,27.973
				c0,13.72,10.372,20.38,28.711,28.24c19.091,8.258,38.933,17.449,38.933,38.895c0,20.912-20.143,37.563-50.809,37.563
				c-9.319,0-16.835-1.465-22.549-3.195c-5.712-1.6-8.868-3.197-11.123-4.131C4.661,121.482,1.354,103.765,0,94.308l6.765-1.732
				c3.758,12.389,14.73,32.768,37.73,32.768c16.385,0,26.006-8.924,26.006-22.91c0-14.119-12.026-20.779-29.163-28.771
				C25.705,66.734,4.209,57.011,4.209,35.564C4.209,16.117,21.948,0,51.26,0c10.673,0,20.744,2.265,29.163,4.662
				c0.9,6.927,1.953,14.918,3.908,27.707L77.567,33.435z"/>
		</g>
	</g>
</g>
<g id="Layer_2">
</g>
<g id="Layer_3">
</g>
</svg>
