<?xml version="1.0" encoding="utf-8"?>
<!-- Generator: Adobe Illustrator 16.0.0, SVG Export Plug-In . SVG Version: 6.00 Build 0)  -->
<!DOCTYPE svg PUBLIC "-//W3C//DTD SVG 1.0//EN" "http://www.w3.org/TR/2001/REC-SVG-20010904/DTD/svg10.dtd">
<svg version="1.0" xmlns="http://www.w3.org/2000/svg" xmlns:xlink="http://www.w3.org/1999/xlink" x="0px" y="0px" width="637.4px"
	 height="88.997px" viewBox="0 0 637.4 88.997" enable-background="new 0 0 637.4 88.997" xml:space="preserve">
<g id="Layer_1">
	<g>
		<g>
			<path fill="#333333" d="M27.446,10.471c-1.009,0-3,0.15-5.972,0.45c-0.082,2.836-0.164,5.427-0.245,7.771c0.136,0.137,0.245,0.272,0.327,0.409
				c0.054,0.082,0.108,0.15,0.164,0.204l0.041-0.041c1.254-1.526,2.44-4.063,3.559-7.607c0.108-0.464,0.327-0.695,0.654-0.695
				c0.409,0,0.995,0.178,1.759,0.531c0.791,0.409,1.186,0.723,1.186,0.941c0,0.245-0.15,0.449-0.45,0.613
				c-0.409,0.409-0.914,1.132-1.514,2.168c1.036,0.272,2.195,0.887,3.477,1.841c0.518,0.354,0.777,0.845,0.777,1.472
				c-0.218,1.828-0.586,2.741-1.104,2.741c-0.164-0.055-0.491-0.396-0.982-1.022c-0.627-1.036-1.623-2.168-2.986-3.396
				c-0.682,1.418-1.541,2.51-2.577,3.272c-0.273,0.163-0.519,0.301-0.736,0.409c1.227,1.282,2.931,2.918,5.113,4.908
				c1.636,1.418,4.922,3.218,9.857,5.399c1.282,0.464,1.923,0.817,1.923,1.063c0,0.354-0.491,0.531-1.473,0.531
				c-1.909,0-5.004-0.272-9.285-0.817c-1.037-0.109-1.554-0.423-1.554-0.941c0.027-1.336-0.532-2.549-1.677-3.641
				c-1.991-1.826-3.518-3.149-4.581-3.967c-0.137,5.208-0.205,9.039-0.205,11.493c0,0.545,0.014,1.036,0.041,1.473
				c0.082,0.627,0.123,1.172,0.123,1.636c-0.055,0.3-0.437,0.45-1.145,0.45c-1.2,0-1.854-0.204-1.963-0.613
				c0-0.273,0.041-0.505,0.123-0.695c0.027-0.273,0.041-0.587,0.041-0.94l0.082-12.885c-2.536,2.154-4.486,3.995-5.849,5.521
				c-0.519,0.437-0.818,0.887-0.9,1.35c-0.109,0.301-0.655,0.669-1.636,1.104c-1.418,0.627-3.136,0.941-5.154,0.941
				c-0.846,0-1.268-0.164-1.268-0.491c2.863-1.336,5.44-3.108,7.731-5.317c1.854-1.608,3.395-3.19,4.622-4.745
				c-0.082-0.108-0.177-0.218-0.286-0.327c-0.546-0.899-1.432-1.867-2.659-2.903c-0.709,1.527-1.595,2.672-2.659,3.436
				c-1.063,0.628-1.746,0.968-2.045,1.022c-0.301,0-0.45-0.149-0.45-0.45c0-0.163,0.246-0.627,0.736-1.391
				c1.336-1.554,2.604-4.117,3.804-7.689c-0.382,0.137-0.709,0.272-0.982,0.409c-0.273,0-0.654-0.354-1.145-1.063
				c-0.519-0.981-0.777-1.568-0.777-1.759c0-0.327,0.259-0.532,0.777-0.614c1.581-0.081,3.626-0.422,6.135-1.022
				c0.708-0.108,1.432-0.231,2.168-0.368l0.041-5.48c0-0.354-0.096-0.75-0.286-1.187c0-0.163,0.095-0.327,0.286-0.49
				c0.272-0.19,0.777-0.287,1.514-0.287c0.436,0,1.008,0.097,1.718,0.287c0.463,0.272,0.695,0.49,0.695,0.654
				c0,0.272-0.082,0.695-0.245,1.268c-0.273,1.037-0.45,2.604-0.532,4.704c0.327-0.055,0.667-0.108,1.022-0.164
				c1.745-0.108,3.231-0.368,4.458-0.777c0.791-0.299,1.404-0.449,1.84-0.449c0.491,0,1.036,1.146,1.636,3.436
				c-0.055,0.327-0.313,0.491-0.777,0.491L27.446,10.471z M17.466,19.02c0.218-0.19,0.491-0.286,0.818-0.286l0.082-7.403
				c-1.691,0.272-3.218,0.641-4.581,1.104c0.245,0.081,0.504,0.178,0.777,0.286c0.763,0.382,1.146,0.682,1.146,0.899
				c0,0.219-0.164,0.409-0.491,0.573c-0.464,0.49-1.009,1.309-1.636,2.454c0.954,0.19,2.031,0.709,3.231,1.554
				C17.193,18.42,17.411,18.692,17.466,19.02z"/>
			<path fill="#333333" d="M72.448,4.908c0.381,0.109,0.818,1.159,1.309,3.149c-0.055,0.219-0.341,0.368-0.859,0.45
				c-1.091,0.327-2.1,0.627-3.026,0.899c-0.818,0.409-1.528,0.981-2.127,1.718c-0.818,0.9-1.882,1.882-3.19,2.945
				c0,0.354,0.177,0.532,0.532,0.532c2.291-0.409,3.653-0.736,4.09-0.982c1.063-0.954,2.045-1.458,2.945-1.513
				c1.118,0,2.045,0.559,2.781,1.677c0.845,1.363,1.268,2.604,1.268,3.722c-0.027,0.355-0.286,0.532-0.777,0.532
				c-0.518,0-1.323-0.231-2.413-0.695c-0.981-0.3-1.5-0.559-1.554-0.777c0.108-0.136,0.368-0.313,0.777-0.532
				c1.036-0.545,1.555-1.09,1.555-1.636c0-0.79-0.382-1.213-1.146-1.268c-0.437,0-0.859,0.163-1.268,0.49
				c-0.464,0.383-0.695,0.71-0.695,0.982c0.027,0.518,0.123,0.995,0.287,1.431c-0.028,0.355-0.232,0.587-0.614,0.696
				c-0.437,0-0.941,0.055-1.513,0.163c-0.109,1.282-0.191,2.55-0.246,3.804c1.2-0.245,2.495-0.531,3.886-0.858
				c0.409,0,0.614,0.654,0.614,1.963c0,0.301-0.314,0.56-0.941,0.777c-1.364,0.519-2.591,0.914-3.681,1.187
				c-0.028,1.145-0.055,2.236-0.082,3.271c1.99-0.681,3.544-1.131,4.663-1.35c0.927-0.19,1.432-0.286,1.513-0.286
				c0.218,0,0.327,0.109,0.327,0.327c0,0.055-0.327,0.313-0.981,0.777c-3.19,1.937-6.231,3.559-9.122,4.867
				c-1.009,0.464-1.922,0.995-2.74,1.596c-0.3,0.381-0.6,0.572-0.9,0.572c-0.246,0-0.846-0.368-1.8-1.104
				c-0.846-0.817-1.268-1.417-1.268-1.8c0-0.136,0.164-0.368,0.491-0.695c2.59-0.709,4.772-1.336,6.545-1.881l0.041-3.6
				c-1.037,0.245-2.195,0.613-3.477,1.104c-0.382,0-0.723-0.396-1.022-1.187c-0.191-0.545-0.287-1.091-0.287-1.636
				c0-0.3,0.205-0.45,0.614-0.45c0.654-0.082,2.059-0.368,4.213-0.859l0.041-3.722c-1.855,0.6-3.123,1.05-3.804,1.35
				c-0.382,0.272-0.695,0.409-0.94,0.409c-0.219,0-0.655-1.2-1.309-3.6c0-0.436,0.231-0.75,0.695-0.94
				c1.008-0.327,1.881-0.982,2.618-1.964c0.736-0.954,1.35-1.772,1.841-2.454c-1.309,0.164-2.25,0.382-2.822,0.654
				c-0.382,0-0.695-0.681-0.941-2.045c-0.109-0.736-0.178-1.254-0.205-1.555c0.027-0.409,0.231-0.64,0.614-0.695
				c3.981-0.136,7.322-0.654,10.021-1.554C71.684,5.1,72.175,4.963,72.448,4.908z M85.332,2.127C87.977,2.536,89.3,2.973,89.3,3.436
				c0,0.272-0.068,0.669-0.205,1.187c-0.219,0.709-0.423,2.345-0.613,4.908c-0.437,3.381-0.655,9.681-0.655,18.897
				c0.055,2.317,0.313,4.689,0.777,7.116c0,0.682-0.15,1.05-0.45,1.104c-0.654,0-1.745-0.546-3.272-1.636
				c-1.254-1.009-2.468-1.718-3.641-2.127c-1.227-0.491-2.699-1.418-4.417-2.781c0.055-0.382,0.341-0.6,0.859-0.654
				c2.918,0.899,4.977,1.35,6.177,1.35c0.572,0,0.913-0.354,1.022-1.063c0.164-1.172,0.259-7.09,0.286-17.752
				c0-2.127-0.096-4.391-0.286-6.79c-0.219-1.254-0.327-1.936-0.327-2.045C84.582,2.468,84.841,2.127,85.332,2.127z M78.46,10.962
				c1.663,0,2.495,0.286,2.495,0.858c-0.137,0.409-0.232,1.01-0.286,1.8c-0.273,4.882-0.409,7.813-0.409,8.794
				c0,0.437-0.478,0.655-1.432,0.655c-0.818,0-1.254-0.109-1.309-0.327c-0.055-1.8-0.109-5.495-0.164-11.085
				C77.356,11.193,77.724,10.962,78.46,10.962z"/>
			<path fill="#333333" d="M124.607,22.578l0.941,0.164c3.708-0.6,6.489-0.955,8.344-1.063c1.363-0.164,2.072-0.246,2.127-0.246
				c0.654,0,1.391,0.301,2.208,0.9c0.736,0.572,1.104,1.104,1.104,1.595c0,0.109-0.178,0.286-0.532,0.532
				c-0.464,0.409-1.241,1.827-2.332,4.254c-0.246,0.627-0.491,0.981-0.736,1.063c-0.382,0-0.832-0.149-1.35-0.45
				c-3.027,0.409-4.813,0.736-5.358,0.981c0.272,0.056,0.559,0.123,0.859,0.205c2.836,0.899,6.449,1.499,10.839,1.8
				c3.763,0.3,6.23,0.831,7.403,1.595c0.218,0.136,0.327,0.3,0.327,0.491c-2.509,1.391-5.89,2.086-10.144,2.086
				c-0.982-0.082-1.759-0.342-2.332-0.777c-0.955-0.928-2.441-1.704-4.458-2.331c-3.845-1.2-7.635-1.8-11.371-1.8
				c-1.991,0-3.627,0.271-4.908,0.817c-0.682,0.327-1.173,0.491-1.473,0.491c-0.546,0-1.119-0.409-1.718-1.228
				c-0.382-0.681-0.573-1.131-0.573-1.35c0-0.354,0.218-0.531,0.654-0.531c1.363,0,2.741-0.096,4.131-0.286
				c0.409-0.409,0.613-0.859,0.613-1.351c0-0.409-0.45-1.24-1.35-2.495c-0.6-0.763-0.9-2.331-0.9-4.703c0-0.709-0.45-1.2-1.35-1.473
				c-0.409-0.055-0.614-0.218-0.614-0.491c0.164-0.409,1.022-0.613,2.577-0.613c2.291,0.272,3.436,0.818,3.436,1.636
				c0,0.137-0.218,0.396-0.654,0.777c-0.764,0.873-1.146,1.636-1.146,2.291c0.109,1.8,0.982,3.381,2.618,4.744
				c0.545,0.71,0.818,1.104,0.818,1.187s0,0.137,0,0.163c2.1,0.028,4.281,0.246,6.544,0.655c-0.546-0.6-1.078-1.459-1.595-2.577
				c-0.9-1.8-1.35-3.013-1.35-3.641C123.912,22.919,124.144,22.578,124.607,22.578z M116.263,8.385
				c0.3,0.027,0.504,0.354,0.613,0.981c0.136,1.31,0.518,2.318,1.146,3.027c0.545,0.6,0.818,1.336,0.818,2.209
				c0,0.518-0.423,0.776-1.268,0.776c-0.818,0-1.8-0.354-2.945-1.063c-0.573-0.409-0.859-0.858-0.859-1.35
				c0-0.654,0.354-1.636,1.063-2.945C115.349,8.931,115.827,8.385,116.263,8.385z M139.169,11.493c-1.282,0-4.077,0.178-8.385,0.532
				c-3.3,0.382-6.135,1.009-8.508,1.881c-0.246,0-0.559-0.299-0.941-0.899c-0.464-0.845-0.695-1.35-0.695-1.514
				c0-0.245,0.231-0.422,0.695-0.531c1.582-0.055,3.641-0.341,6.177-0.859c1.963-0.3,4.131-0.627,6.503-0.981
				c1.772-0.108,3.299-0.341,4.581-0.695c0.791-0.245,1.417-0.368,1.881-0.368c0.436,0,0.982,1.036,1.636,3.108
				c-0.055,0.327-0.341,0.491-0.859,0.491L139.169,11.493z M136.347,13.13c0.463,0.055,0.695,0.546,0.695,1.473
				c0,0.408-0.341,0.668-1.022,0.776c-1.009,0.082-2.155,0.246-3.436,0.491c-1.091,0.191-2.1,0.327-3.027,0.409
				c-1.282,0.109-2.618,0.313-4.008,0.613c-0.355,0-0.56-0.504-0.614-1.514c0-0.436,0.259-0.763,0.777-0.981
				C132.528,13.579,136.074,13.157,136.347,13.13z M136.51,17.179c0.463,0.082,0.695,0.587,0.695,1.514
				c0,0.409-0.341,0.669-1.022,0.777c-1.009,0.082-2.155,0.259-3.436,0.531c-1.091,0.164-2.086,0.286-2.986,0.368
				c-1.309,0.109-2.659,0.301-4.049,0.573c-0.355,0-0.56-0.491-0.614-1.473c0-0.437,0.259-0.75,0.777-0.941
				C132.692,17.656,136.237,17.206,136.51,17.179z M128.984,27.527c0.518,0,1.882-0.163,4.09-0.491
				c0.327-0.054,0.573-0.218,0.736-0.49c0.272-0.491,0.409-0.981,0.409-1.473c0-0.872-0.205-1.309-0.614-1.309
				c-0.818,0-1.909,0.109-3.272,0.327c-1.773,0.327-2.659,0.654-2.659,0.981C127.784,26.709,128.22,27.527,128.984,27.527z
				 M131.274,1.35c0.436,0.027,0.722,0.354,0.859,0.981c0.136,1.091,0.491,1.937,1.063,2.536c0.6,0.491,0.9,1.104,0.9,1.841
				c0,0.572-0.505,0.858-1.513,0.858c-0.846,0-1.854-0.381-3.027-1.145c-0.573-0.464-0.859-0.968-0.859-1.514
				c0-0.464,0.368-1.228,1.104-2.291C130.347,1.772,130.838,1.35,131.274,1.35z"/>
			<path fill="#333333" d="M178.075,10.635c0.246,0,0.573,0.409,0.982,1.227c0.327,0.846,0.491,1.432,0.491,1.759c0,0.164-0.164,0.383-0.491,0.654
				c-0.682,0.683-1.5,1.555-2.454,2.618c0.818,0.027,1.745,0.082,2.781,0.164c0.409,0.218,0.614,0.545,0.614,0.981
				c-0.164,1.527-0.478,2.29-0.941,2.29c-0.164-0.054-0.437-0.218-0.818-0.49c-0.437-0.437-1.091-0.873-1.963-1.31
				c0,0.082-0.028,0.246-0.082,0.491c-0.109,0.437-0.178,1.104-0.205,2.004c1.063,0.164,2.25,0.628,3.559,1.391
				c0.409,0.246,0.614,0.587,0.614,1.023c-0.191,1.527-0.505,2.29-0.941,2.29c-0.164-0.054-0.464-0.327-0.9-0.818
				c-0.491-0.681-1.282-1.432-2.373-2.249c-0.109,4.391-0.164,7.362-0.164,8.917c0,0.518,0.014,0.967,0.041,1.35
				c0.082,0.572,0.123,1.063,0.123,1.473c-0.055,0.19-0.45,0.286-1.186,0.286c-1.091,0-1.691-0.096-1.8-0.286
				c0-0.273,0.082-0.519,0.246-0.736c0.054-0.246,0.082-0.546,0.082-0.9l0.287-12.312c-2.209,2.536-3.654,4.24-4.336,5.113
				c-0.464,0.518-1.173,0.776-2.127,0.776c-1.445-0.19-2.168-0.449-2.168-0.776c0-0.164,0.231-0.396,0.696-0.695
				c2.754-1.854,5.099-4.022,7.035-6.504c1.09-1.254,1.636-2.031,1.636-2.332c0-0.518-0.232-0.776-0.695-0.776
				c-0.519,0-1.991,0.572-4.418,1.718c-0.518,0.354-0.899,0.531-1.145,0.531c-0.354,0-0.654-0.531-0.9-1.595
				c-0.137-0.545-0.205-1.05-0.205-1.514c0-0.382,0.368-0.641,1.104-0.777c4.581-0.709,7.512-1.458,8.794-2.249
				C177.503,10.88,177.912,10.635,178.075,10.635z M175.621,1.636c0.327,0.055,0.545,0.396,0.655,1.022
				c0.164,1.228,0.667,2.168,1.513,2.822c0.709,0.573,1.063,1.269,1.063,2.086c0,0.546-0.423,0.818-1.268,0.818
				c-0.981,0-2.127-0.368-3.436-1.104c-0.682-0.409-1.023-0.858-1.023-1.35c0-0.6,0.354-1.527,1.063-2.781
				C174.708,2.141,175.185,1.636,175.621,1.636z M180.489,9.162l1.145,0.204c5.154-0.79,9.012-1.24,11.576-1.35
				c1.908-0.19,2.904-0.286,2.986-0.286c0.6,0,1.309,0.272,2.127,0.818c0.655,0.545,0.982,1.036,0.982,1.472
				c0,0.219-0.219,0.56-0.655,1.023c-0.572,0.682-1.541,3.23-2.904,7.648c-0.327,1.146-0.654,1.786-0.982,1.923
				c-0.409,0-0.845-0.15-1.309-0.45c-1.255,0.137-2.346,0.245-3.272,0.327v2.904c1.581-0.218,3.327-0.437,5.236-0.654
				c0.409,0,0.613,0.654,0.613,1.963c0,0.327-0.313,0.613-0.94,0.859c-1.909,0.327-3.545,0.559-4.909,0.695v3.231
				c2.754-0.3,5.236-0.559,7.444-0.777c0.463-0.137,0.968-0.205,1.514-0.205c0.19,0.546,0.423,1.078,0.695,1.596
				c0.464,0.817,0.736,1.595,0.817,2.331c-0.081,0.354-0.244,0.559-0.49,0.614c-0.164,0-0.709-0.15-1.636-0.45
				c-1.037-0.327-1.978-0.491-2.822-0.491c-2.264,0-5.304,0.123-9.122,0.368c-3.354,0.218-5.863,0.518-7.526,0.9
				c-0.327,0-0.654-0.859-0.982-2.577l0.614-0.164h1.146c2.618-0.271,5.072-0.545,7.362-0.817c-0.027-0.954-0.041-2.046-0.041-3.272
				c-1.2,0.163-2.536,0.382-4.008,0.654c-0.382,0-0.723-0.341-1.022-1.022c-0.219-0.518-0.328-1.009-0.328-1.473
				c0-0.327,0.231-0.491,0.696-0.491c0.681-0.054,2.222-0.204,4.622-0.449V20.86c-1.254,0.163-2.045,0.313-2.372,0.45
				c-0.6,0.218-1.037,0.327-1.309,0.327c-0.627-0.082-1.405-1.937-2.332-5.563c-0.736-2.89-1.104-4.867-1.104-5.931
				C179.998,9.489,180.162,9.162,180.489,9.162z M184.292,18.692c0.518,0,1.445-0.055,2.782-0.164v-2.781
				c-0.682,0.082-1.391,0.178-2.127,0.286c-0.491,0-0.777-0.545-0.859-1.636c0-0.518,0.327-0.886,0.981-1.104
				c0.736-0.054,1.404-0.108,2.004-0.163c-0.028-0.9-0.041-1.8-0.041-2.7c-2.4,0.409-3.6,0.764-3.6,1.063
				C183.488,16.293,183.774,18.692,184.292,18.692z M190.183,10.062v2.822c1.609-0.163,2.468-0.259,2.577-0.286
				c0.463,0.082,0.695,0.628,0.695,1.637c0,0.518-0.396,0.858-1.187,1.022c-0.627,0.027-1.323,0.096-2.086,0.204v2.781
				c0.681-0.054,1.377-0.122,2.086-0.204c0.627-0.137,1.104-0.668,1.432-1.596c0.573-1.771,0.859-3.6,0.859-5.48
				c0-0.736-0.218-1.104-0.654-1.104C192.923,9.857,191.682,9.926,190.183,10.062z"/>
			<path fill="#333333" d="M230.071,4.785c0.3,0,0.859,0.301,1.678,0.9c0.6,0.736,0.899,1.295,0.899,1.677c0,0.301-0.313,0.736-0.94,1.309
				c-0.573,0.601-1.105,1.405-1.596,2.413c-0.409,0.764-0.996,1.664-1.759,2.7c1.091-0.327,2.14-0.491,3.149-0.491
				c0.654,0,1.581,0.109,2.781,0.327c0.9,0.164,1.35,0.491,1.35,0.982c-0.027,0.108-0.082,0.341-0.163,0.695
				c-0.137,0.709-0.231,1.854-0.286,3.436c-0.137,3.845-0.328,6.845-0.572,8.998c-0.082,0.982-0.164,1.95-0.246,2.904
				c-0.027,0.519-0.096,0.777-0.205,0.777c-0.218,0-0.832-0.313-1.84-0.94c-0.791-0.437-1.568-1.146-2.332-2.127
				c-0.899,0.464-1.65,0.764-2.25,0.899c-0.463,0.082-1.008,0.26-1.635,0.532c0,0.354-0.601,0.587-1.801,0.695
				c-0.219,0-0.49-1.596-0.818-4.786c-0.3-3.49-0.449-6.967-0.449-10.43c0-0.327,0.259-0.491,0.777-0.491
				c0.218,0,0.695,0.123,1.432,0.368c0.271-0.136,0.545-0.286,0.818-0.45c0.081-0.081,0.148-0.177,0.204-0.286
				c1.554-4.99,2.536-7.989,2.944-8.999C229.595,4.99,229.88,4.785,230.071,4.785z M225.899,26.26
				c0.981-0.082,2.536-0.259,4.663-0.532c0.272,0,0.423,0.56,0.45,1.677c0.245,0.082,0.408,0.123,0.49,0.123
				c0.219,0,0.354-0.463,0.409-1.391c0.19-2.454,0.286-4.881,0.286-7.28c-0.055-2.1-0.709-3.15-1.963-3.15
				c-0.465,0-1.146,0.15-2.045,0.45c-0.628,0.273-1.351,0.805-2.168,1.596c-0.109,0.954-0.178,1.772-0.205,2.454
				c1.036-0.109,2.563-0.3,4.581-0.573c0.3,0,0.45,0.601,0.45,1.8c0,0.273-0.327,0.505-0.982,0.695
				c-0.954,0.355-1.771,0.587-2.453,0.695c-0.465,0.056-0.996,0.205-1.596,0.45C225.845,24.146,225.872,25.142,225.899,26.26z
				 M243.283,3.149c0.681,0.027,1.444,0.3,2.29,0.817c0.654,0.519,0.982,0.996,0.982,1.432c0,0.109-0.096,0.219-0.287,0.328
				c-0.873,0.6-2.113,2.331-3.722,5.194c-0.464,0.791-0.914,1.527-1.35,2.209c1.228-0.164,2.521-0.396,3.886-0.695
				c2.427-0.409,4.172-0.614,5.235-0.614c2.1,0.273,3.149,0.764,3.149,1.473c0,0.164-0.273,0.505-0.818,1.022
				c-0.408,0.601-0.641,1.814-0.695,3.641c-0.137,3.108-0.463,5.972-0.981,8.59c-0.546,2.755-1.104,4.663-1.677,5.727
				c-0.627,1.063-1.132,1.908-1.514,2.536c-0.137,0.599-0.437,0.899-0.9,0.899c-0.735-0.354-1.568-0.587-2.494-0.695
				c-0.764-0.327-1.868-1.063-3.313-2.209c-1.581-0.981-2.85-2.304-3.804-3.968c0-0.218,0.164-0.327,0.49-0.327
				c2.509,1.718,4.404,2.577,5.686,2.577c1.5-0.082,2.632-1.063,3.396-2.945c1.009-3.408,1.513-6.462,1.513-9.162
				c0-3.163-0.75-4.744-2.249-4.744c-1.473,0-3.709,0.49-6.708,1.472c-0.082,0-0.137-0.013-0.164-0.04
				c-0.654,0.764-1.281,1.404-1.881,1.922c-0.846,0.628-1.364,0.94-1.555,0.94c-0.219,0-0.327-0.108-0.327-0.327
				c1.2-2.672,2.522-5.167,3.968-7.485c0.791-1.554,1.703-3.694,2.74-6.421C242.479,3.531,242.847,3.149,243.283,3.149z
				 M238.906,18.528c0.464,0.056,0.899,0.205,1.31,0.45c0.709,0.354,1.636,0.682,2.781,0.981c0.763,0.164,1.145,0.601,1.145,1.31
				c-0.027,0.437-0.055,0.954-0.082,1.554c0,0.683-0.108,1.31-0.326,1.882c-0.219,0.464-0.465,0.695-0.736,0.695
				c-0.818,0-1.473-0.477-1.964-1.432c-0.954-2.235-1.69-3.612-2.208-4.131c-0.41-0.327-0.614-0.614-0.614-0.859
				C238.211,18.761,238.442,18.61,238.906,18.528z"/>
			<path fill="#333333" d="M298.429,7.894c1.99,0.109,3.6,0.683,4.826,1.719c2.318,2.235,3.477,3.572,3.477,4.008c0,0.437-0.245,0.764-0.736,0.982
				c-0.627,0.218-1.377,0.545-2.249,0.981c-0.573,0.409-1.146,0.613-1.718,0.613c-2.755,0-4.131-0.272-4.131-0.818
				c0-0.108,0.367-0.368,1.104-0.776c1.691-0.955,2.577-2.223,2.659-3.805c-0.191-0.736-1.05-1.104-2.577-1.104
				c-0.9,0.056-2.441,0.327-4.622,0.818c-0.736,0.164-1.513,0.368-2.331,0.613c0.518,0.491,0.804,0.818,0.859,0.982
				c0,0.218-0.191,0.382-0.573,0.49c-0.082,0.055-0.163,0.137-0.245,0.245c0.082,0.056,0.136,0.097,0.163,0.123
				c2.427,1.582,4.186,2.55,5.276,2.904c0.654,0.137,0.982,0.368,0.982,0.695c0,0.055-0.123,0.204-0.369,0.45
				c-0.219,0.137-0.654,0.654-1.309,1.554c-0.709,0.818-1.596,1.678-2.658,2.577c1.117,0.791,2.235,1.609,3.354,2.454
				c1.146,0.846,2.563,1.582,4.254,2.209c3.054,1.009,5.372,1.963,6.953,2.863c1.119,0.6,1.678,1.022,1.678,1.268
				c0,0.464-0.969,0.695-2.904,0.695c-1.118,0-2.127-0.163-3.027-0.49c-1.336-0.246-2.891-0.396-4.662-0.45
				c-0.109,0-0.191-0.014-0.246-0.041c-0.055,0.409-0.204,0.75-0.449,1.022c-1.037,1.281-1.732,3.068-2.086,5.358
				c-0.164,0.409-0.396,0.613-0.695,0.613c-0.191,0-0.654-0.149-1.391-0.449c-0.791-0.219-1.637-0.327-2.537-0.327
				c-0.6,0-1.5,0.177-2.699,0.531c-0.572,0.382-1.022,0.572-1.35,0.572s-0.572-0.19-0.736-0.572
				c-0.408-0.981-0.887-1.896-1.432-2.74c-0.682-1.01-1.145-1.937-1.391-2.781c-0.245-0.546-0.368-0.927-0.368-1.146
				c-2.536,0.818-4.949,1.227-7.239,1.227c-1.201-0.054-1.801-0.218-1.801-0.49c0-0.164,0.232-0.341,0.695-0.532
				c3.109-0.954,6.203-2.536,9.285-4.744c1.801-1.146,3.396-2.44,4.786-3.886c-0.899-0.464-1.813-0.9-2.741-1.31
				c-0.6-0.327-0.927-0.6-0.98-0.817c-0.41,0.545-0.736,1.186-0.982,1.922c-0.219,0.791-0.899,1.187-2.045,1.187
				c-1.5,0-2.25-0.108-2.25-0.327c0-0.409,0.341-0.873,1.023-1.391c1.689-1.091,3.258-2.7,4.703-4.827
				c1.146-1.526,2.004-2.822,2.577-3.886c-1.173,0.383-2.372,0.805-3.6,1.269c-0.3,0-0.776-0.777-1.432-2.332
				c0-0.19,0.259-0.354,0.777-0.49c1.827-0.219,3.681-0.655,5.563-1.31C293.152,8.262,295.675,7.894,298.429,7.894z M283.499,11.657
				c0.109,0.082,0.164,0.231,0.164,0.45c0,0.081-0.055,0.245-0.164,0.49c-0.654,1.854-0.981,3.436-0.981,4.745
				c0,0.327-0.26,0.49-0.777,0.49c-0.71,0-1.568-0.259-2.577-0.776c-0.682-0.437-1.022-0.777-1.022-1.023
				c0-0.299,1.54-1.636,4.622-4.008C283.09,11.779,283.335,11.657,283.499,11.657z M294.298,26.873c1.391,0,2.617,0.286,3.681,0.858
				c-0.272-1.035-0.899-1.908-1.882-2.617c-1.09-0.872-2.29-1.704-3.6-2.495c-1.199,0.955-2.549,1.963-4.049,3.026
				c-0.846,0.519-1.486,1.378-1.922,2.577v0.041C289.935,27.337,292.524,26.873,294.298,26.873z M289.921,33.908
				c1.309,0,2.658-0.382,4.049-1.146c0.354-0.137,0.627-0.449,0.818-0.94c0.246-0.545,0.368-1.05,0.368-1.514
				c0-0.872-0.396-1.309-1.187-1.309c-1.336,0-2.944,0.354-4.826,1.063c-0.464,0.327-0.695,0.723-0.695,1.187
				c0,0.354,0.178,1.008,0.531,1.963C289.116,33.677,289.431,33.908,289.921,33.908z M288.571,17.261
				c0.108,0.082,0.177,0.137,0.204,0.164c0.954,0.764,1.99,1.459,3.108,2.086c0.109-0.082,0.178-0.149,0.205-0.205
				c1.172-1.363,1.759-2.276,1.759-2.74c0-0.3-0.272-0.6-0.818-0.899c-0.71-0.328-1.568-0.559-2.577-0.696
				C289.907,15.788,289.28,16.552,288.571,17.261z M291.188,0c0.328,0.137,0.641,0.572,0.941,1.309
				c0.381,0.709,0.913,1.364,1.595,1.963c0.655,0.792,1.009,1.609,1.063,2.455c-0.082,0.764-0.449,1.145-1.104,1.145
				c-1.037-0.3-2.005-0.518-2.904-0.654c-0.928-0.108-1.391-0.695-1.391-1.759c0-1.417,0.23-2.59,0.695-3.518
				C290.438,0.396,290.807,0.081,291.188,0z"/>
			<path fill="#333333" d="M346.171,5.931c0.518,0,1.391,0.423,2.617,1.268c1.172,0.873,1.76,1.473,1.76,1.8s-0.15,0.56-0.45,0.695
				c-1.745,0.628-3.067,1.391-3.968,2.291c-0.682,0.682-1.295,1.323-1.841,1.922c0.763,1.255,2.836,3.272,6.218,6.054
				c4.227,3.354,7.484,5.563,9.775,6.627c1.637,0.627,3.027,1.377,4.172,2.249c0.9,0.519,1.35,0.941,1.35,1.269
				c-0.082,0.354-0.477,0.531-1.186,0.531c-3.764,0-6.968-0.231-9.612-0.695c-1.527-0.381-2.346-0.995-2.454-1.841
				c0-1.227-0.273-2.112-0.818-2.658c-2.045-2.672-4.949-5.181-8.713-7.526c-0.6-0.3-1.021-0.586-1.268-0.858
				c-0.191,0.245-0.354,0.464-0.49,0.654c-2.072,3-3.777,5.304-5.113,6.912c-1.5,1.773-2.809,3.491-3.927,5.154
				c-0.628,0.791-1.269,1.186-1.923,1.186c-0.436,0-0.98-0.122-1.636-0.368c-0.572-0.136-0.858-0.408-0.858-0.817
				c0-0.3,0.163-0.505,0.49-0.614c0.955-0.354,1.854-1.309,2.699-2.862c3-5.399,5.945-9.599,8.836-12.599
				c2.672-2.999,4.443-5.372,5.316-7.117C345.476,6.149,345.815,5.931,346.171,5.931z"/>
			<path fill="#333333" d="M389.823,15.257c0.217,0.109,0.326,0.313,0.326,0.613c0,0.137-0.096,0.437-0.286,0.899
				c-0.899,3.272-1.35,6.095-1.35,8.468c0,0.408-0.286,0.613-0.858,0.613c-0.846,0-1.896-0.327-3.15-0.981
				c-0.818-0.546-1.227-0.968-1.227-1.269c0-0.6,1.867-3.136,5.604-7.607C389.263,15.502,389.577,15.257,389.823,15.257z
				 M392.563,14.07c0.545,0,1.24,0.191,2.086,0.572c0.49,0.246,0.736,0.546,0.736,0.9c0,0.709-0.082,1.568-0.246,2.577
				c-0.055,1.254-0.082,2.672-0.082,4.254c0,0.6,0.232,1.254,0.695,1.963c1.037,1.418,3.381,2.127,7.035,2.127
				c2.209,0,3.873-0.245,4.99-0.736c0.655-0.3,0.982-0.804,0.982-1.514c0-0.708-0.137-1.636-0.409-2.781
				c-0.272-1.227-0.791-2.849-1.554-4.867c0-0.108,0.107-0.164,0.326-0.164c0.518,0,1.322,0.777,2.414,2.332
				c0.845,1.173,1.526,2.55,2.045,4.131c0.518,1.609,0.818,2.932,0.9,3.968c0.026,0.873,0.107,1.568,0.244,2.086
				c0.109,0.546,0.164,1.01,0.164,1.391c0,0.628-0.286,0.941-0.859,0.941c-0.518,0-1.309-0.109-2.371-0.328
				c-1.174-0.136-3.301-0.204-6.381-0.204c-4.01,0-6.846-0.886-8.508-2.658c-1.283-1.392-2.02-3.886-2.209-7.485
				c-0.109-1.99-0.314-3.927-0.613-5.809C391.95,14.303,392.153,14.07,392.563,14.07z M397.962,14.397
				c0.272,0,0.641,0.068,1.104,0.205c0.6,0.218,1.173,0.327,1.718,0.327c0.818,0,2.209-0.859,4.172-2.577
				c1.31-1.146,2.154-1.718,2.537-1.718c0.326,0,0.49,0.109,0.49,0.327c0,0.3-0.301,0.695-0.9,1.186
				c-0.654,0.818-1.622,2.195-2.903,4.132c-0.899,1.445-1.923,2.249-3.067,2.413c-0.628,0-1.446-0.354-2.455-1.063
				c-0.764-1.118-1.145-2.018-1.145-2.699C397.513,14.575,397.661,14.397,397.962,14.397z M413.505,12.271
				c0.546,0.219,1.064,0.805,1.555,1.759c0.709,0.981,1.622,1.909,2.74,2.781c1.118,1.063,1.719,2.183,1.801,3.354
				c-0.056,0.519-0.342,0.777-0.859,0.777c-1.582-0.709-3.041-1.228-4.377-1.555c-1.445-0.272-2.168-1.649-2.168-4.131
				c0-0.954,0.178-1.731,0.531-2.332C413.001,12.544,413.26,12.325,413.505,12.271z"/>
			<path fill="#333333" d="M445.091,12.598c0.271,0,0.463,0.082,0.572,0.245c2.154-0.545,4.73-1.049,7.73-1.513l-0.123-7.73
				c0-0.382-0.122-0.805-0.367-1.269c0-0.218,0.136-0.422,0.408-0.613c0.328-0.245,0.914-0.368,1.76-0.368
				c0.545,0,1.24,0.109,2.086,0.327c0.545,0.327,0.817,0.6,0.817,0.818c0,0.245-0.068,0.654-0.204,1.227
				c-0.273,1.091-0.45,2.809-0.532,5.154c-0.027,0.654-0.04,1.295-0.04,1.922c3.354-0.327,6.135-0.49,8.344-0.49
				c0.654,0,1.677,0.396,3.067,1.186c1.555,0.736,2.331,1.337,2.331,1.8c0,0.219-0.313,0.628-0.939,1.228
				c-0.765,1.063-1.938,3.6-3.519,7.607c-0.19,0.601-0.654,0.996-1.391,1.187c-0.573,0.191-1.077,0.286-1.513,0.286
				c-0.792,0-1.256-0.149-1.391-0.45c-2.073,0.137-3.846,0.273-5.318,0.409c-0.109,5.018-0.164,8.726-0.164,11.126
				c0,0.627,0.027,1.187,0.082,1.677c0.164,0.709,0.246,1.295,0.246,1.759c-0.082,0.327-0.531,0.491-1.35,0.491
				c-1.282,0-1.978-0.205-2.086-0.613c0-0.301,0.041-0.56,0.122-0.777c0.026-0.273,0.041-0.614,0.041-1.022l-0.204-12.23
				c-0.355,0.055-0.669,0.109-0.941,0.164c-2.182,0.382-3.586,0.764-4.213,1.145c-0.709,0.383-1.322,0.573-1.84,0.573
				c-0.301,0-0.547-0.327-0.736-0.981c-0.355-1.009-0.818-1.923-1.391-2.741c-0.547-0.736-1.023-1.841-1.432-3.313
				c-0.71-1.827-1.064-3.518-1.064-5.072c0-0.409,0.341-0.668,1.023-0.777C443.673,12.911,444.381,12.789,445.091,12.598z
				 M453.517,21.023l-0.082-7.239c-1.527,0.245-3,0.559-4.418,0.94c-1.363,0.546-2.372,0.887-3.026,1.022
				c0.108,2.019,0.396,3.75,0.858,5.195c0.301,0.464,0.75,0.695,1.35,0.695c0.437,0,1.418-0.109,2.945-0.327
				C451.935,21.201,452.726,21.105,453.517,21.023z M462.965,20.492c1.499-4.227,2.249-6.518,2.249-6.872
				c0-0.681-0.381-1.022-1.145-1.022c-2.4,0.137-4.718,0.342-6.953,0.613c-0.055,2.755-0.109,5.25-0.164,7.485
				C458.97,20.561,460.974,20.492,462.965,20.492z"/>
			<path fill="#333333" d="M17.834,56.97c0.327,0.082,0.695,0.968,1.104,2.658c-0.028,0.164-0.246,0.273-0.655,0.327
				c-1.172,0.464-2.236,0.859-3.19,1.187c-0.055,1.091-0.082,1.95-0.082,2.577c0,0.49,0.013,0.927,0.041,1.309
				c0.19-0.026,0.34-0.055,0.45-0.082c1.854-2.208,3.381-4.362,4.581-6.463c0.136-0.327,0.477-0.49,1.022-0.49
				c0.136,0,0.532,0.178,1.187,0.531c0.518,0.327,0.777,0.519,0.777,0.573c0,0.327-0.313,0.764-0.94,1.309
				c-1.446,1.473-2.768,2.85-3.968,4.131c0.818-0.163,1.541-0.368,2.168-0.613c0.818-0.354,1.445-0.531,1.881-0.531
				c0.491,0,1.036,1.145,1.636,3.436c-0.055,0.327-0.314,0.491-0.777,0.491l-2.331-0.164c-0.955,0-2.755,0.164-5.399,0.491
				c-0.791,0.954-1.527,1.854-2.209,2.699c2.427-0.627,3.886-0.94,4.377-0.94c0.818,0,1.663,0.122,2.536,0.368
				c0.709,0.245,1.063,0.518,1.063,0.817c-0.027,0.109-0.068,0.301-0.123,0.573c-0.137,0.6-0.218,3.927-0.245,9.98
				c-0.028,1.254-0.137,1.881-0.328,1.881c-0.218,0-0.723-0.178-1.513-0.531c-0.9-0.354-1.841-0.873-2.822-1.555
				c-0.164,0.055-0.287,0.096-0.368,0.123c-0.464,0.055-0.968,0.191-1.514,0.409c-0.491,0.163-0.94,0.271-1.35,0.327
				c-0.573,0.108-1.145,0.3-1.718,0.572c-0.546,0-0.873-0.587-0.982-1.759c-0.082-0.19-0.15-0.382-0.205-0.572
				c-0.218-1.5-0.354-2.877-0.409-4.132c-0.437,0.383-1.037,0.777-1.8,1.187c-1.963,1.118-4.281,1.677-6.954,1.677
				C0.259,78.771,0,78.648,0,78.402c4.227-2.235,7.99-5.194,11.29-8.876c0.518-0.518,1.008-1.022,1.473-1.513
				c-0.137,0-0.26,0.014-0.368,0.041c-3.3,0.654-6.122,1.704-8.467,3.149c-0.327,0-0.764-0.368-1.309-1.104
				C2.072,68.981,1.8,68.313,1.8,68.095c0-0.327,0.313-0.545,0.941-0.654c1.636-0.054,3.749-0.463,6.34-1.227
				c1.063-0.218,2.182-0.437,3.354-0.654v-0.532l0.082-3.108c-0.382,0.082-0.723,0.15-1.022,0.204
				c-1.336,0.191-2.277,0.437-2.822,0.736c-0.328,0-0.6-0.586-0.818-1.759c-0.082-0.627-0.137-1.063-0.164-1.309
				c0.027-0.409,0.231-0.641,0.614-0.695c1.581-0.055,3.013-0.205,4.294-0.45l0.164-5.113c0-0.299-0.109-0.613-0.328-0.94
				c0-0.163,0.095-0.313,0.287-0.45c0.218-0.163,0.668-0.245,1.35-0.245c0.382,0,0.873,0.096,1.473,0.286
				c0.436,0.219,0.654,0.409,0.654,0.573c0,0.081-0.068,0.218-0.205,0.408c-0.245,0.355-0.409,0.941-0.491,1.76
				c-0.082,1.118-0.15,2.127-0.205,3.026c0.491-0.19,0.927-0.368,1.309-0.532C17.18,57.174,17.588,57.024,17.834,56.97z
				 M11.944,78.853c2.59-0.382,3.954-0.586,4.09-0.613c0.463,0.082,0.722,0.559,0.777,1.432c0.272,0.027,0.436,0.041,0.491,0.041
				c0.136,0,0.231-0.19,0.286-0.573c0.027-0.817,0.055-2.808,0.082-5.972c0-1.199-0.341-1.8-1.022-1.8
				c-1.201,0.055-2.659,0.519-4.377,1.391v0.082c0,0.245-0.041,0.601-0.123,1.063v0.45c2.127-0.437,3.245-0.654,3.354-0.654
				c0.463,0.055,0.695,0.531,0.695,1.432c0,0.437-0.341,0.723-1.022,0.858c-0.355,0.055-0.764,0.164-1.227,0.327
				c-0.409,0.164-0.764,0.273-1.063,0.327c-0.273,0.056-0.546,0.123-0.818,0.205C12.039,77.722,11.998,78.39,11.944,78.853z
				 M33.704,56.684c0.272,0,0.818,0.231,1.636,0.695c0.518,0.464,0.777,0.776,0.777,0.94c0,0.272-0.15,0.641-0.45,1.104
				c-0.818,0.628-1.664,1.813-2.536,3.559c-0.628,1.091-0.941,1.978-0.941,2.658c0,0.327,0.246,0.736,0.736,1.228
				c1.309,1.146,2.413,2.427,3.313,3.845c0.6,1.009,0.9,1.882,0.9,2.618c-0.055,1.063-0.205,1.881-0.45,2.454
				c-0.246,0.764-0.491,1.145-0.736,1.145c-0.164,0-0.314-0.04-0.45-0.122c-0.354-0.108-1.009-0.19-1.963-0.245
				c-2.291-1.036-4.145-2.277-5.563-3.723v14.562c0.108,0.19,0.164,0.313,0.164,0.368c0,0.218-0.491,0.423-1.473,0.613
				c-0.327,0-0.641-0.014-0.941-0.041c-0.3-0.027-0.477-0.109-0.532-0.245l-0.654-29.45c0-0.218,0.164-0.327,0.491-0.327
				c0.518,0.082,0.968,0.163,1.35,0.245c0.054-0.026,0.095-0.054,0.123-0.082c1.008-0.327,1.854-0.599,2.536-0.817
				c1.172-0.272,2.25-0.491,3.231-0.654C33.063,56.792,33.541,56.684,33.704,56.684z M27.978,61.183v10.185
				c1.745,0.981,3.204,1.473,4.376,1.473c0.654,0,0.995-0.75,1.022-2.25c0-0.681-0.6-1.581-1.8-2.699
				c-0.873-1.228-1.309-1.977-1.309-2.25c0-0.654,0.205-1.458,0.613-2.413c0.573-1.281,0.859-2.168,0.859-2.658
				c0-0.627-0.287-0.941-0.859-0.941c-0.3,0.027-0.777,0.219-1.432,0.573C28.823,60.583,28.332,60.91,27.978,61.183z"/>
			<path fill="#333333" d="M69.625,55.047c0.681,0,1.227,0.928,1.636,2.781c0,0.273-0.205,0.437-0.614,0.491c-1.2,0-2.809,0.301-4.827,0.899
				c-0.437,0.109-0.845,0.409-1.227,0.9h0.327c0.409,0,0.941,0.096,1.595,0.286c0.463,0.273,0.696,0.491,0.696,0.654
				c0,0.191-0.055,0.491-0.164,0.9c-0.191,0.654-0.327,1.718-0.409,3.19c1.036-0.246,2.14-0.518,3.313-0.818
				c0.354,0,0.532,0.654,0.532,1.963c0,0.328-0.341,0.614-1.022,0.859c-1.091,0.437-2.073,0.791-2.945,1.063
				c0,0.354-0.014,0.669-0.041,0.94c1.008,0.109,2.167,0.587,3.477,1.432c0.573,0.355,0.859,0.846,0.859,1.473
				c-0.273,2.183-0.777,3.272-1.513,3.272c-0.109-0.108-0.355-0.436-0.736-0.981c-0.464-0.927-1.173-1.896-2.127-2.904
				c-0.164,5.563-0.246,9.463-0.246,11.698c0,0.518,0.014,0.995,0.041,1.432c0.082,0.6,0.123,1.118,0.123,1.555
				c-0.055,0.299-0.423,0.449-1.104,0.449c-1.201,0-1.855-0.15-1.963-0.449c0-0.273,0.082-0.505,0.245-0.695
				c0.055-0.273,0.082-0.587,0.082-0.941l-0.082-11.739l-4.417,6.34c-0.818,1.2-1.405,1.8-1.759,1.8c-0.3,0-0.75-0.177-1.35-0.531
				c-0.409-0.246-0.614-0.505-0.614-0.777c0-0.3,0.19-0.6,0.573-0.899c1.118-1.009,2.304-2.522,3.559-4.541
				c1.008-1.581,1.84-3.163,2.495-4.744c-1.173,0.272-2.495,0.723-3.968,1.35c-0.437,0-0.818-0.409-1.145-1.228
				c-0.219-0.6-0.328-1.186-0.328-1.759c0-0.409,0.259-0.613,0.777-0.613c0.845-0.082,2.89-0.504,6.135-1.268l-0.041-3.968
				c0-0.108-0.014-0.19-0.041-0.245c-0.491,0.245-1.022,0.396-1.595,0.449c-1.554,0.383-2.646,0.573-3.272,0.573
				c-0.572,0-0.859-0.164-0.859-0.491c1.8-1.663,3.544-3.095,5.236-4.295c1.445-0.927,2.835-1.526,4.172-1.8
				C67.989,56.002,68.834,55.647,69.625,55.047z M83.696,54.024c0.436,0,1.472,0.777,3.108,2.331c0,0.273-0.205,0.478-0.613,0.614
				c-0.955,0.027-1.718,0.096-2.291,0.204c-0.981,0.327-1.937,0.587-2.863,0.777c-0.328,0.027-0.641,0.109-0.941,0.245
				c0.409,0.027,0.818,0.096,1.227,0.205c0.381,0.219,0.573,0.396,0.573,0.531c0,0.164-0.014,0.45-0.041,0.859
				c-0.055,0.382-0.096,0.914-0.123,1.595c0.572-0.108,1.118-0.204,1.636-0.286c1.8-0.082,3.313-0.286,4.541-0.613
				c0.791-0.245,1.417-0.368,1.881-0.368c0.382,0,0.873,1.036,1.473,3.108c-0.055,0.219-0.341,0.327-0.859,0.327l-2.086-0.163
				c-1.119,0-3.328,0.122-6.626,0.368c0,0.682-0.014,1.322-0.041,1.922c0.736-0.082,1.391-0.136,1.963-0.163
				c1.745-0.219,2.659-0.327,2.741-0.327c0.545,0,1.199,0.272,1.963,0.817c0.654,0.546,0.981,1.022,0.981,1.432
				c0,0.191-0.178,0.45-0.532,0.777c-0.382,0.519-1.063,2.4-2.045,5.645c-0.245,0.846-0.477,1.337-0.695,1.473
				c-0.354,0-0.736-0.177-1.145-0.532c-1.254,0.138-2.359,0.287-3.313,0.45v2.127c1.227-0.163,2.536-0.368,3.926-0.613
				c0.354,0,0.532,0.669,0.532,2.004c0,0.246-0.341,0.464-1.022,0.654c-1.282,0.246-2.427,0.437-3.436,0.573
				c0,0.546,0.013,1.036,0.041,1.473c0.027,0.245,0.055,0.463,0.082,0.654c2.89-0.273,5.467-0.518,7.73-0.736
				c0.436-0.108,0.927-0.164,1.473-0.164c0.19,0.465,0.409,0.927,0.654,1.391c0.382,0.709,0.6,1.392,0.655,2.046
				c-0.082,0.354-0.232,0.559-0.45,0.613c-0.137,0-0.627-0.15-1.473-0.45c-0.927-0.327-1.745-0.49-2.454-0.49
				c-2.291,0-5.372,0.19-9.244,0.572c-3.381,0.409-5.931,0.927-7.648,1.555c-0.382,0-0.818-1.051-1.309-3.149l0.859-0.164h1.268
				c2.399-0.219,4.635-0.437,6.708-0.654c0.027-0.055,0.054-0.096,0.082-0.123c0.054-0.327,0.082-0.709,0.082-1.146v-0.899
				c-0.981,0.137-2.127,0.327-3.436,0.572c-0.301,0-0.587-0.327-0.859-0.981c-0.164-0.463-0.245-0.913-0.245-1.35
				c0-0.218,0.149-0.327,0.45-0.327c0.627-0.055,1.977-0.218,4.049-0.491v-2.045c-0.955,0.191-1.582,0.341-1.881,0.45
				c-0.519,0.19-0.9,0.286-1.146,0.286c-0.736-0.055-1.609-1.432-2.618-4.131c-0.791-2.236-1.186-3.749-1.186-4.541
				c0-0.518,0.177-0.776,0.532-0.776l0.941,0.163c1.99-0.409,3.749-0.75,5.276-1.022l-0.041-2.045
				c-2.618,0.354-4.908,0.873-6.872,1.554c-0.219,0-0.505-0.271-0.859-0.817c-0.382-0.818-0.573-1.295-0.573-1.432
				c0-0.272,0.218-0.45,0.654-0.532c1.554-0.054,3.585-0.327,6.095-0.818c0.518-0.081,1.036-0.149,1.554-0.204v-2.045
				c0-0.164-0.027-0.341-0.082-0.532c-0.355,0.191-0.736,0.342-1.146,0.45c-1.227,0.245-2.509,0.478-3.845,0.695
				c-0.219,0-0.327-0.041-0.327-0.123c1.526-1.09,3.122-2.235,4.786-3.436c0.572-0.518,1.786-1.199,3.64-2.045
				C82.578,54.284,83.314,54.024,83.696,54.024z M76.333,73.699c0.409,0,1.146-0.055,2.209-0.164v-1.759
				c-0.573,0.109-1.2,0.26-1.882,0.45c-0.273,0-0.518-0.3-0.736-0.9c-0.137-0.436-0.204-0.845-0.204-1.227
				c0-0.246,0.149-0.368,0.45-0.368c0.381-0.027,1.159-0.123,2.332-0.286v-1.637c-2.318,0.464-3.477,0.9-3.477,1.31
				C75.133,72.172,75.57,73.699,76.333,73.699z M81.651,67.318v1.759c0.627-0.109,1.254-0.205,1.881-0.287
				c0.218,0,0.328,0.546,0.328,1.637c0,0.163-0.26,0.313-0.777,0.45c-0.573,0.163-1.063,0.286-1.473,0.368v1.881
				c0.682-0.082,1.377-0.177,2.086-0.286c0.327-0.082,0.572-0.409,0.736-0.981c0.3-1.146,0.45-2.332,0.45-3.559
				c0-0.764-0.219-1.146-0.654-1.146C83.492,67.154,82.633,67.209,81.651,67.318z"/>
			<path fill="#333333" d="M138.842,61.224c-2.155,0-4.8,0.163-7.936,0.49c0,0.164-0.068,0.383-0.204,0.655c-0.301,0.735-0.491,1.854-0.573,3.354
				c-0.437,8.345-0.655,13.948-0.655,16.812c0,0.681,0.027,1.309,0.082,1.881c0.19,0.791,0.286,1.473,0.286,2.046
				c-0.109,0.408-0.6,0.613-1.472,0.613c-1.5,0-2.332-0.26-2.495-0.777c0-0.354,0.041-0.654,0.123-0.899
				c0.027-0.355,0.041-0.764,0.041-1.228V62.696c0-0.137-0.014-0.287-0.041-0.45c-0.109,0.027-0.191,0.041-0.246,0.041
				c-4.799,0.682-8.413,1.541-10.839,2.577c-0.546,0-1.132-1.432-1.759-4.295l1.146-0.287h1.8c9.817-1.254,18.052-2.29,24.706-3.108
				c0.627-0.218,1.322-0.327,2.086-0.327c0.272,0.654,0.6,1.296,0.981,1.923c0.545,1.009,0.873,1.949,0.982,2.822
				c-0.109,0.464-0.314,0.723-0.614,0.777c-0.191,0-0.859-0.164-2.004-0.491C140.982,61.442,139.85,61.224,138.842,61.224z
				 M134.547,66.459c0.654,0,1.213,0.341,1.677,1.022c1.09,1.364,2.345,2.454,3.763,3.272c0.736,0.354,1.104,0.791,1.104,1.309
				c0,0.354-0.259,0.736-0.777,1.146c-0.654,0.546-1.2,0.818-1.636,0.818c-1.691,0-3.082-0.45-4.172-1.351
				c-0.709-0.518-1.063-1.608-1.063-3.271c0-0.654,0.218-1.445,0.654-2.373C134.206,66.65,134.355,66.459,134.547,66.459z"/>
			<path fill="#333333" d="M191.655,70.877c-2.973,0-6.94,0.177-11.903,0.531c-4.391,0.354-7.69,0.777-9.898,1.268
				c-0.437,0-0.927-1.145-1.473-3.436l0.982-0.286h1.513c9.053-0.791,16.633-1.432,22.742-1.923
				c0.573-0.136,1.213-0.204,1.922-0.204c0.246,0.628,0.545,1.255,0.9,1.882c0.518,0.954,0.818,1.84,0.9,2.658
				c-0.082,0.491-0.287,0.777-0.614,0.859c-0.191,0-0.818-0.218-1.881-0.654C193.646,71.108,192.582,70.877,191.655,70.877z"/>
			<path fill="#333333" d="M223.363,57.624c0.491,0.055,0.858,0.123,1.104,0.204c0.218-0.081,0.449-0.149,0.695-0.204
				c3.899-0.845,6.939-1.269,9.121-1.269c0.682,0,1.637,0.205,2.863,0.614c0.3,0.163,0.531,0.313,0.695,0.449l0.531-0.122h1.146
				c4.854-0.709,8.93-1.295,12.229-1.759c0.3-0.137,0.654-0.205,1.063-0.205c0.164,0.519,0.368,0.996,0.613,1.432
				c0.382,0.736,0.6,1.405,0.654,2.005c-0.082,0.382-0.245,0.6-0.49,0.654c-0.109,0-0.587-0.149-1.432-0.45
				c-0.928-0.327-1.746-0.491-2.454-0.491c-0.792,0-1.691,0.041-2.7,0.123c-0.082,0.273-0.191,0.601-0.326,0.981
				c-0.273,0.9-0.573,1.678-0.9,2.332l-0.041,0.082c0.954-0.164,1.826-0.246,2.617-0.246c0.518,0.056,1.432,0.314,2.741,0.777
				c1.146,0.464,1.718,0.859,1.718,1.187c0,0.109-0.178,0.313-0.531,0.613c-0.219,1.228-0.383,5.713-0.491,13.457
				c0,0.9-0.71,1.527-2.127,1.882c1.091,0.464,2.086,0.927,2.985,1.391c0.573,0.245,0.887,0.505,0.941,0.777
				c0,0.79-0.123,1.977-0.368,3.559c-0.219,0.899-0.478,1.35-0.777,1.35c-0.245,0-0.56-0.205-0.94-0.613
				c-1.01-2.046-2.551-4.228-4.623-6.545c-0.408-0.272-0.613-0.491-0.613-0.654c0-0.354,0.096-0.532,0.287-0.532
				c0.79,0.327,1.514,0.628,2.168,0.9c-0.027-0.082-0.041-0.149-0.041-0.205c0.026-0.654,0.055-1.281,0.082-1.881
				c-0.654,0.081-1.337,0.219-2.046,0.409c-0.491,0.081-0.954,0.149-1.391,0.204c-0.081,0.245-0.204,0.531-0.368,0.859
				c-0.382,1.063-0.981,2.086-1.8,3.067c-0.409,0.518-0.682,1.158-0.817,1.922c-0.219,0.736-0.791,1.214-1.719,1.432
				c-1.691,0.573-3.204,0.859-4.54,0.859c-0.873,0-1.309-0.123-1.309-0.368c0-0.163,0.327-0.409,0.981-0.736
				c2.536-1.255,4.268-2.44,5.195-3.559c0.708-0.927,1.227-1.949,1.554-3.067c-0.519,0.109-0.995,0.219-1.432,0.327l-0.081,0.082
				c-0.355,0.408-0.736,0.613-1.146,0.613c-0.518,0-0.776-0.491-0.776-1.473c0-5.944-0.178-10.539-0.532-13.784
				c0.109-0.763,0.341-1.146,0.695-1.146c0.164,0,0.586,0.178,1.268,0.532h0.041c0.518-0.109,1.173-0.3,1.964-0.573
				c0.026-0.081,0.041-0.149,0.041-0.204c0.136-0.272,0.272-0.832,0.409-1.677c0.108-0.709,0.164-1.214,0.164-1.514v-0.327
				c-1.964,0.382-3.423,0.817-4.377,1.309c-0.301,0-0.587-0.531-0.859-1.595c-0.055,0.055-0.096,0.096-0.123,0.122
				c-0.436,0.601-1.254,3.177-2.453,7.73c0,0.219-0.438,0.328-1.31,0.328c-0.981,0-1.473-0.137-1.473-0.409
				c-0.601,0.055-1.146,0.109-1.636,0.163c0,0.9-0.014,1.759-0.041,2.577c1.254-0.108,2.332-0.313,3.231-0.613
				c0.654-0.272,1.172-0.409,1.554-0.409c0.437,0,0.982,1.022,1.637,3.067c-0.055,0.354-0.342,0.532-0.859,0.532l-2.127-0.205
				c-0.682,0-1.84,0.096-3.477,0.286v0.859c0.791,0.245,1.867,0.628,3.231,1.146c0.899,0.409,1.595,0.668,2.086,0.777
				c0.3,0.245,0.45,1.2,0.45,2.863c0,0.464-0.164,1.05-0.491,1.759c-0.272,0.545-0.532,0.817-0.776,0.817
				c-0.219,0-0.451-0.204-0.695-0.613c-1.201-1.882-2.482-3.531-3.846-4.949c-0.027,3.463-0.041,6.04-0.041,7.73
				c0,0.491,0.014,0.927,0.041,1.309c0.055,0.573,0.082,1.05,0.082,1.432c-0.055,0.219-0.437,0.328-1.146,0.328
				c-1.091,0-1.69-0.164-1.8-0.491c0-0.219,0.096-0.409,0.287-0.572c0.054-0.246,0.081-0.546,0.081-0.9v-7.771l-4.294,4.458
				c-0.846,0.9-1.446,1.351-1.801,1.351c-0.272,0-0.682-0.137-1.227-0.409c-0.383-0.218-0.572-0.464-0.572-0.736
				c0-0.218,0.189-0.45,0.572-0.695c1.172-0.791,2.398-1.977,3.682-3.559c1.035-1.254,1.881-2.495,2.535-3.723
				c-2.372,0.383-4.417,0.982-6.135,1.8c-0.246,0-0.56-0.313-0.941-0.94c-0.464-0.845-0.695-1.363-0.695-1.555
				c0-0.245,0.231-0.409,0.695-0.49c1.281-0.055,2.959-0.341,5.031-0.859c0.982-0.163,2.031-0.368,3.149-0.613v-2.536
				c-0.791,0.191-1.432,0.396-1.923,0.613c-0.463,0.327-0.805,0.491-1.021,0.491c-0.164,0-0.287-0.137-0.369-0.409
				c-0.055-0.19-0.204-0.395-0.449-0.613c-0.383-0.546-0.805-1.827-1.268-3.845c-0.491-2.154-0.736-3.654-0.736-4.5
				C222.668,58.061,222.954,57.624,223.363,57.624z M228.271,65.519v-2.25c-0.682,0.082-1.173,0.178-1.472,0.286
				c-0.219,0-0.396-0.382-0.532-1.146c-0.082-0.381-0.137-0.654-0.163-0.817c0.026-0.246,0.148-0.368,0.367-0.368
				c0.627-0.027,1.228-0.082,1.8-0.164v-2.168c-0.954,0.273-1.978,0.642-3.067,1.104c-0.027,0.164-0.041,0.327-0.041,0.491
				c0,1.718,0.231,3.122,0.695,4.213c0.354,0.736,0.777,1.104,1.268,1.104C227.345,65.805,227.726,65.709,228.271,65.519z
				 M233.262,64.332c0.491-1.581,0.736-3.04,0.736-4.377c-0.055-1.199-0.505-1.8-1.35-1.8c-0.409,0-0.846,0.028-1.31,0.082
				c0,0.219-0.027,0.491-0.081,0.818c-0.082,0.409-0.138,0.899-0.163,1.473c0.189-0.055,0.354-0.109,0.49-0.164
				c0.354-0.163,0.613-0.245,0.777-0.245c0.245,0.055,0.504,0.709,0.777,1.963c-0.027,0.137-0.191,0.232-0.491,0.287
				c-0.601,0.163-1.159,0.286-1.677,0.368v0.204c0,0.6-0.015,1.173-0.041,1.718C231.83,64.441,232.607,64.332,233.262,64.332z
				 M241.401,75.948c3.709-0.518,6.189-0.858,7.444-1.022c0.082-3.108,0.136-6.039,0.163-8.794c0-1.499-0.422-2.25-1.268-2.25
				c-1.854,0-3.654,0.368-5.398,1.104c-0.383,0.191-0.683,0.327-0.9,0.409v0.327c0,0.437-0.014,0.873-0.041,1.309
				c1.418-0.19,2.727-0.477,3.927-0.858c0.573-0.137,0.981-0.205,1.228-0.205c0.218,0,0.326,0.45,0.326,1.351
				c0,0.6-0.108,0.981-0.326,1.145c-1.855,0.219-3.369,0.464-4.541,0.736c-0.245,0.056-0.463,0.096-0.654,0.123
				c0,0.736-0.014,1.432-0.041,2.086c1.445-0.163,2.795-0.423,4.05-0.777c0.546-0.136,0.94-0.204,1.187-0.204
				c0.218,0,0.326,0.423,0.326,1.268c0,0.628-0.108,1.01-0.326,1.146c-1.773,0.219-3.26,0.491-4.459,0.818
				c-0.301,0.081-0.559,0.137-0.777,0.163v0.981C241.319,75.131,241.347,75.513,241.401,75.948z"/>
			<path fill="#333333" d="M302.355,59.424c0.491,0.137,1.036,1.35,1.636,3.641c-0.055,0.327-0.396,0.545-1.022,0.654
				c-2.019,0.49-3.886,0.94-5.604,1.35c-0.027,0.245-0.068,0.546-0.122,0.899c-0.082,0.519-0.123,0.969-0.123,1.351
				c-0.301,3.599-1.037,6.544-2.209,8.835c0.49,0.409,0.967,0.817,1.432,1.227c1.336,1.119,2.959,2.073,4.867,2.863
				c3.518,1.282,6.176,2.509,7.977,3.682c1.336,0.817,2.004,1.376,2.004,1.677c0,0.572-1.2,0.859-3.6,0.859
				c-1.254,0-2.387-0.205-3.395-0.614c-1.609-0.327-3.396-0.531-5.358-0.613c-1.31-0.082-1.964-0.628-1.964-1.636
				c-0.219-1.8-1.009-3.272-2.372-4.418c-0.327-0.327-0.654-0.613-0.981-0.858c-1.609,2.072-4.146,3.898-7.608,5.48
				c-0.873,0.409-1.5,0.818-1.882,1.228c-0.3,0.518-0.682,0.776-1.145,0.776c-0.355,0-0.982-0.259-1.882-0.776
				c-1.337-0.383-2.305-1.063-2.904-2.046c-0.437-0.682-0.817-1.186-1.146-1.513c-0.3-0.164-0.449-0.354-0.449-0.573
				c0-0.218,0.096-0.327,0.286-0.327s0.409,0.068,0.654,0.205c1.336,0.709,2.863,1.063,4.581,1.063c1.5,0,3.15-0.614,4.949-1.841
				c1.609-1.146,2.877-2.427,3.805-3.845c-1.828-1.336-3.846-2.591-6.055-3.764c-0.817-0.49-1.227-0.94-1.227-1.35
				c0-0.463,0.096-1.104,0.286-1.922c0.19-0.437,0.491-0.655,0.899-0.655c0.328,0,0.832,0.301,1.514,0.9
				c1.2,1.063,2.55,2.1,4.05,3.108c0.573,0.437,1.159,0.887,1.759,1.35c0.791-2.071,1.186-4.458,1.186-7.158
				c0-0.245-0.014-0.504-0.04-0.776c-2.183,0.382-4.091,0.654-5.727,0.817c-3.026,0.301-5.194,0.654-6.503,1.063
				c-0.328,0-0.601-0.64-0.818-1.922c-0.082-0.709-0.137-1.213-0.164-1.514c0.027-0.382,0.231-0.586,0.613-0.613
				c7.553-0.3,13.907-1.418,19.061-3.354C300.896,59.847,301.81,59.533,302.355,59.424z M290.862,51.447
				c0.381,0,0.803,0.478,1.268,1.432c0.354,1.146,0.79,1.964,1.309,2.454c1.146,1.473,1.718,2.618,1.718,3.437
				c0,0.437-0.163,0.764-0.491,0.981c-0.436,0.245-0.927,0.368-1.473,0.368c-0.873,0-1.771-0.368-2.699-1.104
				c-0.736-0.491-1.104-0.954-1.104-1.391c0-1.99,0.23-3.641,0.695-4.949C290.466,51.856,290.725,51.447,290.862,51.447z"/>
			<path fill="#333333" d="M333.204,68.79c0.109,0.056,0.164,0.164,0.164,0.328c0,0.055-0.027,0.19-0.082,0.408c-0.382,1.609-0.572,3-0.572,4.173
				c0,0.327-0.15,0.49-0.45,0.49c-0.628,0-1.378-0.245-2.249-0.736c-0.573-0.409-0.859-0.708-0.859-0.899
				c0-0.272,1.158-1.418,3.477-3.436C332.878,68.899,333.067,68.79,333.204,68.79z M341.263,53.084c0.271,0,0.504,0.272,0.695,0.817
				c0.164,0.519,0.245,0.9,0.245,1.146c0,0.082-0.15,0.191-0.45,0.327l-2.617,1.391c-0.383,0.191-0.654,0.301-0.818,0.327
				c0.082,0.573,0.149,1.119,0.205,1.637c2.127-0.709,3.244-1.077,3.354-1.104c0.354,0.055,0.531,0.491,0.531,1.309
				c0,0.327-0.285,0.56-0.858,0.695c-0.327,0.056-0.724,0.219-1.187,0.491c-0.382,0.163-0.723,0.272-1.022,0.327
				c-0.19,0.055-0.409,0.123-0.654,0.204c0.054,0.655,0.122,1.282,0.204,1.882c2.1-0.6,3.204-0.913,3.313-0.94
				c0.354,0.055,0.532,0.478,0.532,1.268c0,0.354-0.287,0.587-0.859,0.695c-0.327,0.055-0.709,0.191-1.146,0.409
				c-0.409,0.164-0.764,0.272-1.063,0.327c-0.219,0.055-0.437,0.123-0.654,0.205c0.055,0.817,0.096,1.622,0.123,2.413
				c3.518-0.682,6.626-1.159,9.326-1.432c-0.137-0.082-0.246-0.178-0.328-0.286c-0.654-0.655-1.309-1.269-1.963-1.841
				c-0.709,0.572-1.5,1.091-2.373,1.554c-0.764,0.409-1.227,0.614-1.391,0.614c-0.463,0-0.695-0.109-0.695-0.327
				c0.627-0.655,1.281-1.214,1.964-1.678c0.464-0.409,0.872-0.831,1.228-1.268c-0.52-0.409-1.037-0.804-1.555-1.187
				c-0.301-0.327-0.45-0.586-0.45-0.777c0-0.108,0.095-0.163,0.286-0.163c0.873,0.219,1.76,0.519,2.659,0.899
				c0.3-0.436,0.572-0.899,0.817-1.391c0.246-0.572,0.45-0.858,0.613-0.858c0.191,0,0.519,0.231,0.982,0.695
				c0.436,0.546,0.654,0.914,0.654,1.104c0,0.081-0.055,0.149-0.164,0.204c-0.218,0.137-0.572,0.505-1.063,1.104
				c0.436,0.219,0.845,0.437,1.227,0.654c0.463,0.273,0.695,0.613,0.695,1.022c-0.082,0.955-0.219,1.568-0.408,1.841
				c1.417-0.108,2.686-0.177,3.803-0.204c0.191-0.927,0.369-1.772,0.532-2.536c-0.137,0-0.245,0.014-0.327,0.041
				c-0.409,0.055-0.791,0.096-1.146,0.122c-0.464,0.027-0.968,0.109-1.513,0.246c-0.273,0-0.424-0.382-0.45-1.146
				c0-0.327,0.204-0.559,0.613-0.695c1.499-0.19,2.563-0.327,3.19-0.409c0.19-0.791,0.341-1.486,0.45-2.086
				c-0.191,0.027-0.354,0.055-0.491,0.082c-0.408,0.081-0.791,0.149-1.145,0.204c-0.491,0.027-0.982,0.109-1.473,0.245
				c-0.301,0-0.479-0.368-0.532-1.104c0-0.327,0.231-0.559,0.695-0.695c1.636-0.245,2.754-0.422,3.354-0.531
				c0.163-0.845,0.245-1.322,0.245-1.432c0-0.409-0.178-0.613-0.532-0.613c-0.682,0-1.758,0.204-3.23,0.613
				c-0.301,0-0.479-0.436-0.532-1.309c0-0.246,0.177-0.409,0.532-0.491c0.872-0.055,1.608-0.149,2.209-0.286
				c1.145-0.108,1.867-0.164,2.167-0.164c0.409,0,1.118,0.219,2.127,0.654c0.763,0.491,1.146,0.873,1.146,1.146
				c0,0.546-0.286,1.323-0.859,2.332c-0.6,1.554-1.404,4.186-2.413,7.894c2.918,0.273,4.922,1.104,6.013,2.495
				c0.9,1.746,1.35,2.945,1.35,3.6c0,0.573-0.367,0.859-1.104,0.859c-0.191,0-0.56-0.068-1.105-0.205
				c-0.6-0.218-1.281-0.354-2.045-0.409c-0.736,0-1.867-0.34-3.395-1.022c0-0.19,0.205-0.408,0.613-0.654
				c1.309-0.49,1.963-1.158,1.963-2.004c0-0.627-1.459-0.94-4.376-0.94c-2.673,0-5.686,0.231-9.04,0.695
				c-4.473,0.654-7.267,1.227-8.385,1.718c-0.545,0.464-0.859,0.695-0.94,0.695c-0.272,0-0.519-0.259-0.736-0.777
				c-0.137-0.354-0.204-0.641-0.204-0.859c0-0.463,0.572-0.79,1.717-0.981c0.383-0.082,0.764-0.149,1.146-0.204l-1.719-12.23
				c0-0.108,0.109-0.163,0.328-0.163c0.844,0.137,1.458,0.259,1.84,0.368c0.463-0.164,0.941-0.382,1.432-0.655
				c0.846-0.463,1.514-0.913,2.004-1.35C341.085,53.139,341.181,53.084,341.263,53.084z M349.442,68.79
				c0.627,0,1.65,0.437,3.068,1.31c0.873,0.572,1.309,1.104,1.309,1.595c0,0.164-0.245,0.383-0.736,0.654
				c-1.172,0.383-2.822,1.119-4.949,2.209c0.272,0.245,0.464,0.491,0.572,0.736c0.736-0.108,1.473-0.218,2.209-0.327
				c2.182-0.082,4.035-0.313,5.563-0.695c0.954-0.272,1.718-0.409,2.29-0.409c0.436,0,0.982,1.146,1.637,3.436
				c-0.055,0.328-0.342,0.491-0.859,0.491l-2.291-0.163c-1.336,0-3.967,0.137-7.894,0.408c0.054,0.846,0.081,1.8,0.081,2.863
				c0,2.072-0.354,3.817-1.063,5.236c-0.246,0.49-0.369,1.076-0.369,1.759c-0.109,0.327-0.408,0.49-0.899,0.49
				c-0.218,0-0.464-0.082-0.735-0.245c-0.438-0.354-0.969-0.642-1.596-0.859c-1.119-0.3-2.264-1.063-3.436-2.29
				c-0.955-0.846-1.432-1.459-1.432-1.841c0-0.191,0.107-0.286,0.326-0.286c0.354,0,0.846,0.272,1.473,0.817
				c0.982,0.328,1.745,0.491,2.291,0.491c0.791,0,1.377-0.123,1.759-0.368c0.491-0.409,0.736-1.377,0.736-2.904
				c0-0.845-0.056-1.718-0.163-2.617c-3.709,0.437-6.941,1.077-9.695,1.922c-0.3,0-0.682-0.313-1.145-0.94
				c-0.546-0.927-0.818-1.473-0.818-1.636c0-0.328,0.287-0.559,0.859-0.696c1.908-0.054,4.418-0.367,7.525-0.94
				c0.928-0.108,1.868-0.218,2.822-0.327c-0.3-0.518-0.832-0.94-1.595-1.268c-0.3-0.109-0.45-0.231-0.45-0.368
				c0-0.327,0.341-0.491,1.023-0.491c0.844,0,1.595,0.123,2.249,0.368c1.473-1.745,2.25-2.795,2.331-3.149
				c0-0.436-0.381-0.654-1.145-0.654c-0.6,0.055-1.568,0.464-2.904,1.227c-1.473,0.846-2.617,1.609-3.436,2.291
				c-0.273,0.272-0.506,0.409-0.695,0.409c-0.301,0-0.682-0.505-1.146-1.514c-0.437-0.682-0.654-1.118-0.654-1.309
				c0-0.164,0.204-0.272,0.613-0.327c0.899-0.082,2.399-0.464,4.499-1.146C346.784,69.104,348.406,68.79,349.442,68.79z
				 M348.134,51.611c0.164,0,0.464,0.219,0.9,0.654c0.49,0.546,0.736,0.928,0.736,1.146c0,0.082-0.068,0.163-0.205,0.245
				c-0.245,0.219-0.682,0.777-1.309,1.677c-0.055,0.109-0.123,0.205-0.205,0.287c0.354,0.163,0.695,0.354,1.023,0.572
				c0.463,0.272,0.695,0.587,0.695,0.94c-0.137,1.419-0.369,2.127-0.695,2.127c-0.273,0-0.532-0.163-0.777-0.49
				c-0.572-0.546-1.119-1.063-1.637-1.555c-0.654,0.654-1.377,1.241-2.168,1.759c-0.791,0.546-1.268,0.818-1.432,0.818
				c-0.436,0-0.654-0.123-0.654-0.368c0.6-0.764,1.269-1.473,2.005-2.127c0.327-0.354,0.64-0.736,0.94-1.146
				c-0.6-0.518-1.213-0.995-1.84-1.432c-0.301-0.354-0.451-0.641-0.451-0.858c0-0.082,0.096-0.137,0.287-0.164
				c0.926,0.245,1.895,0.601,2.904,1.063c0.436-0.736,0.831-1.526,1.186-2.372C347.738,51.871,347.971,51.611,348.134,51.611z"/>
			<path fill="#333333" d="M393.422,55.047c0.3,0,0.858,0.301,1.677,0.9c0.6,0.736,0.9,1.295,0.9,1.677c0,0.301-0.314,0.736-0.941,1.309
				c-0.572,0.601-1.104,1.405-1.595,2.413c-0.409,0.764-0.995,1.664-1.759,2.7c1.09-0.327,2.141-0.491,3.149-0.491
				c0.655,0,1.581,0.109,2.782,0.327c0.898,0.164,1.35,0.491,1.35,0.982c-0.027,0.108-0.082,0.341-0.164,0.695
				c-0.137,0.709-0.232,1.854-0.287,3.436c-0.137,3.845-0.326,6.845-0.572,8.998c-0.082,0.982-0.163,1.95-0.245,2.904
				c-0.027,0.519-0.096,0.777-0.204,0.777c-0.219,0-0.832-0.313-1.841-0.94c-0.792-0.437-1.568-1.146-2.331-2.127
				c-0.9,0.464-1.65,0.764-2.25,0.899c-0.465,0.082-1.01,0.26-1.637,0.532c0,0.354-0.6,0.587-1.799,0.695
				c-0.219,0-0.491-1.596-0.818-4.786c-0.301-3.49-0.45-6.967-0.45-10.43c0-0.327,0.259-0.491,0.777-0.491
				c0.218,0,0.695,0.123,1.431,0.368c0.273-0.136,0.546-0.286,0.818-0.45c0.082-0.081,0.15-0.177,0.205-0.286
				c1.555-4.99,2.535-7.989,2.945-8.999C392.944,55.252,393.231,55.047,393.422,55.047z M389.25,76.521
				c0.981-0.082,2.536-0.259,4.663-0.532c0.271,0,0.422,0.56,0.449,1.677c0.246,0.082,0.41,0.123,0.491,0.123
				c0.218,0,0.354-0.463,0.409-1.391c0.19-2.454,0.286-4.881,0.286-7.28c-0.055-2.1-0.71-3.15-1.964-3.15
				c-0.463,0-1.145,0.15-2.045,0.45c-0.627,0.273-1.35,0.805-2.168,1.596c-0.109,0.954-0.178,1.772-0.204,2.454
				c1.036-0.109,2.563-0.3,4.581-0.573c0.3,0,0.45,0.601,0.45,1.8c0,0.273-0.327,0.505-0.981,0.695
				c-0.955,0.355-1.773,0.587-2.455,0.695c-0.463,0.056-0.995,0.205-1.595,0.45C389.194,74.408,389.223,75.403,389.25,76.521z
				 M406.634,53.411c0.682,0.027,1.445,0.3,2.291,0.817c0.654,0.519,0.98,0.996,0.98,1.432c0,0.109-0.096,0.219-0.285,0.328
				c-0.873,0.6-2.114,2.331-3.723,5.194c-0.464,0.791-0.914,1.527-1.35,2.209c1.227-0.164,2.521-0.396,3.886-0.695
				c2.427-0.409,4.172-0.614,5.235-0.614c2.1,0.273,3.149,0.764,3.149,1.473c0,0.164-0.272,0.505-0.817,1.022
				c-0.41,0.601-0.642,1.814-0.695,3.641c-0.137,3.108-0.465,5.972-0.982,8.59c-0.545,2.755-1.104,4.663-1.677,5.727
				c-0.628,1.063-1.132,1.908-1.514,2.536c-0.137,0.599-0.437,0.899-0.899,0.899c-0.736-0.354-1.568-0.587-2.495-0.695
				c-0.765-0.327-1.868-1.063-3.313-2.209c-1.582-0.981-2.85-2.304-3.804-3.968c0-0.218,0.163-0.327,0.491-0.327
				c2.508,1.718,4.402,2.577,5.686,2.577c1.499-0.082,2.631-1.063,3.395-2.945c1.008-3.408,1.514-6.462,1.514-9.162
				c0-3.163-0.75-4.744-2.25-4.744c-1.473,0-3.709,0.49-6.708,1.472c-0.082,0-0.137-0.013-0.163-0.04
				c-0.655,0.764-1.283,1.404-1.883,1.922c-0.845,0.628-1.363,0.94-1.554,0.94c-0.219,0-0.327-0.108-0.327-0.327
				c1.199-2.672,2.521-5.167,3.967-7.485c0.791-1.554,1.705-3.694,2.741-6.421C405.829,53.793,406.197,53.411,406.634,53.411z
				 M402.257,68.79c0.463,0.056,0.9,0.205,1.309,0.45c0.709,0.354,1.637,0.682,2.781,0.981c0.764,0.164,1.146,0.601,1.146,1.31
				c-0.027,0.437-0.056,0.954-0.082,1.554c0,0.683-0.109,1.31-0.328,1.882c-0.218,0.464-0.463,0.695-0.736,0.695
				c-0.817,0-1.472-0.477-1.963-1.432c-0.955-2.235-1.691-3.612-2.209-4.131c-0.408-0.327-0.613-0.614-0.613-0.859
				C401.562,69.022,401.793,68.872,402.257,68.79z"/>
			<path fill="#333333" d="M450.776,55.047c0.681,0,1.227,0.928,1.636,2.781c0,0.273-0.204,0.437-0.614,0.491c-1.199,0-2.809,0.301-4.826,0.899
				c-0.437,0.109-0.846,0.409-1.227,0.9h0.326c0.41,0,0.941,0.096,1.596,0.286c0.463,0.273,0.695,0.491,0.695,0.654
				c0,0.191-0.055,0.491-0.164,0.9c-0.19,0.654-0.326,1.718-0.408,3.19c1.035-0.246,2.141-0.518,3.313-0.818
				c0.354,0,0.532,0.654,0.532,1.963c0,0.328-0.341,0.614-1.022,0.859c-1.091,0.437-2.072,0.791-2.945,1.063
				c0,0.354-0.014,0.669-0.041,0.94c1.009,0.109,2.168,0.587,3.477,1.432c0.573,0.355,0.859,0.846,0.859,1.473
				c-0.273,2.183-0.777,3.272-1.514,3.272c-0.109-0.108-0.354-0.436-0.736-0.981c-0.463-0.927-1.172-1.896-2.127-2.904
				c-0.163,5.563-0.245,9.463-0.245,11.698c0,0.518,0.014,0.995,0.041,1.432c0.082,0.6,0.122,1.118,0.122,1.555
				c-0.055,0.299-0.422,0.449-1.104,0.449c-1.201,0-1.855-0.15-1.963-0.449c0-0.273,0.081-0.505,0.244-0.695
				c0.055-0.273,0.082-0.587,0.082-0.941l-0.082-11.739l-4.417,6.34c-0.817,1.2-1.405,1.8-1.759,1.8c-0.301,0-0.75-0.177-1.35-0.531
				c-0.409-0.246-0.613-0.505-0.613-0.777c0-0.3,0.189-0.6,0.572-0.899c1.117-1.009,2.305-2.522,3.559-4.541
				c1.008-1.581,1.84-3.163,2.495-4.744c-1.173,0.272-2.495,0.723-3.968,1.35c-0.437,0-0.818-0.409-1.145-1.228
				c-0.219-0.6-0.328-1.186-0.328-1.759c0-0.409,0.26-0.613,0.777-0.613c0.845-0.082,2.891-0.504,6.135-1.268l-0.04-3.968
				c0-0.108-0.015-0.19-0.041-0.245c-0.491,0.245-1.022,0.396-1.595,0.449c-1.555,0.383-2.646,0.573-3.273,0.573
				c-0.572,0-0.858-0.164-0.858-0.491c1.8-1.663,3.544-3.095,5.235-4.295c1.445-0.927,2.836-1.526,4.172-1.8
				C449.14,56.002,449.984,55.647,450.776,55.047z M464.847,54.024c0.436,0,1.473,0.777,3.108,2.331
				c0,0.273-0.204,0.478-0.613,0.614c-0.955,0.027-1.718,0.096-2.291,0.204c-0.981,0.327-1.937,0.587-2.862,0.777
				c-0.328,0.027-0.642,0.109-0.941,0.245c0.409,0.027,0.818,0.096,1.227,0.205c0.382,0.219,0.573,0.396,0.573,0.531
				c0,0.164-0.015,0.45-0.041,0.859c-0.056,0.382-0.096,0.914-0.122,1.595c0.572-0.108,1.117-0.204,1.635-0.286
				c1.801-0.082,3.314-0.286,4.541-0.613c0.791-0.245,1.418-0.368,1.881-0.368c0.383,0,0.873,1.036,1.473,3.108
				c-0.055,0.219-0.341,0.327-0.858,0.327l-2.086-0.163c-1.118,0-3.327,0.122-6.626,0.368c0,0.682-0.015,1.322-0.041,1.922
				c0.736-0.082,1.391-0.136,1.963-0.163c1.744-0.219,2.658-0.327,2.74-0.327c0.545,0,1.199,0.272,1.964,0.817
				c0.654,0.546,0.981,1.022,0.981,1.432c0,0.191-0.178,0.45-0.531,0.777c-0.383,0.519-1.064,2.4-2.046,5.645
				c-0.245,0.846-0.478,1.337-0.695,1.473c-0.354,0-0.735-0.177-1.146-0.532c-1.254,0.138-2.358,0.287-3.313,0.45v2.127
				c1.227-0.163,2.535-0.368,3.926-0.613c0.355,0,0.532,0.669,0.532,2.004c0,0.246-0.341,0.464-1.022,0.654
				c-1.281,0.246-2.428,0.437-3.436,0.573c0,0.546,0.014,1.036,0.041,1.473c0.026,0.245,0.055,0.463,0.082,0.654
				c2.89-0.273,5.467-0.518,7.73-0.736c0.436-0.108,0.926-0.164,1.473-0.164c0.189,0.465,0.408,0.927,0.654,1.391
				c0.381,0.709,0.6,1.392,0.654,2.046c-0.082,0.354-0.232,0.559-0.45,0.613c-0.137,0-0.628-0.15-1.473-0.45
				c-0.927-0.327-1.745-0.49-2.454-0.49c-2.291,0-5.372,0.19-9.244,0.572c-3.381,0.409-5.931,0.927-7.648,1.555
				c-0.383,0-0.818-1.051-1.309-3.149l0.858-0.164h1.269c2.398-0.219,4.635-0.437,6.707-0.654c0.027-0.055,0.055-0.096,0.082-0.123
				c0.055-0.327,0.082-0.709,0.082-1.146v-0.899c-0.981,0.137-2.127,0.327-3.436,0.572c-0.301,0-0.587-0.327-0.859-0.981
				c-0.164-0.463-0.245-0.913-0.245-1.35c0-0.218,0.149-0.327,0.45-0.327c0.627-0.055,1.977-0.218,4.049-0.491v-2.045
				c-0.955,0.191-1.582,0.341-1.881,0.45c-0.52,0.19-0.9,0.286-1.146,0.286c-0.735-0.055-1.608-1.432-2.617-4.131
				c-0.791-2.236-1.186-3.749-1.186-4.541c0-0.518,0.176-0.776,0.531-0.776l0.941,0.163c1.99-0.409,3.748-0.75,5.275-1.022
				l-0.041-2.045c-2.617,0.354-4.908,0.873-6.871,1.554c-0.219,0-0.505-0.271-0.859-0.817c-0.382-0.818-0.572-1.295-0.572-1.432
				c0-0.272,0.218-0.45,0.654-0.532c1.555-0.054,3.586-0.327,6.095-0.818c0.518-0.081,1.036-0.149,1.554-0.204v-2.045
				c0-0.164-0.027-0.341-0.081-0.532c-0.354,0.191-0.736,0.342-1.146,0.45c-1.227,0.245-2.51,0.478-3.845,0.695
				c-0.219,0-0.327-0.041-0.327-0.123c1.526-1.09,3.121-2.235,4.785-3.436c0.572-0.518,1.786-1.199,3.641-2.045
				C463.728,54.284,464.464,54.024,464.847,54.024z M457.483,73.699c0.41,0,1.146-0.055,2.209-0.164v-1.759
				c-0.572,0.109-1.199,0.26-1.881,0.45c-0.273,0-0.519-0.3-0.736-0.9c-0.137-0.436-0.205-0.845-0.205-1.227
				c0-0.246,0.15-0.368,0.45-0.368c0.382-0.027,1.159-0.123,2.331-0.286v-1.637c-2.318,0.464-3.477,0.9-3.477,1.31
				C456.284,72.172,456.72,73.699,457.483,73.699z M462.802,67.318v1.759c0.627-0.109,1.254-0.205,1.881-0.287
				c0.219,0,0.328,0.546,0.328,1.637c0,0.163-0.26,0.313-0.777,0.45c-0.573,0.163-1.064,0.286-1.473,0.368v1.881
				c0.682-0.082,1.377-0.177,2.086-0.286c0.327-0.082,0.572-0.409,0.736-0.981c0.299-1.146,0.449-2.332,0.449-3.559
				c0-0.764-0.219-1.146-0.654-1.146C464.642,67.154,463.783,67.209,462.802,67.318z"/>
			<path fill="#333333" d="M514.225,55.497c0.872,0,2.209,0.587,4.009,1.759c1.172,0.818,1.759,1.541,1.759,2.168c0,0.327-0.383,0.75-1.146,1.268
				c-1.772,0.846-4.309,2.4-7.607,4.663c0.518,0.791,0.872,1.541,1.063,2.25c4.036-0.573,7.676-1.077,10.922-1.514
				c0.681-0.3,1.458-0.45,2.331-0.45c0.218,0.683,0.491,1.31,0.818,1.882c0.545,0.981,0.872,1.896,0.981,2.74
				c-0.109,0.464-0.327,0.723-0.654,0.777c-0.191,0-0.832-0.19-1.923-0.572c-1.173-0.491-2.223-0.736-3.149-0.736
				c-2.427,0-5.358,0.178-8.794,0.531c0.082,1.037,0.122,2.236,0.122,3.6c0,2.837-0.137,5.304-0.408,7.403
				c-0.191,1.908-0.396,3.327-0.613,4.254c-0.137,0.573-0.232,1.159-0.287,1.759c-0.082,0.654-0.191,0.982-0.326,0.982
				c-0.438,0-0.846-0.097-1.229-0.287c-0.572-0.163-1.254-0.286-2.045-0.368c-1.418-0.19-2.904-0.886-4.458-2.086
				c-2.182-1.909-3.272-3.136-3.272-3.681c0-0.219,0.178-0.327,0.532-0.327c0.464,0,1.172,0.368,2.127,1.104
				c2.208,0.927,3.79,1.392,4.745,1.392c0.408,0,0.831-0.736,1.268-2.209c0.463-1.473,0.695-4.117,0.695-7.936
				c0-1.199-0.096-2.29-0.287-3.272c-0.764,0.082-1.527,0.164-2.29,0.246c-5.317,0.709-9.325,1.609-12.025,2.699
				c-0.409,0-0.832-1.146-1.269-3.436l0.941-0.205h1.309c4.526-0.627,8.727-1.227,12.599-1.8v-0.04
				c-0.683-1.418-1.487-2.277-2.413-2.577c-0.465-0.164-0.695-0.368-0.695-0.613c0-0.272,0.367-0.628,1.104-1.063
				c0.764-0.382,1.541-0.573,2.332-0.573c0.408,0,0.764,0.219,1.063,0.654c0.108,0.109,0.204,0.219,0.286,0.327
				c2.48-3.19,3.776-5.099,3.886-5.727c0-0.79-0.478-1.186-1.432-1.186c-0.899,0.109-2.358,0.682-4.376,1.718
				c-2.209,1.091-3.941,2.101-5.195,3.026c-0.383,0.328-0.75,0.491-1.104,0.491c-0.409,0-0.927-0.722-1.554-2.168
				c-0.682-1.009-1.023-1.636-1.023-1.882c0-0.245,0.328-0.408,0.982-0.49c1.281-0.164,3.463-0.613,6.545-1.35
				C510.339,55.879,512.725,55.497,514.225,55.497z"/>
		</g>
	</g>
</g>
<g id="Layer_2">
</g>
<g id="Layer_3">
</g>
</svg>
