<?xml version="1.0" encoding="utf-8"?>
<!-- Generator: Adobe Illustrator 16.0.0, SVG Export Plug-In . SVG Version: 6.00 Build 0)  -->
<!DOCTYPE svg PUBLIC "-//W3C//DTD SVG 1.0//EN" "http://www.w3.org/TR/2001/REC-SVG-20010904/DTD/svg10.dtd">
<svg version="1.0" xmlns="http://www.w3.org/2000/svg" xmlns:xlink="http://www.w3.org/1999/xlink" x="0px" y="0px"
	 width="482.475px" height="150px" viewBox="0 0 482.475 150" enable-background="new 0 0 482.475 150" xml:space="preserve">
<g id="Layer_1">
	<g>
		<g>
			<g>
				<path fill="#333333" d="M143.428,131.49c-1.711,0.01-3.671-0.682-4.652-1.543c-1.229-1.023-1.783-2.102-2.219-3.346
					c-3.655,2.076-7.916,4.969-10.482,4.982c-6.782,0.037-11.27-4.701-11.296-9.682c-0.021-3.951,2.409-6.346,7.351-7.781
					c5.798-1.654,12.08-3.746,14.026-5.219l-0.007-1.408c-0.031-5.682-2.98-8.699-7.319-8.674c-1.589,0.008-2.93,0.557-3.842,1.428
					c-1.154,1.035-1.939,2.826-2.721,5.375c-0.542,1.408-1.517,1.955-2.922,1.963c-1.771,0.01-4.163-1.602-4.175-3.496
					c-0.005-1.191,1.15-2.172,2.916-3.264c2.619-1.691,8.773-4.756,13.842-5.65c2.871-0.016,5.501,0.566,7.587,1.963
					c3.373,2.471,4.368,5.768,4.392,9.99l0.077,14.236c0.019,3.518,1.613,4.701,3.263,4.691c1.04-0.006,2.26-0.391,3.235-0.883
					l0.928,2.105L143.428,131.49z M136.171,111.662c-1.828,0.824-5.487,2.359-7.378,3.127c-3.536,1.373-5.483,2.953-5.468,5.875
					c0.023,4.168,3.578,5.99,6.267,5.977c2.139-0.014,5.064-1.221,6.646-2.635L136.171,111.662z"/>
				<path fill="#333333" d="M184.097,130.189c-1.646,0.82-3.049,1.098-3.844,1.104c-6.049,0.031-9.426-2.982-9.46-9.369
					l-0.124-22.734l-6.171,0.033l-0.433-0.918l2.492-2.395l4.094-0.023l-0.031-5.738l6.631-5.557l1.223,0.211l0.061,11.043
					l10.143-0.057c0.922,0.863,0.626,2.594-0.593,3.305l-9.532,0.053l0.107,19.977c0.034,6.385,3.158,7.451,5.418,7.439
					c2.139-0.012,4.151-0.781,5.492-1.383l0.806,2.16L184.097,130.189z"/>
				<path fill="#333333" d="M206.689,130.229l-0.011-2.111c5.68-0.518,6.349-1.008,6.318-6.529l-0.085-15.914
					c-0.026-4.979-0.334-5.357-5.716-6.141l-0.01-1.895c4.883-0.73,9.462-1.676,13.548-3.105l0.146,27.012
					c0.03,5.469,0.644,5.898,6.451,6.461l0.012,2.111L206.689,130.229z M211.205,83.758c-0.014-2.545,2.299-4.449,4.987-4.465
					c2.688-0.014,4.775,1.869,4.789,4.414c0.012,2.273-2.054,4.287-4.864,4.303C213.55,88.023,211.217,86.031,211.205,83.758z"/>
				<path fill="#333333" d="M267.824,104.998c-1.798-4.646-4.991-7.93-9.452-7.906c-3.299,0.018-5.609,2.195-5.593,5.281
					c0.018,3.248,3.45,5.123,7.552,6.508c6.916,2.4,11.637,5.242,11.668,10.82c0.04,7.416-7.64,11.137-15.154,11.178
					c-4.704,0.025-8.991-1.414-10.524-2.541c-0.616-1.025-1.502-6.596-1.642-9.736l2.504-0.338c1.74,5.297,5.859,9.982,11.236,9.955
					c3.3-0.018,6.219-2.254,6.202-5.393c-0.018-3.248-2.409-5.023-7.063-6.838c-5.266-2.082-11.574-4.756-11.608-11.033
					c-0.03-5.631,5.443-10.424,13.998-10.469c3.91-0.021,6.356,0.668,8.193,1.361c0.805,1.729,1.93,6.596,2.124,8.488
					L267.824,104.998z"/>
				<path fill="#333333" d="M295.985,95.211l-0.01-1.787c-0.014-2.545,0.342-4.658,0.943-6.393c0.601-1.789,2.169-5.641,7.16-9.35
					c3.164-2.506,6.394-3.934,10.119-4.332c3.239,0.037,5.813,1.162,7.348,2.668c0.982,0.914,1.05,1.996,0.505,3.029
					c-0.363,0.65-0.972,1.303-1.822,1.904c-0.975,0.654-1.77,0.658-2.628-0.148c-1.843-1.561-4.54-3.115-7.473-3.1
					c-2.322,0.012-3.661,0.994-4.631,2.406c-1.03,1.414-1.927,5.1-1.709,11.756l0.019,3.303l10.754-0.059
					c0.554,0.699,0.137,2.762-0.959,3.307l-9.777,0.053l0.121,22.41c0.032,5.848,0.767,6.115,7.858,6.727l0.011,2.055l-22.119,0.121
					l-0.012-2.111c5.74-0.518,6.472-1.01,6.443-6.205l-0.124-22.953l-6.416,0.035l-0.432-0.916l2.553-2.398L295.985,95.211z"/>
				<path fill="#333333" d="M372.296,96.908c-4.823,0.678-5.614,1.33-8.034,5.891c-2.238,4.018-5.135,10.693-11.359,23.555
					c-6.104,12.645-8.036,17.148-9.539,21.648c-0.419,1.52-1.578,1.904-2.801,1.91c-2.627,0.016-5.448-1.92-5.459-4.029
					c-0.008-1.299,0.784-2.008,2.306-2.936c3.107-1.641,4.869-3.438,7.05-7.021c1.575-2.607,2.3-4.18,2.662-5.102
					c0.543-1.193,0.354-2.275-0.203-3.57c-3.899-9.346-8.169-19.174-10.703-24.357c-1.979-4.104-2.961-5.125-7.853-5.75
					l-0.011-2.109l19.187-0.104l0.133,2.107c-4.212,0.674-4.758,1.381-3.582,4.242l8.294,19.336
					c2.416-4.992,6.275-14.379,8.023-19.152c1.145-2.93,0.406-3.844-4.668-4.469l-0.012-2.109l16.558-0.09L372.296,96.908z"/>
			</g>
		</g>
		<g>
			<path fill="#333333" d="M77.566,33.436C73.658,20.913,66.743,6.793,47.802,6.793C30.966,6.793,23,17.316,23,27.973
				c0,13.72,10.373,20.38,28.711,28.24c19.092,8.258,38.934,17.449,38.934,38.895c0,20.912-20.143,37.563-50.809,37.563
				c-9.32,0-16.836-1.465-22.549-3.195c-5.712-1.6-8.868-3.197-11.123-4.131C4.66,121.482,1.353,103.766,0,94.309l6.765-1.732
				c3.758,12.389,14.73,32.768,37.73,32.768c16.385,0,26.006-8.924,26.006-22.91c0-14.119-12.026-20.779-29.163-28.771
				C25.706,66.734,4.209,57.012,4.209,35.564C4.209,16.117,21.948,0,51.26,0c10.672,0,20.744,2.265,29.162,4.662
				c0.901,6.927,1.953,14.918,3.908,27.707L77.566,33.436z"/>
		</g>
	</g>
</g>
<g id="Layer_2">
</g>
<g id="Layer_3">
</g>
</svg>
