<?xml version="1.0" encoding="utf-8"?>
<!-- Generator: Adobe Illustrator 16.0.0, SVG Export Plug-In . SVG Version: 6.00 Build 0)  -->
<!DOCTYPE svg PUBLIC "-//W3C//DTD SVG 1.0//EN" "http://www.w3.org/TR/2001/REC-SVG-20010904/DTD/svg10.dtd">
<svg version="1.0" xmlns="http://www.w3.org/2000/svg" xmlns:xlink="http://www.w3.org/1999/xlink" x="0px" y="0px" width="637.4px"
	 height="88.997px" viewBox="0 0 637.4 88.997" enable-background="new 0 0 637.4 88.997" xml:space="preserve">
<g id="Layer_1">
	<g>
		<path fill="#FFFFFF" d="M14.071,12.557c0.3,0,0.45,0.654,0.45,1.963c0,0.301-0.314,0.588-0.941,0.859
			c-0.927,0.41-1.786,0.764-2.576,1.064c-0.056,1.09-0.097,2.277-0.123,3.559c1.009-0.436,2.182-0.887,3.518-1.35
			c0.3,0,0.45,0.109,0.45,0.326c0,0.137-0.123,0.301-0.368,0.492h1.227c3.981-0.627,7.567-1.16,10.758-1.596
			c-0.164-0.082-0.301-0.15-0.409-0.205c-0.709-0.354-1.459-0.885-2.25-1.596c-0.981,0.328-1.786,0.533-2.413,0.613
			c-0.627,0.082-1.036,0.178-1.227,0.287c-0.301,0.246-0.587,0.369-0.859,0.369c-0.572,0-0.858-0.547-0.858-1.637
			c0-3.98-0.164-7.035-0.491-9.162c0.108-0.764,0.395-1.146,0.859-1.146c0.136,0,0.367,0.068,0.695,0.205
			c0.108-0.027,0.19-0.055,0.245-0.082c3.381-0.764,5.344-1.145,5.89-1.145c1.036,0,2.086,0.178,3.149,0.531
			c0.873,0.273,1.31,0.586,1.31,0.941c-0.082,0.137-0.26,0.354-0.532,0.654c-0.546,0.545-0.887,3.803-1.022,9.775
			c-0.027,0.627-0.15,1.078-0.368,1.35c1.336-0.189,2.591-0.367,3.763-0.531c0.409-0.191,0.887-0.287,1.432-0.287
			c0.137,0.52,0.328,0.996,0.573,1.432c0.409,0.736,0.654,1.404,0.736,2.004c-0.082,0.41-0.26,0.643-0.532,0.695
			c-0.137,0-0.627-0.162-1.473-0.49c-0.873-0.354-1.69-0.531-2.454-0.531c-1.281,0-2.822,0.096-4.622,0.285
			c-0.027,0.383-0.055,0.834-0.081,1.352c-0.028,0.627-0.041,1.199-0.041,1.717c1.526-0.137,2.863-0.354,4.008-0.654
			c0.354-0.137,0.6-0.205,0.736-0.205c0.3,0.055,0.641,0.764,1.022,2.127c-0.027,0.137-0.204,0.232-0.531,0.287
			c-1.882,0.682-3.368,1.092-4.458,1.227c-0.328,0.055-0.614,0.096-0.859,0.123c-0.027,1.201-0.055,2.072-0.082,2.617
			c1.254,0.547,2.836,1.5,4.745,2.863c1.09,0.818,2.168,1.322,3.231,1.514c0.545,0.137,1.649,0.545,3.313,1.227
			c1.036,0.383,1.909,0.9,2.618,1.555c0,0.465-1.405,0.695-4.213,0.695c-1.854-0.301-3.3-0.477-4.336-0.531
			c-0.6,0-0.94-0.246-1.022-0.736c-0.055-0.982-0.491-1.717-1.309-2.209c-0.846-0.49-1.732-0.9-2.659-1.227
			c-0.791-0.219-2.658-0.982-5.604-2.291c-0.654-0.299-1.173-0.463-1.555-0.49c-0.218,0.383-0.478,0.695-0.776,0.941
			c-0.437,0.408-0.655,0.816-0.655,1.227c-0.109,0.408-0.408,0.736-0.899,0.98c-0.491,0.137-0.928,0.383-1.309,0.736
			c-0.573,0.355-1.296,0.627-2.168,0.818c-0.654,0.137-1.146,0.219-1.473,0.246c0.054,0.408,0.108,0.764,0.163,1.063
			c0,0.6-0.109,0.928-0.327,0.982c-0.354,0-1.009-0.465-1.963-1.391c-0.764-0.9-1.5-1.514-2.209-1.84
			c-0.764-0.438-1.663-1.229-2.699-2.373c0.054-0.273,0.341-0.436,0.858-0.49c1.146,0.436,1.949,0.654,2.413,0.654
			c0.491,0,0.791-0.314,0.9-0.941c0.055-0.627,0.108-2.535,0.163-5.727L6.34,25.729c-1.091,0.682-1.95,1.404-2.577,2.168
			c-0.546,0.572-0.996,0.857-1.35,0.857c-0.191,0-0.505-0.285-0.941-0.857C0.491,26.695,0,25.959,0,25.688
			c0-0.246,0.34-0.504,1.022-0.777c2.29-0.873,4.813-2.086,7.566-3.641c0.027-1.254,0.041-2.617,0.041-4.09
			c-1.146,0.219-2.563,0.709-4.254,1.473c-0.382,0-0.75-0.41-1.104-1.229c-0.245-0.627-0.368-1.199-0.368-1.717
			c0-0.463,0.287-0.695,0.859-0.695c0.654-0.082,2.29-0.436,4.908-1.064v-0.613c0-1.99-0.082-4.104-0.245-6.34
			C8.235,5.822,8.14,5.182,8.14,5.072C8.194,4.5,8.426,4.213,8.835,4.213c2.29,0.355,3.436,0.75,3.436,1.186
			c0,0.219-0.068,0.574-0.204,1.064c-0.219,0.654-0.424,2.168-0.614,4.539c-0.081,0.684-0.163,1.447-0.245,2.291
			C12.107,13.076,13.062,12.83,14.071,12.557z M19.551,25.441c0.109,0.137,0.219,0.273,0.328,0.41
			c0.436,0.654,1.281,1.309,2.535,1.963l0.041,0.041c0.055-1.773,0.096-4.172,0.123-7.199c-0.273,0.055-0.532,0.096-0.777,0.123
			c-3.055,0.49-5.372,1.145-6.953,1.963c-0.355,0-0.736-0.9-1.146-2.699c-1.091,0.846-2.045,1.582-2.863,2.209
			c-0.027,1.963-0.041,4.09-0.041,6.381c0.027,1.553,0.137,3.08,0.327,4.58c2.481-1.662,4.104-3.121,4.867-4.377
			c0.573-0.898,0.9-2.836,0.982-5.809c0-0.762,0.381-1.145,1.145-1.145c1.2,0.055,1.8,0.287,1.8,0.695
			c0,0.082-0.096,0.205-0.286,0.369v0.777C19.606,24.379,19.579,24.951,19.551,25.441z M21.024,14.275
			c1.036-0.082,1.908-0.26,2.618-0.531c0.272-0.109,0.463-0.164,0.572-0.164c0.218,0.055,0.437,0.518,0.654,1.391
			c0.354,0.027,0.559,0.041,0.614,0.041c0.108,0,0.204-0.205,0.286-0.613c0.026-0.873,0.055-2.945,0.082-6.219
			c0-1.227-0.437-1.84-1.31-1.84c-0.981,0.055-2.141,0.367-3.477,0.941c-0.027,0.082-0.041,0.162-0.041,0.244
			c-0.027,0.711-0.041,1.418-0.041,2.127c0.764-0.107,1.704-0.326,2.822-0.654c0.3-0.107,0.491-0.164,0.573-0.164
			c0.19,0.057,0.3,0.369,0.327,0.941c-0.027,0.547-0.245,0.982-0.654,1.309c-0.791,0.41-1.5,0.682-2.127,0.818
			c-0.327,0.082-0.654,0.178-0.981,0.287v0.531C20.943,13.104,20.969,13.621,21.024,14.275z"/>
		<path fill="#FFFFFF" d="M67.499,4.541c0.218,0,0.804,0.271,1.759,0.816c0.709,0.465,1.063,0.736,1.063,0.818
			c0,0.273-0.219,0.629-0.654,1.064c-3.246,4.199-5.659,7.676-7.24,10.43c0.272,0.109,0.572,0.232,0.9,0.369
			c1.362,0.709,2.099,1.281,2.208,1.717c-0.245,1.828-0.505,6.203-0.776,13.131l0.163,2.74c0,0.463-0.546,0.695-1.636,0.695
			c-1.063,0-1.609-0.178-1.637-0.531c0.3-2.373,0.45-6.463,0.45-12.271c-0.055-1.418-0.313-2.537-0.777-3.354
			c-0.3,0.354-0.695,0.695-1.186,1.021c-1.255,0.928-2.782,1.391-4.582,1.391c-0.845,0-1.268-0.178-1.268-0.531
			c2.509-1.854,4.73-4.336,6.667-7.445c2.235-3.189,3.981-6.258,5.235-9.203C66.379,4.826,66.816,4.541,67.499,4.541z
			 M86.477,11.779c0.491,0.109,0.995,1.256,1.514,3.438c-0.055,0.244-0.396,0.408-1.022,0.49c-1.391,0.326-2.687,0.627-3.886,0.9
			c-0.327,2.535-0.532,4.35-0.613,5.439c2.127-0.246,4.076-0.477,5.849-0.695c0.545-0.164,1.131-0.246,1.759-0.246
			c0.218,0.572,0.491,1.16,0.818,1.76c0.463,0.873,0.736,1.691,0.818,2.453c-0.109,0.492-0.314,0.777-0.614,0.859
			c-0.19,0-0.805-0.178-1.841-0.531c-1.145-0.436-2.167-0.654-3.067-0.654c-2.618,0-6.149,0.232-10.594,0.695
			c-3.872,0.408-6.776,0.939-8.712,1.594c-0.409,0-0.859-1.021-1.351-3.066l0.859-0.164h1.268c1.854-0.271,3.613-0.518,5.276-0.736
			c-0.163-1.254-0.327-2.959-0.49-5.113c-1.309,0.164-2.305,0.369-2.986,0.613c-0.3,0-0.546-0.586-0.736-1.758
			c-0.109-0.654-0.178-1.105-0.204-1.35c0.026-0.436,0.231-0.668,0.613-0.695c1.091-0.027,2.127-0.082,3.108-0.164
			c-0.109-1.744-0.204-3.695-0.286-5.85c0-0.436,0.368-0.654,1.104-0.654c1.772,0,2.659,0.314,2.659,0.941
			c0.026,0.627,0.054,1.473,0.081,2.535v2.66c1.5-0.191,2.918-0.451,4.254-0.777c0.219-2.455,0.409-5.277,0.573-8.467
			c0-0.574,0.422-0.859,1.268-0.859c2.291,0,3.436,0.381,3.436,1.145c-0.572,0.764-0.954,1.787-1.145,3.068
			c-0.219,1.473-0.424,2.85-0.614,4.131c0.3-0.082,0.559-0.164,0.777-0.246C85.386,12.066,86.095,11.834,86.477,11.779z
			 M74.534,26.955c0.463,0,0.695,0.109,0.695,0.326c-1.009,1.965-1.691,3.342-2.045,4.133c-0.191,0.736-0.437,1.404-0.736,2.004
			c-0.245,0.545-0.423,1.104-0.532,1.676c-0.109,0.465-0.272,0.697-0.49,0.697c-0.546,0-1.173-0.479-1.882-1.432
			c-1.009-1.01-1.514-1.732-1.514-2.168c0-0.273,0.218-0.479,0.654-0.615c0.546-0.326,1.063-0.748,1.555-1.268
			C70.948,29.572,72.379,28.455,74.534,26.955z M75.842,22.947c1.118-0.137,2.182-0.273,3.19-0.41
			c0.246-1.363,0.477-3.121,0.695-5.275c-1.445,0.271-2.754,0.463-3.927,0.572C75.829,20.205,75.842,21.91,75.842,22.947z
			 M80.792,26.955c1.118,0.572,2.154,1.023,3.109,1.35c0.981,0.438,2.127,1.133,3.436,2.086c0.218,0.465,0.327,0.9,0.327,1.309
			c-0.437,2.836-1.037,4.254-1.8,4.254c-0.354,0-0.641-0.26-0.859-0.777c-0.572-1.527-2.086-4.158-4.54-7.895
			C80.464,27.064,80.573,26.955,80.792,26.955z"/>
		<path fill="#FFFFFF" d="M118.349,6.545c0.518,0,1.118,0.137,1.8,0.408c3.49-0.736,6.749-1.309,9.775-1.717
			c2.154-0.219,4.022-0.328,5.604-0.328c3.545,0.328,5.345,0.873,5.399,1.637c0,0.137-0.313,0.545-0.94,1.227
			c-0.464,0.873-0.695,2.891-0.695,6.053l0.163,11.904c0,2.346,0.041,4.35,0.123,6.012c0.164,1.064,0.354,2.154,0.572,3.273
			c-0.055,0.654-0.437,1.035-1.145,1.145c-0.683,0-1.159-0.109-1.432-0.328c-0.327-0.244-1.132-0.654-2.413-1.227
			c-1.991-1.117-3.45-2.412-4.377-3.885c0-0.219,0.177-0.328,0.531-0.328c1.2,0.682,2.168,1.023,2.904,1.023
			c0.709,0,1.132-0.477,1.269-1.432c0.354-3.055,0.531-5.904,0.531-8.549c0-4.035-0.163-8.086-0.491-12.148
			c-0.163-1.309-1.022-1.963-2.576-1.963c-1.5,0-3.164,0.189-4.99,0.572c0.218,0.055,0.463,0.123,0.736,0.205
			c0.409,0.244,0.613,0.436,0.613,0.572s-0.014,0.381-0.041,0.736c-0.082,0.682-0.137,1.73-0.163,3.148c0,0.137,0,0.273,0,0.41
			c2.699-0.436,4.145-0.668,4.335-0.695c0.627,0.082,0.941,0.736,0.941,1.963c0,0.654-0.478,1.09-1.432,1.309
			c-1.01,0.055-2.142,0.205-3.396,0.449c-0.19,0.027-0.354,0.057-0.49,0.082c0,1.418-0.015,2.699-0.041,3.846
			c2.972-0.381,4.554-0.586,4.744-0.613c0.655,0.082,0.982,0.723,0.982,1.922c0,0.682-0.491,1.133-1.473,1.35
			c-1.146,0.055-2.428,0.191-3.845,0.41c-0.164,0.027-0.301,0.039-0.409,0.039c-0.027,2.291-0.041,4.037-0.041,5.236
			c0,0.709,0.014,1.322,0.041,1.842c0.082,0.764,0.122,1.404,0.122,1.922c-0.081,0.463-0.559,0.695-1.431,0.695
			c-1.5,0-2.332-0.178-2.495-0.531c0-0.355,0.081-0.656,0.245-0.9c0.054-0.383,0.082-0.832,0.082-1.35l0.122-6.586
			c-1.282,0.109-2.632,0.287-4.049,0.531c-0.546,0-0.873-0.613-0.982-1.84c0-0.545,0.328-0.914,0.982-1.105
			c1.499-0.189,2.863-0.367,4.09-0.531l0.041-3.967c-1.009,0.109-2.045,0.301-3.108,0.572c-0.601,0-0.941-0.6-1.022-1.799
			c0-0.574,0.341-0.955,1.022-1.146c1.172-0.189,2.222-0.367,3.149-0.531l0.082-4.09c0-0.301-0.109-0.615-0.327-0.941
			c-1.391,0.355-2.837,0.791-4.336,1.309c-0.082,0.055-0.15,0.096-0.205,0.123V9.98c0,3.926-0.272,7.145-0.817,9.652
			c-0.273,1.938-0.9,4.188-1.882,6.75c-0.327,0.818-0.491,1.363-0.491,1.635c0,0.355,0.027,0.561,0.082,0.615
			c0.108,0.137,0.177,0.326,0.205,0.572c0,0.273-0.846,1.117-2.536,2.535c-1.8,1.5-3.164,2.25-4.091,2.25
			c-0.518,0-0.777-0.164-0.777-0.49c0-0.191,0.219-0.613,0.655-1.268c2.699-3.328,4.403-6.191,5.112-8.59
			c0.845-3,1.269-6.559,1.269-10.676c0-1.092-0.027-2.25-0.082-3.477c-0.164-0.736-0.245-1.404-0.245-2.006
			C117.409,6.857,117.721,6.545,118.349,6.545z"/>
		<path fill="#FFFFFF" d="M171.695,15.871c0.218,0.109,0.327,0.313,0.327,0.613c0,0.137-0.097,0.436-0.287,0.898
			c-0.899,3.273-1.35,6.096-1.35,8.469c0,0.408-0.286,0.613-0.858,0.613c-0.846,0-1.896-0.328-3.149-0.982
			c-0.818-0.545-1.228-0.967-1.228-1.268c0-0.6,1.867-3.137,5.604-7.607C171.135,16.115,171.449,15.871,171.695,15.871z
			 M174.435,14.684c0.545,0,1.24,0.191,2.086,0.572c0.491,0.246,0.736,0.547,0.736,0.9c0,0.709-0.082,1.568-0.245,2.578
			c-0.056,1.254-0.082,2.672-0.082,4.254c0,0.6,0.231,1.254,0.695,1.963c1.036,1.418,3.381,2.127,7.035,2.127
			c2.209,0,3.872-0.246,4.99-0.736c0.654-0.301,0.981-0.805,0.981-1.514s-0.137-1.637-0.409-2.781
			c-0.272-1.227-0.791-2.85-1.554-4.867c0-0.109,0.108-0.164,0.327-0.164c0.518,0,1.322,0.777,2.413,2.332
			c0.845,1.172,1.526,2.549,2.045,4.131c0.518,1.609,0.818,2.932,0.9,3.967c0.026,0.873,0.108,1.568,0.245,2.086
			c0.108,0.547,0.164,1.01,0.164,1.391c0,0.629-0.287,0.941-0.859,0.941c-0.519,0-1.309-0.109-2.372-0.328
			c-1.173-0.135-3.3-0.203-6.381-0.203c-4.009,0-6.846-0.887-8.508-2.658c-1.282-1.393-2.019-3.887-2.209-7.486
			c-0.109-1.99-0.314-3.926-0.613-5.809C173.822,14.916,174.026,14.684,174.435,14.684z M179.834,15.012
			c0.271,0,0.64,0.068,1.104,0.205c0.6,0.217,1.173,0.326,1.719,0.326c0.817,0,2.208-0.859,4.172-2.576
			c1.309-1.146,2.153-1.719,2.536-1.719c0.327,0,0.49,0.109,0.49,0.328c0,0.299-0.3,0.695-0.899,1.186
			c-0.654,0.818-1.623,2.195-2.904,4.131c-0.899,1.445-1.923,2.25-3.067,2.414c-0.628,0-1.446-0.355-2.454-1.064
			c-0.764-1.117-1.146-2.018-1.146-2.699C179.384,15.189,179.534,15.012,179.834,15.012z M195.377,12.885
			c0.545,0.219,1.063,0.805,1.554,1.758c0.709,0.982,1.622,1.91,2.741,2.781c1.117,1.064,1.718,2.184,1.8,3.355
			c-0.056,0.518-0.342,0.777-0.859,0.777c-1.582-0.709-3.041-1.229-4.377-1.555c-1.445-0.273-2.168-1.65-2.168-4.131
			c0-0.955,0.178-1.732,0.532-2.332C194.873,13.158,195.131,12.939,195.377,12.885z"/>
		<path fill="#FFFFFF" d="M231.708,12.721c0.409,0,0.613,0.709,0.613,2.127c0,0.328-0.382,0.613-1.146,0.859
			c-0.627,0.354-1.213,0.654-1.759,0.9c-0.055,1.008-0.096,2.086-0.122,3.23c0.79-0.381,1.649-0.777,2.576-1.186
			c0.3,0,0.45,0.109,0.45,0.326c0,0.219-0.272,0.531-0.818,0.941c-0.817,0.791-1.568,1.486-2.249,2.086
			c-0.027,2.182-0.041,4.596-0.041,7.24c0.055,2.264,0.286,4.566,0.695,6.912c0,0.572-0.123,0.887-0.368,0.941
			c-0.382,0-1.063-0.451-2.045-1.35c-0.736-0.818-1.487-1.406-2.25-1.76c-0.764-0.408-1.677-1.172-2.74-2.291
			c0.082-0.271,0.368-0.422,0.858-0.449c1.282,0.301,2.209,0.449,2.782,0.449c0.408,0,0.654-0.34,0.735-1.021
			c0.055-0.654,0.109-2.836,0.164-6.545l-2.413,2.291c-1.01,0.764-1.814,1.541-2.413,2.33c-0.465,0.684-0.846,1.023-1.146,1.023
			c-0.245,0-0.587-0.313-1.022-0.941c-0.982-1.199-1.473-1.936-1.473-2.209c0-0.244,0.341-0.518,1.022-0.816
			c2.127-1.01,4.472-2.441,7.035-4.295c0.137-0.109,0.286-0.219,0.45-0.328v-3.641c-0.164,0.055-0.327,0.096-0.491,0.123
			c-1.063,0.219-2.358,0.764-3.886,1.637c-0.519,0-0.981-0.504-1.391-1.514c-0.272-0.736-0.409-1.432-0.409-2.086
			c0-0.463,0.313-0.695,0.941-0.695c0.708-0.082,2.454-0.451,5.235-1.105v-0.777c0-2.127-0.041-4.402-0.123-6.83
			c-0.109-1.254-0.163-1.949-0.163-2.086c0.026-0.518,0.231-0.777,0.613-0.777c2.072,0.301,3.108,0.668,3.108,1.105
			c0,0.271-0.041,0.654-0.122,1.145c-0.191,0.736-0.368,2.359-0.532,4.867c-0.109,0.791-0.191,1.691-0.245,2.699
			C230.276,13.09,230.971,12.912,231.708,12.721z M237.883,10.758c0.573,0,1.2,0.15,1.882,0.449c0.518,0.164,0.777,0.465,0.777,0.9
			c-0.164,0.709-0.354,1.717-0.572,3.027c-0.437,4.09-0.818,7.063-1.146,8.916c-0.191,1.254-0.301,2.154-0.327,2.699
			c0,0.219,0.067,0.451,0.204,0.695c0.082,0.219,0.096,0.438,0.041,0.654c0.055,0.574-0.382,1.27-1.309,2.086
			c-1.419,1.42-3.327,2.578-5.727,3.479c-0.219,0-0.327-0.15-0.327-0.451s0.3-0.736,0.899-1.309c2.509-2.48,3.927-5.209,4.254-8.18
			c0.055-0.191,0.082-0.355,0.082-0.492c-1.909,1.801-2.891,2.795-2.945,2.986c-0.137,0.137-0.245,0.273-0.327,0.408
			c-0.245,0.438-0.531,0.654-0.858,0.654c-0.273-0.025-0.887-0.422-1.841-1.186c-0.601-0.518-0.9-0.832-0.9-0.941
			c0.027-0.299,0.137-0.557,0.327-0.775c0.382-0.109,1.05-0.465,2.005-1.064c1.718-1.008,3.313-1.84,4.785-2.494
			c0.027-0.547,0.055-1.105,0.082-1.678c-0.928-0.219-1.786-0.381-2.577-0.49c-1.036-0.109-1.554-0.654-1.554-1.637
			s0.177-1.813,0.531-2.496c0.272-0.354,0.532-0.559,0.777-0.613c0.354,0.109,0.723,0.438,1.104,0.982
			c0.463,0.572,1.09,1.092,1.882,1.555c0.054-1.473,0.108-3.027,0.163-4.664C237.27,11.1,237.475,10.758,237.883,10.758z
			 M243.651,6.34c0.736,0,1.5,0.178,2.291,0.531c0.409,0.191,0.613,0.451,0.613,0.777c0,0.438-0.137,0.955-0.409,1.555
			c-0.409,1.691-0.709,3.723-0.899,6.094c-0.027,0.191-0.041,0.369-0.041,0.533c0.545-0.736,1.063-1.322,1.554-1.76
			c0.791-0.844,1.322-1.5,1.596-1.963c0.218-0.354,0.45-0.531,0.695-0.531c0.409,0,1.09,0.313,2.045,0.939
			c0.927,0.654,1.391,1.119,1.391,1.391c0,0.219-0.178,0.369-0.531,0.451c-0.654,0.137-1.173,0.313-1.555,0.531
			c-0.791,0.465-1.432,0.887-1.922,1.268c-0.818,0.682-1.5,1.201-2.046,1.555c-0.546,0.355-1.022,0.709-1.432,1.063
			c0,0.191-0.014,0.369-0.041,0.533c0.818,0.244,1.964,0.654,3.437,1.227c0.954,0.438,1.718,0.695,2.29,0.777
			c0.327,0.273,0.491,1.295,0.491,3.068c0,0.463-0.178,1.049-0.532,1.758c-0.272,0.547-0.545,0.818-0.817,0.818
			c-0.191,0-0.396-0.205-0.613-0.613c-1.31-1.99-2.755-3.764-4.336-5.318c-0.082,2.127-0.123,4.391-0.123,6.791
			c0,0.873,0.286,1.568,0.859,2.086c0.627,0.545,1.608,0.818,2.944,0.818c1.745,0,2.932-0.518,3.559-1.555
			c0.518-0.955,0.9-3.258,1.146-6.912c0.027-0.465,0.082-0.695,0.164-0.695c0.245,0,0.504,0.627,0.776,1.881
			c0.272,0.627,0.532,1.609,0.777,2.945c-0.055,1.5,0.108,2.822,0.491,3.967c0.3,1.227,0.45,2.127,0.45,2.699
			c0,0.246-0.396,0.492-1.187,0.736c-1.063,0.246-3.123,0.369-6.177,0.369c-1.609,0-2.863-0.232-3.763-0.695
			c-0.628-0.246-1.241-0.887-1.841-1.924c-0.519-1.145-0.777-2.385-0.777-3.721c0-3.191,0.068-6.627,0.205-10.309
			c0.163-3.652,0.259-7.09,0.286-10.307C242.724,6.627,243.051,6.34,243.651,6.34z"/>
		<path fill="#FFFFFF" d="M302.355,17.016c0.3,0,0.45,0.545,0.45,1.637c0,0.244-0.26,0.463-0.777,0.654
			c-1.146,0.191-2.195,0.34-3.149,0.449c-0.191,1.391-0.327,2.428-0.409,3.109c1.772-0.055,3.286-0.219,4.54-0.492
			c0.9-0.217,1.609-0.326,2.127-0.326c0.354,0,0.777,0.887,1.269,2.658c-0.027,0.301-0.232,0.449-0.613,0.449l-1.964-0.162
			c-1.473,0-4.677,0.137-9.612,0.408c-0.818,0.055-1.609,0.137-2.372,0.246c0.136,0.082,0.259,0.15,0.368,0.205
			c0.518,0.49,0.845,0.857,0.981,1.104c0,0.082-0.109,0.178-0.327,0.287c-0.955,0.682-2.086,1.58-3.395,2.699
			c-0.191,0.191-0.424,0.367-0.696,0.531c1.282,0.246,2.577,0.531,3.887,0.859c2.89,0.953,6.544,1.58,10.962,1.881
			c3.845,0.301,6.353,0.846,7.525,1.637c0.219,0.137,0.327,0.285,0.327,0.449c-2.427,1.418-5.685,2.127-9.775,2.127
			c-1.036-0.082-1.854-0.354-2.454-0.818c-1.009-1.008-2.563-1.84-4.663-2.494c-3.981-1.283-7.908-1.922-11.78-1.922
			c-2.1,0-3.79,0.271-5.071,0.816c-0.764,0.328-1.282,0.492-1.555,0.492c-0.546,0-1.091-0.41-1.636-1.229
			c-0.327-0.68-0.491-1.131-0.491-1.35c0-0.354,0.204-0.531,0.613-0.531c1.336,0,2.7-0.082,4.091-0.246
			c1.227-0.436,1.841-1.008,1.841-1.717c0-0.463-0.56-1.432-1.678-2.904c-0.736-0.791-1.104-2.549-1.104-5.277
			c0-0.762-0.546-1.295-1.636-1.594c-0.327-0.055-0.491-0.178-0.491-0.369c0.19-0.326,1.159-0.49,2.904-0.49
			c2.072,0.273,3.108,0.777,3.108,1.514c0,0.191-0.204,0.586-0.613,1.186c-0.682,1.174-1.022,2.236-1.022,3.191
			c0.108,1.662,1.022,3.121,2.74,4.375c0.573,0.602,0.859,0.955,0.859,1.064c0,0.326-0.041,0.613-0.123,0.859
			c1.118,0,2.235,0.068,3.354,0.203c0.572-0.762,1.146-1.607,1.718-2.535c0.6-0.9,0.954-1.486,1.063-1.76
			c-1.909,0.246-3.627,0.547-5.154,0.9c-0.218,0-0.49-0.23-0.817-0.695c-0.354-0.709-0.532-1.131-0.532-1.268
			c0-0.219,0.218-0.369,0.654-0.449c1.555-0.055,3.478-0.246,5.768-0.574c-0.027-1.199-0.082-2.193-0.163-2.984
			c-0.955,0.109-1.937,0.244-2.945,0.408c-0.273,0-0.532-0.258-0.777-0.777c-0.163-0.408-0.245-0.791-0.245-1.145
			c0-0.219,0.177-0.328,0.531-0.328c0.573-0.027,1.622-0.135,3.149-0.326c-0.081-0.545-0.178-0.941-0.286-1.188
			c-0.163-0.326-0.259-0.6-0.286-0.818c0-0.326,0.654-0.49,1.964-0.49c0.981,0,1.472,0.287,1.472,0.859v1.268
			c1.2-0.137,2.536-0.299,4.009-0.49c0.027-0.463,0.055-0.955,0.082-1.473c0-0.408,0.382-0.613,1.146-0.613
			c1.636,0,2.454,0.26,2.454,0.777c-0.219,0.271-0.368,0.572-0.45,0.898C300.255,17.275,301.292,17.152,302.355,17.016z
			 M279.736,7.977c0.19,0,0.395,0.367,0.613,1.104c0.19,0.928,0.423,1.582,0.695,1.963c0.546,1.119,0.818,2.02,0.818,2.701
			c0,0.354-0.109,0.613-0.327,0.775c-0.327,0.219-0.71,0.328-1.146,0.328c-0.682,0-1.418-0.271-2.209-0.818
			c-0.572-0.408-0.858-0.791-0.858-1.145c0-1.555,0.354-2.863,1.063-3.928C279.067,8.303,279.517,7.977,279.736,7.977z
			 M292.17,4.377c0.327,0,0.858,0.164,1.595,0.49c0.709,0.328,1.063,0.654,1.063,0.982c0,0.082-0.096,0.23-0.286,0.449
			c-0.3,0.49-0.695,1.309-1.186,2.455c0.108,0.189,0.163,0.477,0.163,0.857c0,0.355-0.286,0.588-0.858,0.695
			c-0.546,0.027-1.173,0.137-1.882,0.328c-0.573,0.082-1.118,0.15-1.637,0.205c-0.709,0.082-1.432,0.219-2.167,0.408
			c-0.028,0.383-0.041,0.777-0.041,1.186c0,0.355,0.204,0.656,0.613,0.9c0.436,0.273,1.104,0.41,2.004,0.41
			c1.254,0,2.113-0.15,2.577-0.451c0.382-0.271,0.682-0.9,0.899-1.881c0.027-0.219,0.082-0.328,0.164-0.328
			c0.136,0,0.3,0.219,0.491,0.654c0.163,0.219,0.327,0.547,0.49,0.982c-0.027,0.545,0.096,1.01,0.368,1.391
			c0.19,0.408,0.286,0.709,0.286,0.9c0,0.164-0.3,0.313-0.899,0.449c-0.736,0.164-2.195,0.246-4.377,0.246
			c-1.118,0-1.978-0.123-2.576-0.369c-0.437-0.135-0.873-0.477-1.31-1.021c-0.354-0.572-0.531-1.199-0.531-1.883
			c0-1.09,0.067-2.234,0.204-3.436c0.164-1.227,0.259-2.385,0.286-3.477c0.055-0.408,0.287-0.613,0.695-0.613
			c0.491,0,0.968,0.096,1.432,0.287c0.6-0.082,1.432-0.246,2.495-0.492C291.393,4.486,292.034,4.377,292.17,4.377z M287.63,7.443
			c-0.137,0.273-0.232,0.574-0.286,0.9c-0.082,0.355-0.15,0.723-0.205,1.105c1.527-0.246,2.713-0.451,3.559-0.615
			c0.354-0.844,0.532-1.391,0.532-1.635c0-0.682-0.232-1.023-0.695-1.023c-0.818,0.246-1.609,0.547-2.373,0.9
			C287.943,7.24,287.766,7.363,287.63,7.443z M292.17,23.479c1.09-0.109,2.222-0.219,3.395-0.328
			c0.109-0.762,0.205-1.771,0.287-3.025c-0.818,0.109-1.568,0.189-2.25,0.244c-0.491,0.027-1.01,0.068-1.555,0.123
			C292.075,21.447,292.116,22.441,292.17,23.479z M302.028,3.764c0.3,0,0.818,0.15,1.555,0.449c0.681,0.328,1.022,0.668,1.022,1.023
			c0,0.08-0.109,0.217-0.327,0.408c-0.273,0.518-0.683,1.336-1.228,2.455c0.19,0.244,0.286,0.586,0.286,1.021
			c0,0.328-0.286,0.547-0.858,0.654c-0.573,0.027-1.228,0.123-1.964,0.287c-0.654,0.109-1.241,0.178-1.759,0.203
			c-0.764,0.082-1.513,0.205-2.249,0.369c-0.027,0.436-0.041,0.873-0.041,1.309c0,0.355,0.218,0.654,0.654,0.9
			c0.463,0.246,1.213,0.367,2.25,0.367c1.444,0,2.439-0.176,2.985-0.531c0.409-0.271,0.736-1.008,0.981-2.209
			c0.027-0.217,0.082-0.326,0.164-0.326c0.136,0,0.3,0.23,0.491,0.695c0.163,0.271,0.327,0.668,0.49,1.186
			c-0.027,0.6,0.082,1.145,0.327,1.637c0.218,0.463,0.327,0.805,0.327,1.021c0,0.137-0.327,0.287-0.981,0.451
			c-0.818,0.162-2.413,0.244-4.785,0.244c-1.2,0-2.114-0.135-2.741-0.408c-0.49-0.137-0.954-0.477-1.391-1.023
			c-0.382-0.627-0.572-1.295-0.572-2.004c0-1.117,0.082-2.316,0.245-3.6c0.218-1.281,0.354-2.48,0.409-3.6
			c0.027-0.463,0.231-0.695,0.613-0.695c0.518,0,0.995,0.096,1.432,0.287c0.6-0.055,1.486-0.178,2.659-0.369
			C301.223,3.832,301.891,3.764,302.028,3.764z M296.465,25.852c1.581,0.463,2.985,0.939,4.213,1.43
			c0.6,0.301,0.94,0.588,1.022,0.859c0,0.711-0.137,1.801-0.409,3.273c-0.219,0.871-0.464,1.309-0.736,1.309
			c-0.219,0-0.505-0.232-0.858-0.695c-0.628-1.555-1.596-3.246-2.904-5.072c-0.464-0.271-0.695-0.477-0.695-0.613
			C296.097,26.014,296.219,25.852,296.465,25.852z M297.12,6.789c-0.109,0.273-0.191,0.561-0.245,0.859
			c-0.082,0.383-0.15,0.777-0.205,1.186c1.608-0.217,2.863-0.381,3.764-0.49c0.381-0.926,0.572-1.527,0.572-1.799
			c0-0.682-0.204-1.023-0.613-1.023c-0.873,0.219-1.718,0.49-2.536,0.818C297.583,6.531,297.337,6.682,297.12,6.789z"/>
		<path fill="#FFFFFF" d="M338.644,5.398c0.3,0,0.859,0.301,1.678,0.9c0.6,0.736,0.899,1.295,0.899,1.678
			c0,0.301-0.313,0.736-0.94,1.309c-0.573,0.6-1.104,1.404-1.596,2.412c-0.409,0.764-0.995,1.664-1.759,2.701
			c1.091-0.328,2.141-0.492,3.149-0.492c0.655,0,1.581,0.109,2.782,0.328c0.899,0.164,1.35,0.49,1.35,0.982
			c-0.027,0.107-0.082,0.34-0.164,0.695c-0.137,0.709-0.231,1.854-0.286,3.436c-0.137,3.844-0.327,6.844-0.572,8.998
			c-0.082,0.982-0.164,1.949-0.246,2.904c-0.027,0.518-0.096,0.777-0.204,0.777c-0.219,0-0.832-0.314-1.841-0.941
			c-0.791-0.436-1.568-1.145-2.331-2.127c-0.9,0.465-1.65,0.764-2.25,0.9c-0.464,0.082-1.009,0.26-1.636,0.531
			c0,0.355-0.601,0.588-1.8,0.695c-0.219,0-0.491-1.596-0.818-4.785c-0.301-3.49-0.45-6.967-0.45-10.43
			c0-0.328,0.259-0.492,0.777-0.492c0.218,0,0.695,0.123,1.432,0.369c0.272-0.137,0.545-0.287,0.818-0.451
			c0.081-0.08,0.149-0.176,0.204-0.285c1.555-4.99,2.536-7.99,2.945-9C338.167,5.604,338.454,5.398,338.644,5.398z M334.472,26.873
			c0.981-0.082,2.536-0.258,4.663-0.531c0.272,0,0.423,0.559,0.45,1.676c0.245,0.082,0.409,0.123,0.49,0.123
			c0.219,0,0.354-0.463,0.409-1.391c0.19-2.453,0.286-4.881,0.286-7.279c-0.055-2.1-0.709-3.15-1.963-3.15
			c-0.464,0-1.146,0.15-2.045,0.449c-0.628,0.273-1.351,0.805-2.168,1.596c-0.109,0.955-0.178,1.773-0.205,2.455
			c1.036-0.109,2.563-0.301,4.581-0.574c0.3,0,0.45,0.602,0.45,1.801c0,0.273-0.327,0.504-0.981,0.695
			c-0.955,0.355-1.772,0.586-2.454,0.695c-0.464,0.055-0.996,0.205-1.596,0.449C334.417,24.76,334.445,25.756,334.472,26.873z
			 M351.856,3.764c0.682,0.027,1.445,0.299,2.291,0.816c0.654,0.52,0.981,0.996,0.981,1.432c0,0.109-0.096,0.219-0.286,0.328
			c-0.873,0.6-2.114,2.332-3.723,5.195c-0.464,0.791-0.914,1.527-1.35,2.209c1.228-0.164,2.521-0.396,3.886-0.695
			c2.427-0.41,4.172-0.615,5.235-0.615c2.1,0.273,3.149,0.764,3.149,1.473c0,0.164-0.272,0.506-0.817,1.023
			c-0.409,0.6-0.642,1.814-0.695,3.641c-0.137,3.107-0.464,5.971-0.982,8.59c-0.545,2.754-1.104,4.662-1.677,5.727
			c-0.627,1.063-1.132,1.908-1.514,2.535c-0.137,0.6-0.437,0.9-0.899,0.9c-0.736-0.355-1.568-0.588-2.495-0.695
			c-0.764-0.328-1.868-1.064-3.313-2.209c-1.581-0.982-2.85-2.305-3.804-3.969c0-0.217,0.164-0.326,0.491-0.326
			c2.508,1.717,4.403,2.576,5.686,2.576c1.499-0.082,2.631-1.063,3.395-2.945c1.009-3.408,1.514-6.461,1.514-9.162
			c0-3.162-0.75-4.744-2.25-4.744c-1.473,0-3.709,0.49-6.708,1.473c-0.082,0-0.137-0.014-0.163-0.041
			c-0.655,0.764-1.282,1.404-1.882,1.922c-0.846,0.629-1.364,0.941-1.555,0.941c-0.219,0-0.327-0.109-0.327-0.328
			c1.2-2.672,2.522-5.166,3.968-7.484c0.791-1.555,1.704-3.695,2.74-6.422C351.051,4.145,351.419,3.764,351.856,3.764z
			 M347.479,19.143c0.464,0.055,0.9,0.205,1.31,0.449c0.709,0.355,1.636,0.682,2.781,0.982c0.763,0.164,1.146,0.6,1.146,1.309
			c-0.027,0.438-0.056,0.955-0.082,1.555c0,0.682-0.109,1.309-0.327,1.881c-0.219,0.465-0.464,0.695-0.736,0.695
			c-0.818,0-1.473-0.477-1.964-1.432c-0.954-2.234-1.69-3.611-2.208-4.131c-0.409-0.326-0.614-0.613-0.614-0.859
			C346.784,19.375,347.015,19.225,347.479,19.143z"/>
		<path fill="#FFFFFF" d="M412.237,10.145c-1.772,0-3.858,0.082-6.258,0.244c0.164,0.137,0.3,0.26,0.409,0.369
			c0.845,0.682,1.268,1.24,1.268,1.676c0,0.164-0.137,0.301-0.409,0.41c-0.3,0.191-0.572,0.436-0.817,0.736
			c-0.354,0.436-0.941,0.955-1.759,1.555c0.79-0.082,1.499-0.123,2.127-0.123c3.98,0.301,6.013,0.791,6.095,1.473
			c0,0.109-0.273,0.436-0.818,0.98c-0.354,0.654-0.532,2.182-0.532,4.582l0.164,9.08c0,1.719,0.026,3.191,0.082,4.418
			c0.136,0.791,0.286,1.596,0.449,2.412c-0.055,0.682-0.382,1.051-0.981,1.105c-0.818,0-1.391-0.109-1.718-0.328
			c-0.409-0.244-1.377-0.682-2.904-1.309c-2.372-1.227-4.117-2.631-5.235-4.213c0-0.219,0.177-0.326,0.531-0.326
			c2.209,0.844,4.009,1.268,5.399,1.268c0.546,0,0.873-0.301,0.981-0.9c0.328-2.072,0.491-3.98,0.491-5.727
			c0-2.809-0.178-5.604-0.531-8.385c-0.273-1.199-1.582-1.799-3.927-1.799c-0.164,0-0.314,0.014-0.45,0.039v0.123
			c0,0.219-0.137,0.506-0.409,0.859c-0.191,0.955-0.286,1.65-0.286,2.086c0,0.52,0.286,0.777,0.858,0.777
			c0.409,0,0.9-0.15,1.473-0.449c0.327-0.355,0.641-0.533,0.941-0.533c0.19,0,0.463,0.15,0.817,0.451
			c0.437,0.408,0.655,0.75,0.655,1.021c0,0.547-0.246,0.928-0.736,1.146c-0.873,0.436-2.155,0.654-3.846,0.654
			c-0.764,0-1.404-0.301-1.922-0.9c-0.354-0.545-0.532-1.336-0.532-2.373c0-0.49,0.027-1.063,0.082-1.717
			c0.027-0.273,0.055-0.559,0.082-0.859c-0.572,0.109-1.159,0.246-1.759,0.408c-0.055,0.164-0.137,0.355-0.245,0.574
			c-0.383,0.98-0.573,1.744-0.573,2.289c0,0.109,0.096,0.301,0.286,0.574c0.137,0.162,0.205,0.34,0.205,0.531
			c0,0.436-0.573,0.914-1.718,1.432c-1.691,0.9-2.863,1.35-3.518,1.35c-0.328,0-0.491-0.041-0.491-0.123
			c0-0.164,0.354-0.559,1.063-1.186c1.146-0.928,1.895-1.76,2.25-2.496c0.19-0.381,0.354-1.131,0.49-2.25
			c-1.227,0.41-2.495,0.887-3.804,1.432l-0.123,0.082c-0.027,0.164-0.055,0.314-0.081,0.451c-0.328,3.025-0.491,6.244-0.491,9.652
			c0,0.438,0.041,1.023,0.123,1.76c0.026,0.709,0.04,1.213,0.04,1.514c0,0.326-0.204,0.666-0.613,1.021
			c-0.409,0.408-0.858,0.613-1.35,0.613c-0.519,0-0.777-0.545-0.777-1.635V18.979c0.082-0.871,0.286-1.309,0.613-1.309
			c0.164,0,0.409,0.068,0.736,0.205c0.137-0.082,0.287-0.15,0.45-0.205c3.408-0.953,6.586-1.689,9.53-2.209
			c0.464-0.545,0.913-1.172,1.35-1.881c0.3-0.49,0.478-0.832,0.532-1.023c0-0.762-0.71-1.145-2.127-1.145
			c-1.255,0-2.195,0.531-2.822,1.596c-1.173,2.209-2.127,3.313-2.863,3.313c-0.327,0-0.777-0.49-1.35-1.473
			c0-0.328,0.245-1.131,0.736-2.414c0.081-0.299,0.149-0.586,0.204-0.857c-3.463,0.545-6.177,1.213-8.14,2.004
			c-0.382,0-0.818-1.037-1.309-3.109l0.858-0.326h1.269c10.28-1.363,18.883-2.455,25.81-3.273c0.654-0.217,1.391-0.326,2.209-0.326
			c0.19,0.545,0.422,1.063,0.695,1.555c0.409,0.844,0.654,1.635,0.736,2.371c-0.082,0.355-0.246,0.561-0.491,0.613
			c-0.137,0-0.682-0.148-1.636-0.449C413.941,10.307,413.028,10.145,412.237,10.145z M395.385,25.318l0.777,0.164
			c2.672-0.6,4.663-0.955,5.972-1.063c1.009-0.137,1.54-0.205,1.595-0.205c0.491,0,1.077,0.205,1.759,0.613
			c0.546,0.408,0.818,0.805,0.818,1.186c0,0.109-0.123,0.26-0.368,0.451c-0.354,0.326-0.955,1.541-1.8,3.641
			c-0.19,0.572-0.382,0.898-0.572,0.98c-0.354,0-0.736-0.123-1.146-0.367c-2.427,0.545-3.818,0.939-4.172,1.186
			c-0.273,0.189-0.478,0.287-0.613,0.287c-0.519-0.027-1.146-0.996-1.882-2.904c-0.572-1.555-0.859-2.592-0.859-3.109
			C394.894,25.605,395.058,25.318,395.385,25.318z M398.331,29.941c0.381,0,1.403-0.273,3.067-0.818
			c0.245-0.055,0.423-0.246,0.531-0.572c0.219-0.6,0.328-1.24,0.328-1.924c0-0.518-0.164-0.775-0.491-0.775
			c-0.572,0-1.337,0.121-2.291,0.367c-1.227,0.301-1.84,0.6-1.84,0.9C397.689,29,397.921,29.941,398.331,29.941z M400.13,0
			c0.299,0,0.64,0.396,1.022,1.186c0.3,0.955,0.668,1.664,1.104,2.127c0.981,1.229,1.472,2.182,1.472,2.863
			c0,0.41-0.137,0.695-0.408,0.859c-0.383,0.191-0.792,0.287-1.228,0.287c-0.764,0-1.555-0.301-2.372-0.9
			c-0.601-0.463-0.9-0.859-0.9-1.186c0-1.691,0.178-3.096,0.532-4.213C399.707,0.342,399.966,0,400.13,0z"/>
		<path fill="#FFFFFF" d="M441.164,23.887h1.146c3.217-0.709,5.63-1.117,7.239-1.227c1.228-0.164,1.868-0.246,1.923-0.246
			c0.572,0,1.254,0.314,2.045,0.941c0.709,0.6,1.063,1.145,1.063,1.637c0,0.191-0.137,0.463-0.409,0.818
			c-0.327,0.545-0.887,2.549-1.677,6.012c-0.191,0.928-0.382,1.445-0.572,1.555c-0.355,0-0.792-0.164-1.31-0.49
			c-3,0.545-4.703,0.98-5.112,1.309c-0.355,0.217-0.601,0.326-0.736,0.326c-0.818-0.055-1.8-1.609-2.945-4.662
			c-0.873-2.455-1.309-4.131-1.309-5.031C440.509,24.201,440.727,23.887,441.164,23.887z M445.745,31.414
			c0.463,0,1.718-0.287,3.763-0.859c0.082-0.082,0.137-0.41,0.164-0.982c0.108-1.09,0.163-2.221,0.163-3.395
			c0-0.9-0.218-1.35-0.654-1.35c-0.627,0-1.459,0.137-2.495,0.408c-1.282,0.41-1.922,0.777-1.922,1.105
			C444.817,29.723,445.144,31.414,445.745,31.414z M446.849,7.484l1.35,0.164c4.281-0.764,7.472-1.213,9.571-1.35
			c1.608-0.189,2.454-0.287,2.536-0.287c0.736,0,1.608,0.369,2.618,1.105c0.845,0.654,1.268,1.281,1.268,1.881
			c0,0.191-0.178,0.465-0.532,0.818c-0.49,0.6-1.336,2.768-2.535,6.504c-0.273,0.982-0.546,1.527-0.818,1.637
			c-0.491,0-1.037-0.15-1.636-0.451c-4.2,0.547-6.586,0.982-7.158,1.309c-0.464,0.219-0.818,0.328-1.063,0.328
			c-0.792-0.082-1.746-1.785-2.863-5.113c-0.9-2.727-1.35-4.566-1.35-5.521C446.236,7.826,446.44,7.484,446.849,7.484z
			 M451.634,15.543c0.682,0,2.522-0.23,5.522-0.695c0.272-0.082,0.477-0.422,0.613-1.023c0.272-1.199,0.409-2.426,0.409-3.68
			c0-0.982-0.286-1.473-0.859-1.473c-0.873,0-2.086,0.137-3.64,0.408c-1.937,0.438-2.904,0.846-2.904,1.227
			C450.858,13.799,451.144,15.543,451.634,15.543z M455.234,22.414l0.981,0.164c3.709-0.736,6.463-1.158,8.263-1.268
			c1.418-0.137,2.154-0.205,2.209-0.205c0.6,0,1.336,0.355,2.209,1.064c0.681,0.654,1.022,1.281,1.022,1.881
			c0,0.191-0.178,0.465-0.532,0.818c-0.409,0.572-1.159,2.658-2.249,6.258c-0.273,0.928-0.546,1.459-0.818,1.596
			c-0.382,0-0.805-0.123-1.268-0.369c-3.791,0.41-5.932,0.723-6.422,0.941c-0.437,0.137-0.764,0.205-0.982,0.205
			c-0.572-0.055-1.281-1.678-2.127-4.867c-0.627-2.592-0.94-4.35-0.94-5.277C454.58,22.729,454.797,22.414,455.234,22.414z
			 M458.67,30.064c0.599,0,2.29-0.096,5.071-0.287c0.272-0.082,0.491-0.436,0.654-1.064c0.327-1.145,0.491-2.33,0.491-3.559
			c0-0.98-0.232-1.471-0.695-1.471c-0.791,0-1.882,0.148-3.272,0.449c-1.718,0.383-2.577,0.723-2.577,1.021
			C458.342,28.428,458.452,30.064,458.67,30.064z"/>
		<path fill="#FFFFFF" d="M507.721,3.764c0.3,0,0.736,0.381,1.309,1.145c0.954,1.172,1.432,1.938,1.432,2.291
			c0,0.109-0.396,0.326-1.187,0.654c-1.254,0.518-2.413,0.969-3.477,1.35c0.082,0.082,0.123,0.164,0.123,0.246
			c-0.354,1.199-0.573,2.943-0.654,5.234c1.335-0.135,2.48-0.395,3.436-0.777c0.682-0.326,1.213-0.49,1.595-0.49
			c0.464,0,0.982,0.914,1.555,2.74l1.104,0.164c3.845-0.764,6.735-1.213,8.672-1.35c1.444-0.191,2.194-0.287,2.249-0.287
			c0.709,0,1.527,0.355,2.454,1.064c0.764,0.627,1.146,1.213,1.146,1.758c0,0.164-0.178,0.424-0.531,0.777
			c-0.491,0.572-1.282,2.617-2.373,6.137c-0.3,0.926-0.587,1.459-0.858,1.594c-0.409,0-0.9-0.176-1.473-0.531
			c-3.518,0.49-5.509,0.846-5.972,1.064c-0.409,0.162-0.71,0.244-0.9,0.244c-0.791-0.055-1.745-1.566-2.863-4.539
			c-0.873-2.346-1.322-3.928-1.35-4.746l-2.29-0.162c-0.71,0-1.909,0.121-3.6,0.367v2.086c1.526,0.6,3.149,1.418,4.867,2.455
			c0.79,0.408,1.187,0.885,1.187,1.432c-0.246,2.182-0.642,3.271-1.187,3.271c-0.354,0-0.723-0.205-1.104-0.613
			c-1.173-1.5-2.428-2.891-3.763-4.172c-0.027,0.846-0.041,1.594-0.041,2.25c-0.164,2.426-0.273,5.848-0.327,10.266
			c0,0.191,0.041,0.449,0.122,0.777c0.219,0.189,0.354,0.422,0.409,0.695c-0.055,0.328-0.546,0.49-1.473,0.49
			c-1.554-0.191-2.331-0.641-2.331-1.35c0.082-0.137,0.259-0.381,0.531-0.736c0.109-0.354,0.164-0.709,0.164-1.063
			c-0.027-2.4-0.041-5.209-0.041-8.426c0-1.254-0.014-2.428-0.041-3.518c-1.036,1.199-2.154,2.727-3.354,4.58
			c-0.628,0.955-0.969,1.881-1.022,2.781c-0.928,0.709-1.773,1.16-2.536,1.35c-1.063,0.191-1.786,0.287-2.168,0.287
			c-0.764,0-1.146-0.164-1.146-0.49c0-0.246,0.45-0.723,1.35-1.432c2.018-1.609,3.804-3.545,5.358-5.809
			c1.009-1.555,1.704-2.945,2.086-4.172c-2.127,0.572-3.968,1.432-5.521,2.576c-0.409,0-0.9-0.422-1.473-1.268
			c-0.682-1.199-1.022-1.922-1.022-2.168c0-0.381,0.395-0.641,1.186-0.777c1.336-0.082,3.095-0.449,5.277-1.104
			c0.954-0.191,1.949-0.396,2.985-0.615c0-1.473-0.014-3.107-0.041-4.908c-0.817,0.219-1.581,0.41-2.29,0.574
			c-1.527,0.408-2.7,0.613-3.518,0.613c-0.327,0-0.491-0.164-0.491-0.492c2.345-1.662,4.963-3.176,7.854-4.539
			c1.718-0.818,2.699-1.486,2.945-2.004C507.052,4.023,507.394,3.764,507.721,3.764z M516.392,23.52c0.546,0,2.059-0.164,4.54-0.492
			c0.328-0.053,0.573-0.381,0.736-0.98c0.272-1.09,0.409-2.223,0.409-3.395c0-0.873-0.204-1.309-0.613-1.309
			c-0.846,0-1.978,0.137-3.395,0.408c-1.8,0.436-2.7,0.846-2.7,1.227C515.452,22.006,515.792,23.52,516.392,23.52z"/>
		<path fill="#FFFFFF" d="M551.986,8.18c0.19,0,0.368,0.027,0.532,0.082c0.163-0.055,0.327-0.082,0.491-0.082
			c2.398-0.299,4.226-0.627,5.48-0.98c0.764-0.328,1.281-0.492,1.555-0.492c1.199,0.164,1.8,0.424,1.8,0.777
			c0,0.246-0.164,0.588-0.491,1.023c-0.382,0.846-0.75,2.658-1.104,5.439c-0.245,2.756-0.368,6.014-0.368,9.777l0.327,7.525
			c0,1.609-0.286,2.414-0.858,2.414c-0.191,0-0.45-0.139-0.777-0.41c-0.9-0.273-1.95-0.832-3.149-1.678
			c-1.119-0.816-1.978-1.758-2.577-2.822c0-0.217,0.164-0.326,0.491-0.326c1.391,0.326,2.427,0.49,3.108,0.49
			c0.954,0,1.432-0.695,1.432-2.086l-0.164-7.361v-9c0-0.98-0.368-1.473-1.104-1.473c-0.545,0.082-1.35,0.438-2.413,1.064
			c-0.055,0.219-0.082,0.449-0.082,0.695c0,0.955-0.014,1.854-0.04,2.699c0.763-0.109,1.718-0.246,2.863-0.408
			c0.299,0,0.449,0.49,0.449,1.471c0,0.246-0.259,0.479-0.777,0.697c-0.682,0.463-1.241,0.75-1.677,0.857
			c-0.327,0.082-0.682,0.246-1.063,0.492c-0.082,0.953-0.178,1.813-0.286,2.576c0.818-0.109,1.936-0.271,3.354-0.49
			c0.299,0,0.449,0.477,0.449,1.432c0,0.271-0.259,0.504-0.777,0.695c-0.791,0.49-1.445,0.805-1.963,0.939
			c-0.464,0.137-1.009,0.424-1.636,0.859c-0.056,0-0.082-0.014-0.082-0.041c-0.273,1.01-0.601,2.086-0.981,3.232
			c-0.273,0.736-0.409,1.213-0.409,1.432c0,0.354,0.041,0.559,0.122,0.613c0.055,0.109,0.109,0.271,0.164,0.49
			c0,0.246-0.695,1.023-2.086,2.332c-1.473,1.391-2.563,2.086-3.272,2.086c-0.464,0-0.695-0.123-0.695-0.369
			c0-0.189,0.204-0.572,0.613-1.145c2.209-3,3.572-5.576,4.091-7.73c0.709-2.672,1.063-5.863,1.063-9.572
			c0-0.98-0.015-2.031-0.041-3.148c-0.082-0.654-0.123-1.24-0.123-1.76C551.373,8.453,551.578,8.18,551.986,8.18z M564.42,6.34
			c0.354,0,0.805,0.082,1.351,0.246c0.736-0.109,1.513-0.273,2.331-0.492c1.69-0.463,2.809-0.695,3.354-0.695
			c0.927,0,2.018,0.246,3.271,0.736c1.2,0.602,1.8,1.051,1.8,1.35c0,0.273-0.15,0.52-0.449,0.736
			c-0.328,0.41-0.614,1.01-0.859,1.801c-0.301,1.117-0.928,2.658-1.882,4.621c-0.49,1.338-0.832,2.004-1.022,2.004
			c-0.519,0-1.295-0.203-2.331-0.613c-1.5-0.654-2.878-1.416-4.132-2.289c-0.055,2.018-0.109,3.898-0.163,5.645
			c4.526-1.146,7.594-1.719,9.203-1.719c1.882,0.219,2.822,0.6,2.822,1.145c-0.546,0.465-1.077,1.447-1.596,2.945
			c-0.709,1.746-1.595,3.355-2.658,4.826c2.59,1.965,4.622,3.273,6.095,3.928c1.254,0.465,2.331,1.021,3.231,1.678
			c0.627,0.49,0.94,0.885,0.94,1.186c-0.055,0.189-0.368,0.287-0.94,0.287c-2.919,0-5.399-0.164-7.444-0.492
			c-1.146-0.273-1.773-0.736-1.882-1.391c0-0.9-0.205-1.555-0.613-1.963c-0.301-0.41-0.642-0.805-1.022-1.186
			c-0.082,0.109-0.138,0.178-0.164,0.203c-1.882,2.02-3.695,3.027-5.44,3.027c-0.3-0.027-0.559-0.055-0.776-0.082v0.572
			c0,0.518,0.013,0.969,0.04,1.35c0.082,0.574,0.123,1.064,0.123,1.473c-0.055,0.191-0.45,0.287-1.187,0.287
			c-1.091,0-1.69-0.15-1.8-0.449c0-0.246,0.082-0.451,0.246-0.615c0.054-0.244,0.082-0.545,0.082-0.898l0.163-25.523
			c0-0.301-0.055-0.613-0.163-0.941c0-0.137,0.095-0.271,0.286-0.408C563.453,6.436,563.848,6.34,564.42,6.34z M565.444,30.35
			c1.718-0.764,3.244-1.908,4.581-3.436c-1.146-0.955-2.428-1.854-3.846-2.699c-0.245-0.109-0.449-0.219-0.613-0.328
			C565.511,26.506,565.47,28.66,565.444,30.35z M565.893,12.803c2.317,0.273,3.805,0.408,4.459,0.408
			c0.271,0,0.559-0.627,0.858-1.881c0.382-1.199,0.573-2.25,0.573-3.15c0-0.463-0.219-0.695-0.655-0.695
			c-0.682,0-1.568,0.205-2.658,0.615c-0.846,0.354-1.623,0.734-2.331,1.145c-0.109,0.818-0.191,1.799-0.246,2.945V12.803z
			 M567.734,21.516c0.818,0.926,2.072,2.1,3.763,3.518c1.392-1.883,2.087-3.299,2.087-4.254c0-0.627-0.368-0.969-1.104-1.023
			c-0.955,0-2.25,0.424-3.886,1.268C568.266,21.215,567.979,21.379,567.734,21.516z"/>
		<path fill="#FFFFFF" d="M612.695,7.322c0.6,0,1.54,0.422,2.822,1.268c0.845,0.545,1.268,1.063,1.268,1.555
			c0,0.189-0.259,0.477-0.777,0.857c-1.172,0.629-2.862,1.76-5.071,3.396c0.272,0.436,0.45,0.873,0.531,1.309
			c1.228-0.219,2.291-0.328,3.19-0.328c0.19,0,0.464,0.137,0.818,0.41c1.199-1.855,2.468-4.092,3.804-6.709
			c1.336-2.535,2.031-4.049,2.086-4.539c0.082-0.328,0.396-0.492,0.941-0.492c0.245,0,0.749,0.232,1.513,0.695
			c0.519,0.492,0.846,0.859,0.982,1.105c0,0.191-0.15,0.422-0.45,0.695c-0.491,0.6-1.022,1.281-1.596,2.045
			c2.072-0.109,4.759-0.451,8.059-1.023c0.681-0.135,1.131-0.217,1.35-0.244c0.272,0.082,0.423,0.477,0.45,1.186
			c-0.027,0.682-0.355,1.281-0.982,1.799c-0.736,0.137-1.445,0.26-2.127,0.369c0.027,0,0.055,0.014,0.082,0.041
			c0.627,0.408,0.941,0.764,0.941,1.063c0,0.082-0.109,0.219-0.328,0.41c-0.682,0.518-1.432,1.445-2.249,2.781
			c-0.491,0.791-1.01,1.486-1.555,2.086l0.123,0.082c1.199,1.063,3.176,2.072,5.931,3.027c2.809,0.953,4.459,1.703,4.949,2.248
			c0,0.328-0.777,0.492-2.331,0.492c-2.019,0-3.668-0.041-4.949-0.123c-1.063-0.137-1.691-0.436-1.882-0.9
			c-0.219-0.736-0.899-1.514-2.045-2.332c-0.491-0.326-0.941-0.668-1.35-1.021c-0.191,0.164-0.368,0.301-0.532,0.408
			c-1.227,0.873-2.727,1.801-4.499,2.781c-0.818,0.41-1.405,0.941-1.759,1.596c-0.736,0.191-1.364,0.301-1.882,0.328
			c-0.682,0.027-1.473,0.041-2.372,0.041c-0.573,0-1.022-0.041-1.35-0.123c0.054,0.301,0.081,0.572,0.081,0.818
			c0,5.316-0.163,8.574-0.49,9.775c-0.137,0.682-0.355,1.021-0.654,1.021c-0.138,0-0.409-0.082-0.818-0.244
			c-0.245-0.137-0.669-0.232-1.269-0.287c-1.036-0.273-2.345-1.01-3.927-2.209c-0.791-0.463-1.186-0.859-1.186-1.186
			c0-0.109,0.108-0.164,0.327-0.164c1.199,0.627,2.235,0.941,3.108,0.941c0.791,0,1.432-0.436,1.923-1.309
			c0.436-0.791,0.654-2.904,0.654-6.34c0-1.01-0.245-2.141-0.736-3.396c-1.882,2.51-3.286,4.609-4.213,6.299
			c-0.301,0.465-0.478,0.928-0.532,1.393c-0.055,0.299-0.396,0.668-1.022,1.104c-0.873,0.627-1.909,0.941-3.108,0.941
			c-0.572,0-0.859-0.109-0.859-0.328c1.663-1.363,3.149-3.162,4.459-5.398c1.363-2.154,2.454-4.227,3.272-6.219
			c-1.337,0.355-2.822,0.793-4.459,1.311c-0.572,0-1.173-0.6-1.8-1.801c0-0.271,0.218-0.436,0.654-0.49
			c0.709,0,3.041-0.518,6.995-1.555c0.218-0.055,0.381-0.096,0.49-0.123c-0.272-0.082-0.531-0.148-0.777-0.203
			c-0.735-0.164-1.104-0.996-1.104-2.496c0-0.791,0.122-1.445,0.368-1.963c0.19-0.301,0.381-0.477,0.572-0.531
			c0.272,0.137,0.545,0.531,0.818,1.186c0.3,0.572,0.654,1.078,1.063,1.514c1.526-2.182,2.331-3.518,2.413-4.01
			c0-0.518-0.342-0.777-1.022-0.777c-0.491,0.057-1.323,0.492-2.495,1.311c-1.31,0.846-2.318,1.621-3.027,2.33
			c-0.245,0.273-0.478,0.41-0.695,0.41c-0.354,0-0.777-0.586-1.268-1.76c-0.573-0.762-0.859-1.268-0.859-1.514
			c0-0.162,0.231-0.271,0.695-0.326c0.791-0.082,2.168-0.422,4.132-1.023C610.226,7.635,611.74,7.322,612.695,7.322z
			 M612.409,22.455l0.122-0.041c2.727-0.49,4.895-1.309,6.504-2.453c1.936-1.336,3.272-2.318,4.009-2.945
			c-0.137-0.082-0.246-0.178-0.327-0.287c-1.037-1.008-2.019-1.771-2.945-2.289c-0.327-0.109-0.573-0.246-0.736-0.41
			c-0.654,0.982-1.582,1.787-2.781,2.414c0.245,0.219,0.49,0.463,0.736,0.736c0.954,1.199,1.432,1.963,1.432,2.291
			c0,0.299-0.383,0.572-1.146,0.816c-0.764,0.328-1.432,0.492-2.004,0.492c-1.719,0-2.577-0.109-2.577-0.328
			c0-0.109,0.313-0.299,0.94-0.572c0.791-0.328,1.187-0.805,1.187-1.432c0-0.846-0.342-1.268-1.022-1.268
			c-0.464,0-1.5,0.203-3.109,0.613c0.736,0.928,1.214,1.881,1.432,2.863C612.258,21.229,612.353,21.828,612.409,22.455z
			 M627.378,23.027c3.082,0.438,4.622,0.996,4.622,1.678c-0.791,1.146-1.309,2.428-1.554,3.846c-0.573,2.809-1.173,4.826-1.8,6.053
			c-0.437,0.846-0.777,1.65-1.022,2.414c-0.027,0.271-0.15,0.408-0.368,0.408c-0.273,0-0.56-0.123-0.859-0.367
			c-0.245-0.191-0.6-0.492-1.063-0.9c-1.173-0.736-2.182-1.881-3.026-3.436c0.081-0.082,0.245-0.15,0.49-0.205
			c1.2,0.463,2.031,0.695,2.495,0.695c0.272,0,0.573-0.49,0.9-1.473c0.327-0.844,0.586-1.771,0.777-2.781
			c0.19-0.9,0.286-1.771,0.286-2.617c0-0.791-0.342-1.188-1.022-1.188c-0.546,0-1.104,0.041-1.678,0.123
			c-0.055,0.137-0.109,0.287-0.163,0.451c-0.791,2.154-1.596,3.721-2.413,4.703c-0.846,1.037-1.855,2.154-3.027,3.354
			c-0.546,0.492-0.927,1.119-1.146,1.883c-0.518,0.217-0.94,0.354-1.268,0.408c-0.464,0.055-0.981,0.082-1.555,0.082
			c-1.418,0-2.127-0.287-2.127-0.859c0-0.137,0.259-0.285,0.777-0.449c1.69-0.6,3.04-1.582,4.05-2.945
			c1.608-2.154,2.549-3.559,2.822-4.213c0.218-0.518,0.436-1.09,0.654-1.719c-1.063,0.301-2.195,0.682-3.395,1.146
			c-0.355,0-0.642-0.6-0.859-1.801c0-0.271,0.108-0.436,0.327-0.49c1.063-0.137,2.291-0.449,3.682-0.941
			c0.327-0.162,0.681-0.285,1.063-0.367c0.218-0.764,0.436-1.568,0.654-2.414c0.163-0.682,0.45-1.021,0.858-1.021
			c0.354,0,0.927,0.258,1.719,0.777c0.572,0.408,0.858,0.75,0.858,1.021c0,0.109-0.068,0.287-0.204,0.531
			c-0.137,0.191-0.273,0.41-0.409,0.654C626.056,23.043,626.697,23.027,627.378,23.027z M620.425,11.943
			c0.463,0.438,0.94,0.832,1.432,1.186c0.491,0.328,1.377,1.064,2.658,2.209c0.818-1.145,1.663-2.604,2.536-4.375
			c-0.245,0.027-0.49,0.055-0.736,0.08c-1.363,0.137-2.903,0.383-4.622,0.736c-0.218,0-0.408-0.299-0.572-0.898
			C620.875,11.234,620.643,11.59,620.425,11.943z"/>
	</g>
</g>
<g id="Layer_2">
</g>
<g id="Layer_3">
</g>
</svg>
