<?xml version="1.0" encoding="utf-8"?>
<!-- Generator: Adobe Illustrator 16.0.0, SVG Export Plug-In . SVG Version: 6.00 Build 0)  -->
<!DOCTYPE svg PUBLIC "-//W3C//DTD SVG 1.0//EN" "http://www.w3.org/TR/2001/REC-SVG-20010904/DTD/svg10.dtd">
<svg version="1.0" xmlns="http://www.w3.org/2000/svg" xmlns:xlink="http://www.w3.org/1999/xlink" x="0px" y="0px" width="637.4px"
	 height="88.997px" viewBox="0 0 637.4 88.997" enable-background="new 0 0 637.4 88.997" xml:space="preserve">
<g id="Layer_1">
	<g>
		<g>
			<path fill="#FFFFFF" d="M8.058,6.258c1.854,0.682,2.781,1.336,2.781,1.963c0,0.219-0.15,0.424-0.45,0.614
				c-0.627,0.709-1.241,1.527-1.84,2.454c-0.437,1.254-0.654,2.346-0.654,3.272c0.082,0.735,0.463,1.731,1.145,2.985
				c0.545,1.037,0.818,1.732,0.818,2.086c0,0.491-0.164,1.091-0.491,1.8c-0.546,0.682-0.886,1.022-1.022,1.022
				c-0.354,0-0.668-0.122-0.941-0.368c-0.518-0.218-1.241-0.518-2.167-0.899c-0.873-0.573-1.705-1.391-2.495-2.454
				C2.686,24.868,2.659,29.15,2.659,31.577c0,0.49,0.014,0.927,0.041,1.309c0.082,0.518,0.123,0.968,0.123,1.35
				c-0.055,0.218-0.396,0.327-1.022,0.327c-0.982,0-1.527-0.109-1.636-0.327c0-0.245,0.054-0.464,0.164-0.654
				c0.027-0.219,0.041-0.491,0.041-0.818L0.164,8.835C0.164,8.589,0.109,8.33,0,8.058C0,7.949,0.068,7.84,0.205,7.73
				C0.45,7.594,0.818,7.525,1.309,7.525c0.3,0,0.667,0.068,1.104,0.205C5.331,6.749,7.212,6.258,8.058,6.258z M2.863,10.062
				c-0.027,0.736-0.055,1.664-0.082,2.781c0,1.555-0.014,2.986-0.041,4.295c1.963,0.818,3.135,1.228,3.518,1.228
				c0.436,0,0.695-0.327,0.777-0.981c0-0.491-0.341-1.214-1.022-2.168c-0.409-0.736-0.613-1.269-0.613-1.596
				c0-0.681,0.136-1.526,0.409-2.536c0.382-0.954,0.573-1.54,0.573-1.759c0-0.327-0.205-0.49-0.613-0.49
				c-0.273,0-0.792,0.149-1.555,0.449C3.585,9.693,3.135,9.953,2.863,10.062z M25.401,5.563c0.218,0.055,0.654,0.887,1.309,2.495
				c-0.055,0.437-0.286,0.654-0.695,0.654c-2.154,0.164-3.981,0.354-5.481,0.572c-0.027,0.71-0.041,1.378-0.041,2.005
				c1.418-0.218,2.509-0.327,3.272-0.327c1.473,0,2.768,0.286,3.886,0.858c0.791,0.437,1.186,0.873,1.186,1.31
				c0,0.572-0.109,1.091-0.327,1.554c-0.491,0.955-1.078,2.822-1.759,5.604c-0.245,1.119-0.546,1.678-0.9,1.678
				c-0.191,0-0.586-0.082-1.186-0.246c-0.6-0.3-1.119-0.449-1.554-0.449c-0.491,0-1.037,0.027-1.636,0.081
				c0.491,0.71,1.131,1.391,1.922,2.046c2.59,2.454,5.658,4.391,9.203,5.808c1.09,0.409,1.636,0.818,1.636,1.228
				c0,0.572-0.941,0.858-2.822,0.858c-0.464,0-1.2-0.122-2.209-0.368c-1.2-0.354-2.305-0.531-3.313-0.531
				c-0.518,0-0.818-0.245-0.9-0.736c-0.164-1.009-0.532-1.718-1.104-2.127c-0.764-0.382-1.391-0.872-1.881-1.473
				c-0.3-0.382-0.886-0.886-1.759-1.514c-0.055,4.063-0.082,7.117-0.082,9.163c0,0.572,0.014,1.076,0.041,1.513
				c0.082,0.627,0.123,1.159,0.123,1.596c-0.055,0.327-0.45,0.49-1.186,0.49c-1.173,0-1.827-0.163-1.963-0.49
				c0-0.273,0.041-0.519,0.123-0.736c0.027-0.273,0.041-0.628,0.041-1.063V24.378c-2.154,1.691-3.791,3.123-4.908,4.295
				c-0.409,0.327-0.641,0.668-0.695,1.022c-0.082,0.219-0.532,0.478-1.35,0.777c-1.172,0.546-2.55,0.817-4.131,0.817
				c-0.792,0-1.187-0.163-1.187-0.49c2.317-1.036,4.377-2.413,6.177-4.132c1.854-1.554,3.34-3.081,4.458-4.581
				c-0.518,0.137-0.914,0.273-1.186,0.409c-0.273,0.164-0.532,0.245-0.777,0.245c-0.219,0-0.573-0.477-1.063-1.431
				c-0.736-1.527-1.364-3.272-1.882-5.236c-0.327-1.227-0.491-1.99-0.491-2.29c0-0.327,0.286-0.491,0.859-0.491
				c2.373-0.6,4.431-1.063,6.176-1.391V9.857c-0.327,0.082-0.6,0.163-0.818,0.245c-1.227,0.354-2.209,0.532-2.945,0.532
				c-0.327,0-0.927-0.859-1.799-2.577c0-0.3,0.164-0.477,0.491-0.532c1.881-0.136,3.572-0.286,5.072-0.449V2.822
				c0-0.327-0.109-0.668-0.327-1.022c0-0.164,0.109-0.313,0.327-0.45c0.3-0.218,0.791-0.327,1.473-0.327
				c0.409,0,0.954,0.109,1.636,0.327c0.436,0.245,0.654,0.45,0.654,0.613c0,0.245-0.055,0.669-0.164,1.268
				c-0.137,0.818-0.246,1.95-0.327,3.396C22.497,6.326,24.092,5.972,25.401,5.563z M14.603,19.96c0.354,0,0.94-0.067,1.759-0.204
				c0.381-0.055,0.708-0.096,0.981-0.123V17.67c-0.464,0.109-0.955,0.219-1.472,0.327c-0.219,0-0.423-0.231-0.614-0.695
				c-0.109-0.382-0.164-0.75-0.164-1.104c0-0.218,0.149-0.327,0.45-0.327c0.328-0.027,0.927-0.096,1.8-0.205v-1.677
				c-0.682,0.137-1.432,0.286-2.25,0.45c-0.9,0.191-1.35,0.464-1.35,0.818c0,0.6,0.095,1.595,0.286,2.985
				C14.22,19.388,14.411,19.96,14.603,19.96z M20.452,13.457c0,0.6-0.014,1.2-0.041,1.8c0.709-0.109,1.432-0.219,2.168-0.327
				c0.218,0,0.327,0.477,0.327,1.431c0,0.191-0.219,0.368-0.654,0.532c-0.682,0.164-1.309,0.301-1.882,0.409
				c0,0.709-0.014,1.363-0.041,1.963c1.146-0.108,2.182-0.19,3.109-0.245c0.245,0,0.491-0.723,0.736-2.168
				c0.245-1.309,0.368-2.44,0.368-3.395c0-0.219-0.314-0.327-0.941-0.327C22.865,13.13,21.815,13.238,20.452,13.457z"/>
			<path fill="#FFFFFF" d="M66.558,11.82c0.354,0,0.532,0.601,0.532,1.8c0,0.219-0.341,0.423-1.022,0.613
				c-2.673,0.818-4.936,1.323-6.79,1.514c-1.554,0.191-3.477,0.628-5.768,1.31c-0.437,0-0.832-0.409-1.186-1.228
				c-0.191-0.6-0.286-1.187-0.286-1.759c0-0.3,0.204-0.45,0.613-0.45C54.068,13.512,58.704,12.911,66.558,11.82z M54.614,26.505
				l1.146,0.163c2.863-0.763,4.99-1.199,6.381-1.309c1.063-0.218,1.622-0.327,1.677-0.327c0.491,0,1.077,0.286,1.759,0.859
				c0.545,0.518,0.818,1.009,0.818,1.472c0,0.138-0.123,0.328-0.368,0.573c-0.3,0.409-0.859,1.909-1.677,4.499
				c-0.164,0.654-0.341,1.022-0.532,1.104c-0.354,0-0.75-0.15-1.186-0.45c-2.482,0.437-3.9,0.791-4.254,1.063
				c-0.3,0.164-0.519,0.246-0.654,0.246c-0.655-0.056-1.459-1.16-2.414-3.313c-0.791-1.772-1.186-2.958-1.186-3.559
				C54.123,26.846,54.287,26.505,54.614,26.505z M64.144,16.729c0.409,0.056,0.614,0.532,0.614,1.432
				c0,0.437-0.314,0.724-0.941,0.859c-0.736,0.055-1.554,0.219-2.454,0.491c-0.764,0.218-1.473,0.368-2.127,0.449
				c-0.9,0.137-1.841,0.368-2.822,0.695c-0.464,0-0.736-0.545-0.818-1.636c0-0.491,0.272-0.831,0.818-1.022
				C61.349,17.179,63.926,16.757,64.144,16.729z M64.431,20.655c0.436,0.056,0.654,0.546,0.654,1.473
				c0,0.409-0.314,0.669-0.941,0.777c-0.764,0.082-1.623,0.286-2.577,0.613c-0.792,0.219-1.527,0.383-2.209,0.491
				c-0.955,0.109-1.937,0.341-2.945,0.695c-0.464,0-0.736-0.545-0.818-1.636c0-0.437,0.272-0.75,0.818-0.941
				C61.567,21.174,64.239,20.684,64.431,20.655z M58.582,31.413c0.354,0,1.376-0.149,3.067-0.45c0.19-0.054,0.328-0.259,0.409-0.613
				c0.19-0.654,0.287-1.336,0.287-2.045c0-0.736-0.164-1.104-0.491-1.104c-0.6,0-1.405,0.15-2.413,0.45
				c-1.254,0.408-1.882,0.805-1.882,1.186C57.641,30.554,57.981,31.413,58.582,31.413z M60.995,3.763
				c0.327,0.055,0.545,0.396,0.654,1.022c0.164,1.337,0.573,2.387,1.228,3.149c0.627,0.573,0.94,1.323,0.94,2.25
				c0,0.519-0.437,0.777-1.309,0.777c-0.873,0-1.896-0.341-3.068-1.022c-0.573-0.437-0.859-0.9-0.859-1.392
				c0-0.681,0.34-1.703,1.022-3.067C60.149,4.335,60.612,3.763,60.995,3.763z M78.051,19.02c0.6,0,1.458,0.272,2.577,0.818
				c0.982,0.572,1.473,1.104,1.473,1.595c0,0.219-0.368,0.505-1.104,0.859c-1.336,0.736-2.345,1.909-3.027,3.518
				c-0.6,1.255-1.2,2.331-1.799,3.231c0.108,0.109,0.218,0.204,0.327,0.286c1.335,1.227,3.544,2.387,6.626,3.477
				c3.136,1.118,4.99,1.964,5.563,2.536c0,0.463-0.941,0.695-2.822,0.695c-2.264,0-4.104-0.055-5.522-0.164
				c-1.2-0.137-1.896-0.464-2.086-0.981c-0.219-0.873-0.968-1.759-2.25-2.658c-0.572-0.383-1.077-0.764-1.513-1.146
				c-0.6,0.572-1.173,1.05-1.718,1.432c-1.418,0.845-2.536,1.636-3.354,2.372c-0.764,0.518-2.141,0.777-4.131,0.777
				c-1.336,0-2.004-0.163-2.004-0.491c0-0.327,0.641-0.764,1.922-1.309c3.027-1.2,5.454-2.727,7.281-4.581
				c-0.137-0.108-0.232-0.204-0.286-0.286c-1.146-1.146-2.264-2.005-3.354-2.577c-0.709-0.272-1.078-0.682-1.104-1.227
				c0-0.464,0.123-1.05,0.368-1.759c0.246-0.546,0.45-0.818,0.614-0.818c0.245,0,0.518,0.204,0.818,0.613
				c0.518,0.546,1.09,1.037,1.718,1.473c0.518,0.354,1.5,1.187,2.945,2.495c1.036-1.663,1.554-3.19,1.554-4.581
				c0-0.437-0.178-0.654-0.532-0.654c-0.654,0-1.922,0.218-3.804,0.654c-0.709,0.191-1.186,0.286-1.432,0.286
				c-0.245,0-0.545-0.231-0.9-0.695c-0.382-0.382-0.572-0.695-0.572-0.94c0-0.109,0.354-0.259,1.063-0.45
				C74.329,19.62,77.151,19.02,78.051,19.02z M69.38,7.035c0.954,0,1.663,0.055,2.127,0.163h0.123
				c1.5-0.327,2.822-0.681,3.968-1.063c0.981-0.381,1.69-0.572,2.127-0.572c2.291,0.382,3.436,0.832,3.436,1.35
				c0,0.137-0.518,0.642-1.554,1.514c-1.037,1.282-1.554,2.932-1.554,4.949c0,0.818,0.272,1.473,0.818,1.963
				c0.627,0.355,1.159,0.532,1.595,0.532c0.573,0,1.146-0.218,1.718-0.654c0.354-0.873,0.572-1.896,0.654-3.068
				c-0.082-0.327,0.068-0.49,0.45-0.49c1.009,1.363,1.514,2.086,1.514,2.168c0.136,1.718,0.205,2.891,0.205,3.518
				c0.164,0.518,0.395,0.968,0.695,1.35c0,0.519-0.205,0.777-0.614,0.777c-1.609,0-3.477-0.313-5.604-0.941
				c-2.727-0.954-4.09-2.672-4.09-5.153c0-1.2,0.177-2.372,0.532-3.518c0-0.682-0.341-1.022-1.022-1.022
				c-0.736,0.081-1.514,0.3-2.332,0.654c0,0.191-0.014,0.354-0.041,0.49c0,0.655-0.109,1.296-0.327,1.923
				c-0.164,0.572-0.246,1.146-0.246,1.718c0,0.301,0.123,0.587,0.368,0.859c0.218,0.464,0.327,0.927,0.327,1.391
				c0,0.191-0.3,0.613-0.9,1.268c-1.009,0.955-2.904,1.896-5.685,2.822c-0.409,0-0.614-0.218-0.614-0.654
				c0-0.218,0.205-0.49,0.614-0.818c2.045-1.771,3.217-3.162,3.518-4.172c0.164-0.79,0.245-1.908,0.245-3.354
				c0-0.954-0.15-1.882-0.45-2.781c-0.327-0.382-0.491-0.6-0.491-0.655C68.889,7.198,69.053,7.035,69.38,7.035z"/>
			<path fill="#FFFFFF" d="M117.245,1.677c0.3,0,0.886,0.286,1.759,0.858c0.818,0.601,1.227,1.01,1.227,1.228
				c0,0.164-0.178,0.341-0.532,0.531c-0.791,0.71-1.664,1.678-2.618,2.904c4.335-0.845,6.681-1.281,7.035-1.309
				c0.272,0.601,0.436,1.091,0.491,1.473c0,0.49-0.109,0.887-0.327,1.186c-2.945,0.491-4.908,0.955-5.89,1.392
				c0.164,0.19,0.395,0.437,0.695,0.736c1.281,0.927,1.922,1.799,1.922,2.617c-0.055,0.382-0.205,0.642-0.45,0.777
				c0.218,0.055,0.477,0.137,0.777,0.245c0.654,0.301,0.981,0.614,0.981,0.941c0,0.163-0.055,0.437-0.164,0.817
				c-0.191,0.955-0.477,2.536-0.859,4.745c0.164,0.245,0.246,0.682,0.246,1.309c0,0.246-0.287,0.45-0.859,0.613
				c-1.446,0.465-2.673,0.777-3.682,0.941c-0.736,0.082-1.582,0.26-2.536,0.531c-0.109,3.164-0.164,6.381-0.164,9.653
				c0,0.354,0.041,0.832,0.123,1.432c0.054,0.545,0.082,0.954,0.082,1.228c0,0.271-0.191,0.559-0.572,0.858
				c-0.328,0.409-0.682,0.613-1.063,0.613c-0.464,0-0.695-0.49-0.695-1.472c0-9.163-0.055-16.198-0.164-21.106
				c0.082-0.682,0.313-1.022,0.696-1.022c0.164,0,0.477,0.109,0.94,0.327c0.682-0.026,1.936-0.204,3.763-0.531
				c0.573-0.055,1.008-0.096,1.309-0.123c-0.409-0.136-0.833-0.341-1.268-0.613c-0.437-0.219-0.654-0.559-0.654-1.022
				c0.136-0.464,0.204-0.887,0.204-1.269c0.027-0.272,0.109-0.559,0.246-0.858c-0.382,0.108-0.695,0.163-0.941,0.163
				c-0.164-0.026-0.464-0.313-0.9-0.859c-0.027-0.054-0.041-0.095-0.041-0.122c-0.273,0.437-0.45,0.887-0.532,1.35
				c-0.164,0.601-0.532,1.091-1.104,1.473c-0.818,0.654-1.595,1.091-2.332,1.309c-0.709,0.164-1.364,0.368-1.963,0.613
				c-0.109,0-0.164-0.095-0.164-0.286c0-0.218,0.218-0.545,0.654-0.981c1.636-1.854,3.013-3.613,4.131-5.276
				c1.254-1.964,2.209-3.804,2.863-5.522C116.999,1.84,117.108,1.677,117.245,1.677z M114.545,21.965
				c0.954-0.218,2.373-0.505,4.254-0.859c0.164-2.263,0.246-3.722,0.246-4.377c0-0.681-0.205-1.022-0.614-1.022
				c-1.145,0.246-2.264,0.546-3.354,0.9c-0.137,0.055-0.232,0.109-0.286,0.163c-0.027,0.355-0.068,0.764-0.123,1.228
				c0.763-0.108,1.786-0.272,3.067-0.491c0.354,0,0.532,0.505,0.532,1.514c0,0.219-0.286,0.423-0.859,0.613
				c-0.764,0.301-1.405,0.491-1.922,0.573c-0.273,0.027-0.573,0.096-0.9,0.204C114.559,20.929,114.545,21.447,114.545,21.965z
				 M119.208,24.705c0.327,0,0.613,0.055,0.859,0.163c3.054-0.845,4.854-1.268,5.399-1.268c0.736,0,1.499,0.123,2.291,0.368
				c0.654,0.219,0.981,0.464,0.981,0.736c-0.055,0.109-0.15,0.272-0.286,0.491c-0.273,0.437-0.45,2.932-0.532,7.484
				c-0.028,0.927-0.246,1.392-0.655,1.392c-0.137,0-0.477-0.138-1.022-0.409c-0.573-0.246-1.159-0.601-1.759-1.063h-0.041
				c-0.845,0.054-1.772,0.19-2.781,0.409c-0.654,0.136-1.159,0.327-1.513,0.572c-0.246,0.19-0.45,0.286-0.614,0.286
				s-0.396-0.15-0.695-0.45c-0.164-0.218-0.246-0.49-0.246-0.817v-6.095c0-0.19-0.027-0.436-0.082-0.736
				c-0.055-0.218-0.082-0.341-0.082-0.368C118.431,24.938,118.689,24.705,119.208,24.705z M125.221,31.577h0.082
				c0.108,0,0.19-0.137,0.245-0.409c0.027-0.627,0.054-2.127,0.082-4.5c0-0.981-0.341-1.472-1.023-1.472
				c-1.037,0.027-2.264,0.396-3.681,1.104c-0.027,0.219-0.068,0.45-0.123,0.695c-0.027,0.246-0.041,0.45-0.041,0.614
				c0.845-0.108,1.841-0.313,2.986-0.614c0.272-0.081,0.45-0.136,0.532-0.163c0.19,0.055,0.3,0.341,0.327,0.859
				c-0.027,0.437-0.232,0.817-0.613,1.145c-0.791,0.301-1.487,0.491-2.086,0.573c-0.437,0.081-0.887,0.204-1.35,0.368
				c-0.027,0.408-0.041,0.695-0.041,0.858c0,0.327,0.108,0.491,0.327,0.491c0.136,0,0.477-0.055,1.022-0.164
				c1.309-0.218,2.113-0.327,2.413-0.327c0.19,0,0.368,0.109,0.532,0.327C125.03,31.209,125.166,31.413,125.221,31.577z M129.352,0
				c0.245,0,0.668,0.313,1.268,0.94c0.572,0.709,0.859,1.214,0.859,1.514c0,0.219-0.082,0.382-0.246,0.49
				c-0.327,0.383-0.914,1.364-1.759,2.945c-0.027,0.027-0.027,0.041,0,0.041c4.117-0.954,6.271-1.445,6.463-1.473
				c0.518,0.082,0.777,0.682,0.777,1.8c0,0.572-0.423,0.94-1.268,1.104c-0.654,0.082-1.377,0.272-2.167,0.572
				c-0.682,0.191-1.323,0.327-1.923,0.409h-0.041c0.027,0.027,0.054,0.055,0.082,0.082c0.736,0.791,1.568,1.404,2.495,1.841
				c0.463,0.19,0.695,0.423,0.695,0.695c0,0.3-0.178,0.6-0.532,0.899c-0.437,0.383-0.805,0.573-1.104,0.573
				c-1.091,0-1.991-0.231-2.699-0.695c-0.491-0.3-0.736-0.873-0.736-1.719c0-0.436,0.095-0.872,0.286-1.309
				c-0.327,0.082-0.627,0.178-0.9,0.286c-0.409,0-0.695-0.259-0.859-0.777c-1.037,1.473-2.236,2.81-3.6,4.009
				c-1.063,0.928-1.718,1.391-1.963,1.391c-0.518,0-0.777-0.163-0.777-0.49c0.763-1.363,1.622-2.577,2.577-3.641
				c1.582-2.154,2.89-4.922,3.927-8.304C128.724,0.396,129.106,0,129.352,0z M125.63,13.947c0.082,0,0.164,0.015,0.245,0.041
				l0.041-0.041c1.527-0.409,2.972-0.736,4.336-0.981c0.9-0.136,1.704-0.204,2.413-0.204c2.454,0.19,3.695,0.531,3.722,1.022
				c0,0.109-0.219,0.437-0.654,0.981c-0.327,0.764-0.491,2.468-0.491,5.113l0.205,9.979c0,2.019,0.014,3.749,0.041,5.195
				c0.082,0.899,0.177,1.826,0.287,2.781c-0.055,0.491-0.341,0.75-0.859,0.777c-0.545,0-0.94-0.068-1.186-0.205
				c-0.3-0.163-1.009-0.449-2.127-0.858c-1.664-0.818-2.904-1.759-3.722-2.822c0-0.219,0.109-0.327,0.327-0.327
				c1.227,0.408,2.209,0.613,2.945,0.613c0.599,0,0.954-0.396,1.063-1.187c0.299-2.59,0.45-5.003,0.45-7.239
				c0-1.473-0.027-2.945-0.082-4.418c-1.145,0.082-2.331,0.205-3.558,0.368c-1.009,0.137-1.8,0.327-2.373,0.572
				c-0.355,0.191-0.654,0.287-0.9,0.287c-0.137,0-0.354-0.15-0.654-0.45c-0.219-0.218-0.327-0.491-0.327-0.818
				c0-0.763,0.013-1.759,0.041-2.985c0.109-1.009,0.164-2.1,0.164-3.272c0-0.218-0.068-0.505-0.204-0.859
				c-0.109-0.245-0.164-0.395-0.164-0.449C124.607,14.152,124.948,13.947,125.63,13.947z M132.542,20.206
				c-0.028-1.637-0.096-3.231-0.205-4.786c-0.109-0.79-0.559-1.187-1.35-1.187c-0.899,0-1.991,0.314-3.272,0.941
				c-0.055,0.327-0.15,0.736-0.286,1.227c-0.028,0.191-0.055,0.355-0.082,0.491c0.873-0.108,2.14-0.286,3.804-0.532
				c0.218,0,0.327,0.491,0.327,1.473c0,0.191-0.205,0.368-0.614,0.532c-0.927,0.272-1.705,0.45-2.332,0.531
				c-0.437,0.056-0.94,0.15-1.513,0.287c-0.055,0.49-0.082,0.817-0.082,0.981c0,0.327,0.164,0.49,0.491,0.49
				c0.218,0,0.777-0.054,1.677-0.163C130.715,20.328,131.86,20.233,132.542,20.206z"/>
			<path fill="#FFFFFF" d="M167.481,13.293l1.104,0.164c6.271-1.336,10.948-2.113,14.029-2.332c2.345-0.327,3.559-0.49,3.641-0.49
				c0.736,0,1.595,0.313,2.577,0.94c0.818,0.546,1.227,1.063,1.227,1.555c0,0.245-0.259,0.572-0.777,0.981
				c-0.6,0.709-1.677,3.218-3.231,7.526c-0.354,1.145-0.709,1.8-1.063,1.963c-0.437,0-0.927-0.177-1.473-0.531
				c-1.554,0.137-2.932,0.259-4.131,0.368c-0.028,0.927-0.041,1.799-0.041,2.617c4.117-0.436,7.826-0.831,11.125-1.187
				c0.654-0.218,1.376-0.327,2.168-0.327c0.218,0.628,0.491,1.214,0.818,1.759c0.463,0.9,0.736,1.746,0.818,2.536
				c-0.082,0.464-0.287,0.736-0.614,0.818c-0.191,0-0.805-0.177-1.841-0.532c-1.145-0.436-2.167-0.654-3.067-0.654
				c-2.536,0-5.7,0.164-9.49,0.491c-0.027,2.372-0.041,4.186-0.041,5.44c0,0.599,0.041,1.145,0.123,1.636
				c0.164,0.682,0.245,1.281,0.245,1.8c-0.082,0.327-0.518,0.491-1.309,0.491c-1.309,0-2.019-0.164-2.127-0.491
				c0-0.327,0.041-0.613,0.123-0.859c0.027-0.272,0.041-0.641,0.041-1.104v-6.667c-0.464,0.056-0.9,0.096-1.309,0.123
				c-4.99,0.491-8.753,1.146-11.289,1.963c-0.437,0-0.873-1.145-1.309-3.436l0.941-0.163h1.309c4.199-0.491,8.084-0.927,11.657-1.31
				v-2.536c-1.391,0.164-2.277,0.314-2.659,0.45c-0.654,0.164-1.146,0.245-1.473,0.245c-1.009-0.054-2.236-1.703-3.681-4.949
				c-1.146-2.617-1.718-4.403-1.718-5.358C166.786,13.606,167.017,13.293,167.481,13.293z M166.786,4.785l1.022,0.164
				c2.59-0.9,4.526-1.404,5.808-1.514c0.982-0.19,1.486-0.286,1.514-0.286c0.491,0,1.049,0.272,1.677,0.817
				c0.545,0.546,0.818,1.023,0.818,1.432c0,0.109-0.137,0.273-0.409,0.491c-0.3,0.354-0.818,1.568-1.554,3.641
				c-0.164,0.572-0.341,0.886-0.532,0.94c-0.273,0-0.587-0.095-0.941-0.286c-2.264,0.491-3.559,0.887-3.886,1.187
				c-0.246,0.19-0.437,0.286-0.573,0.286c-0.654-0.055-1.432-1.036-2.332-2.945c-0.736-1.526-1.104-2.577-1.104-3.149
				C166.295,5.045,166.458,4.785,166.786,4.785z M170.385,8.998c0.354,0,1.295-0.259,2.822-0.777
				c0.136-0.054,0.259-0.218,0.368-0.49c0.164-0.491,0.246-0.981,0.246-1.473c0-0.763-0.164-1.146-0.491-1.146
				c-0.519,0-1.241,0.15-2.168,0.45c-1.146,0.491-1.718,0.94-1.718,1.35C169.499,8.303,169.813,8.998,170.385,8.998z
				 M173.208,21.433c0.545,0,1.582-0.054,3.109-0.163v-2.332c-0.982,0.137-1.978,0.314-2.986,0.532c-0.246,0-0.45-0.409-0.614-1.228
				c-0.109-0.572-0.164-0.913-0.164-1.022c0-0.327,0.218-0.491,0.654-0.491c0.873-0.026,1.909-0.136,3.109-0.327V14.07
				c0-0.108-0.014-0.204-0.041-0.286c-3.573,0.709-5.358,1.35-5.358,1.922C171.081,19.524,171.844,21.433,173.208,21.433z
				 M177.953,2.985l0.94,0.164c2.809-0.654,4.895-1.022,6.258-1.104c1.036-0.164,1.581-0.245,1.636-0.245
				c0.545,0,1.2,0.286,1.963,0.858c0.627,0.546,0.94,1.022,0.94,1.432c0,0.137-0.15,0.313-0.45,0.532
				c-0.354,0.354-1.009,1.608-1.963,3.763c-0.219,0.572-0.437,0.887-0.654,0.94c-0.355,0-0.75-0.108-1.187-0.327
				c-2.345,0.354-3.667,0.628-3.967,0.818c-0.3,0.137-0.505,0.204-0.614,0.204c-0.627-0.054-1.405-1.063-2.332-3.026
				c-0.736-1.581-1.104-2.659-1.104-3.231C177.421,3.245,177.598,2.985,177.953,2.985z M179.752,13.252v0.041
				c0,0.164-0.028,0.423-0.082,0.777c-0.055,0.437-0.109,1.022-0.164,1.759c0.491-0.082,0.995-0.177,1.513-0.286
				c0.6-0.164,0.982-0.259,1.146-0.286c0.3,0.055,0.463,0.423,0.491,1.104c-0.027,0.683-0.286,1.228-0.777,1.637
				c-0.873,0.191-1.677,0.368-2.414,0.531c-0.027,0.873-0.041,1.705-0.041,2.495c0.818-0.054,1.677-0.122,2.577-0.204
				c0.627-0.108,1.104-0.613,1.432-1.514c0.573-1.608,0.859-3.299,0.859-5.072c0-0.872-0.259-1.309-0.777-1.309
				C182.452,12.925,181.197,13.034,179.752,13.252z M181.552,7.362c0.328,0,1.241-0.108,2.741-0.327
				c0.272-0.027,0.477-0.178,0.613-0.45c0.272-0.545,0.409-1.09,0.409-1.636c0-0.791-0.218-1.187-0.654-1.187
				c-0.573,0-1.336,0.123-2.291,0.368c-1.227,0.354-1.841,0.682-1.841,0.981C180.611,6.612,180.952,7.362,181.552,7.362z"/>
			<path fill="#FFFFFF" d="M225.531,4.622c0.354,0,1.063,0.354,2.127,1.063c0.982,0.735,1.473,1.241,1.473,1.513
				c0,0.246-0.245,0.532-0.736,0.859c-1.5,1.473-3.231,3.695-5.194,6.667c-0.464,0.546-0.818,1.091-1.063,1.636
				c0.272,0.109,0.586,0.246,0.94,0.409c1.391,0.683,2.154,1.269,2.291,1.759c-0.382,1.719-0.777,5.918-1.186,12.599l0.327,2.577
				c0,0.463-0.546,0.695-1.636,0.695c-1.037,0-1.582-0.178-1.636-0.532c0.463-2.263,0.695-6.121,0.695-11.575
				c-0.055-1.31-0.3-2.358-0.736-3.149c-0.246,0.464-0.6,0.899-1.063,1.309c-1.146,0.955-2.25,1.609-3.313,1.963
				c-0.982,0.246-1.909,0.573-2.782,0.982c-0.218,0-0.327-0.109-0.327-0.327c0-0.272,0.327-0.75,0.982-1.432
				c2.426-2.809,4.458-5.454,6.094-7.936c1.854-2.999,3.258-5.781,4.213-8.345C225.163,4.867,225.34,4.622,225.531,4.622z
				 M246.31,30.268c-1.364,0-4.35,0.123-8.958,0.368c-3.518,0.219-6.544,0.587-9.081,1.104c-0.3,0-0.682-0.327-1.146-0.981
				c-0.545-1.009-0.818-1.596-0.818-1.759c0-0.354,0.286-0.586,0.859-0.695c1.718-0.055,3.954-0.286,6.708-0.695
				c2.1-0.19,4.458-0.437,7.076-0.736c1.936-0.082,3.572-0.259,4.909-0.532c0.872-0.19,1.568-0.286,2.086-0.286
				c0.545,0,1.2,1.241,1.963,3.723c-0.082,0.437-0.423,0.654-1.022,0.654L246.31,30.268z M230.071,10.962
				c0.19,0,0.545,0.068,1.063,0.204c0.164-0.082,0.354-0.149,0.573-0.204c1.199-0.518,2.89-0.968,5.072-1.351
				c1.554-0.299,2.863-0.449,3.927-0.449c2.618,0,4.526,0.341,5.727,1.022c0.763,0.464,1.145,0.899,1.145,1.309
				c0,0.082-0.068,0.191-0.205,0.327c-0.354,0.383-0.627,1.063-0.818,2.046c-0.9,4.09-1.732,6.64-2.495,7.648
				c-0.491,0.928-0.859,1.745-1.104,2.454c-0.137,0.491-0.396,0.736-0.777,0.736c-0.137,0-0.328-0.067-0.573-0.204
				c-0.491-0.409-1.104-0.832-1.841-1.269c-0.082-0.055-0.164-0.108-0.245-0.163c-1.882,0.6-3.368,0.968-4.458,1.104
				c-0.409,0.056-0.764,0.109-1.063,0.164c-0.246,0.191-0.723,0.313-1.432,0.368c-0.6,0-1.336-1.35-2.209-4.05
				c-0.818-3.026-1.227-6.025-1.227-8.998C229.13,11.193,229.443,10.962,230.071,10.962z M233.303,21.229
				c2.045-0.082,3.763-0.313,5.154-0.695c0.381-0.137,0.654-0.205,0.818-0.205c0.19,0.056,0.381,0.383,0.573,0.982
				c0.491-0.328,0.913-0.955,1.268-1.882c1.063-2.454,1.595-4.499,1.595-6.136c-0.055-1.199-1.255-1.8-3.6-1.8
				c-0.9,0-2.114,0.205-3.641,0.613c-0.981,0.383-1.84,0.846-2.577,1.392c-0.055,0.735-0.096,1.363-0.123,1.881
				c1.527-0.108,3.531-0.368,6.013-0.777c0.491-0.108,0.818-0.177,0.981-0.204c0.164,0.055,0.259,0.396,0.287,1.022
				c-0.028,0.491-0.232,0.928-0.614,1.309c-1.418,0.546-2.7,0.914-3.845,1.104c-0.846,0.137-1.759,0.396-2.741,0.777
				C232.961,19.401,233.111,20.274,233.303,21.229z"/>
			<path fill="#FFFFFF" d="M295.156,10.348c-1.282,0-2.714,0.056-4.295,0.164c-0.082,0.164-0.205,0.354-0.368,0.572
				c-0.6,0.71-0.996,1.787-1.186,3.231c-0.792,8.018-1.186,13.39-1.186,16.116c0,0.709,0.041,1.35,0.123,1.922
				c0.164,0.791,0.245,1.473,0.245,2.046c-0.082,0.408-0.572,0.613-1.472,0.613c-1.5,0-2.332-0.313-2.495-0.94
				c0-0.328,0.041-0.614,0.123-0.859c0.027-0.272,0.041-0.654,0.041-1.146V16.975l-8.835,8.508
				c-1.855,1.772-3.164,2.658-3.927,2.658c-0.327,0-0.859-0.204-1.595-0.613c-0.437-0.3-0.654-0.641-0.654-1.022
				c0-0.409,0.395-0.832,1.186-1.269c2.454-1.499,5.031-3.722,7.73-6.667c2.317-2.48,4.172-4.963,5.563-7.444
				c-3.873,0.464-6.804,1.063-8.794,1.8c-0.491,0-1.037-1.309-1.636-3.927l1.022-0.163h1.636c8.508-1.146,15.638-2.072,21.392-2.781
				c0.545-0.219,1.146-0.328,1.8-0.328c0.272,0.71,0.6,1.392,0.981,2.046c0.545,1.009,0.873,1.963,0.982,2.863
				c-0.109,0.6-0.314,0.94-0.614,1.022c-0.218,0-0.927-0.218-2.127-0.654C297.433,10.566,296.22,10.348,295.156,10.348z
				 M290.452,17.384c1.936,0.764,3.722,1.377,5.358,1.84c1.69,0.601,3.654,1.568,5.89,2.904c0.218,0.409,0.327,0.832,0.327,1.269
				c-0.437,3.054-1.091,4.581-1.963,4.581c-0.327,0-0.586-0.259-0.777-0.777c-1.201-1.854-4.254-5.031-9.163-9.53
				C290.125,17.479,290.234,17.384,290.452,17.384z"/>
			<path fill="#FFFFFF" d="M333.572,7.689c1.882,0.654,2.822,1.255,2.822,1.8c0,0.219-0.15,0.409-0.45,0.572
				c-0.682,0.546-1.336,1.214-1.963,2.005c-0.491,1.009-0.736,1.896-0.736,2.658c0.082,0.818,0.518,1.937,1.309,3.354
				c0.3,0.627,0.504,1.132,0.613,1.513c0.6-0.081,1.322-0.122,2.168-0.122c1.963,0.245,2.945,0.695,2.945,1.35
				c0,0.191-0.204,0.546-0.613,1.063c-0.682,1.091-1.022,2.086-1.022,2.985c0.054,1.037,0.545,1.964,1.472,2.782
				c0.328,0.382,0.491,0.6,0.491,0.654c0,0.49-0.055,0.873-0.164,1.146c0.708,0.081,1.499,0.231,2.372,0.449
				c0.218,0.056,0.436,0.109,0.654,0.164c-0.027-0.164-0.041-0.354-0.041-0.573c0-3.626-0.055-6.421-0.164-8.385
				c0.082-0.627,0.286-0.94,0.613-0.94c0.218,0,0.654,0.15,1.309,0.449c3.462-0.763,5.481-1.145,6.054-1.145
				c0.845,0,1.704,0.122,2.577,0.368c0.681,0.245,1.022,0.518,1.022,0.817c-0.055,0.109-0.164,0.301-0.327,0.573
				c-0.327,0.572-0.518,3.817-0.573,9.734c-0.027,0.654-0.109,1.104-0.245,1.351c1.472,0.408,3.286,1.008,5.44,1.799
				c1.5,0.519,2.25,1.036,2.25,1.555c0,0.245-0.123,0.423-0.368,0.532c-0.628,0-1.323,0.081-2.086,0.245
				c-0.627,0.136-1.486,0.204-2.577,0.204c-1.309,0-2.781,0.109-4.417,0.327c-0.6,0-1.05-0.437-1.35-1.309
				c-0.518-1.418-1.554-2.331-3.108-2.74c-1.664-0.109-3.246-0.437-4.745-0.981c-1.364-0.354-2.563-0.532-3.6-0.532
				c-1.473,0-3.218,0.45-5.236,1.35c-0.491,0-0.764-0.995-0.818-2.985c0-0.409,0.164-0.614,0.491-0.614
				c0.818,0.327,1.473,0.491,1.963,0.491c0.082,0,0.149-0.014,0.205-0.041c1.309-0.491,1.963-1.131,1.963-1.922
				c0-0.354-0.205-1.05-0.614-2.087c-0.272-0.627-0.409-1.908-0.409-3.845c0-0.6-0.437-1.022-1.309-1.268
				c0,0.409-0.15,0.968-0.45,1.677c-0.437,0.601-0.709,0.9-0.818,0.9c-0.382,0-0.709-0.096-0.981-0.287
				c-0.464-0.163-1.146-0.408-2.045-0.736c-0.818-0.463-1.568-1.076-2.25-1.84c-0.109,6.19-0.164,10.525-0.164,13.007
				c0,0.518,0.027,0.968,0.082,1.35c0.082,0.573,0.123,1.063,0.123,1.473c-0.055,0.218-0.437,0.327-1.146,0.327
				c-1.091,0-1.691-0.163-1.8-0.491c0-0.245,0.068-0.464,0.205-0.654c0.055-0.219,0.082-0.49,0.082-0.817V10.348
				c0-0.271-0.041-0.559-0.123-0.858c0-0.137,0.068-0.272,0.205-0.409c0.19-0.164,0.559-0.245,1.104-0.245
				c0.354,0,0.818,0.068,1.391,0.204l0.164,0.082C331.35,8.167,332.891,7.689,333.572,7.689z M329.196,10.839
				c-0.109,0.818-0.191,1.95-0.246,3.395c-0.027,1.609-0.055,3.096-0.082,4.459c1.772,0.519,2.849,0.777,3.231,0.777
				c0.463,0,0.75-0.313,0.859-0.941c0-0.627-0.437-1.54-1.309-2.74c-0.437-0.927-0.654-1.595-0.654-2.004
				c0-0.6,0.136-1.336,0.409-2.209c0.463-0.872,0.696-1.391,0.696-1.555c0-0.218-0.219-0.327-0.655-0.327
				c-0.218,0-0.668,0.164-1.35,0.491C329.687,10.512,329.386,10.73,329.196,10.839z M336.845,10.798
				c0.245,0.137,0.504,0.505,0.777,1.104c0.328,0.601,0.763,1.173,1.309,1.718c0.545,0.654,0.845,1.35,0.9,2.086
				c-0.055,0.437-0.286,0.654-0.695,0.654c-0.818-0.354-1.582-0.599-2.291-0.735c-0.736-0.137-1.104-0.805-1.104-2.005
				c0-0.899,0.136-1.636,0.409-2.209C336.395,11.058,336.626,10.853,336.845,10.798z M353.901,10.348c-0.9,0-2.822,0.15-5.768,0.45
				c-0.736,0.109-1.418,0.232-2.045,0.368c-0.355,0.654-0.709,1.282-1.063,1.882c1.118-0.108,3.858-0.518,8.221-1.228
				c0.328,0,0.491,0.546,0.491,1.637c0,0.245-0.287,0.449-0.859,0.613c-0.736,0.163-1.418,0.301-2.045,0.409
				c-0.055,0.109-0.096,0.231-0.123,0.368c-0.109,0.709-0.178,1.2-0.205,1.473c0.164,0,0.3-0.014,0.409-0.041
				c1.282-0.055,2.373-0.205,3.272-0.45c0.573-0.164,1.022-0.245,1.35-0.245c0.3,0,0.682,0.75,1.146,2.249
				c-0.055,0.219-0.232,0.327-0.532,0.327l-1.636-0.163c-0.873,0-2.809,0.15-5.808,0.45c-2.318,0.272-4.295,0.723-5.931,1.35
				c-0.218,0-0.491-0.231-0.818-0.695c-0.191-0.437-0.327-0.75-0.409-0.941c-0.654,0.573-1.336,1.063-2.045,1.473
				c-0.355,0-0.532-0.149-0.532-0.449c1.335-2.072,2.727-4.432,4.172-7.077c-0.354,0.109-0.654,0.219-0.9,0.328
				c-0.273,0-0.613-0.3-1.022-0.9c-0.518-0.845-0.777-1.35-0.777-1.514c0-0.354,0.286-0.586,0.859-0.695
				c0.954-0.026,2.127-0.163,3.518-0.409c0.054-0.136,0.108-0.245,0.164-0.327c1.908-3.789,2.917-6.054,3.027-6.789
				c0.082-0.19,0.341-0.287,0.777-0.287c0.218,0,0.668,0.191,1.35,0.573c0.409,0.464,0.668,0.817,0.777,1.063
				c0,0.272-0.177,0.6-0.532,0.981c-0.845,1.255-1.732,2.687-2.659,4.295c0.873-0.137,1.8-0.272,2.782-0.409
				c1.309-0.082,2.413-0.259,3.313-0.532c0.573-0.19,1.036-0.286,1.391-0.286c0.382,0,0.873,0.941,1.473,2.822
				c-0.055,0.301-0.286,0.45-0.695,0.45L353.901,10.348z M342.244,17.506c1.146-0.082,2.509-0.272,4.09-0.572
				c0.382-0.055,0.763-0.108,1.146-0.164v-1.8c-0.682,0.109-1.432,0.26-2.25,0.45c-0.273,0-0.532-0.272-0.777-0.818
				c-0.082-0.136-0.123-0.245-0.123-0.327c-0.082,0.164-0.164,0.314-0.246,0.45C343.648,15.762,343.034,16.688,342.244,17.506z
				 M351.161,31.74c-0.846-0.572-1.732-1.377-2.659-2.413c0.082-0.108,0.231-0.164,0.45-0.164c1.281,0.327,1.99,0.491,2.127,0.491
				c0.108,0,0.19-0.218,0.245-0.654c0.027-0.872,0.068-2.999,0.123-6.381c0-1.009-0.327-1.514-0.981-1.514
				c-1.282,0.055-2.822,0.437-4.622,1.146c-0.055,0.354-0.096,0.695-0.123,1.022c2.7-0.436,4.117-0.654,4.254-0.654
				c0.218,0.027,0.327,0.354,0.327,0.981c0,0.245-0.232,0.409-0.695,0.491c-0.464,0.055-0.982,0.163-1.554,0.327
				c-0.491,0.163-0.941,0.272-1.35,0.327c-0.409,0.055-0.791,0.137-1.145,0.245c-0.028,0.409-0.041,0.777-0.041,1.104
				c2.945-0.463,4.485-0.695,4.622-0.695c0.3,0.027,0.45,0.341,0.45,0.94c0,0.327-0.205,0.546-0.613,0.654
				c-0.519,0.056-1.078,0.178-1.677,0.368c-0.546,0.109-1.037,0.191-1.472,0.246c-0.409,0.027-0.818,0.096-1.228,0.204
				c0,0.164,0.014,0.314,0.041,0.45c0.027,0.546,0.041,0.955,0.041,1.227c0,0.273-0.164,0.56-0.491,0.859l-0.082,0.082
				C347.261,30.95,349.279,31.387,351.161,31.74z"/>
			<path fill="#FFFFFF" d="M389.209,3.599c0.354,0,0.94,0.178,1.759,0.532c0.791,0.409,1.186,0.736,1.186,0.981
				c0,0.409-0.314,0.777-0.941,1.104c-1.063,1.118-2.4,3.286-4.008,6.504c-0.491,1.173-1.009,2.209-1.554,3.108
				c0.218,0.109,0.45,0.219,0.695,0.327c1.008,0.601,1.513,1.05,1.513,1.35c0,0.082-0.137,0.205-0.409,0.368
				c-0.273,0.164-0.56,0.532-0.859,1.104c-0.273,1.228-0.477,3.736-0.613,7.526c0,4.009,0.19,6.694,0.573,8.058
				c0,0.736-0.314,1.104-0.941,1.104c-0.109,0-0.587-0.204-1.432-0.613c-0.818-0.301-1.227-0.751-1.227-1.35
				c0-0.082,0.136-0.368,0.409-0.859c0.054-0.981,0.095-5.494,0.123-13.539l-0.082-0.572c-0.518,0.519-1.05,0.981-1.595,1.391
				c-2.018,1.227-3.327,1.896-3.927,2.004c-0.327,0-0.491-0.177-0.491-0.531c0-0.272,0.627-1.118,1.882-2.536
				c3.245-2.999,6.34-7.936,9.285-14.807C388.636,3.817,388.854,3.599,389.209,3.599z M407.001,3.763
				c0.19,0,0.354,0.491,0.491,1.473c0,0.736-0.164,1.186-0.491,1.35c-1.773,0.981-3.19,1.704-4.254,2.168
				c-0.164,0.682-0.313,1.404-0.45,2.168c1.908-0.3,3.381-0.45,4.417-0.45c0.463,0,1.24,0.15,2.332,0.45
				c1.2,0.627,1.827,1.132,1.881,1.514c0,0.245-0.245,0.682-0.736,1.309c-0.654,1.255-1.636,4.077-2.945,8.467
				c-0.219,1.364-0.559,2.045-1.022,2.045c-0.873-0.572-1.623-1.213-2.25-1.922c-1.227,0.327-2.291,0.586-3.19,0.776
				c-0.055,0.355-0.137,0.683-0.245,0.982c-0.3,1.118-0.655,2.072-1.063,2.863c0.518,0.272,1.008,0.531,1.472,0.776
				c2.072,1.173,3.981,2.142,5.727,2.904c1.445,0.764,3.354,1.459,5.727,2.086c1.663,0.464,2.917,1.187,3.763,2.168
				c0,0.764-1.364,1.146-4.09,1.146c-1.173,0-2.141-0.082-2.904-0.245c-0.736-0.082-1.405-0.15-2.004-0.205
				c-0.845-0.055-1.486-0.423-1.922-1.104c-0.818-1.636-2.563-2.972-5.235-4.008c-0.873-0.354-1.623-0.682-2.25-0.982
				c-0.709,0.818-1.172,1.691-1.391,2.618c-1.582,1.063-3.19,1.882-4.827,2.454c-1.227,0.218-2.291,0.327-3.19,0.327
				c-0.955,0-1.431-0.109-1.431-0.327c0-0.055,0.368-0.286,1.104-0.695c3-1.336,5.358-2.849,7.076-4.54
				c0.272-0.272,0.518-0.559,0.736-0.859c-1.227-0.708-2.795-1.432-4.704-2.168c-0.982-0.271-1.473-0.695-1.473-1.268
				c0-0.382,0.054-0.695,0.164-0.94c0.19-0.327,0.313-0.75,0.368-1.269c0.082-0.354,0.3-0.531,0.654-0.531
				c1.036,1.091,2.113,1.868,3.231,2.331c1.172,0.409,2.25,0.846,3.231,1.309c0.3-0.763,0.545-1.567,0.736-2.413
				c-0.164,0.056-0.3,0.082-0.409,0.082c-0.219,0.245-0.736,0.409-1.554,0.491c-0.818,0-1.841-1.118-3.068-3.354
				c-1.145-2.427-1.718-4.854-1.718-7.28c0-0.464,0.286-0.695,0.859-0.695c0.164,0,0.477,0.068,0.941,0.204
				c0.3-0.136,0.64-0.259,1.022-0.368c1.854-0.436,3.518-0.79,4.99-1.063l-0.123-2.168c-0.491-0.026-0.832-0.041-1.022-0.041
				c-0.327,0.027-0.859,0.137-1.595,0.327c-0.709,0.301-1.254,0.478-1.636,0.532c-0.245,0-0.423-0.368-0.532-1.104
				c-0.055-0.627-0.177-1.187-0.368-1.677c-0.273-0.437-0.409-0.818-0.409-1.146c0.027-0.272,0.205-0.45,0.532-0.532h4.008
				c1.882,0,4.131-0.449,6.749-1.35C405.993,3.967,406.756,3.763,407.001,3.763z M398.535,21.064
				c0.136-0.763,0.259-1.567,0.368-2.413c-0.082,0.027-0.15,0.041-0.205,0.041c-1.091,0.137-1.868,0.3-2.332,0.491
				c-0.191,0-0.354-0.437-0.491-1.31c-0.055-0.463-0.096-0.79-0.123-0.981c0.027-0.327,0.19-0.504,0.491-0.532
				c1.063-0.054,2.018-0.149,2.863-0.286c0.054-0.736,0.082-1.513,0.082-2.331c-1.609,0.354-3.136,0.777-4.581,1.268
				c-0.109,1.01-0.164,1.8-0.164,2.373c0,1.009,0.545,2.305,1.636,3.886C397.007,21.242,397.825,21.174,398.535,21.064z
				 M403.729,19.797c0.19,0.055,0.381,0.327,0.572,0.817c0.354-0.163,0.641-0.64,0.859-1.431c0.708-2.782,1.063-4.582,1.063-5.399
				c0-0.791-0.232-1.187-0.695-1.187c-0.873,0.055-2.045,0.232-3.518,0.532c-0.027,0.272-0.055,0.559-0.082,0.858
				c-0.055,0.573-0.096,1.091-0.123,1.555c0.381-0.108,0.722-0.218,1.022-0.327c0.436-0.164,0.736-0.259,0.9-0.286
				c0.327,0.055,0.668,0.764,1.022,2.127c-0.027,0.163-0.191,0.272-0.491,0.327c-0.982,0.3-1.882,0.531-2.7,0.695
				c-0.109,0.899-0.219,1.731-0.327,2.495c0.545-0.137,1.063-0.287,1.554-0.45C403.225,19.934,403.538,19.824,403.729,19.797z"/>
		</g>
	</g>
</g>
<g id="Layer_2">
</g>
<g id="Layer_3">
</g>
</svg>
