<?xml version="1.0" encoding="utf-8"?>
<!-- Generator: Adobe Illustrator 16.0.0, SVG Export Plug-In . SVG Version: 6.00 Build 0)  -->
<!DOCTYPE svg PUBLIC "-//W3C//DTD SVG 1.0//EN" "http://www.w3.org/TR/2001/REC-SVG-20010904/DTD/svg10.dtd">
<svg version="1.0" xmlns="http://www.w3.org/2000/svg" xmlns:xlink="http://www.w3.org/1999/xlink" x="0px" y="0px" width="637.4px"
	 height="88.997px" viewBox="0 0 637.4 88.997" enable-background="new 0 0 637.4 88.997" xml:space="preserve">
<g id="Layer_1">
	<g>
		<g>
			<path fill="#FFFFFF" d="M12.271,10.635c0.19,0,0.709,0.245,1.554,0.736c0.627,0.409,0.941,0.654,0.941,0.736
				c0,0.163-0.191,0.396-0.573,0.695c-2.481,2.182-4.404,4.063-5.767,5.645c0.19,0.082,0.395,0.164,0.613,0.245
				c1.282,0.628,1.977,1.173,2.086,1.637c-0.109,1.309-0.218,4.458-0.327,9.448v2.495c0,0.436-0.491,0.654-1.472,0.654
				c-0.928,0-1.405-0.163-1.432-0.49c0.108-1.691,0.164-4.581,0.164-8.672c-0.055-1.555-0.382-2.74-0.982-3.559l-0.082-0.123
				c-0.137,0.219-0.219,0.437-0.246,0.655c-0.082,0.245-0.532,0.572-1.35,0.981c-1.2,0.572-2.604,0.858-4.213,0.858
				C0.395,22.578,0,22.429,0,22.129c2.345-1.228,4.444-2.85,6.299-4.868c2.045-2.045,3.654-4.021,4.826-5.931
				C11.29,10.867,11.671,10.635,12.271,10.635z M12.107,2.822c0.3,0,0.9,0.245,1.8,0.736c0.627,0.628,1.022,1.091,1.186,1.391
				c0,0.082-0.178,0.205-0.532,0.368c-1.609,0.981-3.532,2.305-5.767,3.968c-0.792,0.764-2.182,1.391-4.172,1.882
				c-0.464,0-0.695-0.231-0.695-0.695c1.473-1.2,3.027-2.659,4.663-4.377c1.527-1.581,2.317-2.522,2.372-2.822
				C11.071,2.973,11.453,2.822,12.107,2.822z M30.104,16.729c-0.437,0-1.118,0.027-2.045,0.082c0.054,0.109,0.082,0.19,0.082,0.245
				c0,0.382-0.15,0.899-0.45,1.555c-0.055,0.354-0.096,0.682-0.123,0.981h0.082c2.1-0.108,3.872-0.327,5.317-0.654
				c0.954-0.272,1.69-0.409,2.209-0.409c0.518,0,1.118,1.2,1.8,3.6c-0.055,0.3-0.368,0.449-0.941,0.449l-2.332-0.122
				c-1.091,0-3.149,0.068-6.176,0.204c0.027,5.645,0.19,9.053,0.491,10.226c0.19,0.627,0.287,1.187,0.287,1.678
				c0,0.518-0.314,0.776-0.941,0.776c-0.736,0-1.718-0.204-2.945-0.613c-1.282-0.49-2.345-1.063-3.19-1.718
				c-0.572-0.519-1.309-1.022-2.208-1.514c-0.682-0.464-1.022-0.873-1.022-1.227c0-0.109,0.067-0.164,0.205-0.164
				c0.218,0,0.491,0.096,0.818,0.286c1.254,0.382,2.659,0.573,4.213,0.573c0.873,0,1.309-0.45,1.309-1.35v-6.79
				c-0.246,0.027-0.491,0.041-0.736,0.041c-2.182,0.163-4.172,0.396-5.972,0.695c0.19,0.081,0.395,0.149,0.613,0.204
				c1.009,0.301,1.841,0.846,2.495,1.636c0.109,0.191,0.164,0.396,0.164,0.614C20.751,28.005,20.097,29,19.143,29
				c-0.218,0-0.423-0.245-0.613-0.736c-0.655-1.608-1.487-3.054-2.495-4.335l-0.041-0.041c-0.764,0.163-1.5,0.327-2.209,0.49
				c-0.272,0-0.613-0.3-1.022-0.899c-0.437-0.845-0.654-1.35-0.654-1.514c0-0.272,0.218-0.45,0.654-0.531
				c1.882-0.055,4.308-0.341,7.281-0.859c1.417-0.19,2.917-0.382,4.5-0.572v-0.205c0-0.79-0.123-1.567-0.368-2.331
				c-0.082-0.108-0.15-0.205-0.205-0.286c-2.318,0.272-4.309,0.723-5.972,1.35c-0.273,0-0.614-0.313-1.023-0.941
				c-0.518-0.872-0.777-1.391-0.777-1.554c0-0.245,0.286-0.409,0.859-0.491c1.2-0.026,2.768-0.231,4.704-0.613
				c1.473-0.245,3.109-0.491,4.909-0.736c1.391-0.055,2.549-0.218,3.477-0.491c0.627-0.163,1.104-0.245,1.432-0.245
				c0.436,0,0.927,1.037,1.473,3.108c-0.055,0.219-0.314,0.327-0.777,0.327L30.104,16.729z M16.566,3.927l1.104,0.164
				c4.472-1.009,7.812-1.596,10.021-1.76c1.663-0.245,2.522-0.367,2.577-0.367c0.627,0,1.377,0.313,2.25,0.94
				c0.681,0.546,1.022,1.063,1.022,1.554c0,0.191-0.178,0.45-0.532,0.777c-0.409,0.546-1.159,2.495-2.25,5.85
				c-0.3,0.899-0.573,1.404-0.818,1.514c-0.354,0-0.777-0.109-1.268-0.328c-4.718,0.546-7.39,0.955-8.017,1.228
				c-0.546,0.164-0.941,0.245-1.187,0.245c-0.627-0.026-1.405-1.432-2.331-4.213c-0.736-2.263-1.104-3.79-1.104-4.581
				C16.034,4.268,16.211,3.927,16.566,3.927z M20.329,11.33c0.845,0,3.19-0.286,7.035-0.858c0.272-0.082,0.491-0.437,0.654-1.063
				c0.3-1.254,0.45-2.536,0.45-3.846c0-0.845-0.219-1.268-0.655-1.268c-1.118,0-2.659,0.191-4.622,0.572
				C20.71,5.413,19.47,5.931,19.47,6.422c0,0.409,0.014,0.777,0.041,1.104c1.527-0.108,3.613-0.45,6.258-1.022
				c0.463-0.137,0.763-0.218,0.9-0.246c0.218,0.056,0.34,0.314,0.368,0.777c-0.028,0.464-0.26,0.859-0.695,1.187
				c-1.364,0.464-2.604,0.764-3.722,0.899c-0.9,0.137-1.882,0.396-2.945,0.777C19.838,10.854,20.056,11.33,20.329,11.33z"/>
			<path fill="#FFFFFF" d="M71.507,3.272c0.381,0.109,0.818,1.159,1.309,3.149c-0.055,0.219-0.341,0.368-0.859,0.45
				c-1.091,0.327-2.1,0.627-3.026,0.899c-0.818,0.409-1.528,0.981-2.127,1.718c-0.818,0.9-1.882,1.882-3.19,2.945
				c0,0.354,0.177,0.532,0.532,0.532c2.291-0.409,3.653-0.736,4.09-0.982c1.063-0.954,2.045-1.458,2.945-1.513
				c1.118,0,2.045,0.559,2.781,1.677c0.845,1.363,1.268,2.604,1.268,3.722c-0.027,0.355-0.286,0.532-0.777,0.532
				c-0.518,0-1.323-0.231-2.413-0.695c-0.981-0.3-1.5-0.559-1.554-0.777c0.108-0.136,0.368-0.313,0.777-0.532
				c1.036-0.545,1.555-1.09,1.555-1.636c0-0.79-0.382-1.213-1.146-1.268c-0.437,0-0.859,0.163-1.268,0.49
				c-0.464,0.383-0.695,0.71-0.695,0.982c0.027,0.518,0.123,0.995,0.287,1.431c-0.028,0.355-0.232,0.587-0.614,0.696
				c-0.437,0-0.941,0.055-1.513,0.163c-0.109,1.282-0.191,2.55-0.246,3.804c1.2-0.245,2.495-0.531,3.886-0.858
				c0.409,0,0.614,0.654,0.614,1.963c0,0.301-0.314,0.56-0.941,0.777c-1.364,0.519-2.591,0.914-3.681,1.187
				c-0.028,1.145-0.055,2.236-0.082,3.271c1.99-0.681,3.544-1.131,4.663-1.35c0.927-0.19,1.432-0.286,1.513-0.286
				c0.218,0,0.327,0.109,0.327,0.327c0,0.055-0.327,0.313-0.981,0.777c-3.19,1.937-6.231,3.559-9.122,4.867
				c-1.009,0.464-1.922,0.995-2.74,1.596c-0.3,0.381-0.6,0.572-0.9,0.572c-0.246,0-0.846-0.368-1.8-1.104
				c-0.846-0.817-1.268-1.417-1.268-1.8c0-0.136,0.164-0.368,0.491-0.695c2.59-0.709,4.772-1.336,6.545-1.881l0.041-3.6
				c-1.037,0.245-2.195,0.613-3.477,1.104c-0.382,0-0.723-0.396-1.022-1.187c-0.191-0.545-0.287-1.091-0.287-1.636
				c0-0.3,0.205-0.45,0.614-0.45c0.654-0.082,2.059-0.368,4.213-0.859l0.041-3.722c-1.855,0.6-3.123,1.05-3.804,1.35
				c-0.382,0.272-0.695,0.409-0.94,0.409c-0.219,0-0.655-1.2-1.309-3.6c0-0.436,0.231-0.75,0.695-0.94
				c1.008-0.327,1.881-0.982,2.618-1.964c0.736-0.954,1.35-1.772,1.841-2.454c-1.309,0.164-2.25,0.382-2.822,0.654
				c-0.382,0-0.695-0.681-0.941-2.045c-0.109-0.736-0.178-1.254-0.205-1.555c0.027-0.409,0.231-0.64,0.614-0.695
				c3.981-0.136,7.322-0.654,10.021-1.554C70.743,3.464,71.234,3.327,71.507,3.272z M84.391,0.491
				C87.036,0.9,88.359,1.337,88.359,1.8c0,0.272-0.068,0.669-0.205,1.187c-0.219,0.709-0.423,2.345-0.613,4.908
				c-0.437,3.381-0.655,9.681-0.655,18.897c0.055,2.317,0.313,4.689,0.777,7.116c0,0.682-0.15,1.05-0.45,1.104
				c-0.654,0-1.745-0.546-3.272-1.636c-1.254-1.009-2.468-1.718-3.641-2.127c-1.227-0.491-2.699-1.418-4.417-2.781
				c0.055-0.382,0.341-0.6,0.859-0.654c2.918,0.899,4.977,1.35,6.177,1.35c0.572,0,0.913-0.354,1.022-1.063
				c0.164-1.172,0.259-7.09,0.286-17.752c0-2.127-0.096-4.391-0.286-6.79c-0.219-1.254-0.327-1.936-0.327-2.045
				C83.641,0.832,83.9,0.491,84.391,0.491z M77.52,9.326c1.663,0,2.495,0.286,2.495,0.858c-0.137,0.409-0.232,1.01-0.286,1.8
				c-0.273,4.882-0.409,7.813-0.409,8.794c0,0.437-0.478,0.655-1.432,0.655c-0.818,0-1.254-0.109-1.309-0.327
				c-0.055-1.8-0.109-5.495-0.164-11.085C76.415,9.558,76.783,9.326,77.52,9.326z"/>
			<path fill="#FFFFFF" d="M116.631,13.621c0.218,0.109,0.327,0.313,0.327,0.613c0,0.137-0.096,0.437-0.287,0.899
				c-0.9,3.272-1.35,6.095-1.35,8.468c0,0.408-0.286,0.613-0.859,0.613c-0.846,0-1.896-0.327-3.149-0.981
				c-0.818-0.546-1.228-0.968-1.228-1.269c0-0.6,1.868-3.136,5.604-7.607C116.072,13.866,116.386,13.621,116.631,13.621z
				 M119.372,12.435c0.545,0,1.241,0.191,2.086,0.572c0.491,0.246,0.736,0.546,0.736,0.9c0,0.709-0.082,1.568-0.245,2.577
				c-0.055,1.254-0.082,2.672-0.082,4.254c0,0.6,0.231,1.254,0.695,1.963c1.036,1.418,3.381,2.127,7.035,2.127
				c2.209,0,3.872-0.245,4.99-0.736c0.655-0.3,0.982-0.804,0.982-1.514c0-0.708-0.137-1.636-0.409-2.781
				c-0.273-1.227-0.791-2.849-1.554-4.867c0-0.108,0.108-0.164,0.327-0.164c0.518,0,1.322,0.777,2.413,2.332
				c0.845,1.173,1.527,2.55,2.045,4.131c0.518,1.609,0.818,2.932,0.9,3.968c0.027,0.873,0.108,1.568,0.245,2.086
				c0.109,0.546,0.164,1.01,0.164,1.391c0,0.628-0.287,0.941-0.859,0.941c-0.518,0-1.309-0.109-2.372-0.328
				c-1.173-0.136-3.3-0.204-6.381-0.204c-4.009,0-6.845-0.886-8.508-2.658c-1.282-1.392-2.019-3.886-2.209-7.485
				c-0.109-1.99-0.314-3.927-0.613-5.809C118.758,12.667,118.962,12.435,119.372,12.435z M124.771,12.762
				c0.272,0,0.64,0.068,1.104,0.205c0.6,0.218,1.172,0.327,1.718,0.327c0.818,0,2.208-0.859,4.172-2.577
				c1.309-1.146,2.154-1.718,2.536-1.718c0.327,0,0.491,0.109,0.491,0.327c0,0.3-0.3,0.695-0.9,1.186
				c-0.654,0.818-1.623,2.195-2.904,4.132c-0.9,1.445-1.923,2.249-3.068,2.413c-0.627,0-1.446-0.354-2.454-1.063
				c-0.764-1.118-1.146-2.018-1.146-2.699C124.321,12.939,124.47,12.762,124.771,12.762z M140.314,10.635
				c0.545,0.219,1.063,0.805,1.554,1.759c0.709,0.981,1.622,1.909,2.741,2.781c1.118,1.063,1.718,2.183,1.8,3.354
				c-0.055,0.519-0.341,0.777-0.859,0.777c-1.582-0.709-3.041-1.228-4.377-1.555c-1.446-0.272-2.168-1.649-2.168-4.131
				c0-0.954,0.177-1.731,0.532-2.332C139.809,10.908,140.068,10.689,140.314,10.635z"/>
			<path fill="#FFFFFF" d="M172.513,8.999c0.108,0.055,0.164,0.163,0.164,0.327c0,0.082-0.055,0.231-0.164,0.45
				c-0.519,1.608-0.777,2.985-0.777,4.131c0,0.327-0.164,0.49-0.491,0.49c-0.628,0-1.377-0.23-2.25-0.695
				c-0.572-0.408-0.859-0.722-0.859-0.94c0-0.245,1.254-1.391,3.763-3.436C172.171,9.108,172.375,8.999,172.513,8.999z
				 M190.019,20.492c0.218,0.056,0.34,0.368,0.368,0.941c-0.055,0.6-0.341,1.091-0.859,1.472c-2.1,0.355-4.009,0.628-5.727,0.818
				c-0.055,0.354-0.096,0.777-0.123,1.269c-0.055,1.854-0.096,3.368-0.123,4.54c0.054-0.055,0.095-0.096,0.123-0.123
				c1.145-1.009,2.235-2.686,3.272-5.031c0.082-0.409,0.3-0.613,0.654-0.613c0.3,0,0.791,0.137,1.473,0.409
				c0.627,0.382,0.941,0.668,0.941,0.858c0,0.164-0.137,0.301-0.409,0.409c-0.327,0.246-0.695,0.628-1.104,1.146
				c0.382,0.219,0.845,0.505,1.391,0.859c1.063,0.572,1.595,1.145,1.595,1.718c-0.491,0.981-0.859,1.473-1.104,1.473
				c-0.628,0-1.119-0.232-1.473-0.695c-0.627-0.6-1.186-1.118-1.677-1.555c-0.545,0.736-1.2,1.309-1.963,1.718
				c-0.9,0.409-1.487,0.641-1.759,0.695v0.941c3.381-0.246,6.395-0.45,9.04-0.614c0.518-0.109,1.104-0.163,1.759-0.163
				c0.164,0.463,0.354,0.927,0.572,1.391c0.409,0.709,0.655,1.391,0.736,2.045c-0.082,0.354-0.259,0.559-0.532,0.613
				c-0.137,0-0.613-0.149-1.432-0.449c-0.9-0.327-1.732-0.491-2.495-0.491c-2.672,0-6.272,0.108-10.798,0.327
				c-3.981,0.19-6.967,0.45-8.958,0.777c-0.327,0-0.668-0.805-1.023-2.413l0.696-0.164h0.94c3.109-0.219,5.999-0.437,8.671-0.654
				v-7.977c-0.927,0.109-1.896,0.232-2.904,0.368c0.327,0.328,0.491,0.56,0.491,0.695c0,0.273-0.123,0.478-0.368,0.614
				c-0.219,0.19-0.464,0.6-0.736,1.227c0.436,0.164,0.995,0.424,1.677,0.777c1.145,0.491,1.718,0.996,1.718,1.514
				c-0.518,0.981-0.914,1.473-1.186,1.473c-0.6,0-1.091-0.232-1.473-0.695c-0.627-0.518-1.214-0.954-1.759-1.31
				c-0.409,0.628-0.846,1.213-1.309,1.759c-0.736,0.791-1.336,1.187-1.799,1.187c-0.873,0-1.309-0.109-1.309-0.327
				c0.954-1.009,1.841-2.194,2.659-3.559c0.654-1.172,1.077-2.194,1.268-3.067c-0.246,0.027-0.464,0.055-0.655,0.081
				c-0.218,0-0.396-0.368-0.532-1.104c-0.109-0.573-0.164-0.914-0.164-1.023c0-0.19,0.177-0.286,0.532-0.286
				c3.054-0.082,7.485-0.572,13.293-1.473C189.119,20.629,189.746,20.52,190.019,20.492z M171.735,15.87h0.613
				c1.582-0.381,2.754-0.6,3.518-0.654c0.599-0.082,0.913-0.122,0.94-0.122c0.246,0,0.559,0.19,0.941,0.572
				c0.054-0.272,0.177-0.409,0.368-0.409h0.654c1.609-0.409,2.809-0.641,3.6-0.695c0.627-0.108,0.954-0.164,0.981-0.164
				c0.328,0,0.722,0.205,1.187,0.614c0.054,0.055,0.082,0.096,0.082,0.122c0.027-0.381,0.136-0.572,0.327-0.572h0.695
				c1.772-0.382,3.095-0.6,3.968-0.654c0.709-0.108,1.077-0.164,1.104-0.164c0.381,0,0.859,0.205,1.432,0.614
				c0.463,0.382,0.695,0.736,0.695,1.063c0,0.081-0.109,0.218-0.327,0.408c-0.273,0.273-0.736,1.323-1.391,3.15
				c-0.137,0.49-0.273,0.764-0.409,0.817c-0.246,0-0.532-0.108-0.859-0.327c-1.664,0.219-2.604,0.409-2.822,0.573
				c-0.219,0.081-0.368,0.122-0.45,0.122c-0.354-0.026-0.791-0.831-1.309-2.413c-0.164-0.491-0.301-0.899-0.409-1.228
				c-0.219,0.355-0.559,1.351-1.022,2.986c-0.109,0.464-0.219,0.736-0.328,0.818c-0.218,0-0.45-0.109-0.695-0.327
				c-1.664,0.272-2.604,0.49-2.822,0.654c-0.218,0.082-0.368,0.122-0.45,0.122c-0.327-0.026-0.723-0.804-1.186-2.331
				c-0.137-0.491-0.246-0.899-0.328-1.227c-0.191,0.408-0.464,1.35-0.818,2.822c-0.082,0.437-0.164,0.682-0.246,0.735
				c-0.164,0-0.327-0.04-0.491-0.122c-1.609,0.272-2.522,0.478-2.74,0.613c-0.164,0.109-0.287,0.164-0.368,0.164
				c-0.382-0.027-0.846-0.818-1.391-2.373c-0.382-1.227-0.572-2.059-0.572-2.495C171.408,16.103,171.517,15.87,171.735,15.87z
				 M188.219,0.491c0.3,0.081,0.477,0.464,0.532,1.145c-0.055,0.736-0.396,1.337-1.022,1.8c-1.309,0.327-2.536,0.601-3.682,0.818
				c-0.245,0.245-0.423,0.56-0.532,0.94c-0.055,0.383-0.109,0.751-0.164,1.104c2.455-0.381,4.567-0.572,6.34-0.572
				c3.436,0,5.726,0.914,6.872,2.74c0.791,1.854,1.186,3.123,1.186,3.804c0,0.465-0.286,0.696-0.859,0.696
				c-0.164,0-0.491-0.055-0.981-0.164c-0.573-0.136-1.201-0.231-1.882-0.286c-0.627,0-1.541-0.19-2.74-0.573
				c-0.082,0.273-0.26,0.478-0.532,0.614c-0.709,0.382-1.746,0.572-3.109,0.572c-0.682,0-1.254-0.272-1.718-0.818
				c-0.3-0.463-0.45-1.131-0.45-2.004c0-0.491,0.027-1.063,0.082-1.718c0.027-0.19,0.041-0.396,0.041-0.613
				c-0.818,0.081-1.677,0.19-2.577,0.327c-0.137,1.227-0.205,2.113-0.205,2.658c0,0.519,0.014,0.969,0.041,1.35
				c0.082,0.573,0.123,1.051,0.123,1.432c-0.055,0.219-0.423,0.327-1.104,0.327c-1.091,0-1.691-0.204-1.8-0.613
				c0-0.218,0.082-0.409,0.245-0.572c0.055-0.218,0.082-0.477,0.082-0.777V8.753c-0.9,0.164-1.677,0.314-2.332,0.45
				c0,0.164-0.014,0.313-0.041,0.45c-0.082,0.927-0.123,1.65-0.123,2.168c0,0.109,0.068,0.272,0.205,0.49
				c0.108,0.137,0.164,0.287,0.164,0.45c0,0.327-0.437,0.669-1.309,1.022c-1.254,0.654-2.141,0.981-2.659,0.981
				c-0.218,0-0.327-0.067-0.327-0.204c0-0.108,0.246-0.436,0.736-0.981c0.681-0.791,1.131-1.5,1.35-2.127
				c0.109-0.354,0.218-0.954,0.328-1.8c-0.437,0.137-0.764,0.26-0.982,0.368c-0.437,0.409-0.682,0.613-0.736,0.613
				c-0.354,0-0.654-0.259-0.9-0.777c-0.164-0.409-0.245-0.749-0.245-1.022c0-0.409,0.477-0.709,1.432-0.899
				c1.936-0.464,3.749-0.845,5.44-1.146V4.745c-1.037,0.163-2.127,0.382-3.272,0.654c-0.3,0-0.559-0.518-0.777-1.555
				c-0.164-0.736-0.246-1.186-0.246-1.35c0-0.463,0.287-0.695,0.859-0.695c2.291-0.055,5.576-0.395,9.858-1.022
				C187.537,0.613,188,0.519,188.219,0.491z M173.821,19.797c0.246,0,0.9-0.163,1.963-0.49c0.082-0.027,0.149-0.164,0.205-0.409
				c0.082-0.491,0.123-1.009,0.123-1.555c0-0.518-0.109-0.777-0.327-0.777c-0.3,0-0.736,0.068-1.309,0.205
				c-0.627,0.219-0.94,0.409-0.94,0.572C173.535,18.979,173.63,19.797,173.821,19.797z M180.08,18.979
				c0.245,0,0.9-0.096,1.963-0.287c0.082-0.054,0.136-0.204,0.164-0.449c0.108-0.518,0.164-1.022,0.164-1.514
				c0-0.572-0.164-0.859-0.491-0.859c-0.3,0-0.682,0.082-1.146,0.246c-0.546,0.218-0.818,0.423-0.818,0.613
				C179.916,18.229,179.97,18.979,180.08,18.979z M187.115,18.202c0.246,0,0.9-0.068,1.963-0.205
				c0.164-0.026,0.286-0.177,0.368-0.449c0.164-0.464,0.246-0.968,0.246-1.514c0-0.518-0.15-0.777-0.45-0.777
				c-0.354,0-0.818,0.068-1.391,0.204c-0.709,0.191-1.063,0.383-1.063,0.573C186.788,17.479,186.896,18.202,187.115,18.202z
				 M188.178,7.771c-0.055,0.245-0.164,0.478-0.327,0.695c-0.164,0.955-0.246,1.623-0.246,2.005c0,0.464,0.259,0.695,0.777,0.695
				c0.3,0,0.627-0.15,0.981-0.45c0.246-0.272,0.463-0.409,0.655-0.409c0.19,0,0.436,0.123,0.736,0.368
				c0.245,0.219,0.395,0.423,0.45,0.613c0.109-0.082,0.218-0.163,0.327-0.245c1.391-0.627,2.086-1.473,2.086-2.536
				c0-0.518-1.309-0.777-3.926-0.777C189.201,7.73,188.696,7.745,188.178,7.771z"/>
			<path fill="#FFFFFF" d="M234.366,2.291c0.463,0,1.036,0.122,1.718,0.368c0.491,0.272,0.736,0.477,0.736,0.613
				s0.013,0.382,0.041,0.736c0.108,0.654,0.177,1.663,0.205,3.026c0.027,2.019,0.054,3.832,0.082,5.44
				c2.672-0.19,4.976-0.668,6.913-1.432c0.6-0.218,1.022-0.354,1.268-0.409c0.381,0.109,0.818,1.146,1.309,3.108
				c-0.055,0.246-0.341,0.409-0.859,0.491c-2.891,1.063-5.194,1.704-6.913,1.923c-0.654,0.108-1.2,0.218-1.636,0.327
				c0.027,2.591,0.041,4.526,0.041,5.808c0,0.791,0.014,1.486,0.041,2.086c0.027,0.301,0.054,0.601,0.082,0.9
				c4.117-0.518,7.826-0.968,11.125-1.35c0.654-0.219,1.391-0.327,2.209-0.327c0.245,0.682,0.545,1.35,0.899,2.004
				c0.6,1.036,0.941,1.99,1.023,2.863c-0.082,0.6-0.287,0.927-0.614,0.981c-0.219,0-0.941-0.19-2.168-0.572
				c-1.336-0.491-2.536-0.736-3.599-0.736c-3.3,0-7.731,0.286-13.293,0.858c-4.909,0.491-8.604,1.146-11.085,1.964
				c-0.464,0-0.941-1.2-1.432-3.6l0.941-0.327h1.473c3.681-0.464,7.144-0.886,10.389-1.269c0-0.081,0.013-0.136,0.041-0.163
				c0.027-0.409,0.041-0.913,0.041-1.514L232.73,4.295c0-0.382-0.123-0.763-0.368-1.146c0-0.19,0.123-0.354,0.368-0.49
				C233.03,2.413,233.575,2.291,234.366,2.291z"/>
			<path fill="#FFFFFF" d="M283.581,3.149c0.3,0,0.859,0.301,1.677,0.9c0.6,0.736,0.9,1.295,0.9,1.677
				c0,0.301-0.314,0.736-0.941,1.309c-0.573,0.601-1.104,1.405-1.595,2.413c-0.409,0.764-0.996,1.664-1.759,2.7
				c1.09-0.327,2.14-0.491,3.149-0.491c0.655,0,1.581,0.109,2.782,0.327c0.899,0.164,1.35,0.491,1.35,0.982
				c-0.027,0.108-0.082,0.341-0.164,0.695c-0.137,0.709-0.232,1.854-0.287,3.436c-0.137,3.845-0.327,6.845-0.572,8.998
				c-0.082,0.982-0.164,1.95-0.246,2.904c-0.027,0.519-0.096,0.777-0.205,0.777c-0.218,0-0.832-0.313-1.84-0.94
				c-0.792-0.437-1.568-1.146-2.332-2.127c-0.9,0.464-1.65,0.764-2.25,0.899c-0.464,0.082-1.009,0.26-1.636,0.532
				c0,0.354-0.6,0.587-1.8,0.695c-0.219,0-0.491-1.596-0.818-4.786c-0.3-3.49-0.45-6.967-0.45-10.43
				c0-0.327,0.259-0.491,0.777-0.491c0.218,0,0.695,0.123,1.431,0.368c0.272-0.136,0.545-0.286,0.818-0.45
				c0.082-0.081,0.149-0.177,0.205-0.286c1.554-4.99,2.536-7.989,2.945-8.999C283.104,3.354,283.39,3.149,283.581,3.149z
				 M279.409,24.624c0.981-0.082,2.536-0.259,4.663-0.532c0.272,0,0.422,0.56,0.45,1.677c0.246,0.082,0.409,0.123,0.491,0.123
				c0.218,0,0.354-0.463,0.409-1.391c0.19-2.454,0.286-4.881,0.286-7.28c-0.055-2.1-0.709-3.15-1.963-3.15
				c-0.464,0-1.145,0.15-2.045,0.45c-0.627,0.273-1.35,0.805-2.168,1.596c-0.109,0.954-0.178,1.772-0.205,2.454
				c1.036-0.109,2.563-0.3,4.581-0.573c0.3,0,0.45,0.601,0.45,1.8c0,0.273-0.327,0.505-0.982,0.695
				c-0.955,0.355-1.772,0.587-2.454,0.695c-0.464,0.056-0.996,0.205-1.595,0.45C279.354,22.511,279.381,23.506,279.409,24.624z
				 M296.792,1.514c0.681,0.027,1.445,0.3,2.291,0.817c0.654,0.519,0.981,0.996,0.981,1.432c0,0.109-0.096,0.219-0.286,0.328
				c-0.873,0.6-2.114,2.331-3.722,5.194c-0.464,0.791-0.914,1.527-1.35,2.209c1.227-0.164,2.521-0.396,3.886-0.695
				c2.427-0.409,4.172-0.614,5.235-0.614c2.1,0.273,3.149,0.764,3.149,1.473c0,0.164-0.273,0.505-0.818,1.022
				c-0.409,0.601-0.641,1.814-0.695,3.641c-0.137,3.108-0.464,5.972-0.982,8.59c-0.545,2.755-1.104,4.663-1.677,5.727
				c-0.627,1.063-1.132,1.908-1.514,2.536c-0.137,0.599-0.437,0.899-0.9,0.899c-0.736-0.354-1.568-0.587-2.495-0.695
				c-0.764-0.327-1.868-1.063-3.313-2.209c-1.582-0.981-2.85-2.304-3.804-3.968c0-0.218,0.164-0.327,0.491-0.327
				c2.508,1.718,4.403,2.577,5.686,2.577c1.5-0.082,2.631-1.063,3.395-2.945c1.008-3.408,1.513-6.462,1.513-9.162
				c0-3.163-0.75-4.744-2.25-4.744c-1.473,0-3.709,0.49-6.708,1.472c-0.082,0-0.137-0.013-0.164-0.04
				c-0.655,0.764-1.282,1.404-1.882,1.922c-0.845,0.628-1.364,0.94-1.554,0.94c-0.219,0-0.327-0.108-0.327-0.327
				c1.2-2.672,2.522-5.167,3.967-7.485c0.791-1.554,1.704-3.694,2.741-6.421C295.988,1.896,296.356,1.514,296.792,1.514z
				 M292.416,16.893c0.463,0.056,0.9,0.205,1.309,0.45c0.709,0.354,1.636,0.682,2.781,0.981c0.763,0.164,1.146,0.601,1.146,1.31
				c-0.027,0.437-0.055,0.954-0.082,1.554c0,0.683-0.109,1.31-0.327,1.882c-0.218,0.464-0.464,0.695-0.736,0.695
				c-0.818,0-1.472-0.477-1.963-1.432c-0.955-2.235-1.691-3.612-2.208-4.131c-0.409-0.327-0.614-0.614-0.614-0.859
				C291.72,17.125,291.952,16.975,292.416,16.893z"/>
			<path fill="#FFFFFF" d="M331.773,13.621c0.354,0,0.695,0.204,1.022,0.613c0.354,0.354,0.818,0.668,1.391,0.94
				c0.381,0.191,0.573,0.532,0.573,1.022c0,0.246-0.164,0.491-0.491,0.736c-0.845,0.683-1.595,1.609-2.25,2.781
				c-0.573,1.282-0.859,2.4-0.859,3.354c0,1.063,0.177,1.991,0.532,2.781c0.491,0.791,1.172,1.187,2.045,1.187
				c0.328,0,0.818-0.764,1.473-2.291c1.2-3.081,2.018-5.931,2.454-8.549c0.246,0,0.368,0.232,0.368,0.695
				c0,2.264-0.245,4.445-0.736,6.545c-0.327,2.019-0.791,3.6-1.391,4.745c-0.437,0.873-0.805,1.84-1.104,2.903
				c-0.245,1.118-0.545,1.678-0.899,1.678c-0.682,0-1.514-0.71-2.495-2.127c-1.146-1.772-1.718-4.295-1.718-7.567
				c0-1.882,0.491-4.595,1.473-8.14C331.268,14.058,331.472,13.621,331.773,13.621z M334.595,4.091
				c0.218,0.19,0.45,0.695,0.695,1.513c0.3,0.818,0.708,1.609,1.227,2.373c0.518,0.873,0.791,1.813,0.818,2.822
				c-0.055,0.572-0.368,0.858-0.94,0.858c-0.818-0.545-1.569-0.927-2.25-1.146c-0.682-0.19-1.022-1.186-1.022-2.985
				c0-1.063,0.177-1.964,0.532-2.7C333.954,4.418,334.268,4.172,334.595,4.091z M356.642,8.508c-0.572,0-1.472,0.041-2.699,0.123
				c-0.328,1.036-0.736,2.249-1.228,3.64c0.328,0,0.491,0.601,0.491,1.8c0,0.246-0.314,0.478-0.941,0.695
				c-0.491,0.137-0.955,0.246-1.391,0.328c0.054,0.081,0.082,0.137,0.082,0.163c0,0.109-0.068,0.286-0.204,0.532
				c-0.273,0.437-0.45,1.077-0.532,1.922c1.772-0.245,3.313-0.368,4.622-0.368c2.291,0,3.968,0.301,5.031,0.9
				c0.709,0.408,1.063,0.764,1.063,1.063c0,0.109-0.041,0.245-0.123,0.408c-0.191,0.465-0.314,1.241-0.368,2.332
				c-0.409,4.718-0.777,7.648-1.104,8.794c-0.246,1.091-0.437,2.018-0.573,2.781c-0.055,0.627-0.164,0.941-0.327,0.941
				c-0.218,0-0.532-0.097-0.94-0.287c-0.764-0.6-1.732-1.186-2.904-1.759c-0.736-0.354-1.691-1.104-2.863-2.249
				c0-0.219,0.123-0.327,0.368-0.327c1.745,0.354,2.945,0.531,3.6,0.531c0.19,0,0.327-0.75,0.409-2.25
				c-0.245-0.299-0.518-0.627-0.818-0.981c-0.491-0.518-1.009-1.008-1.554-1.473c-0.028,0.028-0.055,0.068-0.082,0.123
				c-0.6,0.736-1.282,1.377-2.045,1.923c-0.6,0.437-1.091,0.654-1.473,0.654h-0.532v1.146c0,0.518,0.013,0.967,0.041,1.35
				c0.082,0.572,0.123,1.063,0.123,1.473c-0.055,0.327-0.368,0.49-0.941,0.49c-1.091,0-1.691-0.219-1.799-0.654
				c0-0.245,0.041-0.464,0.123-0.654c0.027-0.219,0.041-0.491,0.041-0.818l-0.082-3.518c-0.219-0.19-0.505-0.477-0.859-0.858
				c-0.273-0.219-0.559-0.437-0.859-0.655c-0.164,0.137-0.355,0.368-0.573,0.695c-0.519,0.792-1.132,1.5-1.841,2.127
				c-0.437,0.409-0.791,0.642-1.063,0.695c0.055,0.628,0.123,1.282,0.205,1.964c0,0.245-0.45,0.409-1.35,0.491
				c-0.382,0-0.873-1.187-1.473-3.559c-0.518-2.645-0.777-5.263-0.777-7.854c0-0.464,0.259-0.695,0.777-0.695
				c0.19,0,0.627,0.109,1.309,0.327c0.108-0.055,0.218-0.108,0.327-0.164c1.527-0.572,3.518-1.076,5.972-1.513l-0.041-2.087
				c0-0.163-0.027-0.3-0.082-0.408c-0.546,0.108-1.119,0.245-1.718,0.408c-0.328,0-0.628-0.3-0.9-0.899
				c-0.164-0.491-0.246-0.954-0.246-1.391c0-0.108,0.027-0.19,0.082-0.245c-0.246-0.627-0.505-1.392-0.777-2.291
				c-0.137-0.409-0.232-0.777-0.286-1.104c-0.955,0.273-1.828,0.573-2.618,0.9c-0.3,0-0.695-0.327-1.186-0.982
				c-0.518-0.927-0.777-1.485-0.777-1.677c0-0.3,0.259-0.504,0.777-0.613c0.982-0.027,2.1-0.149,3.354-0.368
				c-0.164-1.2-0.245-2.399-0.245-3.6c0-0.436,0.34-0.654,1.022-0.654c0.245,0,0.804,0.15,1.677,0.45
				c0.655,0.3,1.009,0.6,1.063,0.899c-0.191,1.009-0.313,1.813-0.368,2.413c1.745-0.245,3.667-0.504,5.768-0.777
				c0.3-1.854,0.586-3.599,0.859-5.235C352.429,0.342,352.742,0,353.206,0c1.99,0.791,2.986,1.445,2.986,1.964
				c0,0.108-0.082,0.259-0.246,0.449c-0.245,0.437-0.654,1.609-1.227,3.518c0.6-0.108,1.118-0.218,1.554-0.327
				c0.791-0.245,1.404-0.368,1.841-0.368c0.409,0,0.913,1.051,1.514,3.149c-0.055,0.191-0.341,0.287-0.859,0.287L356.642,8.508z
				 M343.389,24.46c-0.437-0.245-0.859-0.477-1.268-0.695c-0.191-0.055-0.341-0.108-0.45-0.163
				c-0.028,0.437-0.041,0.791-0.041,1.063c0,0.791,0.041,1.718,0.123,2.781c0.218-0.246,0.422-0.518,0.614-0.818
				C342.939,25.783,343.28,25.061,343.389,24.46z M341.753,22.742c0.409-0.136,0.968-0.231,1.677-0.286
				c0.436,0.082,1.063,0.3,1.881,0.654c0.791,0.437,1.363,0.818,1.718,1.146l-0.082-4.254c-2.045,0.546-3.75,1.213-5.113,2.004
				C341.808,22.307,341.78,22.552,341.753,22.742z M346.048,13.294c1.063-0.137,2.604-0.368,4.622-0.695
				c0.136-1.282,0.272-2.522,0.409-3.723c-0.792,0.082-1.636,0.164-2.536,0.245c-1.037,0.137-2.004,0.314-2.904,0.532
				C345.693,10.717,345.829,11.931,346.048,13.294z M352.061,24.378c-0.709-0.545-1.446-1.063-2.208-1.554
				c-0.082,1.854-0.15,3.395-0.205,4.622c0.545-0.464,1.022-0.954,1.432-1.473C351.515,25.347,351.842,24.814,352.061,24.378z
				 M349.934,21.475c0.327-0.082,0.709-0.15,1.146-0.205c0.708,0.273,1.677,0.791,2.904,1.555c1.009,0.791,1.8,1.513,2.373,2.168
				c0.082-1.609,0.123-3.013,0.123-4.214c-0.055-1.09-1.145-1.636-3.272-1.636c-0.873,0-1.922,0.082-3.15,0.245
				C350.001,20.124,349.96,20.819,349.934,21.475z"/>
			<path fill="#FFFFFF" d="M391.786,5.931l1.187,0.164c4.499-1.2,7.867-1.882,10.103-2.045c1.69-0.3,2.563-0.45,2.618-0.45
				c0.763,0,1.649,0.368,2.659,1.104c0.845,0.654,1.268,1.282,1.268,1.881c0,0.164-0.205,0.424-0.614,0.777
				c-0.518,0.546-1.418,2.51-2.7,5.891c-0.327,0.873-0.627,1.377-0.9,1.513c-0.491,0-1.05-0.177-1.677-0.531
				c-0.573,0.082-1.119,0.163-1.636,0.245v0.082c-0.055,0.491-0.096,1.159-0.123,2.004c-0.028,0.818-0.041,1.596-0.041,2.332
				c1.473-0.164,3.327-0.532,5.563-1.104c0.518-0.164,0.859-0.259,1.022-0.286c0.272,0.081,0.422,0.531,0.45,1.35
				c-0.027,0.709-0.354,1.309-0.981,1.8c-1.364,0.6-2.604,0.995-3.722,1.186c-0.736,0.138-1.541,0.368-2.414,0.696
				c-0.027,1.881-0.041,3.095-0.041,3.64c0,0.164-0.041,0.286-0.123,0.368c0.354,0.164,0.682,0.342,0.982,0.532
				c3.872,2.018,7.076,3.422,9.612,4.213c4.254,0.845,6.381,1.595,6.381,2.25c0,0.327-0.614,0.558-1.841,0.695
				c-3,0.518-5.508,0.776-7.526,0.776c-1.145,0-2.072-0.641-2.781-1.922c-1.282-1.664-3.586-3.327-6.913-4.99
				c-3.708-1.936-6.231-3.027-7.567-3.272c-0.137,0.327-0.287,0.628-0.45,0.9c-0.491,0.899-0.845,2.072-1.063,3.518
				c-0.218,1.335-0.914,2.208-2.086,2.617c-2.1,1.009-3.981,1.514-5.645,1.514c-0.982,0-1.473-0.109-1.473-0.327
				c0-0.273,0.422-0.71,1.268-1.309c3.19-2.373,5.358-4.567,6.503-6.586c1.118-2.153,1.854-4.567,2.209-7.239
				c0.054-0.682,0.218-1.023,0.491-1.023c1.772,0,2.659,0.26,2.659,0.777c0,0.519-0.191,1.323-0.573,2.413
				c-0.164,0.628-0.354,1.228-0.572,1.8c0.245,0.164,0.681,0.465,1.309,0.9c0.655,0.437,1.977,1.159,3.968,2.168
				c-0.082-2.127-0.15-5.372-0.205-9.735c-0.927,0.191-1.513,0.354-1.759,0.491c-0.464,0.219-0.818,0.327-1.063,0.327
				c-0.818-0.055-1.814-1.514-2.986-4.377c-0.927-2.345-1.391-3.939-1.391-4.785C391.172,6.245,391.377,5.931,391.786,5.931z
				 M396.571,12.762c0.709,0,2.604-0.313,5.686-0.94c0.327-0.082,0.6-0.396,0.818-0.941c0.354-1.035,0.532-2.086,0.532-3.149
				c0-0.981-0.287-1.473-0.859-1.473c-1.009,0-2.4,0.219-4.172,0.655c-2.236,0.654-3.354,1.241-3.354,1.759
				C395.33,11.398,395.78,12.762,396.571,12.762z"/>
		</g>
	</g>
</g>
<g id="Layer_2">
</g>
<g id="Layer_3">
</g>
</svg>
